<svg xmlns="http://www.w3.org/2000/svg" width="905.591" height="66.707" viewBox="0 0 905.591 66.707"><defs><style>.a{fill:#eaeaed;}.b{fill:#dfdfe3;}.c{fill:#f196f4;}.d{fill:#d6d6d6;}</style></defs><g transform="translate(-105.712 11.114)"><g transform="translate(335.286 9.641)"><path class="a" d="M378.671,20.965l-3.841-6.689A8.625,8.625,0,0,0,367.268,9.8H339.693a4.172,4.172,0,0,0-4.171,4.172v1.792h24.11V25.891h-24.11v8.1a3.122,3.122,0,0,0,3.122,3.122l3.848.089a4.26,4.26,0,0,1,8.519,0h17.46a4.26,4.26,0,0,1,8.519,0l4.662.135a3.122,3.122,0,0,0,3.122-3.122V28.951Zm-8.357,2.581c-2.672,0-4.994-.425-5.607-3.026V15.635a.317.317,0,0,1,.318-.318h3.241a6.438,6.438,0,0,1,5.642,3.338l1.875,4.891Z" transform="translate(-335.522 -9.801)"/></g><g transform="translate(333.708 8.573)"><g transform="translate(0.386)"><g transform="translate(32.949 23.14)"><path d="M376.528,44.173a4.5,4.5,0,1,1,4.5-4.5A4.505,4.505,0,0,1,376.528,44.173Zm0-8.519a4.019,4.019,0,1,0,4.019,4.019A4.024,4.024,0,0,0,376.528,35.654Z" transform="translate(-372.028 -35.173)"/></g><g transform="translate(6.97 23.14)"><path d="M346.664,44.173a4.5,4.5,0,1,1,4.5-4.5A4.506,4.506,0,0,1,346.664,44.173Zm0-8.519a4.019,4.019,0,1,0,4.019,4.019A4.023,4.023,0,0,0,346.664,35.654Z" transform="translate(-342.164 -35.173)"/></g><g transform="translate(35.554 25.656)"><path d="M376.918,41.855a1.895,1.895,0,1,1,1.895-1.895A1.9,1.9,0,0,1,376.918,41.855Zm0-3.308a1.414,1.414,0,1,0,1.414,1.414A1.416,1.416,0,0,0,376.918,38.547Z" transform="translate(-375.023 -38.066)"/></g><g transform="translate(9.575 25.656)"><path d="M347.054,41.855a1.895,1.895,0,1,1,1.895-1.895A1.9,1.9,0,0,1,347.054,41.855Zm0-3.308a1.414,1.414,0,1,0,1.414,1.414A1.415,1.415,0,0,0,347.054,38.547Z" transform="translate(-345.159 -38.066)"/></g><path d="M339.411,36.365h-1.9A3.366,3.366,0,0,1,334.152,33V12.985a4.417,4.417,0,0,1,4.412-4.412h22.282v.481H338.564a3.936,3.936,0,0,0-3.932,3.931V33a2.885,2.885,0,0,0,2.882,2.882h1.9Z" transform="translate(-334.152 -8.573)"/><g transform="translate(24.885)"><path d="M381.054,20.1l-3.841-6.69a8.386,8.386,0,0,0-7.353-4.353h-7.1V8.573h7.1a8.864,8.864,0,0,1,7.773,4.6l3.839,6.685Z" transform="translate(-362.758 -8.573)"/></g><g transform="translate(27.681 15.234)"><rect width="4.938" height="0.481"/></g><g transform="translate(18.22 27.534)"><rect width="12.877" height="0.481"/></g><g transform="translate(45.697 18.871)"><path d="M390.477,34.394h-3.795V30.267h.481v3.646h3.314Z" transform="translate(-386.683 -30.267)"/></g><g transform="translate(27.787 2.934)"><path d="M384.677,37.026H382.36v-.481h2.317a2.885,2.885,0,0,0,2.881-2.881v-5.18l-5.98-7.827h-9.636c-2.641,0-5.177-.39-5.842-3.213l-.006-.055V12.5a.558.558,0,0,1,.558-.558h3.241a6.679,6.679,0,0,1,5.854,3.463l-.422.231a6.2,6.2,0,0,0-5.432-3.213h-3.241a.077.077,0,0,0-.077.077V17.36c.565,2.336,2.555,2.815,5.368,2.815h9.874l6.223,8.145v5.344A3.366,3.366,0,0,1,384.677,37.026Z" transform="translate(-366.094 -11.946)"/></g><g transform="translate(25.012 3.175)"><rect width="0.481" height="24.6"/></g><g transform="translate(0.24 11.163)"><rect width="19.399" height="0.481"/></g><g transform="translate(1.04 15.234)"><path d="M346.249,26.566h-.642v-.481h.642Zm-1.283,0h-.641v-.481h.641Zm-1.282,0h-.641v-.481h.641Zm-1.282,0h-.641v-.481h.641Zm-1.283,0h-.641v-.481h.641Zm-1.282,0h-.641v-.481h.641Zm-1.282,0h-.641v-.481h.641Zm-1.282,0h-.642v-.481h.642Zm-1.283,0h-.641v-.481h.641Z" transform="translate(-335.347 -26.085)"/></g></g><g transform="translate(0 31.659)"><g transform="translate(48.197)"><rect width="2.308" height="0.481"/></g><rect width="45.414" height="0.481"/></g></g></g><g transform="translate(-455.801 7.704)"><rect class="b" width="24.734" height="8.258" transform="translate(458.402 16.973)"/><path class="a" d="M487.568,18.584h3.861v9.923l13.834-.293,15.114,1.2a2.173,2.173,0,0,1,1.981,2.456l-.867,6.424H487.568Z"/><circle class="b" cx="5.067" cy="5.067" r="5.067" transform="translate(466.726 33.733) rotate(-13.283)"/><circle class="b" cx="5.067" cy="5.067" r="5.067" transform="translate(506.779 32.486)"/><path d="M471.555,41.7a5.227,5.227,0,1,1,5.228-5.227A5.233,5.233,0,0,1,471.555,41.7Zm0-9.9a4.674,4.674,0,1,0,4.675,4.675A4.68,4.68,0,0,0,471.555,31.8Z"/><path d="M471.555,38.569a2.2,2.2,0,1,1,2.2-2.2A2.2,2.2,0,0,1,471.555,38.569Zm0-3.846A1.646,1.646,0,1,0,473.2,36.37,1.648,1.648,0,0,0,471.555,34.723Z"/><path d="M510.5,41.7a5.227,5.227,0,1,1,5.228-5.227A5.233,5.233,0,0,1,510.5,41.7Zm0-9.9a4.674,4.674,0,1,0,4.675,4.675A4.68,4.68,0,0,0,510.5,31.8Z"/><path d="M510.5,38.569a2.2,2.2,0,1,1,2.2-2.2A2.2,2.2,0,0,1,510.5,38.569Zm0-3.846a1.646,1.646,0,1,0,1.647,1.647A1.649,1.649,0,0,0,510.5,34.723Z"/><path d="M486.852,37.439h-7.693v-.553h7.14V11.755a1.724,1.724,0,0,0-1.723-1.722H460.4a1.724,1.724,0,0,0-1.723,1.722V35.644l5.476.608-.061.55-5.968-.663V11.755A2.278,2.278,0,0,1,460.4,9.48h24.175a2.278,2.278,0,0,1,2.276,2.275Z"/><rect width="15.886" height="0.553" transform="translate(486.575 36.886)"/><path d="M522.054,36.646h-3l.561-6.263a2.393,2.393,0,0,0-2.169-2.6L504.189,26.6l-3.65-7.353a2.852,2.852,0,0,0-2.57-1.593H486.575V17.1h11.394a3.4,3.4,0,0,1,3.065,1.9l3.512,7.075,12.947,1.156a2.945,2.945,0,0,1,2.671,3.2l-.508,5.66h2.4Z"/><path d="M504.367,26.619H489.9v-6.3h.553v5.746h13.915Z"/><rect width="3.601" height="0.553" transform="translate(490.176 29.575)"/><path d="M462.441,28.81h-.553V14.284a1.1,1.1,0,0,1,1.1-1.1H466.6v.553h-3.619a.545.545,0,0,0-.544.545Z"/><path d="M473.239,13.739H472.5v-.553h.738Zm-1.475,0h-.737v-.553h.737Zm-1.474,0h-.737v-.553h.737Zm-1.474,0h-.737v-.553h.737Zm-1.475,0H466.6v-.553h.737Z"/><rect width="68.853" height="0.553" transform="translate(455.801 41.147)"/><path d="M515.521,46.625h-.737v-.553h.737Zm-1.474,0h-.737v-.553h.737Zm-1.474,0h-.737v-.553h.737Zm-1.475,0h-.737v-.553h.737Zm-1.474,0h-.737v-.553h.737Zm-1.474,0h-.737v-.553h.737Zm-1.474,0h-.738v-.553h.738Zm-1.475,0h-.737v-.553h.737Zm-1.474,0h-.737v-.553h.737Zm-1.474,0h-.737v-.553h.737Zm-1.475,0h-.737v-.553h.737Zm-1.474,0h-.737v-.553h.737Zm-1.474,0h-.737v-.553h.737Zm-1.474,0h-.738v-.553h.738Zm-1.475,0h-.737v-.553h.737Zm-1.474,0h-.737v-.553h.737Zm-1.474,0H491.2v-.553h.737Zm-1.475,0h-.737v-.553h.737Zm-1.474,0h-.737v-.553h.737Zm-1.474,0h-.737v-.553h.737Zm-1.474,0H485.3v-.553h.738Zm-1.475,0h-.737v-.553h.737Zm-1.474,0h-.737v-.553h.737Zm-1.474,0h-.737v-.553h.737Zm-1.475,0H479.4v-.553h.737Zm-1.474,0h-.737v-.553h.737Zm-1.474,0h-.737v-.553h.737Zm-1.474,0h-.738v-.553h.738Zm-1.475,0H473.5v-.553h.737Zm-1.474,0h-.737v-.553h.737Zm-1.474,0h-.737v-.553h.737Zm-1.475,0h-.737v-.553h.737Zm-1.474,0h-.737v-.553h.737Zm-1.474,0h-.737v-.553h.737Zm-1.474,0h-.738v-.553h.738Z"/></g><g transform="translate(409.427 15.287)"><rect class="c" width="2.924" height="0.903" transform="translate(258.461 20.47)"/><rect class="c" width="0.903" height="2.869" transform="translate(256.603 22.584)"/><rect class="c" width="2.765" height="0.903" transform="translate(252.5 20.47)"/><rect class="c" width="0.903" height="3.033" transform="translate(256.603 16.313)"/><path class="d" d="M307.376,20.33a7.084,7.084,0,0,1,5.949-7.128l.121.9a6.179,6.179,0,0,0-5.167,6.233,6.2,6.2,0,0,0,5.094,6.222l-.133.893A7.105,7.105,0,0,1,307.376,20.33Z"/><path class="d" d="M275.355,27.11a6.18,6.18,0,0,0,5.167-6.233,6.2,6.2,0,0,0-5.094-6.222l.133-.893a7.106,7.106,0,0,1,5.864,7.115A7.085,7.085,0,0,1,275.476,28Z"/><path class="d" d="M264.9,26.384v-2.2h7.668c.862-.7,2.73-2.455,2.73-3.605s-1.868-2.9-2.73-3.6H264.9V14.861l.056-.1c1.766-3.188,5.65-5.248,9.895-5.248a10.933,10.933,0,0,1,10.735,11.1,10.933,10.933,0,0,1-10.735,11.1c-4.4,0-8.189-2-9.9-5.225Zm.9-1.3v1.068c1.578,2.87,5.033,4.647,9.048,4.647a10.03,10.03,0,0,0,9.832-10.2,10.03,10.03,0,0,0-9.832-10.195c-3.876,0-7.413,1.834-9.048,4.682v.977h7.078l.123.1c.327.255,3.2,2.551,3.2,4.411s-2.87,4.156-3.2,4.412l-.123.1Z"/><path class="d" d="M283.743,25.024v-.9H305.1l.113.283a9.557,9.557,0,0,0,8.989,6.121c3.877,0,7.413-1.834,9.048-4.682v-.977h-7.078l-.123-.095c-.327-.256-3.2-2.552-3.2-4.412s2.87-4.156,3.2-4.412l.123-.1h7.078V14.782c-1.578-2.869-5.033-4.647-9.048-4.647a9.974,9.974,0,0,0-8.995,6.053l-.119.268H283.743v-.9H304.5a10.858,10.858,0,0,1,9.7-6.321c4.4,0,8.189,2,9.9,5.225l.052.1v2.2h-7.668c-.862.7-2.73,2.454-2.73,3.6,0,1.035,1.625,2.714,2.73,3.6h7.668v2.115l-.056.1c-1.766,3.188-5.65,5.248-9.895,5.248a10.43,10.43,0,0,1-9.708-6.4Z"/><path class="d" d="M288.638,20.649v-.9h1.2v.9Zm2.409,0v-.9h1.2v.9Zm2.408,0v-.9h1.205v.9Zm2.409,0v-.9h1.2v.9Zm2.408,0v-.9h1.2v.9Zm2.409,0v-.9h.251v.9Z"/></g><g transform="matrix(0.588, -0.809, 0.809, 0.588, -682.336, 288.265)"><g transform="translate(-110.185 804.098)"><path class="d" d="M791.955-277.139a10.088,10.088,0,0,1,.357-14.246,9.977,9.977,0,0,1,7.2-2.772,10.007,10.007,0,0,1,7.049,3.129,10.113,10.113,0,0,1,2.759,7.508l-.9-.05a9.09,9.09,0,0,0-2.513-6.836,9.111,9.111,0,0,0-6.417-2.848,9.1,9.1,0,0,0-6.552,2.523,9.184,9.184,0,0,0-.324,12.969Z"/><path class="d" d="M812.177-246.471l-4.417-4.754,2.146-3.267-2.4-2.8-.107-3.251,1.05-1.556-1.283-1.541-.406-5.549a10.478,10.478,0,0,1-7.8-9.414,10.607,10.607,0,0,1,.121-2.55l.891.153a9.661,9.661,0,0,0-.111,2.331,9.581,9.581,0,0,0,7.432,8.68l.324.075.434,5.919,1.531,1.84-1.266,1.875.088,2.642,2.63,3.073-2.13,3.242,3.157,3.4,1.962-2.928-1.282-19.123.9-.06,1.3,19.43Z"/><path class="d" d="M794.436-279.452a6.842,6.842,0,0,1,.242-9.662,6.769,6.769,0,0,1,4.881-1.881,6.791,6.791,0,0,1,4.78,2.122,6.79,6.79,0,0,1,1.8,3.647l-.892.14a5.9,5.9,0,0,0-1.562-3.164,5.893,5.893,0,0,0-4.149-1.842,5.888,5.888,0,0,0-4.236,1.632,5.938,5.938,0,0,0-.21,8.385Z"/><rect class="c" width="0.903" height="6.736" transform="translate(817.292 -274.328) rotate(-35.926)"/><path class="c" d="M805.469-293.869l-.429-.8a11.992,11.992,0,0,1,5.361-1.43l.024.9A11.1,11.1,0,0,0,805.469-293.869Z"/><path class="c" d="M819.707-290.612a11.342,11.342,0,0,0-.726-.9l.673-.6a12.132,12.132,0,0,1,.784.974Zm-1.542-1.722a11.026,11.026,0,0,0-.9-.73l.533-.73a12.253,12.253,0,0,1,.971.79ZM816.3-293.7a10.945,10.945,0,0,0-1.029-.527l.369-.825a12.022,12.022,0,0,1,1.113.571Zm-2.108-.944a10.954,10.954,0,0,0-1.117-.3l.191-.883a12.139,12.139,0,0,1,1.207.327Zm-2.259-.489a11.12,11.12,0,0,0-1.155-.066l.005-.9a12.111,12.111,0,0,1,1.249.071Z"/><path class="c" d="M808.842-282.715a4,4,0,0,1-3.247-1.653,4,4,0,0,1-.754-2.542l.9.046a3.056,3.056,0,0,0,.583,1.966,3.1,3.1,0,0,0,4.33.692,3.105,3.105,0,0,0,.692-4.331,3.075,3.075,0,0,0-2.484-1.277l.009-.9a4.017,4.017,0,0,1,3.206,1.651,4.007,4.007,0,0,1-.893,5.591A3.981,3.981,0,0,1,808.842-282.715Z"/><path class="c" d="M835.381-250.907l-7.085-1.948.818-4.988-4.918-.764L825-263.52l-4.672-.746-6.071-8.379a11.929,11.929,0,0,1-13.24-4.427A11.973,11.973,0,0,1,799.5-288.3l.846.315A11.076,11.076,0,0,0,801.75-277.6a11.033,11.033,0,0,0,12.537,4l.316-.106,6.239,8.611,5.2.83-.806,4.909,4.918.765-.834,5.085,5.2,1.429.149-4.135-15.23-21.02.2-.266a11.043,11.043,0,0,0,.071-13.11l.731-.53a11.938,11.938,0,0,1,.118,13.908l15.027,20.74Z"/><path class="d" d="M796.849-274.3a10.024,10.024,0,0,1-1.2-.376l.322-.843a9.261,9.261,0,0,0,1.1.342Zm-2.348-.9a9.821,9.821,0,0,1-1.072-.664l.523-.736a9.271,9.271,0,0,0,.975.6Zm-2.051-1.456c-.169-.155-.335-.318-.494-.486l.653-.623c.146.153.3.3.452.444Z"/></g></g><g transform="translate(448.261 333.971)"><path class="d" d="M446.713-298.214,440-304.344l1.952-8.877,8.665-2.748,6.712,6.129-1.952,8.878Zm-5.718-6.445,5.942,5.426,7.671-2.433,1.728-7.859-5.942-5.426-7.67,2.433Z"/><path class="d" d="M448.666-302.658a4.455,4.455,0,0,1-.953-.1,4.438,4.438,0,0,1-3.377-5.282,4.407,4.407,0,0,1,1.941-2.783,4.4,4.4,0,0,1,3.341-.6,4.408,4.408,0,0,1,2.783,1.942,4.4,4.4,0,0,1,.594,3.34A4.44,4.44,0,0,1,448.666-302.658Zm-.759-.986a3.535,3.535,0,0,0,4.206-2.69,3.5,3.5,0,0,0-.473-2.66,3.511,3.511,0,0,0-2.216-1.546,3.509,3.509,0,0,0-2.66.474,3.507,3.507,0,0,0-1.546,2.216,3.534,3.534,0,0,0,2.689,4.206Z"/></g><g transform="translate(-244.975 267.018)"><path class="d" d="M1067.651-231.333a9.976,9.976,0,0,1-4.591-1.112l.412-.8a9.085,9.085,0,0,0,4.179,1.013,9.191,9.191,0,0,0,9.181-9.181,9.146,9.146,0,0,0-7.037-8.918l-.515-.123.2-.49a9.2,9.2,0,0,0,.712-3.563h.9a10.108,10.108,0,0,1-.6,3.43,10.043,10.043,0,0,1,7.231,9.664A10.1,10.1,0,0,1,1067.651-231.333Z"/><rect class="d" width="0.903" height="17.11" transform="translate(1061.004 -249.338)"/><path class="d" d="M1061.907-229.838h-.9v-2.045l-6.669-6.2.615-.662,6.957,6.465Z"/><path class="d" d="M1063.725-244.113l-.686-.587.782-.915.687.587Zm1.565-1.831-.686-.587.782-.915.686.587Zm1.565-1.831-.687-.587.783-.915.686.586Z"/><rect class="d" width="3.019" height="0.903" transform="matrix(0.641, -0.768, 0.768, 0.641, 1061.101, -242.378)"/><rect class="d" width="0.903" height="12.636" transform="translate(1084.267 -231.012)"/><path class="d" d="M1084.719-224.666a6.78,6.78,0,0,1-6.773-6.773c0-1.669,1.294-5.114,3.845-10.237a3.251,3.251,0,0,1,2.928-1.811,3.251,3.251,0,0,1,2.927,1.811c2.552,5.124,3.845,8.568,3.845,10.237A6.78,6.78,0,0,1,1084.719-224.666Zm0-17.918a2.322,2.322,0,0,0-2.119,1.311c-2.419,4.856-3.75,8.348-3.75,9.834a5.875,5.875,0,0,0,5.869,5.87,5.876,5.876,0,0,0,5.869-5.87c0-1.485-1.332-4.978-3.75-9.834A2.324,2.324,0,0,0,1084.719-242.584Z"/><path class="d" d="M1076.954-215.191v-.9a1.81,1.81,0,0,0,1.808-1.808,1.789,1.789,0,0,0-.909-1.558l-.253-.146.03-.291a3.371,3.371,0,0,0,.018-.347,3.367,3.367,0,0,0-3.363-3.363,3.373,3.373,0,0,0-3.349,3.108l-.028.376-.376.039a1.994,1.994,0,0,0-1.792,1.989,2,2,0,0,0,2,2v.9a2.907,2.907,0,0,1-2.9-2.9,2.893,2.893,0,0,1,2.24-2.827,4.283,4.283,0,0,1,4.208-3.588,4.271,4.271,0,0,1,4.266,4.266c0,.053,0,.107,0,.161a2.712,2.712,0,0,1,1.117,2.181A2.714,2.714,0,0,1,1076.954-215.191Z"/><path class="d" d="M1091.816-215.643h-.9a3.338,3.338,0,0,0-3.069-3.547,2.912,2.912,0,0,0-2.32,1.23l-.205.273-.319-.122a1.681,1.681,0,0,0-.608-.115,2.139,2.139,0,0,0-1.955,2.281h-.9a3.038,3.038,0,0,1,2.858-3.185,2.545,2.545,0,0,1,.612.075,3.766,3.766,0,0,1,2.84-1.341A4.237,4.237,0,0,1,1091.816-215.643Z"/><path class="d" d="M1071.049-215.191h-6.669l-.707-17.253.9-.037.672,16.386h5.8Z"/><path class="d" d="M1051.565-246.188a6.848,6.848,0,0,1-4.107-3.84c-1.343-3.407.462-7.284.54-7.447l.816.386c-.017.037-1.715,3.695-.514,6.734a5.982,5.982,0,0,0,3.6,3.327Z"/><path class="d" d="M1045.138-236.924c-2.954-7.551,3.614-11.468,3.681-11.507l.453.782-.226-.391.227.39a8.254,8.254,0,0,0-3.294,10.4Z"/></g><g transform="translate(-770.448 267.018)"><path class="d" d="M1067.651-231.333a9.976,9.976,0,0,1-4.591-1.112l.412-.8a9.085,9.085,0,0,0,4.179,1.013,9.191,9.191,0,0,0,9.181-9.181,9.146,9.146,0,0,0-7.037-8.918l-.515-.123.2-.49a9.2,9.2,0,0,0,.712-3.563h.9a10.108,10.108,0,0,1-.6,3.43,10.043,10.043,0,0,1,7.231,9.664A10.1,10.1,0,0,1,1067.651-231.333Z"/><rect class="d" width="0.903" height="17.11" transform="translate(1061.004 -249.338)"/><path class="d" d="M1061.907-229.838h-.9v-2.045l-6.669-6.2.615-.662,6.957,6.465Z"/><path class="d" d="M1063.725-244.113l-.686-.587.782-.915.687.587Zm1.565-1.831-.686-.587.782-.915.686.587Zm1.565-1.831-.687-.587.783-.915.686.586Z"/><rect class="d" width="3.019" height="0.903" transform="matrix(0.641, -0.768, 0.768, 0.641, 1061.101, -242.378)"/><rect class="d" width="0.903" height="12.636" transform="translate(1084.267 -231.012)"/><path class="d" d="M1084.719-224.666a6.78,6.78,0,0,1-6.773-6.773c0-1.669,1.294-5.114,3.845-10.237a3.251,3.251,0,0,1,2.928-1.811,3.251,3.251,0,0,1,2.927,1.811c2.552,5.124,3.845,8.568,3.845,10.237A6.78,6.78,0,0,1,1084.719-224.666Zm0-17.918a2.322,2.322,0,0,0-2.119,1.311c-2.419,4.856-3.75,8.348-3.75,9.834a5.875,5.875,0,0,0,5.869,5.87,5.876,5.876,0,0,0,5.869-5.87c0-1.485-1.332-4.978-3.75-9.834A2.324,2.324,0,0,0,1084.719-242.584Z"/><path class="d" d="M1076.954-215.191v-.9a1.81,1.81,0,0,0,1.808-1.808,1.789,1.789,0,0,0-.909-1.558l-.253-.146.03-.291a3.371,3.371,0,0,0,.018-.347,3.367,3.367,0,0,0-3.363-3.363,3.373,3.373,0,0,0-3.349,3.108l-.028.376-.376.039a1.994,1.994,0,0,0-1.792,1.989,2,2,0,0,0,2,2v.9a2.907,2.907,0,0,1-2.9-2.9,2.893,2.893,0,0,1,2.24-2.827,4.283,4.283,0,0,1,4.208-3.588,4.271,4.271,0,0,1,4.266,4.266c0,.053,0,.107,0,.161a2.712,2.712,0,0,1,1.117,2.181A2.714,2.714,0,0,1,1076.954-215.191Z"/><path class="d" d="M1091.816-215.643h-.9a3.338,3.338,0,0,0-3.069-3.547,2.912,2.912,0,0,0-2.32,1.23l-.205.273-.319-.122a1.681,1.681,0,0,0-.608-.115,2.139,2.139,0,0,0-1.955,2.281h-.9a3.038,3.038,0,0,1,2.858-3.185,2.545,2.545,0,0,1,.612.075,3.766,3.766,0,0,1,2.84-1.341A4.237,4.237,0,0,1,1091.816-215.643Z"/><path class="d" d="M1071.049-215.191h-6.669l-.707-17.253.9-.037.672,16.386h5.8Z"/><path class="d" d="M1051.565-246.188a6.848,6.848,0,0,1-4.107-3.84c-1.343-3.407.462-7.284.54-7.447l.816.386c-.017.037-1.715,3.695-.514,6.734a5.982,5.982,0,0,0,3.6,3.327Z"/><path class="d" d="M1045.138-236.924c-2.954-7.551,3.614-11.468,3.681-11.507l.453.782-.226-.391.227.39a8.254,8.254,0,0,0-3.294,10.4Z"/></g><g transform="translate(-990.169 267.018)"><path class="d" d="M1067.651-231.333a9.976,9.976,0,0,1-4.591-1.112l.412-.8a9.085,9.085,0,0,0,4.179,1.013,9.191,9.191,0,0,0,9.181-9.181,9.146,9.146,0,0,0-7.037-8.918l-.515-.123.2-.49a9.2,9.2,0,0,0,.712-3.563h.9a10.108,10.108,0,0,1-.6,3.43,10.043,10.043,0,0,1,7.231,9.664A10.1,10.1,0,0,1,1067.651-231.333Z"/><rect class="d" width="0.903" height="17.11" transform="translate(1061.004 -249.338)"/><path class="d" d="M1061.907-229.838h-.9v-2.045l-6.669-6.2.615-.662,6.957,6.465Z"/><path class="d" d="M1063.725-244.113l-.686-.587.782-.915.687.587Zm1.565-1.831-.686-.587.782-.915.686.587Zm1.565-1.831-.687-.587.783-.915.686.586Z"/><rect class="d" width="3.019" height="0.903" transform="matrix(0.641, -0.768, 0.768, 0.641, 1061.101, -242.378)"/><rect class="d" width="0.903" height="12.636" transform="translate(1084.267 -231.012)"/><path class="d" d="M1084.719-224.666a6.78,6.78,0,0,1-6.773-6.773c0-1.669,1.294-5.114,3.845-10.237a3.251,3.251,0,0,1,2.928-1.811,3.251,3.251,0,0,1,2.927,1.811c2.552,5.124,3.845,8.568,3.845,10.237A6.78,6.78,0,0,1,1084.719-224.666Zm0-17.918a2.322,2.322,0,0,0-2.119,1.311c-2.419,4.856-3.75,8.348-3.75,9.834a5.875,5.875,0,0,0,5.869,5.87,5.876,5.876,0,0,0,5.869-5.87c0-1.485-1.332-4.978-3.75-9.834A2.324,2.324,0,0,0,1084.719-242.584Z"/><path class="d" d="M1076.954-215.191v-.9a1.81,1.81,0,0,0,1.808-1.808,1.789,1.789,0,0,0-.909-1.558l-.253-.146.03-.291a3.371,3.371,0,0,0,.018-.347,3.367,3.367,0,0,0-3.363-3.363,3.373,3.373,0,0,0-3.349,3.108l-.028.376-.376.039a1.994,1.994,0,0,0-1.792,1.989,2,2,0,0,0,2,2v.9a2.907,2.907,0,0,1-2.9-2.9,2.893,2.893,0,0,1,2.24-2.827,4.283,4.283,0,0,1,4.208-3.588,4.271,4.271,0,0,1,4.266,4.266c0,.053,0,.107,0,.161a2.712,2.712,0,0,1,1.117,2.181A2.714,2.714,0,0,1,1076.954-215.191Z"/><path class="d" d="M1091.816-215.643h-.9a3.338,3.338,0,0,0-3.069-3.547,2.912,2.912,0,0,0-2.32,1.23l-.205.273-.319-.122a1.681,1.681,0,0,0-.608-.115,2.139,2.139,0,0,0-1.955,2.281h-.9a3.038,3.038,0,0,1,2.858-3.185,2.545,2.545,0,0,1,.612.075,3.766,3.766,0,0,1,2.84-1.341A4.237,4.237,0,0,1,1091.816-215.643Z"/><path class="d" d="M1071.049-215.191h-6.669l-.707-17.253.9-.037.672,16.386h5.8Z"/><path class="d" d="M1051.565-246.188a6.848,6.848,0,0,1-4.107-3.84c-1.343-3.407.462-7.284.54-7.447l.816.386c-.017.037-1.715,3.695-.514,6.734a5.982,5.982,0,0,0,3.6,3.327Z"/><path class="d" d="M1045.138-236.924c-2.954-7.551,3.614-11.468,3.681-11.507l.453.782-.226-.391.227.39a8.254,8.254,0,0,0-3.294,10.4Z"/></g><g transform="translate(152.426 9.829)"><path class="a" d="M603.663,36.226l-4.023-.942.022-10.023a4.359,4.359,0,0,1,1.118-2.9l2.883-3.2c.9-1,4.929-2.639,6.27-2.639l1.855-.056.117,0c-1,1.088-5.374,5.807-5.374,5.807l32.711,1.906,1.493-1.516,10.716,2.208A6.13,6.13,0,0,1,656.362,30l.111,3.472a1.293,1.293,0,0,1-1.211,1.331l-5.386.338-.1-.007a5.592,5.592,0,0,0-11.077,1.088l-2.662-.042H617.467l-2.621.042a5.591,5.591,0,1,0-11.183,0Z"/><path d="M608.334,40.933a5.868,5.868,0,1,1,5.868-5.868A5.875,5.875,0,0,1,608.334,40.933Zm0-11.183a5.315,5.315,0,1,0,5.315,5.315A5.321,5.321,0,0,0,608.334,29.75Z"/><path d="M608.334,37.316a2.363,2.363,0,1,1,2.363-2.363A2.365,2.365,0,0,1,608.334,37.316Zm0-4.172a1.809,1.809,0,1,0,1.81,1.809A1.811,1.811,0,0,0,608.334,33.144Z"/><path d="M643.365,40.933a5.868,5.868,0,1,1,5.868-5.868A5.874,5.874,0,0,1,643.365,40.933Zm0-11.183a5.315,5.315,0,1,0,5.315,5.315A5.321,5.321,0,0,0,643.365,29.75Z"/><path d="M643.365,37.316a2.363,2.363,0,1,1,2.363-2.363A2.366,2.366,0,0,1,643.365,37.316Zm0-4.172a1.809,1.809,0,1,0,1.81,1.809A1.811,1.811,0,0,0,643.365,33.144Z"/><rect width="18.566" height="0.553" transform="translate(616.547 34.747)"/><path d="M602.68,35.334l-4.237-.992.023-10.242a4.628,4.628,0,0,1,1.188-3.087l2.883-3.2c.989-1.1,5.092-2.73,6.476-2.73l10.323-.312a30.262,30.262,0,0,1,15.225,3.588l5.786,3.111,10.236,1.964a6.409,6.409,0,0,1,5.132,5.374l0,.031.111,3.472a1.561,1.561,0,0,1-1.47,1.615l-5.385.338-.035-.551,5.386-.339a1.01,1.01,0,0,0,.951-1.046l-.11-3.456a5.856,5.856,0,0,0-4.687-4.9l-10.319-1.98-5.86-3.151a29.727,29.727,0,0,0-14.947-3.523l-10.332.313c-1.241,0-5.2,1.574-6.073,2.547l-2.883,3.2a4.071,4.071,0,0,0-1.046,2.718L599,33.9l3.809.892Z"/><path d="M638.306,23.285,605.595,21.38l-.186-.465s1.22-1.31,2.22-2.4l.407.374c-.645.7-1.38,1.5-1.823,1.972l32,1.864,1.4-1.426.394.388L638.519,23.2Z"/><path d="M655.346,28.612h-2.1a4.411,4.411,0,0,1-3.511-1.755l-.433-.578.442-.332.433.578a3.854,3.854,0,0,0,3.069,1.534h2.1Z"/><rect width="0.553" height="22.238" transform="translate(617.579 26.29) rotate(-88.312)"/><path d="M617.577,26.29l-.11,0,.019-.552.11,0Zm-.847-.029-.737-.025.019-.553.737.025Zm-1.473-.051-.737-.025.019-.552.737.025Zm-1.474-.05-.736-.025.018-.553.737.026Zm-1.473-.05-.737-.025.019-.553.737.025Z"/><rect width="59.727" height="0.553" transform="translate(597.273 40.38)"/><path d="M648.771,47.5h-.737v-.553h.737Zm-1.475,0h-.737v-.553h.737Zm-1.474,0h-.737v-.553h.737Zm-1.474,0h-.737v-.553h.737Zm-1.474,0h-.738v-.553h.738Zm-1.475,0h-.737v-.553h.737Zm-1.474,0h-.737v-.553h.737Zm-1.474,0h-.737v-.553h.737Zm-1.475,0h-.737v-.553h.737Zm-1.474,0h-.737v-.553h.737Zm-1.474,0h-.737v-.553h.737Zm-1.474,0h-.738v-.553h.738Zm-1.475,0h-.737v-.553h.737Zm-1.474,0h-.737v-.553h.737Zm-1.474,0h-.737v-.553h.737Zm-1.475,0h-.737v-.553h.737Zm-1.474,0h-.737v-.553h.737Zm-1.474,0h-.737v-.553h.737Zm-1.474,0H621.5v-.553h.738Zm-1.475,0h-.737v-.553h.737Zm-1.474,0h-.737v-.553h.737Zm-1.474,0h-.737v-.553h.737Zm-1.475,0H615.6v-.553h.737Zm-1.474,0h-.737v-.553h.737Zm-1.474,0h-.737v-.553h.737Zm-1.474,0h-.738v-.553h.738Zm-1.475,0H609.7v-.553h.737Zm-1.474,0h-.737v-.553h.737Zm-1.474,0h-.737v-.553h.737Zm-1.475,0h-.737v-.553h.737Zm-1.474,0H603.8v-.553h.737Z"/></g></svg>