<svg xmlns="http://www.w3.org/2000/svg" width="344.56" height="200.625" viewBox="0 0 344.56 200.625"><defs><style>.a{fill:#fff;}.b{fill:none;stroke:#ea0a0a;stroke-miterlimit:10;}.c{fill:#ea0a0a;}</style></defs><g transform="translate(126.732 90.021)"><path d="M8914.273-2503.938s15.1,23.206-2.84,32.685l-37.542,19.838s-14.411,6.206-26.2-1.034-39.072-26.323-39.072-26.323l6.157-19.161s27.364,21.966,46.173,22.109S8904.807-2505,8904.807-2505" transform="translate(-8807.549 2506.068)"/><path class="a" d="M8857.047-2451.808a26.222,26.222,0,0,1-13.85-3.664c-11.684-7.173-38.852-26.167-39.125-26.358a1.067,1.067,0,0,1-.4-1.2l6.156-19.161a1.07,1.07,0,0,1,.71-.7,1.068,1.068,0,0,1,.976.19c.271.217,27.294,21.736,45.514,21.874h.13c18.09,0,42.662-28.512,42.909-28.8a1.067,1.067,0,0,1,1.5-.118,1.068,1.068,0,0,1,.118,1.505,148.754,148.754,0,0,1-15,14.761c-11.561,9.813-21.5,14.788-29.534,14.788h-.147c-7.993-.061-18.315-3.849-30.681-11.26a166.83,166.83,0,0,1-14.936-10.137l-5.448,16.957c4.2,2.93,27.749,19.314,38.373,25.837,10.915,6.7,24.4,1.3,25.187.978l37.5-19.815a14.365,14.365,0,0,0,7.7-9.2c2.546-9.812-5.177-21.839-5.255-21.959a1.068,1.068,0,0,1,.313-1.477,1.068,1.068,0,0,1,1.478.313c.341.524,8.313,12.946,5.532,23.66-1.182,4.551-4.131,8.1-8.768,10.552l-37.542,19.837c-.024.013-.05.025-.076.037a36.312,36.312,0,0,1-8.967,2.276A34.54,34.54,0,0,1,8857.047-2451.808Zm12.912-3.54h0Z" transform="translate(-8803.616 2510)"/></g><g transform="translate(218.546 84.845)"><path d="M9340.863-2504.975v41.8l-44.327-11.306-13.028,15.627s52.539,23.243,64.8,23.243,13.523-17.968,13.523-17.968,1.341-43.542,0-57.258-20.967-18.293-20.967-18.293h-26.146s-54.243-1.259-67.18,7.046-8.049,60.022-8.144,70.577,0,27.483,0,27.483,1.286,8.179,14.585,8.179h76.2s12.508,3.563,12.508-14.723" transform="translate(-9237.484 2530.275)"/><path class="a" d="M9328.6-2418.457a11.126,11.126,0,0,1-2.539-.282H9250c-7.243,0-11.093-2.4-13.046-4.414a9.461,9.461,0,0,1-2.595-4.667,1.246,1.246,0,0,1-.013-.16c0-.169-.094-17.055,0-27.5.016-1.749-.108-4.668-.266-8.365-.83-19.523-2.376-55.862,8.9-63.1,13.038-8.37,65.361-7.271,67.769-7.216h26.135a1.074,1.074,0,0,1,.243.028,43.143,43.143,0,0,1,10.262,4.113c6.956,3.919,10.941,9.146,11.524,15.117,1.332,13.628.06,55.615,0,57.4,0,.014,0,.028,0,.042a33.411,33.411,0,0,1-2.242,9.315c-2.6,6.31-6.866,9.645-12.347,9.645-12.344,0-63.077-22.382-65.23-23.334a1.07,1.07,0,0,1-.608-.733,1.071,1.071,0,0,1,.22-.927l13.028-15.627a1.069,1.069,0,0,1,1.084-.351l43,10.966v-40.425a1.068,1.068,0,0,1,1.067-1.068,1.068,1.068,0,0,1,1.068,1.068v41.8a1.067,1.067,0,0,1-.413.843,1.068,1.068,0,0,1-.919.192l-43.675-11.139-11.687,14.019c8.158,3.563,52.232,22.583,63.068,22.583,10.973,0,12.406-16.316,12.457-16.957.037-1.23,1.31-43.734,0-57.1-1.2-12.266-18.462-16.931-20.034-17.33h-26.041c-.539-.012-54.062-1.157-66.579,6.878-4.34,2.786-7.046,11.527-8.044,25.978-.851,12.328-.264,26.113.124,35.235.158,3.728.284,6.672.268,8.475-.09,10.018-.008,25.984,0,27.372.159.764,1.856,7.213,13.518,7.213h76.2a1.085,1.085,0,0,1,.293.041,8.7,8.7,0,0,0,6.955-1.3c2.781-2.114,4.191-6.284,4.191-12.4a1.068,1.068,0,0,1,1.068-1.068,1.068,1.068,0,0,1,1.067,1.068c0,6.832-1.7,11.581-5.059,14.115A10.042,10.042,0,0,1,9328.6-2418.457Z" transform="translate(-9233.506 2534.237)"/></g><g transform="translate(248.761 25.415)"><path class="a" d="M9430.993-2807.5a20.725,20.725,0,0,0-8.333,1.646l0,0-.038.021a18.884,18.884,0,0,0-2.594,1.38l-40.043,21.309,35.044,49.2,38.87-20.5v-30.086S9450.571-2807.5,9430.993-2807.5Z" transform="translate(-9378.914 2808.568)"/><path d="M9411.094-2736.816a1.069,1.069,0,0,1-.871-.448l-35.043-49.2a1.067,1.067,0,0,1-.17-.865,1.067,1.067,0,0,1,.538-.7l40.007-21.29a20.065,20.065,0,0,1,2.667-1.419l0,0a1.073,1.073,0,0,1,.156-.067,21.915,21.915,0,0,1,8.68-1.7c8.411,0,15.23,4.156,19.721,12.018a37.2,37.2,0,0,1,4.238,11.856,1,1,0,0,1,.012.153v30.086a1.068,1.068,0,0,1-.57.945l-38.87,20.5A1.07,1.07,0,0,1,9411.094-2736.816Zm-33.469-49.893,33.8,47.444,37.475-19.767v-29.359a35.82,35.82,0,0,0-4-11.087c-4.146-7.224-10.146-10.887-17.835-10.887a19.773,19.773,0,0,0-7.908,1.558l-.02.008-.021.009a17.9,17.9,0,0,0-2.446,1.3c-.023.015-.048.029-.072.042Z" transform="translate(-9374.981 2812.5)"/></g><g transform="translate(238.362 45.918)"><path class="a" d="M9331.292-2658.455v-30.086s2.962-22.959,22.54-22.959,22.9,22.959,22.9,22.959v30.086Z" transform="translate(-9330.225 2712.568)"/><path d="M9372.8-2661.319H9327.36a1.068,1.068,0,0,1-1.068-1.068v-30.086a1.068,1.068,0,0,1,.009-.137,36.691,36.691,0,0,1,4.054-11.861c4.37-7.869,11.129-12.029,19.546-12.029s15.229,4.156,19.72,12.018a37.187,37.187,0,0,1,4.239,11.856,1.14,1.14,0,0,1,.011.153v30.086A1.068,1.068,0,0,1,9372.8-2661.319Zm-44.374-2.136h43.307v-28.936a35.82,35.82,0,0,0-4-11.087c-4.146-7.224-10.146-10.887-17.834-10.887-7.7,0-13.65,3.677-17.679,10.93a35.155,35.155,0,0,0-3.794,11.035Z" transform="translate(-9326.292 2716.5)"/></g><path d="M9359.355-2639.688v-22.15s2.181-16.9,16.594-16.9,16.861,16.9,16.861,16.9v22.15Z" transform="translate(-9113.932 2732.723)"/><g transform="translate(303.333)"><path class="a" d="M9635.5-2867.981v-44.3l17.524-14.216-10.69,16.445,10.69-1.068-12.4,10.941v33.482" transform="translate(-9634.433 2927.568)"/><path d="M9636.693-2869.564a1.067,1.067,0,0,1-1.067-1.068v-33.482a1.072,1.072,0,0,1,.36-.8l9.914-8.749-7.393.739a1.067,1.067,0,0,1-1.018-.507,1.068,1.068,0,0,1,.017-1.138l7-10.768-11.871,9.63v43.795a1.068,1.068,0,0,1-1.067,1.068,1.068,1.068,0,0,1-1.068-1.068v-44.3a1.065,1.065,0,0,1,.4-.829l17.523-14.216a1.069,1.069,0,0,1,1.388.036,1.068,1.068,0,0,1,.181,1.376l-9.478,14.579,8.477-.847a1.065,1.065,0,0,1,1.084.635,1.067,1.067,0,0,1-.271,1.228l-12.037,10.622v33A1.068,1.068,0,0,1,9636.693-2869.564Z" transform="translate(-9630.5 2931.5)"/></g><g transform="translate(302.051 55.742)"><circle class="a" cx="4.058" cy="4.058" r="4.058" transform="translate(1.068 1.068)"/><path d="M9629.626-2660.249a5.132,5.132,0,0,1-5.126-5.126,5.132,5.132,0,0,1,5.126-5.125,5.132,5.132,0,0,1,5.126,5.125A5.132,5.132,0,0,1,9629.626-2660.249Zm0-8.116a2.994,2.994,0,0,0-2.99,2.99,2.994,2.994,0,0,0,2.99,2.99,2.994,2.994,0,0,0,2.99-2.99A2.994,2.994,0,0,0,9629.626-2668.364Z" transform="translate(-9624.5 2670.5)"/></g><g transform="translate(148.994 52.535)"><g transform="translate(0 0)"><path class="b" d="M8916.076-2680.518l-3.225,35.211,68.348,5.343,2.214-36.049Z" transform="translate(-8911.784 2681.586)"/><path class="c" d="M8977.268-2642.828c-.028,0-.056,0-.084,0l-68.348-5.344a1.068,1.068,0,0,1-.732-.376,1.064,1.064,0,0,1-.247-.786l3.225-35.211a1.068,1.068,0,0,1,1.135-.968l67.336,4.506a1.069,1.069,0,0,1,1,1.131l-2.214,36.048a1.07,1.07,0,0,1-.365.74A1.067,1.067,0,0,1,8977.268-2642.828Zm-67.186-7.391,66.186,5.174,2.082-33.9-65.237-4.365Z" transform="translate(-8907.852 2685.519)"/></g><path class="c" d="M8956.932-2656.946a1.064,1.064,0,0,1-.668-.235l-32.914-26.437a1.068,1.068,0,0,1-.164-1.5,1.069,1.069,0,0,1,1.5-.164L8957-2659.325l33.777-21.52a1.067,1.067,0,0,1,1.474.327,1.067,1.067,0,0,1-.326,1.474l-34.423,21.931A1.066,1.066,0,0,1,8956.932-2656.946Z" transform="translate(-8919.726 2685.518)"/><path class="c" d="M8908.92-2581.04a1.066,1.066,0,0,1-.895-.483,1.068,1.068,0,0,1,.309-1.478l25.951-16.98a1.068,1.068,0,0,1,1.479.309,1.068,1.068,0,0,1-.309,1.479l-25.952,16.98A1.06,1.06,0,0,1,8908.92-2581.04Z" transform="translate(-8907.851 2618.387)"/><path class="c" d="M9148.353-2569.559a1.064,1.064,0,0,1-.732-.291l-21.885-20.656a1.069,1.069,0,0,1-.044-1.51,1.068,1.068,0,0,1,1.51-.043l21.885,20.656a1.068,1.068,0,0,1,.044,1.51A1.065,1.065,0,0,1,9148.353-2569.559Z" transform="translate(-9078.938 2612.249)"/></g><g transform="translate(0 100.059)"><g transform="translate(0 0)"><path class="b" d="M8231.463-2459.036l-17.276,22.069,43.231,32.923,16.962-23.061Z" transform="translate(-8213.34 2459.882)"/><path class="c" d="M8253.842-2406.449c-.019-.012-.036-.024-.054-.038l-43.231-32.923a.85.85,0,0,1-.327-.565.85.85,0,0,1,.174-.63l17.275-22.069a.847.847,0,0,1,1.172-.157l42.917,31.932a.845.845,0,0,1,.177,1.18l-16.962,23.061a.848.848,0,0,1-.562.336A.847.847,0,0,1,8253.842-2406.449Zm-41.577-33.788,41.864,31.882,15.953-21.689-41.579-30.936Z" transform="translate(-8210.223 2462.999)"/></g><path class="c" d="M8302.066-2429.691a.848.848,0,0,1-.345-.444l-10.565-31.75a.846.846,0,0,1,.535-1.071.846.846,0,0,1,1.07.536l10.375,31.175,31.744.177a.846.846,0,0,1,.842.851.847.847,0,0,1-.852.842l-32.351-.18A.848.848,0,0,1,8302.066-2429.691Z" transform="translate(-8273.837 2463)"/><path class="c" d="M8210.611-2358.7a.847.847,0,0,1-.388-.706.846.846,0,0,1,.841-.852l24.582-.161a.846.846,0,0,1,.852.841.846.846,0,0,1-.841.852l-24.582.161A.846.846,0,0,1,8210.611-2358.7Z" transform="translate(-8210.224 2382.328)"/><path class="c" d="M8392.028-2289.242a.841.841,0,0,1-.363-.509l-5.7-23.162a.847.847,0,0,1,.62-1.024.846.846,0,0,1,1.023.62l5.7,23.162a.846.846,0,0,1-.619,1.024A.845.845,0,0,1,8392.028-2289.242Z" transform="translate(-8348.409 2345.792)"/></g><g transform="translate(22.037 52.604)"><g transform="translate(0 0)"><path class="b" d="M8316.336-2668.375l6.8,19.579,37.782-13.684-7.541-19.781Z" transform="translate(-8315.71 2682.888)"/><path class="c" d="M8358.868-2664.216l-.045.019-37.782,13.684a.627.627,0,0,1-.482-.024.626.626,0,0,1-.321-.36l-6.8-19.579a.626.626,0,0,1,.371-.792l37.04-13.886a.625.625,0,0,1,.8.363l7.541,19.781a.625.625,0,0,1-.017.484A.621.621,0,0,1,8358.868-2664.216Zm-37.656,12.309,36.587-13.251-7.092-18.6-35.885,13.454Z" transform="translate(-8313.404 2685.193)"/></g><path class="c" d="M8338.257-2663.96a.624.624,0,0,1-.414.036l-23.968-6.151a.626.626,0,0,1-.451-.762.626.626,0,0,1,.763-.451l23.533,6.039,12.826-19.661a.625.625,0,0,1,.866-.182.626.626,0,0,1,.182.866l-13.071,20.037A.62.62,0,0,1,8338.257-2663.96Z" transform="translate(-8313.404 2685.193)"/><path class="c" d="M8346.119-2583.807a.624.624,0,0,1-.594-.042.625.625,0,0,1-.193-.864l9.747-15.344a.625.625,0,0,1,.863-.193.627.627,0,0,1,.193.864l-9.747,15.344A.618.618,0,0,1,8346.119-2583.807Z" transform="translate(-8338.437 2618.468)"/><path class="c" d="M8461.6-2612.488a.624.624,0,0,1-.462.021l-16.682-5.733a.626.626,0,0,1-.389-.8.625.625,0,0,1,.795-.388l16.682,5.733a.626.626,0,0,1,.389.8A.622.622,0,0,1,8461.6-2612.488Z" transform="translate(-8416.132 2633.465)"/></g><g transform="translate(211.454 56.81)"><g transform="translate(0 0)"><path class="a" d="M9205.3-2644.252l7.933,23.8,45.93-15.992-8.828-24.053Z" transform="translate(-9204.235 2661.568)"/><path class="c" d="M9209.3-2623.32a1.063,1.063,0,0,1-.471-.109,1.065,1.065,0,0,1-.542-.621l-7.933-23.8a1.067,1.067,0,0,1,.65-1.342l45.035-16.248a1.067,1.067,0,0,1,1.364.636l8.828,24.052a1.07,1.07,0,0,1-.037.825,1.066,1.066,0,0,1-.614.552l-45.93,15.992A1.065,1.065,0,0,1,9209.3-2623.32Zm-6.59-24.214,7.261,21.781,43.883-15.279-8.088-22.036Z" transform="translate(-9200.302 2665.501)"/></g><path class="c" d="M9230.285-2639.312a1.054,1.054,0,0,1-.278-.037l-28.914-7.8a1.068,1.068,0,0,1-.753-1.309,1.067,1.067,0,0,1,1.309-.753l28.176,7.6,15.694-23.417a1.067,1.067,0,0,1,1.481-.292,1.069,1.069,0,0,1,.292,1.482l-16.12,24.052A1.067,1.067,0,0,1,9230.285-2639.312Z" transform="translate(-9200.303 2665.501)"/><path class="c" d="M9238.511-2543.7a1.064,1.064,0,0,1-.583-.174,1.068,1.068,0,0,1-.311-1.478l12.026-18.423a1.067,1.067,0,0,1,1.478-.311,1.068,1.068,0,0,1,.311,1.478l-12.026,18.423A1.065,1.065,0,0,1,9238.511-2543.7Z" transform="translate(-9229.511 2585.884)"/><path class="c" d="M9379.546-2577.217a1.069,1.069,0,0,1-.36-.062l-20.1-7.189a1.068,1.068,0,0,1-.646-1.365,1.068,1.068,0,0,1,1.365-.646l20.1,7.189a1.067,1.067,0,0,1,.646,1.365A1.068,1.068,0,0,1,9379.546-2577.217Z" transform="translate(-9324.615 2603.406)"/></g><g transform="translate(217.369 118.021)"><g transform="translate(0 0)"><path class="a" d="M9284.472-2348.288h-27.935L9233-2373.895h27.935Z" transform="translate(-9231.933 2374.962)"/><path d="M9280.539-2351.153h-27.934a1.067,1.067,0,0,1-.786-.345l-23.537-25.606a1.068,1.068,0,0,1-.192-1.152,1.07,1.07,0,0,1,.979-.639H9257a1.068,1.068,0,0,1,.786.345l23.537,25.606a1.066,1.066,0,0,1,.191,1.152A1.067,1.067,0,0,1,9280.539-2351.153Zm-27.465-2.136h25.033l-21.574-23.47H9231.5Z" transform="translate(-9228 2378.895)"/></g><path d="M9260.033-2351.153a1.081,1.081,0,0,1-.183-.016,1.068,1.068,0,0,1-.872-1.233l2.069-12.047L9238-2376.888a1.067,1.067,0,0,1-.432-1.447,1.067,1.067,0,0,1,1.446-.432l23.719,12.8a1.066,1.066,0,0,1,.545,1.12l-2.2,12.8A1.069,1.069,0,0,1,9260.033-2351.153Z" transform="translate(-9235.427 2378.896)"/><path d="M9323.4-2366.972a1.063,1.063,0,0,1-.664-.232,1.068,1.068,0,0,1-.171-1.5l7.786-9.787a1.068,1.068,0,0,1,1.5-.171,1.069,1.069,0,0,1,.171,1.5l-7.787,9.787A1.065,1.065,0,0,1,9323.4-2366.972Z" transform="translate(-9302.189 2378.895)"/></g><g transform="translate(236.378 133.694)"><path class="a" d="M9360.771-2292.979s-9.938-4.4-13.142-4.311-13.944-3.326-17.65-3.219-3.921,1.179-3.6,2.565-2.711,1.091-2.37,3.054-2.008,3.458-2.008,4.953,27.124,9.224,27.124,9.224" transform="translate(-9320.933 2301.579)"/><path d="M9345.192-2283.576a1.072,1.072,0,0,1-.294-.041c-.067-.02-6.871-1.96-13.587-4.059-3.954-1.236-7.108-2.285-9.374-3.118-4.224-1.553-4.937-2.13-4.937-3.074a4.747,4.747,0,0,1,1.117-2.61,3.347,3.347,0,0,0,.906-2.16,2.744,2.744,0,0,1,1.913-2.962c.13-.065.307-.154.427-.227a2.736,2.736,0,0,1,.395-2.315c.678-.879,1.991-1.3,4.258-1.365,2.059-.059,5.934.847,9.68,1.723,3.229.755,6.561,1.536,7.971,1.5,3.346-.1,12.564,3.941,13.6,4.4a1.067,1.067,0,0,1,.544,1.409,1.067,1.067,0,0,1-1.408.544c-2.674-1.184-10.085-4.221-12.6-4.221h-.082c-1.682.047-5-.729-8.518-1.552-3.445-.806-7.339-1.719-9.133-1.668-2.2.063-2.591.487-2.628.535s-.086.186.038.722c.337,1.456-.966,2.109-1.592,2.423-.815.409-.8.485-.767.688a5.036,5.036,0,0,1-1.252,3.737,7.609,7.609,0,0,0-.642,1.039c2.357,1.348,14.812,5.3,26.25,8.557a1.068,1.068,0,0,1,.734,1.32A1.069,1.069,0,0,1,9345.192-2283.576Z" transform="translate(-9317 2305.511)"/></g><g transform="translate(101.256 82.984)"><path class="a" d="M8715.986-2505.832s-9.667-4.968-11.608-7.518-11.347-8.76-13.592-11.712-1.546-3.791-.266-4.412-.854-2.795.888-3.762,1.429-3.735,2.592-4.674,26.438,15.969,26.438,15.969" transform="translate(-8688.259 2539.016)"/><path d="M8712.054-2508.7a1.064,1.064,0,0,1-.487-.118c-1.012-.52-9.941-5.156-11.971-7.821-.851-1.118-3.556-3.225-6.171-5.262-3.034-2.365-6.173-4.81-7.421-6.45-1.373-1.8-1.87-3.09-1.612-4.17a2.733,2.733,0,0,1,1.554-1.761c-.02-.14-.061-.333-.092-.475a2.742,2.742,0,0,1,1.1-3.349c.6-.332.848-1.173,1.111-2.062a4.744,4.744,0,0,1,1.329-2.509c.672-.542,1.57-.195,2.591.279.788.366,1.876.946,3.233,1.725,2.255,1.294,5.308,3.164,9.074,5.558,6.4,4.069,12.74,8.308,12.8,8.35a1.068,1.068,0,0,1,.294,1.481,1.068,1.068,0,0,1-1.481.294c-10.61-7.1-22.692-14.741-25.388-15.728a7.513,7.513,0,0,0-.408,1.157,5.04,5.04,0,0,1-2.122,3.321c-.18.1-.248.138-.054,1.029.148.684.458,2.108-.886,2.761-.5.24-.574.377-.586.424s-.1.628,1.234,2.381c1.08,1.419,4.243,3.884,7.034,6.058,2.849,2.219,5.539,4.315,6.558,5.653,1.472,1.933,8.618,5.864,11.248,7.215a1.068,1.068,0,0,1,.461,1.438A1.067,1.067,0,0,1,8712.054-2508.7Z" transform="translate(-8684.326 2542.95)"/></g><g transform="translate(74.466 50.17)"><g transform="translate(0)"><path class="a" d="M8563.891-2646.1l23.347,20.246,38.648-45.785-24.457-19.955Z" transform="translate(-8562.823 2692.66)"/><path class="c" d="M8583.3-2628.717a1.068,1.068,0,0,1-.7-.261l-23.347-20.246a1.068,1.068,0,0,1-.124-1.486l37.538-45.494a1.068,1.068,0,0,1,1.5-.148l24.456,19.955a1.068,1.068,0,0,1,.389.729,1.068,1.068,0,0,1-.247.788l-38.648,45.785a1.069,1.069,0,0,1-.733.376C8583.36-2628.718,8583.333-2628.717,8583.3-2628.717Zm-21.859-21.438,21.742,18.854,37.249-44.128-22.792-18.6Z" transform="translate(-8558.891 2696.592)"/></g><path class="c" d="M8559.957-2648.962a1.07,1.07,0,0,1-1.028-.782,1.068,1.068,0,0,1,.743-1.315l34.812-9.673,1.946-34.852a1.067,1.067,0,0,1,1.126-1.007,1.068,1.068,0,0,1,1.007,1.126l-1.989,35.616a1.067,1.067,0,0,1-.78.969L8560.244-2649A1.081,1.081,0,0,1,8559.957-2648.962Z" transform="translate(-8558.89 2696.592)"/><path class="c" d="M8669.273-2486.357h-.047a1.067,1.067,0,0,1-1.021-1.113l1.183-27.079a1.074,1.074,0,0,1,1.113-1.02,1.067,1.067,0,0,1,1.021,1.114l-1.183,27.079A1.068,1.068,0,0,1,8669.273-2486.357Z" transform="translate(-8644.858 2554.233)"/><path class="c" d="M8729.327-2596.024a1.07,1.07,0,0,1-1.048-.865,1.069,1.069,0,0,1,.846-1.251l25.822-5a1.069,1.069,0,0,1,1.251.845,1.068,1.068,0,0,1-.846,1.252l-25.821,5A1.059,1.059,0,0,1,8729.327-2596.024Z" transform="translate(-8692.087 2623.114)"/></g><g transform="translate(117.846 81.183)"><path class="a" d="M8776.4-2531.356s-4.485-6.621-3.5-13.711c.355-2.553-3.422-1.295-4.554,2.791a40.36,40.36,0,0,0-1.344,7.264" transform="translate(-8765.937 2547.456)"/><path d="M8772.469-2534.213a1.067,1.067,0,0,1-.885-.469c-.192-.284-4.7-7.045-3.672-14.457,0-.028.006-.053.008-.077a4.751,4.751,0,0,0-2.475,3.3,39.479,39.479,0,0,0-1.308,7.051,1.066,1.066,0,0,1-1.137.994,1.067,1.067,0,0,1-.994-1.136,41.007,41.007,0,0,1,1.38-7.478c.914-3.3,3.45-5.206,5.162-4.852a2.008,2.008,0,0,1,1.479,2.493c-.919,6.608,3.282,12.9,3.325,12.965a1.068,1.068,0,0,1-.285,1.483A1.063,1.063,0,0,1,8772.469-2534.213Z" transform="translate(-8762.004 2551.381)"/></g></svg>