<svg xmlns="http://www.w3.org/2000/svg" width="529.733" height="37.976" viewBox="0 0 529.733 37.976"><defs><style>.a{fill:#eaeaed;}</style></defs><g transform="translate(-597.273 -9.524)"><path class="a" d="M603.663,36.226l-4.023-.942.022-10.023a4.359,4.359,0,0,1,1.118-2.9l2.883-3.2c.9-1,4.929-2.639,6.27-2.639l1.855-.056.117,0c-1,1.088-5.374,5.807-5.374,5.807l32.711,1.906,1.493-1.516,10.716,2.208A6.13,6.13,0,0,1,656.362,30l.111,3.472a1.293,1.293,0,0,1-1.211,1.331l-5.386.338-.1-.007a5.592,5.592,0,0,0-11.077,1.088l-2.662-.042H617.467l-2.621.042a5.591,5.591,0,1,0-11.183,0Z"/><path d="M608.334,40.933a5.868,5.868,0,1,1,5.868-5.868A5.875,5.875,0,0,1,608.334,40.933Zm0-11.183a5.315,5.315,0,1,0,5.315,5.315A5.321,5.321,0,0,0,608.334,29.75Z"/><path d="M608.334,37.316a2.363,2.363,0,1,1,2.363-2.363A2.365,2.365,0,0,1,608.334,37.316Zm0-4.172a1.809,1.809,0,1,0,1.81,1.809A1.811,1.811,0,0,0,608.334,33.144Z"/><path d="M643.365,40.933a5.868,5.868,0,1,1,5.868-5.868A5.874,5.874,0,0,1,643.365,40.933Zm0-11.183a5.315,5.315,0,1,0,5.315,5.315A5.321,5.321,0,0,0,643.365,29.75Z"/><path d="M643.365,37.316a2.363,2.363,0,1,1,2.363-2.363A2.366,2.366,0,0,1,643.365,37.316Zm0-4.172a1.809,1.809,0,1,0,1.81,1.809A1.811,1.811,0,0,0,643.365,33.144Z"/><rect width="18.566" height="0.553" transform="translate(616.547 34.747)"/><path d="M602.68,35.334l-4.237-.992.023-10.242a4.628,4.628,0,0,1,1.188-3.087l2.883-3.2c.989-1.1,5.092-2.73,6.476-2.73l10.323-.312a30.262,30.262,0,0,1,15.225,3.588l5.786,3.111,10.236,1.964a6.409,6.409,0,0,1,5.132,5.374l0,.031.111,3.472a1.561,1.561,0,0,1-1.47,1.615l-5.385.338-.035-.551,5.386-.339a1.01,1.01,0,0,0,.951-1.046l-.11-3.456a5.856,5.856,0,0,0-4.687-4.9l-10.319-1.98-5.86-3.151a29.727,29.727,0,0,0-14.947-3.523l-10.332.313c-1.241,0-5.2,1.574-6.073,2.547l-2.883,3.2a4.071,4.071,0,0,0-1.046,2.718L599,33.9l3.809.892Z"/><path d="M638.306,23.285,605.595,21.38l-.186-.465s1.22-1.31,2.22-2.4l.407.374c-.645.7-1.38,1.5-1.823,1.972l32,1.864,1.4-1.426.394.388L638.519,23.2Z"/><path d="M655.346,28.612h-2.1a4.411,4.411,0,0,1-3.511-1.755l-.433-.578.442-.332.433.578a3.854,3.854,0,0,0,3.069,1.534h2.1Z"/><rect width="0.553" height="22.238" transform="translate(617.579 26.29) rotate(-88.312)"/><path d="M617.577,26.29l-.11,0,.019-.552.11,0Zm-.847-.029-.737-.025.019-.553.737.025Zm-1.473-.051-.737-.025.019-.552.737.025Zm-1.474-.05-.736-.025.018-.553.737.026Zm-1.473-.05-.737-.025.019-.553.737.025Z"/><rect width="59.727" height="0.553" transform="translate(597.273 40.38)"/><path d="M648.771,47.5h-.737v-.553h.737Zm-1.475,0h-.737v-.553h.737Zm-1.474,0h-.737v-.553h.737Zm-1.474,0h-.737v-.553h.737Zm-1.474,0h-.738v-.553h.738Zm-1.475,0h-.737v-.553h.737Zm-1.474,0h-.737v-.553h.737Zm-1.474,0h-.737v-.553h.737Zm-1.475,0h-.737v-.553h.737Zm-1.474,0h-.737v-.553h.737Zm-1.474,0h-.737v-.553h.737Zm-1.474,0h-.738v-.553h.738Zm-1.475,0h-.737v-.553h.737Zm-1.474,0h-.737v-.553h.737Zm-1.474,0h-.737v-.553h.737Zm-1.475,0h-.737v-.553h.737Zm-1.474,0h-.737v-.553h.737Zm-1.474,0h-.737v-.553h.737Zm-1.474,0H621.5v-.553h.738Zm-1.475,0h-.737v-.553h.737Zm-1.474,0h-.737v-.553h.737Zm-1.474,0h-.737v-.553h.737Zm-1.475,0H615.6v-.553h.737Zm-1.474,0h-.737v-.553h.737Zm-1.474,0h-.737v-.553h.737Zm-1.474,0h-.738v-.553h.738Zm-1.475,0H609.7v-.553h.737Zm-1.474,0h-.737v-.553h.737Zm-1.474,0h-.737v-.553h.737Zm-1.475,0h-.737v-.553h.737Zm-1.474,0H603.8v-.553h.737Z"/></g><g transform="translate(138.979 -8.573)"><g transform="translate(335.479 9.772)"><path class="a" d="M383.948,22.33l-4.311-7.507A9.68,9.68,0,0,0,371.151,9.8H340.2a4.682,4.682,0,0,0-4.681,4.682v2.011H362.58V27.858H335.522v9.089a3.5,3.5,0,0,0,3.5,3.5l4.318.1a4.78,4.78,0,0,1,9.561,0h19.6a4.78,4.78,0,0,1,9.561,0l5.232.151a3.5,3.5,0,0,0,3.5-3.5V31.293Zm-9.379,2.9c-3,0-5.6-.476-6.293-3.4V16.348a.356.356,0,0,1,.356-.356h3.638a7.226,7.226,0,0,1,6.332,3.746l2.1,5.489Z" transform="translate(-335.522 -9.801)"/></g><g transform="translate(333.708 8.573)"><g transform="translate(0.433)"><g transform="translate(36.978 25.969)"><path d="M377.078,45.274a5.05,5.05,0,1,1,5.05-5.05A5.056,5.056,0,0,1,377.078,45.274Zm0-9.561a4.51,4.51,0,1,0,4.51,4.51A4.516,4.516,0,0,0,377.078,35.713Z" transform="translate(-372.028 -35.173)"/></g><g transform="translate(7.822 25.969)"><path d="M347.214,45.274a5.05,5.05,0,1,1,5.05-5.05A5.057,5.057,0,0,1,347.214,45.274Zm0-9.561a4.51,4.51,0,1,0,4.51,4.51A4.515,4.515,0,0,0,347.214,35.713Z" transform="translate(-342.164 -35.173)"/></g><g transform="translate(39.902 28.794)"><path d="M377.149,42.319a2.126,2.126,0,1,1,2.126-2.126A2.129,2.129,0,0,1,377.149,42.319Zm0-3.713a1.586,1.586,0,1,0,1.586,1.586A1.589,1.589,0,0,0,377.149,38.606Z" transform="translate(-375.023 -38.066)"/></g><g transform="translate(10.746 28.794)"><path d="M347.285,42.319a2.126,2.126,0,1,1,2.126-2.126A2.129,2.129,0,0,1,347.285,42.319Zm0-3.713a1.586,1.586,0,1,0,1.586,1.586A1.588,1.588,0,0,0,347.285,38.606Z" transform="translate(-345.159 -38.066)"/></g><path d="M340.054,39.763h-2.128a3.778,3.778,0,0,1-3.773-3.774V13.525A4.957,4.957,0,0,1,339.1,8.573H364.11v.54H339.1a4.417,4.417,0,0,0-4.413,4.412V35.989a3.238,3.238,0,0,0,3.234,3.234h2.128Z" transform="translate(-334.152 -8.573)"/><g transform="translate(27.928)"><path d="M383.291,21.506,378.981,14a9.411,9.411,0,0,0-8.253-4.885h-7.97v-.54h7.97a9.948,9.948,0,0,1,8.723,5.162l4.308,7.5Z" transform="translate(-362.758 -8.573)"/></g><g transform="translate(31.066 17.097)"><rect width="5.542" height="0.54"/></g><g transform="translate(20.448 30.901)"><rect width="14.452" height="0.54"/></g><g transform="translate(51.285 21.179)"><path d="M390.941,34.9h-4.259V30.267h.54v4.092h3.719Z" transform="translate(-386.683 -30.267)"/></g><g transform="translate(31.184 3.293)"><path d="M386.949,40.093h-2.6v-.54h2.6a3.237,3.237,0,0,0,3.233-3.233V30.506l-6.711-8.785H372.658c-2.964,0-5.81-.437-6.557-3.605l-.007-.062V12.572a.626.626,0,0,1,.626-.626h3.638a7.5,7.5,0,0,1,6.569,3.887l-.474.26a6.952,6.952,0,0,0-6.1-3.606H366.72a.087.087,0,0,0-.087.086v5.451c.634,2.621,2.867,3.159,6.025,3.159h11.081l6.984,9.141v6A3.778,3.778,0,0,1,386.949,40.093Z" transform="translate(-366.094 -11.946)"/></g><g transform="translate(28.071 3.563)"><rect width="0.54" height="27.608"/></g><g transform="translate(0.269 12.528)"><rect width="21.771" height="0.54"/></g><g transform="translate(1.167 17.097)"><path d="M347.582,26.625h-.721v-.54h.721Zm-1.44,0h-.72v-.54h.72Zm-1.439,0h-.72v-.54h.72Zm-1.439,0h-.72v-.54h.72Zm-1.44,0H341.1v-.54h.719Zm-1.439,0h-.72v-.54h.72Zm-1.439,0h-.72v-.54h.72Zm-1.439,0h-.72v-.54h.72Zm-1.44,0h-.72v-.54h.72Z" transform="translate(-335.347 -26.085)"/></g></g><g transform="translate(0 35.53)"><g transform="translate(54.09)"><rect width="2.59" height="0.54"/></g><rect width="50.968" height="0.54"/></g></g></g></svg>