<svg id="Componente_63_1" data-name="Componente 63 – 1" xmlns="http://www.w3.org/2000/svg" width="25" height="25" viewBox="0 0 25 25">
  <g id="Grupo_29378" data-name="Grupo 29378" transform="translate(757.242 3618.213)">
    <circle id="Elipse_784" data-name="Elipse 784" cx="12.5" cy="12.5" r="12.5" transform="translate(-757.242 -3618.213)" fill="#f6f6f6"/>
    <g id="Grupo_5724" data-name="Grupo 5724">
      <circle id="Elipse_693" data-name="Elipse 693" cx="0.424" cy="0.424" r="0.424" transform="translate(-747.303 -3611.677)" fill="#161615"/>
      <circle id="Elipse_694" data-name="Elipse 694" cx="0.424" cy="0.424" r="0.424" transform="translate(-748.371 -3611.677)" fill="#161615"/>
      <circle id="Elipse_695" data-name="Elipse 695" cx="0.424" cy="0.424" r="0.424" transform="translate(-745.166 -3611.677)" fill="#161615"/>
      <circle id="Elipse_696" data-name="Elipse 696" cx="0.424" cy="0.424" r="0.424" transform="translate(-746.235 -3611.677)" fill="#161615"/>
      <g id="Grupo_5722" data-name="Grupo 5722">
        <circle id="Elipse_697" data-name="Elipse 697" cx="0.424" cy="0.424" r="0.424" transform="translate(-744.088 -3612.918)" fill="#161615"/>
        <circle id="Elipse_698" data-name="Elipse 698" cx="0.424" cy="0.424" r="0.424" transform="translate(-745.179 -3612.918)" fill="#161615"/>
      </g>
      <g id="Grupo_5723" data-name="Grupo 5723">
        <circle id="Elipse_699" data-name="Elipse 699" cx="0.424" cy="0.424" r="0.424" transform="translate(-743.03 -3613.852)" fill="#161615"/>
      </g>
      <circle id="Elipse_700" data-name="Elipse 700" cx="0.424" cy="0.424" r="0.424" transform="translate(-747.303 -3610.696)" fill="#161615"/>
      <circle id="Elipse_701" data-name="Elipse 701" cx="0.424" cy="0.424" r="0.424" transform="translate(-748.371 -3610.696)" fill="#161615"/>
      <circle id="Elipse_702" data-name="Elipse 702" cx="0.424" cy="0.424" r="0.424" transform="translate(-745.166 -3610.696)" fill="#161615"/>
      <circle id="Elipse_703" data-name="Elipse 703" cx="0.424" cy="0.424" r="0.424" transform="translate(-746.235 -3610.696)" fill="#161615"/>
      <circle id="Elipse_704" data-name="Elipse 704" cx="0.424" cy="0.424" r="0.424" transform="translate(-747.303 -3609.468)" fill="#161615"/>
      <circle id="Elipse_705" data-name="Elipse 705" cx="0.424" cy="0.424" r="0.424" transform="translate(-748.371 -3609.468)" fill="#161615"/>
      <circle id="Elipse_706" data-name="Elipse 706" cx="0.424" cy="0.424" r="0.424" transform="translate(-749.44 -3609.468)" fill="#161615"/>
      <circle id="Elipse_707" data-name="Elipse 707" cx="0.424" cy="0.424" r="0.424" transform="translate(-745.166 -3609.468)" fill="#161615"/>
      <circle id="Elipse_708" data-name="Elipse 708" cx="0.424" cy="0.424" r="0.424" transform="translate(-746.235 -3609.468)" fill="#161615"/>
      <circle id="Elipse_709" data-name="Elipse 709" cx="0.424" cy="0.424" r="0.424" transform="translate(-747.303 -3608.241)" fill="#161615"/>
      <circle id="Elipse_710" data-name="Elipse 710" cx="0.424" cy="0.424" r="0.424" transform="translate(-748.371 -3608.241)" fill="#161615"/>
      <circle id="Elipse_711" data-name="Elipse 711" cx="0.424" cy="0.424" r="0.424" transform="translate(-749.44 -3608.241)" fill="#161615"/>
      <circle id="Elipse_712" data-name="Elipse 712" cx="0.424" cy="0.424" r="0.424" transform="translate(-741.962 -3608.241)" fill="#161615"/>
      <circle id="Elipse_713" data-name="Elipse 713" cx="0.424" cy="0.424" r="0.424" transform="translate(-743.03 -3608.241)" fill="#161615"/>
      <circle id="Elipse_714" data-name="Elipse 714" cx="0.424" cy="0.424" r="0.424" transform="translate(-744.098 -3608.241)" fill="#161615"/>
      <circle id="Elipse_715" data-name="Elipse 715" cx="0.424" cy="0.424" r="0.424" transform="translate(-745.166 -3608.241)" fill="#161615"/>
      <circle id="Elipse_716" data-name="Elipse 716" cx="0.424" cy="0.424" r="0.424" transform="translate(-746.235 -3608.241)" fill="#161615"/>
      <circle id="Elipse_717" data-name="Elipse 717" cx="0.424" cy="0.424" r="0.424" transform="translate(-747.303 -3607.014)" fill="#161615"/>
      <circle id="Elipse_718" data-name="Elipse 718" cx="0.424" cy="0.424" r="0.424" transform="translate(-748.371 -3607.014)" fill="#161615"/>
      <circle id="Elipse_719" data-name="Elipse 719" cx="0.424" cy="0.424" r="0.424" transform="translate(-749.44 -3607.014)" fill="#161615"/>
      <circle id="Elipse_720" data-name="Elipse 720" cx="0.424" cy="0.424" r="0.424" transform="translate(-750.485 -3607.014)" fill="#161615"/>
      <circle id="Elipse_721" data-name="Elipse 721" cx="0.424" cy="0.424" r="0.424" transform="translate(-740.894 -3607.014)" fill="#161615"/>
      <circle id="Elipse_722" data-name="Elipse 722" cx="0.424" cy="0.424" r="0.424" transform="translate(-741.962 -3607.014)" fill="#161615"/>
      <circle id="Elipse_723" data-name="Elipse 723" cx="0.424" cy="0.424" r="0.424" transform="translate(-743.03 -3607.014)" fill="#161615"/>
      <circle id="Elipse_724" data-name="Elipse 724" cx="0.424" cy="0.424" r="0.424" transform="translate(-744.098 -3607.014)" fill="#161615"/>
      <circle id="Elipse_725" data-name="Elipse 725" cx="0.424" cy="0.424" r="0.424" transform="translate(-745.166 -3607.014)" fill="#161615"/>
      <circle id="Elipse_726" data-name="Elipse 726" cx="0.424" cy="0.424" r="0.424" transform="translate(-746.235 -3607.014)" fill="#161615"/>
      <circle id="Elipse_727" data-name="Elipse 727" cx="0.424" cy="0.424" r="0.424" transform="translate(-747.303 -3605.786)" fill="#161615"/>
      <circle id="Elipse_728" data-name="Elipse 728" cx="0.424" cy="0.424" r="0.424" transform="translate(-748.371 -3605.786)" fill="#161615"/>
      <circle id="Elipse_729" data-name="Elipse 729" cx="0.424" cy="0.424" r="0.424" transform="translate(-749.44 -3605.786)" fill="#161615"/>
      <circle id="Elipse_730" data-name="Elipse 730" cx="0.424" cy="0.424" r="0.424" transform="translate(-740.894 -3605.786)" fill="#161615"/>
      <circle id="Elipse_731" data-name="Elipse 731" cx="0.424" cy="0.424" r="0.424" transform="translate(-741.962 -3605.786)" fill="#161615"/>
      <circle id="Elipse_732" data-name="Elipse 732" cx="0.424" cy="0.424" r="0.424" transform="translate(-743.03 -3605.786)" fill="#161615"/>
      <circle id="Elipse_733" data-name="Elipse 733" cx="0.424" cy="0.424" r="0.424" transform="translate(-744.098 -3605.786)" fill="#161615"/>
      <circle id="Elipse_734" data-name="Elipse 734" cx="0.424" cy="0.424" r="0.424" transform="translate(-739.848 -3605.786)" fill="#161615"/>
      <circle id="Elipse_735" data-name="Elipse 735" cx="0.424" cy="0.424" r="0.424" transform="translate(-745.166 -3605.786)" fill="#161615"/>
      <circle id="Elipse_736" data-name="Elipse 736" cx="0.424" cy="0.424" r="0.424" transform="translate(-746.235 -3605.786)" fill="#161615"/>
      <circle id="Elipse_737" data-name="Elipse 737" cx="0.424" cy="0.424" r="0.424" transform="translate(-747.303 -3604.559)" fill="#161615"/>
      <circle id="Elipse_738" data-name="Elipse 738" cx="0.424" cy="0.424" r="0.424" transform="translate(-748.371 -3604.559)" fill="#161615"/>
      <circle id="Elipse_739" data-name="Elipse 739" cx="0.424" cy="0.424" r="0.424" transform="translate(-749.44 -3604.559)" fill="#161615"/>
      <circle id="Elipse_740" data-name="Elipse 740" cx="0.424" cy="0.424" r="0.424" transform="translate(-750.485 -3604.559)" fill="#161615"/>
      <circle id="Elipse_741" data-name="Elipse 741" cx="0.424" cy="0.424" r="0.424" transform="translate(-740.894 -3604.559)" fill="#161615"/>
      <circle id="Elipse_742" data-name="Elipse 742" cx="0.424" cy="0.424" r="0.424" transform="translate(-741.962 -3604.559)" fill="#161615"/>
      <circle id="Elipse_743" data-name="Elipse 743" cx="0.424" cy="0.424" r="0.424" transform="translate(-743.03 -3604.559)" fill="#161615"/>
      <circle id="Elipse_744" data-name="Elipse 744" cx="0.424" cy="0.424" r="0.424" transform="translate(-744.098 -3604.559)" fill="#161615"/>
      <circle id="Elipse_745" data-name="Elipse 745" cx="0.424" cy="0.424" r="0.424" transform="translate(-738.757 -3604.559)" fill="#161615"/>
      <circle id="Elipse_746" data-name="Elipse 746" cx="0.424" cy="0.424" r="0.424" transform="translate(-739.848 -3604.559)" fill="#161615"/>
      <circle id="Elipse_747" data-name="Elipse 747" cx="0.424" cy="0.424" r="0.424" transform="translate(-745.166 -3604.559)" fill="#161615"/>
      <circle id="Elipse_748" data-name="Elipse 748" cx="0.424" cy="0.424" r="0.424" transform="translate(-746.235 -3604.559)" fill="#161615"/>
      <circle id="Elipse_749" data-name="Elipse 749" cx="0.424" cy="0.424" r="0.424" transform="translate(-747.303 -3603.331)" fill="#161615"/>
      <circle id="Elipse_750" data-name="Elipse 750" cx="0.424" cy="0.424" r="0.424" transform="translate(-748.371 -3603.331)" fill="#161615"/>
      <circle id="Elipse_751" data-name="Elipse 751" cx="0.424" cy="0.424" r="0.424" transform="translate(-749.44 -3603.331)" fill="#161615"/>
      <circle id="Elipse_752" data-name="Elipse 752" cx="0.424" cy="0.424" r="0.424" transform="translate(-750.485 -3603.331)" fill="#161615"/>
      <circle id="Elipse_753" data-name="Elipse 753" cx="0.424" cy="0.424" r="0.424" transform="translate(-751.576 -3603.331)" fill="#161615"/>
      <circle id="Elipse_754" data-name="Elipse 754" cx="0.424" cy="0.424" r="0.424" transform="translate(-740.894 -3603.331)" fill="#161615"/>
      <circle id="Elipse_755" data-name="Elipse 755" cx="0.424" cy="0.424" r="0.424" transform="translate(-741.962 -3603.331)" fill="#161615"/>
      <circle id="Elipse_756" data-name="Elipse 756" cx="0.424" cy="0.424" r="0.424" transform="translate(-743.03 -3603.331)" fill="#161615"/>
      <circle id="Elipse_757" data-name="Elipse 757" cx="0.424" cy="0.424" r="0.424" transform="translate(-744.098 -3603.331)" fill="#161615"/>
      <circle id="Elipse_758" data-name="Elipse 758" cx="0.424" cy="0.424" r="0.424" transform="translate(-738.757 -3603.331)" fill="#161615"/>
      <circle id="Elipse_759" data-name="Elipse 759" cx="0.424" cy="0.424" r="0.424" transform="translate(-739.848 -3603.331)" fill="#161615"/>
      <circle id="Elipse_760" data-name="Elipse 760" cx="0.424" cy="0.424" r="0.424" transform="translate(-745.166 -3603.331)" fill="#161615"/>
      <circle id="Elipse_761" data-name="Elipse 761" cx="0.424" cy="0.424" r="0.424" transform="translate(-746.235 -3603.331)" fill="#161615"/>
      <circle id="Elipse_762" data-name="Elipse 762" cx="0.424" cy="0.424" r="0.424" transform="translate(-747.303 -3602.104)" fill="#161615"/>
      <circle id="Elipse_763" data-name="Elipse 763" cx="0.424" cy="0.424" r="0.424" transform="translate(-748.371 -3602.104)" fill="#161615"/>
      <circle id="Elipse_764" data-name="Elipse 764" cx="0.424" cy="0.424" r="0.424" transform="translate(-749.44 -3602.104)" fill="#161615"/>
      <circle id="Elipse_765" data-name="Elipse 765" cx="0.424" cy="0.424" r="0.424" transform="translate(-741.962 -3602.104)" fill="#161615"/>
      <circle id="Elipse_766" data-name="Elipse 766" cx="0.424" cy="0.424" r="0.424" transform="translate(-743.03 -3602.104)" fill="#161615"/>
      <circle id="Elipse_767" data-name="Elipse 767" cx="0.424" cy="0.424" r="0.424" transform="translate(-744.098 -3602.104)" fill="#161615"/>
      <circle id="Elipse_768" data-name="Elipse 768" cx="0.424" cy="0.424" r="0.424" transform="translate(-745.166 -3602.104)" fill="#161615"/>
      <circle id="Elipse_769" data-name="Elipse 769" cx="0.424" cy="0.424" r="0.424" transform="translate(-746.235 -3602.104)" fill="#161615"/>
      <circle id="Elipse_770" data-name="Elipse 770" cx="0.424" cy="0.424" r="0.424" transform="translate(-747.303 -3601.19)" fill="#161615"/>
      <circle id="Elipse_771" data-name="Elipse 771" cx="0.424" cy="0.424" r="0.424" transform="translate(-741.962 -3601.19)" fill="#161615"/>
      <circle id="Elipse_772" data-name="Elipse 772" cx="0.424" cy="0.424" r="0.424" transform="translate(-743.03 -3601.19)" fill="#161615"/>
      <circle id="Elipse_773" data-name="Elipse 773" cx="0.424" cy="0.424" r="0.424" transform="translate(-744.098 -3601.19)" fill="#161615"/>
      <circle id="Elipse_774" data-name="Elipse 774" cx="0.424" cy="0.424" r="0.424" transform="translate(-745.166 -3601.19)" fill="#161615"/>
      <circle id="Elipse_775" data-name="Elipse 775" cx="0.424" cy="0.424" r="0.424" transform="translate(-746.235 -3601.19)" fill="#161615"/>
      <circle id="Elipse_776" data-name="Elipse 776" cx="0.424" cy="0.424" r="0.424" transform="translate(-741.962 -3599.806)" fill="#161615"/>
      <circle id="Elipse_777" data-name="Elipse 777" cx="0.424" cy="0.424" r="0.424" transform="translate(-743.03 -3599.806)" fill="#161615"/>
      <circle id="Elipse_778" data-name="Elipse 778" cx="0.424" cy="0.424" r="0.424" transform="translate(-744.098 -3599.806)" fill="#161615"/>
      <circle id="Elipse_779" data-name="Elipse 779" cx="0.424" cy="0.424" r="0.424" transform="translate(-741.962 -3598.421)" fill="#161615"/>
      <circle id="Elipse_780" data-name="Elipse 780" cx="0.424" cy="0.424" r="0.424" transform="translate(-743.03 -3598.421)" fill="#161615"/>
    </g>
  </g>
</svg>
