<svg xmlns="http://www.w3.org/2000/svg" width="168.555" height="119.455" viewBox="0 0 168.555 119.455"><defs><style>.a{fill:#141414;}.b{fill:#fff;}.c{fill:#d60028;}</style></defs><path class="a" d="M5484.257-22786.242l-1.917,11.256,89.186,24.049,2.751-10.963Z" transform="translate(-5406.446 22807.408)"/><g transform="translate(58.079 21.166)"><path d="M1943.182,870.759l2.4.642,6.52,1.747,9.646,2.584,11.768,3.153,12.889,3.454,13.01,3.486,12.085,3.238,10.294,2.758,7.343,1.967c1.153.309,2.373.54,3.5.938.05.017.1.027.152.04l-.815.464.522-1.953,1.424-5.314,2.095-7.816,2.567-9.582,2.813-10.5,2.84-10.6,2.649-9.884,2.237-8.351,1.6-5.981c.251-.937.428-1.946.765-2.856.015-.04.022-.084.034-.125l.462.816-2.4-.642-6.521-1.747-9.645-2.584-11.768-3.153-12.89-3.454-13.01-3.486-12.084-3.238-10.294-2.759-7.343-1.967c-1.154-.309-2.371-.54-3.5-.938-.049-.017-.1-.027-.151-.04l.815-.463-.524,1.953-1.424,5.314-2.094,7.816-2.568,9.582-2.813,10.5-2.841,10.6-2.648,9.883-2.237,8.351-1.6,5.981c-.255.951-.482,1.914-.766,2.856-.011.041-.022.083-.032.125a.664.664,0,0,1-1.279-.352l.523-1.953,1.424-5.314,2.094-7.816,2.568-9.582,2.813-10.5,2.84-10.6,2.648-9.883,2.238-8.351,1.6-5.981c.255-.95.482-1.914.765-2.856.013-.041.022-.083.034-.125a.673.673,0,0,1,.815-.463l2.4.642,6.521,1.747,9.645,2.584,11.768,3.153,12.89,3.454,13.009,3.486,12.085,3.238,10.293,2.758,7.343,1.968c1.165.312,2.342.6,3.5.938.051.015.1.027.152.041a.673.673,0,0,1,.462.815l-.523,1.953-1.423,5.314-2.095,7.815-2.567,9.582-2.813,10.5-2.841,10.6-2.647,9.884-2.238,8.351-1.6,5.98c-.255.951-.482,1.914-.765,2.857-.013.041-.023.083-.035.125a.673.673,0,0,1-.815.463l-2.4-.642-6.522-1.747-9.644-2.584-11.768-3.153-12.89-3.454-13.01-3.486-12.084-3.238-10.294-2.758-7.343-1.968c-1.166-.312-2.342-.6-3.5-.937-.051-.015-.1-.027-.152-.041A.664.664,0,0,1,1943.182,870.759Z" transform="translate(-1942.341 -797.778)"/></g><g transform="translate(74.717 32.094)"><path d="M2045.74,872.554l-2.408-.645-6.522-1.748-9.637-2.582-11.757-3.15-12.876-3.451-13.041-3.494-12.08-3.237-10.277-2.754-7.364-1.973c-1.162-.311-2.333-.6-3.489-.935l-.151-.04a.663.663,0,0,1,.352-1.278l2.408.645,6.52,1.748,9.639,2.582,11.757,3.15,12.875,3.45,13.041,3.494,12.081,3.236,10.277,2.754,7.364,1.973c1.163.311,2.332.6,3.489.935.05.015.1.027.151.04a.664.664,0,0,1-.352,1.279Z" transform="translate(-1955.669 -847.241)"/></g><g transform="translate(67.891 39.506)"><path d="M1995.093,927.055l2.026.543,5.485,1.469,8.141,2.181,9.894,2.651,10.835,2.9,10.979,2.942,10.2,2.733,8.652,2.318,6.2,1.66c.974.261,1.98.474,2.94.788.042.013.085.023.128.034l-.816.463,1.237-4.617,2.958-11.039,3.578-13.349,3.1-11.572,1.015-3.788c.159-.591.269-1.231.484-1.8a.819.819,0,0,0,.022-.082l.463.816-2.026-.543-5.484-1.469-8.141-2.181-9.894-2.651-10.834-2.9-10.98-2.942-10.2-2.733-8.652-2.318-6.2-1.661c-.974-.261-1.981-.473-2.941-.788-.041-.013-.084-.023-.127-.034l.815-.463-1.237,4.616-2.958,11.04-3.577,13.349-3.1,11.572c-.5,1.86-.933,3.753-1.5,5.594-.008.026-.016.054-.023.082a.664.664,0,0,1-1.279-.353l1.237-4.616,2.958-11.04,3.577-13.349,3.1-11.572c.5-1.86.933-3.752,1.5-5.593.008-.027.014-.055.022-.082a.673.673,0,0,1,.815-.463l2.025.543,5.485,1.469,8.14,2.181,9.895,2.651,10.834,2.9,10.98,2.942,10.2,2.733,8.652,2.318,6.2,1.661c.979.263,1.967.5,2.941.788.041.012.085.023.128.034a.673.673,0,0,1,.463.816l-1.237,4.616-2.958,11.04-3.577,13.349-3.1,11.572c-.5,1.86-.934,3.752-1.5,5.593-.009.027-.015.055-.022.082a.674.674,0,0,1-.816.463l-2.025-.543-5.485-1.469-8.141-2.181-9.893-2.651-10.835-2.9-10.979-2.942-10.2-2.733-8.651-2.318-6.2-1.66c-.979-.262-1.967-.5-2.94-.788-.043-.013-.085-.023-.129-.034A.664.664,0,0,1,1995.093,927.055Z" transform="translate(-1994.251 -880.78)"/></g><g transform="translate(116.247 57.852)"><path d="M2029.426,998.46l2.257.6,5.417,1.452,6.525,1.748,5.643,1.512,1.876.5c.292.078.6.138.884.237a.326.326,0,0,0,.04.01l-.816.463.926-3.457,2.224-8.3,2.68-10,2.315-8.638.762-2.843c.118-.445.214-.907.361-1.345l.015-.057.462.815-2.256-.6-5.417-1.451-6.525-1.748-5.644-1.512-1.876-.5c-.291-.078-.6-.138-.884-.237-.013,0-.027-.007-.041-.011l.816-.463-.926,3.457-2.223,8.3-2.68,10-2.314,8.638c-.374,1.394-.708,2.806-1.123,4.189-.006.019-.01.038-.015.057a.663.663,0,0,1-1.278-.353l.926-3.458,2.223-8.3,2.681-10,2.314-8.638c.373-1.394.708-2.806,1.122-4.188.006-.019.011-.038.016-.057a.672.672,0,0,1,.815-.463l2.257.6,5.418,1.451,6.524,1.748,5.644,1.512c.918.246,1.852.461,2.761.74l.039.011a.673.673,0,0,1,.463.816l-.926,3.457-2.222,8.3-2.681,10-2.315,8.638c-.373,1.394-.708,2.806-1.122,4.188-.006.019-.01.039-.016.057a.672.672,0,0,1-.814.463l-2.258-.6-5.417-1.452-6.525-1.748-5.643-1.512c-.918-.246-1.852-.46-2.76-.74l-.041-.01A.664.664,0,0,1,2029.426,998.46Z" transform="translate(-2028.585 -963.798)"/></g><g transform="translate(83.123 28.852)"><path class="b" d="M2158.472,846.412l-1.26-.338-3.394-.909-5.057-1.355-6.147-1.647-6.732-1.8-6.793-1.821-6.337-1.7-5.355-1.435-3.853-1.032c-.609-.163-1.221-.314-1.826-.49l-.08-.021a.664.664,0,0,1,.353-1.279l1.259.338,3.4.91,5.056,1.355,6.148,1.647,6.731,1.8,6.8,1.82,6.335,1.7,5.355,1.435,3.852,1.032c.608.163,1.221.314,1.827.489l.079.021a.664.664,0,0,1-.352,1.279Z" transform="translate(-2111.169 -832.559)"/></g><g transform="translate(86.491 51.115)"><path d="M2230.555,940.534l-2.187-.586-5.279-1.414-6.362-1.705-5.524-1.48c-.888-.237-1.793-.444-2.673-.715l-.038-.01a.663.663,0,0,1,.352-1.279l2.187.586,5.278,1.414,6.362,1.7,5.524,1.48c.888.238,1.794.445,2.673.716l.037.01a.663.663,0,0,1-.351,1.279Z" transform="translate(-2208.023 -933.319)"/></g><g transform="translate(84.468 58.668)"><path d="M2239.705,974.687l-2.186-.586-5.279-1.415-6.362-1.7-5.524-1.48c-.888-.238-1.792-.445-2.673-.716a.317.317,0,0,0-.037-.011A.664.664,0,0,1,2218,967.5l2.186.586,5.28,1.414,6.362,1.7,5.523,1.479c.888.238,1.793.445,2.672.716l.038.01a.664.664,0,0,1-.353,1.278Z" transform="translate(-2217.174 -967.472)"/></g><g transform="translate(81.772 68.729)"><path d="M2219.161,1022.714l-3.129-.838-7.483-2.005-9.075-2.432-7.817-2.095c-1.263-.338-2.542-.64-3.794-1.016l-.052-.014a.663.663,0,0,1,.352-1.278l3.129.838,7.484,2.005,9.074,2.432,7.818,2.094c1.262.339,2.543.641,3.794,1.017l.052.014a.663.663,0,0,1-.352,1.279Z" transform="translate(-2187.341 -1013.01)"/></g><g transform="translate(77.811 78.869)"><path d="M2233,1068.907l-3.254-.872-7.753-2.078-9.371-2.51-8.146-2.182c-1.309-.351-2.635-.666-3.933-1.054l-.057-.014a.664.664,0,0,1,.354-1.279l3.253.871,7.753,2.078,9.371,2.511,8.146,2.182c1.309.351,2.634.666,3.933,1.054l.057.014a.664.664,0,0,1-.353,1.279Z" transform="translate(-2200.013 -1058.892)"/></g><g transform="translate(116.252 63.924)"><g transform="translate(0)"><path d="M2061.641,992.4l-.853.763-2.33,2.086-3.432,3.073-4.187,3.747-4.586,4.1-4.649,4.162-4.315,3.863-3.648,3.265-2.624,2.349c-.416.372-.826.748-1.247,1.115l-.055.049a.676.676,0,0,1-.937,0,.669.669,0,0,1,0-.937l.851-.763,2.33-2.085,3.433-3.072,4.185-3.747,4.586-4.1,4.649-4.161,4.316-3.863,3.648-3.265,2.624-2.349c.416-.372.827-.749,1.246-1.115l.056-.049a.679.679,0,0,1,.938,0,.67.67,0,0,1,0,.937Z" transform="translate(-2028.587 -991.271)"/></g></g><g transform="translate(137.91 42.279)"><g transform="translate(17.418 4.668)"><ellipse class="c" cx="2.054" cy="2.054" rx="2.054" ry="2.054" transform="translate(0.111 0.11)"/><path d="M1984.778,918.79a2.164,2.164,0,1,0-2.09-2.725h0a2.164,2.164,0,0,0,2.09,2.725Zm0-4.108a1.943,1.943,0,1,1-1.877,1.441h0A1.946,1.946,0,0,1,1984.779,914.682Z" transform="translate(-1982.614 -914.461)"/></g><g transform="translate(8.902 2.387)"><ellipse class="c" cx="2.054" cy="2.054" rx="2.054" ry="2.054" transform="translate(0.112 0.11)"/><path d="M2023.311,908.467a2.165,2.165,0,1,0-2.093-2.725h0a2.165,2.165,0,0,0,1.53,2.65A2.2,2.2,0,0,0,2023.311,908.467Zm0-4.108a1.943,1.943,0,1,1-1.878,1.44h0A1.948,1.948,0,0,1,2023.309,904.359Z" transform="translate(-2021.143 -904.138)"/></g><g transform="translate(0)"><ellipse class="c" cx="2.054" cy="2.054" rx="2.054" ry="2.054" transform="translate(0.112 0.111)"/><path d="M2063.6,897.668a2.17,2.17,0,1,0-.563-.075A2.151,2.151,0,0,0,2063.6,897.668Zm-.007-4.109a1.944,1.944,0,1,1-1.874,1.441h0a1.944,1.944,0,0,1,1.874-1.441Z" transform="translate(-2061.427 -893.338)"/></g></g><g transform="translate(0.792 0.774)"><path class="a" d="M2356.235,742.445H2347.9c0-1.438,0-2.863,0-4.288,0-1.208-.213-1.414-1.429-1.416q-3.049,0-6.1,0c-1.073,0-1.267.206-1.269,1.289,0,1.214-.039,2.429.017,3.641a1.5,1.5,0,0,1-.658,1.34c-2.533,2.106-5.1,4.171-7.546,6.379a65.122,65.122,0,0,0-10.256,11.868c-1.316,1.947-2.844,3.818-3.418,6.151a41.5,41.5,0,0,0-.662,4.732,7.832,7.832,0,0,0-.006.946c-4-1.091-6.579-3.734-8.34-7.285a29.621,29.621,0,0,1-2.826-10.338,56.437,56.437,0,0,1-.322-6.237,13,13,0,0,1,1.676-6.622,6.256,6.256,0,0,1,2.959-2.681,16.924,16.924,0,0,0,1.636,2.848,4.777,4.777,0,0,0,5.4,1.317q5.546-1.706,11.07-3.484c3.251-1.044,4.527-3.519,3.528-6.8-.546-1.794-1.014-3.574-.19-5.416a9.67,9.67,0,0,1,3.344-3.842,33.155,33.155,0,0,1,9.665-4.5c3.441-1.089,6.939-2.03,10.451-2.864a16.144,16.144,0,0,1,7.376-.157,6.277,6.277,0,0,1,4.908,4.345,11.016,11.016,0,0,0,1.494,3.258,4.621,4.621,0,0,0,5.327,1.5c3.91-1.2,7.82-2.411,11.7-3.685a4.727,4.727,0,0,0,3.288-5.779,20.74,20.74,0,0,0-3-7.455,9.588,9.588,0,0,0-7.114-4,42.58,42.58,0,0,0-14.085,1.081,255.131,255.131,0,0,0-34.475,10.27,72.587,72.587,0,0,0-15.3,7.137,13.894,13.894,0,0,0-5.052,5.1,9.073,9.073,0,0,0-.825,5.748c.256,1.575.256,2.57-1.472,3.489-2.819,1.5-4.129,4.328-4.666,7.374a32.9,32.9,0,0,0-.468,6.46,38.557,38.557,0,0,0,2.611,13.413c1.912,4.82,4.936,8.589,10.039,10.224a2.359,2.359,0,0,1,1.922,2.262,11.76,11.76,0,0,0,10.057,9.872,14.966,14.966,0,0,0,2.448.112q22.9.009,45.812,0a11.941,11.941,0,0,0,12.116-9.472,8.388,8.388,0,0,0,.26-2.169c-.07-2.614-.089-5.24-.374-7.835a8.873,8.873,0,0,0-1.311-3.336,67.028,67.028,0,0,0-12.969-15.924c-2.381-2.149-4.92-4.126-7.361-6.21a1.486,1.486,0,0,1-.474-.964c-.054-1.353-.043-2.71-.013-4.064.016-.727-.316-1.042-1-1.042-2.257,0-4.516,0-6.773,0-.71,0-1.021.36-1.018,1.053C2356.24,739.315,2356.235,740.836,2356.235,742.445Z" transform="translate(-2302.258 -704.999)"/></g><g transform="translate(0)"><path d="M2354.028,741.01h-8.336a.791.791,0,0,1-.78-.779q0-1.63,0-3.262c0-.452.014-.908-.009-1.359a.644.644,0,0,0-.044-.3c-.045-.123,0,.006,0,0q-.06-.094-.009-.017a.191.191,0,0,0,.093.083c-.059-.078-.052-.013.015,0-.056-.007-.116-.035-.174-.047-.008,0-.184-.017-.3-.02-.527-.018-1.058,0-1.586,0q-1.609,0-3.218,0c-.508,0-1.016,0-1.524,0a3.443,3.443,0,0,0-.421.017c.107-.014-.053.018-.077.019s-.01,0,0-.019l.032-.026c-.059.061-.056.055.013-.019.062-.011-.023-.171,0,0,.02.134-.033.133-.037.264-.01.506-.01,1.013-.014,1.52s-.008.993,0,1.49a7.413,7.413,0,0,1-.022,1.478c-.168.9-.955,1.421-1.611,1.964-3.171,2.622-6.385,5.208-9.282,8.137a64.868,64.868,0,0,0-7.364,8.927,29.4,29.4,0,0,0-3.2,5.106,12.234,12.234,0,0,0-.756,3.22,26.122,26.122,0,0,0-.288,3.492.787.787,0,0,1-.987.752,13.074,13.074,0,0,1-5.993-3.544,19.192,19.192,0,0,1-3.813-6.367,32.1,32.1,0,0,1-1.94-8.547,33.378,33.378,0,0,1-.045-9.046c.527-2.953,2.056-5.948,4.939-7.161a.777.777,0,0,1,.879.358c.743,1.345,1.261,2.878,2.685,3.661a4.868,4.868,0,0,0,3.877.02c3.56-1.1,7.123-2.194,10.662-3.358a4.977,4.977,0,0,0,2.671-1.827,4.165,4.165,0,0,0,.571-2.894,19.122,19.122,0,0,0-.56-2.166,9.622,9.622,0,0,1-.363-2.452,7.169,7.169,0,0,1,1.829-4.519,14.628,14.628,0,0,1,3.562-2.941,29.555,29.555,0,0,1,4.539-2.289,81.906,81.906,0,0,1,10.116-3.212c3.482-.93,7.053-2,10.7-1.535a9.6,9.6,0,0,1,4.173,1.357,6.882,6.882,0,0,1,2.432,2.863c.622,1.363.863,2.957,1.888,4.107a3.788,3.788,0,0,0,3.387,1.26,14.24,14.24,0,0,0,2.348-.643q1.342-.413,2.686-.831,2.645-.822,5.281-1.667c1.343-.431,2.935-.718,4-1.713a3.871,3.871,0,0,0,1.208-2.994,9.575,9.575,0,0,0-.408-2.114c-.207-.794-.446-1.581-.73-2.351a14.658,14.658,0,0,0-2.207-4.108c-1.82-2.262-4.5-3.081-7.3-3.309a40.3,40.3,0,0,0-10.735.778,188.4,188.4,0,0,0-21.051,5.433q-5.186,1.616-10.311,3.419c-3.338,1.166-6.68,2.342-9.958,3.667a60.794,60.794,0,0,0-9.228,4.563c-2.541,1.571-5.191,3.492-6.2,6.442a10,10,0,0,0-.243,4.711,3.335,3.335,0,0,1-.969,3.184c-.552.474-1.223.759-1.814,1.177a7.01,7.01,0,0,0-1.365,1.3,9.67,9.67,0,0,0-1.7,3.466,29.286,29.286,0,0,0-.7,10.093,37.424,37.424,0,0,0,2.158,10.137,19.794,19.794,0,0,0,4.019,6.877,13.6,13.6,0,0,0,2.99,2.385,13.36,13.36,0,0,0,1.708.851c.636.26,1.317.424,1.935.732a3.491,3.491,0,0,1,1.692,2.834,11.672,11.672,0,0,0,1.287,3.533,10.845,10.845,0,0,0,5.275,4.623,11.175,11.175,0,0,0,3.979.89c1.878.044,3.762.005,5.643.006l11.237,0q11.324,0,22.648,0l5.7,0a21.688,21.688,0,0,0,4.315-.245,11.087,11.087,0,0,0,6.056-3.357,11.45,11.45,0,0,0,1.951-3.009,10.264,10.264,0,0,0,1-4.018c.018-1.835-.069-3.689-.17-5.521a22.155,22.155,0,0,0-.234-2.714,7.913,7.913,0,0,0-.945-2.368,63.663,63.663,0,0,0-12.186-15.355c-2.6-2.433-5.436-4.591-8.127-6.921a2.728,2.728,0,0,1-.85-2.215c-.024-.931-.022-1.863-.006-2.795a3.011,3.011,0,0,0-.027-.983c.05.13.078.025-.009.045.041-.01-.132,0-.175,0-.953-.056-1.925,0-2.879,0h-2.626c-.419,0-.853-.032-1.27,0,.015,0-.272,0-.185.013-.1-.015-.054.09-.009-.032a2.879,2.879,0,0,0-.043.945c0,.437,0,.874,0,1.311,0,.9,0,1.793,0,2.689a.779.779,0,0,1-1.558,0q0-1.427,0-2.853,0-.654,0-1.309a3.714,3.714,0,0,1,.1-1.2,1.676,1.676,0,0,1,1.583-1.122c.931-.063,1.889,0,2.824,0h2.879a4.052,4.052,0,0,1,2.285.3,2.057,2.057,0,0,1,.674,1.943c-.018.959-.023,1.919,0,2.879a1.817,1.817,0,0,0,.159,1.06,5.808,5.808,0,0,0,.937.812q1.082.907,2.174,1.8c1.43,1.18,2.859,2.361,4.238,3.6a67.406,67.406,0,0,1,7.079,7.4,68.74,68.74,0,0,1,5.865,8.339,17.163,17.163,0,0,1,1.242,2.411,9.231,9.231,0,0,1,.537,2.707c.165,1.9.208,3.8.254,5.708a15.087,15.087,0,0,1-.1,2.8,12.457,12.457,0,0,1-.568,2.156,13.334,13.334,0,0,1-1.821,3.507,12.479,12.479,0,0,1-6.09,4.437,14.233,14.233,0,0,1-3.989.7c-1.852.069-3.714.011-5.567.012h-11.756q-11.714,0-23.425,0c-1.927,0-3.854,0-5.782,0a14.107,14.107,0,0,1-4.707-.7,12.7,12.7,0,0,1-6.274-4.642,12.492,12.492,0,0,1-1.709-3.515c-.2-.656-.315-1.323-.459-1.993a1.757,1.757,0,0,0-.533-1.063,7.553,7.553,0,0,0-1.705-.688,16.147,16.147,0,0,1-1.939-.9,14.948,14.948,0,0,1-3.294-2.473,20.414,20.414,0,0,1-4.432-7.073,38.161,38.161,0,0,1-2.457-10.505,33.161,33.161,0,0,1,.518-10.775,10.262,10.262,0,0,1,4.82-6.847,3.616,3.616,0,0,0,.745-.5,2.8,2.8,0,0,0,.2-.209,1.6,1.6,0,0,0,.1-.152s.1-.209.066-.131a2.839,2.839,0,0,0,.042-1.39,11.052,11.052,0,0,1,.264-5.144c1.047-3.162,3.622-5.329,6.335-7.068,6.1-3.907,13.054-6.277,19.85-8.658,7.069-2.477,14.211-4.754,21.464-6.63,3.619-.936,7.27-1.812,10.951-2.467a39.347,39.347,0,0,1,11.249-.618,10.937,10.937,0,0,1,7.685,3.839,16.829,16.829,0,0,1,2.435,4.5,17.733,17.733,0,0,1,1.233,4.783,5.447,5.447,0,0,1-1.081,3.693,6.939,6.939,0,0,1-3.632,2.229c-3.644,1.188-7.3,2.359-10.975,3.447a5.857,5.857,0,0,1-4.374-.273,6.537,6.537,0,0,1-2.922-3.661,9.81,9.81,0,0,0-1.774-3.555,6.228,6.228,0,0,0-3.323-1.671c-3.728-.778-7.4.33-10.982,1.282a79.048,79.048,0,0,0-10.49,3.343,26.777,26.777,0,0,0-4.472,2.379,10.682,10.682,0,0,0-3.277,3.134,4.988,4.988,0,0,0-.812,2.269,7.487,7.487,0,0,0,.294,2.414,10.374,10.374,0,0,1,.584,4.25,5.157,5.157,0,0,1-1.651,3.066,10.443,10.443,0,0,1-4.006,1.905q-2.763.884-5.532,1.751-1.343.421-2.689.837a18.777,18.777,0,0,1-2.535.711,5.517,5.517,0,0,1-4.115-.8c-1.414-1-2.007-2.489-2.812-3.951l.88.358c-2.191.923-3.3,3.456-3.763,5.633a28.027,28.027,0,0,0-.064,8.23,33.417,33.417,0,0,0,1.589,7.948,18.96,18.96,0,0,0,3.266,6.126,11.634,11.634,0,0,0,5.825,3.721l-.986.752a25.631,25.631,0,0,1,.259-3.246,16.848,16.848,0,0,1,.6-3.2,19.646,19.646,0,0,1,2.887-5.121,77.9,77.9,0,0,1,7.675-9.617,113.947,113.947,0,0,1,9.8-8.692c.359-.3.746-.58,1.081-.906.3-.292.252-.554.238-.961-.037-1.1-.014-2.207,0-3.31a1.944,1.944,0,0,1,.734-1.813,5.074,5.074,0,0,1,2.5-.258q1.865,0,3.726,0a4.966,4.966,0,0,1,2.706.324c.726.493.688,1.435.688,2.214,0,1.315,0,2.631,0,3.946l-.779-.779h8.336A.78.78,0,0,1,2354.028,741.01Z" transform="translate(-2299.257 -702.008)"/></g><g transform="translate(34.397 46.222)"><g transform="translate(0.453 0.46)"><path class="b" d="M2420.089,891.98a15.344,15.344,0,1,1-15.346,15.345A15.345,15.345,0,0,1,2420.089,891.98Zm0,25.163a9.819,9.819,0,1,0-9.818-9.818A9.819,9.819,0,0,0,2420.089,917.143Z" transform="translate(-2404.743 -891.98)"/></g><g transform="translate(0 0)"><path d="M2419.085,890.48a15.818,15.818,0,1,1-2.455.193,16.5,16.5,0,0,1,2.455-.193.46.46,0,0,1,0,.92,14.849,14.849,0,1,0,2.315.176,15.026,15.026,0,0,0-2.315-.176A.46.46,0,0,1,2419.085,890.48Z" transform="translate(-2403.285 -890.48)"/><g transform="translate(5.527 5.547)"><path d="M2431.554,928.17a9.331,9.331,0,1,0-1.471-.112,9.447,9.447,0,0,0,1.471.112.461.461,0,0,1,0,.921,10.287,10.287,0,1,1,1.611-.128,11.141,11.141,0,0,1-1.611.128A.461.461,0,0,1,2431.554,928.17Z" transform="translate(-2421.282 -908.553)"/></g></g></g></svg>