<svg xmlns="http://www.w3.org/2000/svg" width="25" height="25" viewBox="0 0 25 25">
  <g id="Componente_66_1" data-name="Componente 66 – 1" transform="translate(0)">
    <g id="Grupo_29386" data-name="Grupo 29386" transform="translate(757.38 3522.261)">
      <g id="Grupo_26794" data-name="Grupo 26794">
        <g id="Grupo_26791-2" data-name="Grupo 26791-2">
          <circle id="Elipse_784-7" data-name="Elipse 784-7" cx="12.5" cy="12.5" r="12.5" transform="translate(-757.38 -3522.261)" fill="#f6f6f6"/>
        </g>
      </g>
      <g id="C" style="mix-blend-mode: normal;isolation: isolate">
        <g id="Grupo_29385" data-name="Grupo 29385" style="mix-blend-mode: normal;isolation: isolate">
          <path id="Trazado_16067" data-name="Trazado 16067" d="M-747.039-3509.787c0,3.689,1.054,5.626,3.213,5.626,1.615,0,2.754-1.189,3.451-3.365h.357l-.12,3.706h-.254c-.085-.222-.187-.341-.425-.341a19.4,19.4,0,0,1-3.281.528c-3.468,0-5.644-1.853-5.644-6.052,0-4.063,2.4-6.2,5.7-6.2a18.447,18.447,0,0,1,3.094.527c.255,0,.323-.119.408-.34h.255l.136,3.6h-.374c-.663-2.109-1.717-3.264-3.383-3.264C-745.934-3515.362-747.039-3513.9-747.039-3509.787Z"/>
        </g>
      </g>
    </g>
  </g>
</svg>
