<svg xmlns="http://www.w3.org/2000/svg" viewBox="0 0 230.77 9.99"><defs><style>.cls-1{fill:#d6d6d6;}</style></defs><g id="Capa_2" data-name="Capa 2"><g id="Capa_1-2" data-name="Capa 1"><path class="cls-1" d="M229.9,7.9a3.43,3.43,0,0,1-4.84.17l-.17-.17h0a4.42,4.42,0,0,0-6.25-.23l-.23.22h0a3.43,3.43,0,0,1-4.84.17l-.17-.17h0a4.42,4.42,0,0,0-6.25-.23c-.08.07-.15.15-.22.22h0A3.35,3.35,0,0,1,204.54,9a3.42,3.42,0,0,1-2.45-.91l-.18-.17h0a4.43,4.43,0,0,0-6.25-.22l-.22.22h0a3.43,3.43,0,0,1-4.84.17l-.18-.17h0a4.42,4.42,0,0,0-6.25-.23l-.22.22h0a3.43,3.43,0,0,1-4.84.17l-.18-.18h0a4.43,4.43,0,0,0-6.25-.22l-.22.23a3.43,3.43,0,0,1-4.84.17l-.17-.17h0a4.43,4.43,0,0,0-6.26-.23l-.22.22h0a3.42,3.42,0,0,1-4.84.17L156,7.89h0a4.43,4.43,0,0,0-6.24-.21l-.22.23h0a3.44,3.44,0,0,1-4.84.17l-.17-.17h0a4.42,4.42,0,0,0-6.25-.23c-.08.07-.15.15-.22.22h0a3.41,3.41,0,0,1-4.83.17L133,7.9h0a4.43,4.43,0,0,0-6.25-.22l-.22.22h0a3.44,3.44,0,0,1-4.84.17l-.18-.18h0a4.43,4.43,0,0,0-6.25-.22l-.22.22h0a3.42,3.42,0,0,1-4.84.17c-.06-.06-.12-.11-.17-.17h0a4.43,4.43,0,0,0-6.25-.22l-.22.22h0A3.37,3.37,0,0,1,101.15,9a3.42,3.42,0,0,1-2.46-.91l-.17-.18h0a4.43,4.43,0,0,0-6.25-.22L92,7.89h0a3.42,3.42,0,0,1-4.84.17C87.14,8,87.08,8,87,7.9h0a4.42,4.42,0,0,0-6.25-.23l-.22.22h0a3.43,3.43,0,0,1-4.84.17l-.17-.17h0a4.42,4.42,0,0,0-6.25-.23c-.08.07-.15.15-.22.22h0a3.43,3.43,0,0,1-4.84.17l-.17-.17h0a4.42,4.42,0,0,0-6.25-.23l-.22.22h0a3.43,3.43,0,0,1-4.84.17l-.18-.18h0a4.43,4.43,0,0,0-6.25-.22,2.39,2.39,0,0,0-.22.23,3.43,3.43,0,0,1-4.84.17l-.17-.17a4.44,4.44,0,0,0-3.24-1.41h0A4.41,4.41,0,0,0,34.6,7.9,3.44,3.44,0,0,1,32.1,9h0a3.42,3.42,0,0,1-2.5-1.09,4.43,4.43,0,0,0-3.24-1.41h0a4.43,4.43,0,0,0-3.23,1.4h0A3.44,3.44,0,0,1,20.61,9h0A3.42,3.42,0,0,1,18.1,7.9a4.41,4.41,0,0,0-3.23-1.41h0A4.43,4.43,0,0,0,11.62,7.9,3.42,3.42,0,0,1,9.12,9h0A3.45,3.45,0,0,1,6.61,7.9h0a4.45,4.45,0,0,0-3.23-1.4h0A4.44,4.44,0,0,0,.13,7.9a.5.5,0,0,0,0,.7.51.51,0,0,0,.34.14.54.54,0,0,0,.37-.16,3.38,3.38,0,0,1,2.5-1.09h0a3.41,3.41,0,0,1,2.5,1.09h0A4.46,4.46,0,0,0,9.11,10h0a4.44,4.44,0,0,0,3.23-1.41,3.42,3.42,0,0,1,2.51-1.09h0a3.42,3.42,0,0,1,2.51,1.09A4.44,4.44,0,0,0,20.6,10h0a4.44,4.44,0,0,0,3.23-1.41h0a3.42,3.42,0,0,1,2.51-1.09h0a3.42,3.42,0,0,1,2.51,1.09A4.44,4.44,0,0,0,32.09,10h0a4.44,4.44,0,0,0,3.23-1.41,3.42,3.42,0,0,1,2.51-1.09h0a3.38,3.38,0,0,1,2.5,1.09l.23.22a4.44,4.44,0,0,0,6.25-.22h0L47,8.4a3.42,3.42,0,0,1,2.46-.91,3.38,3.38,0,0,1,2.38,1.09h0a2.39,2.39,0,0,0,.23.22,4.36,4.36,0,0,0,3,1.19h.16a4.41,4.41,0,0,0,3.08-1.4h0l.17-.18a3.42,3.42,0,0,1,2.46-.91,3.38,3.38,0,0,1,2.38,1.09l.22.22a4.44,4.44,0,0,0,6.25-.22h0L70,8.4a3.44,3.44,0,0,1,4.84.18h0A2.28,2.28,0,0,0,75,8.8,4.4,4.4,0,0,0,78,10h.16a4.39,4.39,0,0,0,3.08-1.4h0l.17-.18a3.44,3.44,0,0,1,4.84.18l.22.22a4.4,4.4,0,0,0,3,1.19h.16a4.37,4.37,0,0,0,3.07-1.4h0L93,8.4a3.44,3.44,0,0,1,4.84.18h0A2.28,2.28,0,0,0,98,8.8,4.38,4.38,0,0,0,101,10h.16a4.39,4.39,0,0,0,3.08-1.4h0l.17-.18a3.44,3.44,0,0,1,4.84.18h0a2.28,2.28,0,0,0,.22.22,4.4,4.4,0,0,0,3,1.19h.16a4.41,4.41,0,0,0,3.08-1.4h0l.17-.18a3.44,3.44,0,0,1,4.84.18h0l.23.22A4.38,4.38,0,0,0,124,10h.16a4.41,4.41,0,0,0,3.08-1.4h0l.17-.18a3.42,3.42,0,0,1,2.46-.91,3.38,3.38,0,0,1,2.38,1.09h0a2.39,2.39,0,0,0,.23.22,4.36,4.36,0,0,0,3,1.19h.17a4.37,4.37,0,0,0,3.07-1.4h0l.17-.18a3.43,3.43,0,0,1,4.84.18l.22.22a4.44,4.44,0,0,0,6.25-.22h0l.17-.17a3.44,3.44,0,0,1,4.84.18h0l.22.22a4.4,4.4,0,0,0,3,1.19h.16a4.39,4.39,0,0,0,3.08-1.4h0l.18-.18a3.43,3.43,0,0,1,4.84.18l.22.22a4.44,4.44,0,0,0,6.25-.22h0l.17-.18a3.44,3.44,0,0,1,4.84.18h0l.23.22a4.38,4.38,0,0,0,3,1.19h.16a4.41,4.41,0,0,0,3.08-1.4h0l.17-.18a3.44,3.44,0,0,1,4.84.18l.22.22a4.41,4.41,0,0,0,3,1.19h.16a4.41,4.41,0,0,0,3.08-1.4h0l.17-.18a3.44,3.44,0,0,1,4.84.18h0c.07.08.15.15.22.22a4.4,4.4,0,0,0,3,1.19h.17a4.41,4.41,0,0,0,3.08-1.4h0l.17-.18a3.44,3.44,0,0,1,4.84.18l.22.22a4.4,4.4,0,0,0,3,1.19h.16a4.37,4.37,0,0,0,3.08-1.4h0l.18-.18a3.43,3.43,0,0,1,4.83.17h0l.23.22a4.44,4.44,0,0,0,6.25-.22.5.5,0,0,0,0-.71A.5.5,0,0,0,229.9,7.9Z"/><path class="cls-1" d="M229.9,4.65a3.43,3.43,0,0,1-4.84.18l-.17-.17h0a4.43,4.43,0,0,0-6.25-.22l-.23.22h0A3.38,3.38,0,0,1,216,5.74a3.41,3.41,0,0,1-2.46-.91l-.17-.18h0a4.39,4.39,0,0,0-3.08-1.4,4.33,4.33,0,0,0-3.17,1.18,2.28,2.28,0,0,0-.22.22h0a3.38,3.38,0,0,1-2.38,1.09,3.42,3.42,0,0,1-2.45-.91l-.18-.18h0a4.43,4.43,0,0,0-6.25-.22,2.28,2.28,0,0,0-.22.22h0a3.43,3.43,0,0,1-4.84.18l-.18-.18h0a4.39,4.39,0,0,0-3.08-1.4,4.34,4.34,0,0,0-3.17,1.18l-.22.22h0a3.43,3.43,0,0,1-4.84.18l-.17-.18h0a4.37,4.37,0,0,0-3.07-1.4,4.42,4.42,0,0,0-3.18,1.18l-.22.22a3.43,3.43,0,0,1-4.84.18l-.17-.18h0a4.41,4.41,0,0,0-3.08-1.4,4.35,4.35,0,0,0-3.17,1.18,2.39,2.39,0,0,0-.23.22h0a3.43,3.43,0,0,1-4.84.18L156,4.65h0a4.43,4.43,0,0,0-6.24-.21l-.22.22h0a3.44,3.44,0,0,1-4.84.17l-.17-.18h0a4.43,4.43,0,0,0-6.25-.22,2.28,2.28,0,0,0-.22.22h0a3.36,3.36,0,0,1-2.38,1.09,3.4,3.4,0,0,1-2.45-.91L133,4.65h0a4.39,4.39,0,0,0-3.08-1.4,4.34,4.34,0,0,0-3.17,1.18,2.28,2.28,0,0,0-.22.22h0a3.43,3.43,0,0,1-4.84.18l-.18-.18h0a4.39,4.39,0,0,0-3.08-1.4,4.34,4.34,0,0,0-3.17,1.18l-.22.22h0a3.38,3.38,0,0,1-2.38,1.09,3.41,3.41,0,0,1-2.46-.91L110,4.65h0a4.43,4.43,0,0,0-6.25-.22c-.07.07-.15.14-.22.22h0a3.38,3.38,0,0,1-2.38,1.09,3.42,3.42,0,0,1-2.46-.91l-.17-.18h0a4.37,4.37,0,0,0-3.07-1.4,4.31,4.31,0,0,0-3.17,1.18,2.39,2.39,0,0,0-.23.22h0a3.38,3.38,0,0,1-2.38,1.09,3.41,3.41,0,0,1-2.46-.91L87,4.65h0A4.41,4.41,0,0,0,84,3.25a4.31,4.31,0,0,0-3.17,1.18,2.28,2.28,0,0,0-.22.22h0a3.38,3.38,0,0,1-2.38,1.09,3.41,3.41,0,0,1-2.46-.91l-.17-.17h0a4.43,4.43,0,0,0-6.25-.22,2.28,2.28,0,0,0-.22.22h0a3.43,3.43,0,0,1-4.84.18l-.17-.18h0a4.43,4.43,0,0,0-6.25-.22l-.22.22h0a3.43,3.43,0,0,1-4.84.18l-.18-.18h0a4.43,4.43,0,0,0-6.25-.22c-.07.07-.15.14-.22.22h0a3.43,3.43,0,0,1-4.84.18l-.17-.18a4.48,4.48,0,0,0-3.24-1.41h0A4.45,4.45,0,0,0,34.6,4.65a3.4,3.4,0,0,1-2.5,1.09h0a3.38,3.38,0,0,1-2.5-1.09,4.47,4.47,0,0,0-3.24-1.41h0a4.44,4.44,0,0,0-3.23,1.41h0a3.4,3.4,0,0,1-2.5,1.09h0a3.38,3.38,0,0,1-2.5-1.09,4.45,4.45,0,0,0-3.24-1.41h0a4.48,4.48,0,0,0-3.24,1.41,3.38,3.38,0,0,1-2.5,1.09h0a3.41,3.41,0,0,1-2.5-1.09h0A4.47,4.47,0,0,0,3.37,3.24h0A4.48,4.48,0,0,0,.13,4.65a.51.51,0,0,0,0,.71.5.5,0,0,0,.71,0,3.42,3.42,0,0,1,2.5-1.09h0A3.46,3.46,0,0,1,5.88,5.33h0a4.45,4.45,0,0,0,3.23,1.4h0a4.41,4.41,0,0,0,3.23-1.41,3.46,3.46,0,0,1,2.51-1.09h0a3.46,3.46,0,0,1,2.51,1.09A4.41,4.41,0,0,0,20.6,6.74h0a4.43,4.43,0,0,0,3.23-1.4h0a3.46,3.46,0,0,1,2.51-1.09h0a3.46,3.46,0,0,1,2.51,1.09,4.41,4.41,0,0,0,3.23,1.41h0a4.41,4.41,0,0,0,3.23-1.41,3.46,3.46,0,0,1,2.51-1.09h0a3.42,3.42,0,0,1,2.5,1.09l.23.23a4.37,4.37,0,0,0,3,1.18h.16a4.38,4.38,0,0,0,3.08-1.41h0L47,5.16a3.44,3.44,0,0,1,4.84.17h0l.23.22a4.35,4.35,0,0,0,3,1.18h.16a4.41,4.41,0,0,0,3.08-1.4h0l.17-.18a3.42,3.42,0,0,1,2.46-.91,3.37,3.37,0,0,1,2.38,1.08l.22.23a4.39,4.39,0,0,0,3,1.18h.17a4.37,4.37,0,0,0,3.07-1.4h0c0-.06.11-.11.17-.17a3.44,3.44,0,0,1,4.84.17h0l.22.22a4.39,4.39,0,0,0,3,1.18h.16a4.39,4.39,0,0,0,3.08-1.4h0l.17-.17a3.44,3.44,0,0,1,4.84.17,2.39,2.39,0,0,0,.22.23,4.39,4.39,0,0,0,3,1.18h.16a4.37,4.37,0,0,0,3.07-1.4h0L93,5.16a3.44,3.44,0,0,1,4.84.17h0l.22.22a4.37,4.37,0,0,0,3,1.18h.16a4.36,4.36,0,0,0,3.08-1.41h0l.17-.17a3.44,3.44,0,0,1,2.46-.91,3.37,3.37,0,0,1,2.38,1.08h0l.22.22a4.39,4.39,0,0,0,3,1.18h.16a4.41,4.41,0,0,0,3.08-1.4h0l.17-.18a3.44,3.44,0,0,1,4.84.17h0l.23.22a4.35,4.35,0,0,0,3,1.18h.16a4.38,4.38,0,0,0,3.08-1.41h0l.17-.17a3.42,3.42,0,0,1,2.46-.91,3.37,3.37,0,0,1,2.38,1.08h0l.23.22a4.35,4.35,0,0,0,3,1.18h.17a4.37,4.37,0,0,0,3.07-1.4h0l.17-.18a3.42,3.42,0,0,1,2.45-.91,3.38,3.38,0,0,1,2.39,1.08l.22.23a4.39,4.39,0,0,0,3,1.18h.16a4.34,4.34,0,0,0,3.08-1.41h0l.17-.17a3.44,3.44,0,0,1,4.84.17h0l.22.22a4.39,4.39,0,0,0,3,1.18h.16a4.39,4.39,0,0,0,3.08-1.4h0l.18-.18a3.44,3.44,0,0,1,4.84.17,2.39,2.39,0,0,0,.22.23,4.37,4.37,0,0,0,3,1.18h.16a4.36,4.36,0,0,0,3.08-1.41h0l.18-.17a3.43,3.43,0,0,1,4.83.17h0l.23.22a4.37,4.37,0,0,0,3,1.18h.16a4.38,4.38,0,0,0,3.08-1.41h0l.17-.17a3.42,3.42,0,0,1,2.46-.91,3.37,3.37,0,0,1,2.38,1.08l.22.23a4.4,4.4,0,0,0,3,1.18h.16a4.41,4.41,0,0,0,3.08-1.4h0a1.45,1.45,0,0,1,.17-.18,3.44,3.44,0,0,1,4.84.17h0l.22.22a4.39,4.39,0,0,0,3,1.18h.17a4.38,4.38,0,0,0,3.08-1.41h0l.17-.17a3.42,3.42,0,0,1,2.46-.91,3.37,3.37,0,0,1,2.38,1.08l.22.23a4.39,4.39,0,0,0,3,1.18h.16a4.37,4.37,0,0,0,3.08-1.4h0c.06-.07.12-.12.18-.18a3.42,3.42,0,0,1,4.83.17h0l.23.23a4.37,4.37,0,0,0,3,1.18h.16a4.36,4.36,0,0,0,3.08-1.41.49.49,0,0,0,0-.7A.5.5,0,0,0,229.9,4.65Z"/><path class="cls-1" d="M.5,2.25a.5.5,0,0,0,.37-.16A3.42,3.42,0,0,1,3.37,1h0a3.45,3.45,0,0,1,2.5,1.09h0A4.45,4.45,0,0,0,9.11,3.5h0a4.41,4.41,0,0,0,3.23-1.41A3.46,3.46,0,0,1,14.86,1h0a3.46,3.46,0,0,1,2.51,1.09A4.41,4.41,0,0,0,20.6,3.5h0a4.43,4.43,0,0,0,3.23-1.4h0A3.46,3.46,0,0,1,26.35,1h0a3.46,3.46,0,0,1,2.51,1.09A4.41,4.41,0,0,0,32.09,3.5h0a4.41,4.41,0,0,0,3.23-1.41A3.46,3.46,0,0,1,37.84,1h0a3.42,3.42,0,0,1,2.5,1.09c.07.08.15.15.23.23a4.4,4.4,0,0,0,3,1.18,4.39,4.39,0,0,0,3.24-1.41h0c.06-.06.11-.12.17-.17A3.51,3.51,0,0,1,49.45,1a3.42,3.42,0,0,1,2.38,1.09h0c.07.08.15.15.23.23a4.4,4.4,0,0,0,3,1.18A4.41,4.41,0,0,0,58.3,2.1h0c0-.06.11-.11.17-.17a3.42,3.42,0,0,1,4.84.17h0l.22.23a4.43,4.43,0,0,0,3,1.18,4.41,4.41,0,0,0,3.23-1.4h0A1.37,1.37,0,0,1,70,1.92a3.42,3.42,0,0,1,4.84.17h0l.22.23A4.4,4.4,0,0,0,78,3.5a4.42,4.42,0,0,0,3.24-1.4h0l.17-.17a3.43,3.43,0,0,1,4.84.17l.22.23a4.44,4.44,0,0,0,3,1.18h.16a4.41,4.41,0,0,0,3.08-1.4h0L93,1.92a3.43,3.43,0,0,1,4.84.17h0l.22.23a4.42,4.42,0,0,0,3,1.18h.16a4.36,4.36,0,0,0,3.08-1.41h0c.06-.06.11-.12.17-.17a3.43,3.43,0,0,1,4.84.17h0l.22.23a4.42,4.42,0,0,0,3,1.18h.16a4.41,4.41,0,0,0,3.08-1.4h0l.17-.17a3.43,3.43,0,0,1,4.84.17h0l.23.23a4.4,4.4,0,0,0,3,1.18h.16a4.38,4.38,0,0,0,3.08-1.41h0a1.37,1.37,0,0,1,.17-.17,3.42,3.42,0,0,1,4.84.17h0l.22.23a4.45,4.45,0,0,0,3,1.18,4.41,4.41,0,0,0,3.23-1.4h0l.17-.17a3.42,3.42,0,0,1,4.84.17h0l.22.23a4.43,4.43,0,0,0,3,1.18,4.38,4.38,0,0,0,3.23-1.41h0l.17-.17a3.42,3.42,0,0,1,4.83.17h0l.22.22a4.4,4.4,0,0,0,3,1.18,4.42,4.42,0,0,0,3.24-1.4h0l.18-.17a3.42,3.42,0,0,1,4.84.17h0l.22.23a4.4,4.4,0,0,0,3,1.18,4.39,4.39,0,0,0,3.24-1.41h0l.18-.17a3.41,3.41,0,0,1,4.83.17h0l.23.23a4.4,4.4,0,0,0,3,1.18,4.39,4.39,0,0,0,3.24-1.41h0c.06-.06.11-.12.17-.17a3.43,3.43,0,0,1,4.84.17l.22.23a4.45,4.45,0,0,0,3,1.18,4.41,4.41,0,0,0,3.23-1.4h0l.17-.17A3.51,3.51,0,0,1,198.8,1a3.42,3.42,0,0,1,2.38,1.09h0c.07.07.15.14.22.22a4.44,4.44,0,0,0,3,1.18h.17a4.38,4.38,0,0,0,3.08-1.41h0l.17-.17a3.43,3.43,0,0,1,4.84.17l.22.23a4.43,4.43,0,0,0,3,1.18,4.41,4.41,0,0,0,3.23-1.4h0l.18-.17A3.48,3.48,0,0,1,221.77,1a3.4,3.4,0,0,1,2.38,1.09h0l.23.23a4.4,4.4,0,0,0,3,1.18,4.39,4.39,0,0,0,3.24-1.41.49.49,0,0,0,0-.7.5.5,0,0,0-.71,0,3.43,3.43,0,0,1-4.84.17l-.17-.16h0A4.46,4.46,0,0,0,221.81,0a4.36,4.36,0,0,0-3.17,1.19l-.23.22h0a3.43,3.43,0,0,1-4.84.17c-.06-.05-.11-.11-.17-.17h0a4.43,4.43,0,0,0-6.25-.22,2.28,2.28,0,0,0-.22.22,3.41,3.41,0,0,1-2.39,1.09,3.39,3.39,0,0,1-2.45-.92l-.18-.17h0A4.44,4.44,0,0,0,198.83,0a4.38,4.38,0,0,0-3.17,1.19,2.28,2.28,0,0,0-.22.22h0a3.43,3.43,0,0,1-4.84.17l-.18-.17h0a4.43,4.43,0,0,0-6.25-.22l-.22.22a3.43,3.43,0,0,1-4.84.17l-.18-.17h0A4.38,4.38,0,0,0,175.86,0a4.43,4.43,0,0,0-3.18,1.19c-.07.07-.15.14-.22.22a3.43,3.43,0,0,1-4.84.17l-.17-.17h0A4.46,4.46,0,0,0,164.37,0a4.36,4.36,0,0,0-3.17,1.19,2.39,2.39,0,0,0-.23.22h0a3.43,3.43,0,0,1-4.84.17c-.06-.05-.11-.11-.17-.17h0a4.41,4.41,0,0,0-6.24-.21l-.22.22h0a3.43,3.43,0,0,1-4.84.17l-.17-.17h0A4.44,4.44,0,0,0,141.39,0a4.38,4.38,0,0,0-3.17,1.19,2.28,2.28,0,0,0-.22.22h0a3.42,3.42,0,0,1-4.83.17L133,1.41h0a4.41,4.41,0,0,0-6.25-.22,2.28,2.28,0,0,0-.22.22,3.41,3.41,0,0,1-2.39,1.09,3.41,3.41,0,0,1-2.45-.92l-.18-.17h0a4.41,4.41,0,0,0-6.25-.22l-.22.22h0a3.43,3.43,0,0,1-4.84.17,1.37,1.37,0,0,1-.17-.17h0a4.43,4.43,0,0,0-6.25-.22c-.07.07-.15.14-.22.22a3.38,3.38,0,0,1-2.38,1.09,3.42,3.42,0,0,1-2.46-.92,1.37,1.37,0,0,1-.17-.17h0A4.46,4.46,0,0,0,95.44,0a4.4,4.4,0,0,0-3.17,1.19,2.39,2.39,0,0,0-.23.22h0A3.38,3.38,0,0,1,89.66,2.5a3.36,3.36,0,0,1-2.46-.92A1.37,1.37,0,0,1,87,1.41h0a4.43,4.43,0,0,0-6.25-.22,2.28,2.28,0,0,0-.22.22h0a3.43,3.43,0,0,1-4.84.17l-.17-.17h0a4.41,4.41,0,0,0-6.25-.22,2.28,2.28,0,0,0-.22.22h0a3.42,3.42,0,0,1-4.83.17l-.18-.17h0A4.44,4.44,0,0,0,61,0,4.38,4.38,0,0,0,57.8,1.19l-.22.22h0a3.43,3.43,0,0,1-4.84.17l-.18-.17h0a4.42,4.42,0,0,0-6.25-.23l-.22.23a3.43,3.43,0,0,1-4.84.17,1.37,1.37,0,0,1-.17-.17A4.48,4.48,0,0,0,37.84,0h0A4.44,4.44,0,0,0,34.6,1.41,3.45,3.45,0,0,1,32.1,2.5h0a3.42,3.42,0,0,1-2.5-1.09A4.45,4.45,0,0,0,26.35,0h0a4.39,4.39,0,0,0-3.23,1.41h0a3.44,3.44,0,0,1-2.5,1.09h0a3.44,3.44,0,0,1-2.5-1.09A4.44,4.44,0,0,0,14.87,0h0a4.45,4.45,0,0,0-3.24,1.41A3.42,3.42,0,0,1,9.12,2.5h0a3.45,3.45,0,0,1-2.5-1.09h0A4.42,4.42,0,0,0,3.38,0h0A4.47,4.47,0,0,0,.13,1.41a.51.51,0,0,0,0,.71A.5.5,0,0,0,.5,2.25Z"/></g></g></svg>