<svg xmlns="http://www.w3.org/2000/svg" width="422" height="318.576" viewBox="0 0 422 318.576"><defs><style>.a,.f,.g{fill:#141414;}.b{fill:#fff;}.b,.d{stroke:#141414;}.b,.c,.d,.g{stroke-miterlimit:10;}.c,.d{fill:none;}.c,.g{stroke:#fff;stroke-width:2px;}.e{fill:#ea0404;}.f{font-size:38px;font-family:LFTEticaSB, LFT Etica;}</style></defs><g transform="translate(0 52.579)"><path class="a" d="M493.778,485.925l-65.595,1.535-.613-26.2,53.771-92.275,43.318-1.014,2.1,89.935,14.852-.347.637,27.228-14.852.348.686,29.29-33.622.787Zm-.637-27.228-1.391-59.407-34.089,60.237Z" transform="translate(-427.57 -367.974)"/></g><g transform="translate(307.318 52.579)"><path class="a" d="M1116.778,485.925l-65.595,1.535-.613-26.2,53.771-92.275,43.318-1.014,2.1,89.935,14.852-.347.637,27.228-14.852.348.686,29.29-33.622.787Zm-.637-27.228-1.39-59.407-34.089,60.237Z" transform="translate(-1050.57 -367.974)"/></g><g transform="translate(112.504)"><path class="a" d="M751.636,261.419c62.638-1.467,97.579,43.626,99.573,128.842,2.148,91.771-32.145,136.661-95.875,138.153-63.365,1.483-97.536-41.805-99.607-130.3S688.271,262.9,751.636,261.419Zm3.581,215.257c25.856-.6,36.853-28.918,35.592-82.816-1.211-51.712-12.106-81.335-39.055-80.7S714.944,343.9,716.18,396.7,728.634,477.3,755.218,476.677Z" transform="translate(-655.64 -261.385)"/></g><path class="b" d="M1012.886,602.98l-8.386-1.48v7.893s4.933,1.973,6.413,3.453,2.96,5.426,2.96,5.426l4.933,6.413s5.426-1.973,5.426-2.96.493-9.372.493-9.866-1.48-5.919-1.973-6.413-9.866-2.466-9.866-2.466" transform="translate(-719.908 -433.726)"/><path class="b" d="M1016.886,583.98l-8.386-1.48v7.893s4.933,1.973,6.413,3.453,2.96,5.426,2.96,5.426l4.933,6.413s5.426-1.973,5.426-2.96.493-9.372.493-9.866-1.48-5.919-1.973-6.413-9.866-2.466-9.866-2.466" transform="translate(-721.935 -424.098)"/><path class="a" d="M1107.5,800.017a3.55,3.55,0,0,0,3.453,2.96c2.96,0,27.131-35.517,18.745-36.5S1107.993,793.6,1107.5,800.017Z" transform="translate(-772.1 -517.307)"/><path class="c" d="M839.009,325.906s-127.883,14.921-125.541,14.059C732.212,333.059,799.546,319,799.546,319" transform="translate(-572.422 -290.579)"/><path class="b" d="M702.188,557.784l1.664-198.023L857.727,350.7l-5.406,205.6-19.5-8.139L819.5,556.551l-48.342-23.678L746,552.6l-21.211-10.359Z" transform="translate(-566.723 -306.644)"/><path class="d" d="M723.787,452.638l-.208,45.5,134.329-6.218L857.961,446Z" transform="translate(-577.562 -354.932)"/><path class="b" d="M1063.05,661.357s-41.929-25.158-46.862-37.49c-3.453-8.386,2.466-32.064,2.466-32.064s2.466-9.372-2.96-15.292c-7.087-7.731-11.346-14.8-14.305-15.785A60.222,60.222,0,0,0,993.743,559v10.359a10.066,10.066,0,0,1,5.18,1.233c1.48.987,4.933,6.906,5.426,9.866-1.973,10.359-8.879,10.852-8.879,10.852a37.418,37.418,0,0,1-6.166-14.059c-1.48-7.893-5.919-18.745-10.852-14.305s-.987,12.332-.987,12.332A66.254,66.254,0,0,1,982.4,596.49c-.987,16.772,7.893,27.131,7.893,27.131,0,7.893,3.453,11.839,3.453,11.839l47.356,59.688S1045.785,671.716,1063.05,661.357Z" transform="translate(-705.452 -412.19)"/><path class="b" d="M678.309,602.98l8.386-1.48v7.893s-4.933,1.973-6.413,3.453-2.96,5.426-2.96,5.426l-4.933,6.413s-5.426-1.973-5.426-2.96-.493-9.372-.493-9.866,1.48-5.919,1.973-6.413,9.866-2.466,9.866-2.466" transform="translate(-548.624 -433.726)"/><path class="b" d="M674.309,583.98l8.386-1.48v7.893s-4.933,1.973-6.413,3.453-2.96,5.426-2.96,5.426l-4.933,6.413s-5.426-1.973-5.426-2.96-.493-9.372-.493-9.866,1.48-5.919,1.973-6.413,9.866-2.466,9.866-2.466" transform="translate(-546.597 -424.098)"/><line class="d" x1="44.889" transform="translate(233.043 233.628)"/><line class="d" x1="74.486" y2="3.946" transform="translate(158.064 150.263)"/><line class="d" x1="73.006" y2="3.946" transform="translate(160.037 163.581)"/><g transform="translate(131.518 180.543)"><path class="e" d="M713.423,644.27l.722-4.366c.923-5.587.159-8.946-4.72-9.753-1.863-.308-5.179-.592-5.583,1.848a4.467,4.467,0,0,0-.01.856l2.055.339a10.363,10.363,0,0,1,0,2.376,3.332,3.332,0,0,1-4.158,2.809c-2.312-.382-3.426-2.018-3-4.587.775-4.688,5.876-7.208,12.1-6.179,7.834,1.3,10.781,5.015,9.3,14l-2.42,14.641c-.457,2.761-.21,3.66,1.267,3.9a5.894,5.894,0,0,0,2.119-.045l.217,2.278a9.921,9.921,0,0,1-4.8.328c-3.275-.541-4.882-1.994-4.844-5.418a10.789,10.789,0,0,1-9.936,3.041c-4.752-.785-8.372-3.627-7.374-9.663,1.157-7,7.062-8.4,14.768-7.124Zm-1.317,7.963.87-5.265-3.4-.563c-5.587-.924-7.852,1.208-8.478,5-.531,3.211.317,5.264,3.527,5.795C707.7,657.706,711.459,656.149,712.106,652.232Z" transform="translate(-694.187 -627.385)"/></g><g transform="translate(164.972 102.592)"><path class="a" d="M775.06,471.825c8.078-.189,13.51,4.994,13.722,14.048.224,9.6-5,14.837-13.042,15.025s-13.506-4.838-13.73-14.4C761.8,477.445,767.021,472.013,775.06,471.825Zm.566,24.156c4.917-.115,7.645-3.653,7.5-9.975-.136-5.776-3.07-9.378-7.909-9.264-4.917.115-7.68,3.889-7.545,9.626C767.817,492.65,770.787,496.094,775.626,495.981Z" transform="translate(-762.004 -470.607)"/><path class="a" d="M825.357,471.667l10.185-.238c6.439-.151,9.991,3.124,10.123,8.783.134,5.736-3.1,9.366-10.085,9.529l-4.41.1.229,9.8-5.385.126Zm5.494,4.518.217,9.249,4.137-.1c3.512-.082,5.188-1.839,5.12-4.766s-1.63-4.569-5.1-4.488Z" transform="translate(-794.106 -470.406)"/><path class="a" d="M875.3,490.63a13.393,13.393,0,0,0,8.394,3.317c2.459-.058,4.222-1.465,4.168-3.768-.049-2.107-1.209-3.252-6-4.467-5.892-1.5-8.322-3.554-8.425-7.963-.128-5.5,4.063-8.256,9.565-8.385a13.265,13.265,0,0,1,9.692,3.717l-2.54,3.261a10.461,10.461,0,0,0-6.933-2.609c-2.536.059-4.305,1.194-4.256,3.34.057,2.42,1.946,3.078,6.626,4.491,5.427,1.63,7.776,3.566,7.878,7.937.127,5.425-3.738,8.795-9.865,8.938a14.548,14.548,0,0,1-10.919-4.43Z" transform="translate(-818.09 -469.361)"/></g><g transform="translate(167.403 214.965)"><path class="a" d="M782.985,712.148l-14.125-11.331-1.148,1.145-.778-.624,2.512-3.132,6.345,5.09a4.474,4.474,0,0,1,.86-4.425c1.9-2.374,4.661-2.295,8.032.41,2.973,2.385,4.211,5.542,1.81,8.535a5.216,5.216,0,0,1-3.482,2.093l.453,1.642Zm-4.94-7.044,2.932,2.352a3.117,3.117,0,0,0,4.487-.4c1.424-1.775.372-3.406-2.3-5.551-2.553-2.048-4.362-2.778-5.787-1A3.139,3.139,0,0,0,778.045,705.1Z" transform="translate(-766.933 -697.167)"/></g><g transform="translate(146.093 254.066)"><path class="e" d="M751.051,791.808c-2.144,2.673-4.431,2.552-6.152,1.171a3.358,3.358,0,0,1-.7-4.882,6.462,6.462,0,0,1,2.007-1.666l1.5,1.2a5.179,5.179,0,0,0,.935-.888c1.2-1.5.449-3.065-1.727-4.81-4.168-3.344-8.942-1.663-13.776,4.363-4.689,5.844-5.856,10.642-1.325,14.277,3.171,2.544,6.457,1.605,8.672.329l1.448,2.279a10.728,10.728,0,0,1-13.216-.7c-6.434-5.162-6.5-12.137-.973-19.024,6.578-8.2,14.354-8.89,20.7-3.8C752.832,783.183,753.995,788.138,751.051,791.808Z" transform="translate(-723.733 -776.431)"/></g><g transform="translate(230.766 262.84)"><path class="e" d="M946.1,799.991c5.076,4.865,1.914,9.2-11.821,12.162-1.2.259-2.625.516-3.959.753l-13.436-12.874c-11.339,2.449-16.906,5.449-12.573,9.6,2.888,2.767,7,3.678,13.4,3.53l.543,2.144c-8.329.463-15.884-1.041-20.3-5.276-6.477-6.207-.23-11.153,13.782-14.18C927.4,792.467,940.451,794.582,946.1,799.991Zm-15.008,7.918,2.028-.438c8.389-1.812,11.453-3.964,8.608-6.69-3.282-3.145-11.675-3.285-19.958-1.8Z" transform="translate(-895.383 -794.218)"/></g><g transform="translate(98.299 286.173)"><path class="a" d="M716.182,854.735l3.9-3.2,4.682.758-6.891,7.441-9.025-1.011c3.81,2.137,6.686,5.136,2.924,9.2-5.758,6.217-20.157,7.375-37.832,4.512-19.9-3.223-27.861-9.016-22.058-15.282,2.267-2.447,6.107-4.415,12.4-5.536l-28.444-4.607-4.427,3.617-4.565-.739,7.752-8.371Zm-19.6,2.118-19.2-3.11c-8.779-1.422-15.909.463-18.629,3.4-4.352,4.7,3.977,7.624,18.726,10.014,11.588,1.877,24.109,2.892,28.462-1.807C709.031,862.021,705.014,858.218,696.586,856.853Z" transform="translate(-626.843 -841.52)"/></g><path class="b" d="M559.47,661.1s41.929-25.158,46.862-37.49c3.453-8.386-2.466-32.064-2.466-32.064s-2.466-9.372,2.96-15.292c7.087-7.731,11.346-14.8,14.305-15.785a80.348,80.348,0,0,1,8.879-1.973v10.359s-4.36.112-6.413,1.48c-1.48.987-4.933,6.906-5.426,9.866,1.973,10.359,8.879,10.852,8.879,10.852A37.417,37.417,0,0,0,633.216,577c1.48-7.893,5.919-18.745,10.852-14.305s.987,12.332.987,12.332a66.254,66.254,0,0,0-4.933,21.211c.987,16.772-7.893,27.131-7.893,27.131,0,7.893-3.453,11.839-3.453,11.839l-47.355,59.688S576.735,671.463,559.47,661.1Z" transform="translate(-494.405 -411.937)"/><g transform="translate(146.809 58.493)"><path class="e" d="M856.41,379.962l.092,2.212-131.225,5.448-.092-2.212Z" transform="translate(-725.185 -379.962)"/><path class="a" d="M923.388,407.774a6.633,6.633,0,0,1,.67-.023c.316.018.427-.144.43-.424,0-.2,0-.4-.01-.6q-.26-6.286-.521-12.571l0-.074c-.042-.888-.042-.887-.921-.889a.332.332,0,0,1-.261-.122,1.313,1.313,0,0,1,.27-.07c1.721-.073,3.442-.173,5.163-.2a4.346,4.346,0,0,1,3.933,2.364,8.979,8.979,0,0,1,1.2,3.744,12.722,12.722,0,0,1-.34,5.078,6.3,6.3,0,0,1-1.156,2.247,4.308,4.308,0,0,1-3.278,1.554c-1.608.08-3.217.138-4.826.2a1.874,1.874,0,0,1-.354-.053Zm3.07-7.4c.094,2.268.2,4.536.274,6.8.013.37.134.468.484.431.433-.046.872-.042,1.308-.062a2,2,0,0,0,2.038-1.729,10.763,10.763,0,0,0,.173-1.483,45.77,45.77,0,0,0-.254-7.58,11.932,11.932,0,0,0-.608-2.565,1.72,1.72,0,0,0-1.752-1.161c-.511,0-1.023.042-1.533.038-.341,0-.44.115-.423.465C926.276,395.809,926.363,398.09,926.458,400.371Z" transform="translate(-825.304 -386.465)"/><path class="a" d="M975.923,397.945a3.4,3.4,0,0,1,2.986,2.107,7.294,7.294,0,0,1,.411,1.886c.088.779.078,1.57.112,2.355.005.137.01.275.021.411.039.48.25.8.549.841.326.043.608-.2.781-.68.04-.111.1-.215.145-.323l.1.006a.792.792,0,0,1,.041.24,1.288,1.288,0,0,1-1.133,1.085,2.253,2.253,0,0,1-2.735-2.232c-.067-1.233-.121-2.467-.221-3.7a2.969,2.969,0,0,0-.315-.988,1.524,1.524,0,0,0-1.448-.891c-.486-.008-.973.037-1.46.048-.227,0-.3.109-.292.328.1,2.219.189,4.44.3,6.658.028.566.061.568.637.55.172-.005.345.01.605.019a13.466,13.466,0,0,1-4.608.146c.236-.01.473-.036.708-.025.28.013.381-.135.4-.379.009-.149.006-.3,0-.449q-.267-6.473-.537-12.946c0-.087-.006-.175-.014-.262-.043-.495-.107-.549-.595-.534-.187.006-.374,0-.561,0l-.01-.117a1.785,1.785,0,0,1,.287-.059c1.734-.074,3.467-.165,5.2-.209a3.373,3.373,0,0,1,3.378,2.012,3.615,3.615,0,0,1-2.531,5.022C976.088,397.872,976.058,397.889,975.923,397.945Zm-2.617-3.382c.042,1,.093,1.993.118,2.99.008.313.121.416.428.385.359-.036.722-.035,1.083-.05a1.505,1.505,0,0,0,1.665-1.418,10.7,10.7,0,0,0,.122-1.971,6.281,6.281,0,0,0-.448-2.446,1.462,1.462,0,0,0-1.552-.987c-.386.009-.772.043-1.158.042-.307,0-.408.116-.391.428C973.233,392.544,973.264,393.554,973.306,394.563Z" transform="translate(-849.127 -385.468)"/><path class="a" d="M957.244,398.789a10.406,10.406,0,0,1-.905,5.351,4.312,4.312,0,0,1-2.952,2.488,4.258,4.258,0,0,1-4.694-1.838,9.121,9.121,0,0,1-1.555-4.39,12.066,12.066,0,0,1,.637-6.031,5.052,5.052,0,0,1,1.919-2.468,4.354,4.354,0,0,1,6.062,1.491,9.429,9.429,0,0,1,1.436,4.241C957.235,398.014,957.227,398.4,957.244,398.789Zm-2.564.741c-.14-1.651-.249-3.193-.407-4.73a5.717,5.717,0,0,0-.59-2.3,1.865,1.865,0,0,0-1.832-1.051,1.839,1.839,0,0,0-1.785,1.243,6.469,6.469,0,0,0-.334,1.748,47.359,47.359,0,0,0,.284,8.547,10.5,10.5,0,0,0,.558,2.349,1.813,1.813,0,0,0,1.938,1.228,2.141,2.141,0,0,0,2.011-2.21C954.616,402.713,954.633,401.068,954.68,399.53Z" transform="translate(-837.594 -385.67)"/><path class="a" d="M818.162,412.133a6.887,6.887,0,0,1,.705-.025c.3.018.408-.132.421-.4.009-.174.014-.349.007-.523q-.263-6.379-.528-12.758c0-.075-.005-.149-.011-.224-.05-.644-.1-.687-.741-.664-.146.005-.292,0-.437,0l-.02-.1a1.425,1.425,0,0,1,.3-.08c1.733-.076,3.467-.17,5.2-.212a3.732,3.732,0,0,1,3.993,3.8,4.109,4.109,0,0,1-1.6,3.859,3.869,3.869,0,0,1-2.208.712c-.537.022-1.072.053-1.609.064-.276.005-.367.119-.354.392.079,1.733.148,3.467.22,5.2,0,.013,0,.025,0,.037.065.777.072.783.839.751l.793-.033A14.294,14.294,0,0,1,818.162,412.133Zm2.939-10.743c.05,1.2.106,2.392.144,3.589.009.294.113.4.405.373.335-.031.672-.031,1.009-.046,1.1-.046,1.668-.471,1.778-1.568a24.611,24.611,0,0,0,.058-3.39,6.636,6.636,0,0,0-.359-1.786,1.548,1.548,0,0,0-1.73-1.176c-.349.009-.7.042-1.047.038-.324,0-.429.123-.411.45C821.013,399.046,821.052,400.218,821.1,401.389Z" transform="translate(-771.992 -388.668)"/><path class="a" d="M726.277,415.842c.237-.01.475-.037.71-.025.28.014.383-.133.4-.376a3.881,3.881,0,0,0,0-.448q-.266-6.471-.536-12.943c0-.075,0-.15-.011-.224-.043-.538-.107-.594-.632-.576-.177.006-.354,0-.53,0l-.012-.113a1.6,1.6,0,0,1,.283-.065c2.469-.105,4.938-.2,7.406-.314.268-.012.341.083.35.337.048,1.384.113,2.768.163,4.153a1.057,1.057,0,0,1-.1.324c-.056-.105-.155-.208-.16-.315a5.863,5.863,0,0,0-.667-2.7,2.549,2.549,0,0,0-2.6-1.453c-.323.028-.648.032-.972.043-.205.007-.319.074-.308.314q.138,3.122.26,6.246c.008.208.09.274.3.277a2.029,2.029,0,0,0,2.252-2.257c0-.155.025-.31.045-.562a22.788,22.788,0,0,1,.244,5.544,1.858,1.858,0,0,1-.093-.352,2.779,2.779,0,0,0-.6-1.618,1.823,1.823,0,0,0-1.932-.552c-.094.036-.17.255-.166.386.04,1.284.1,2.569.152,3.853.041.972.087,1.945.117,2.918.008.253.084.361.353.336.558-.05,1.124-.043,1.677-.126a2.955,2.955,0,0,0,2.2-1.627,5.274,5.274,0,0,0,.635-2.734,2.315,2.315,0,0,1,0-.336c.006-.049.067-.092.1-.137.053.042.131.075.153.13a.793.793,0,0,1,.028.258c.059,1.4.107,2.793.181,4.189.018.33-.081.429-.408.44-2.631.1-5.262.212-7.893.319a3.1,3.1,0,0,1-.38-.031Z" transform="translate(-725.43 -390.496)"/><path class="a" d="M845.463,400.613l.224,5.388-.122.039a1.605,1.605,0,0,1-.119-.394,2.551,2.551,0,0,0-.744-1.745,1.924,1.924,0,0,0-1.788-.379c-.064.007-.159.184-.155.279q.13,3.48.291,6.958c0,.089.152.248.226.244a11.881,11.881,0,0,0,2.08-.185,3.126,3.126,0,0,0,2.266-2.418,14.789,14.789,0,0,0,.27-2.023,1.245,1.245,0,0,1,.147-.324.973.973,0,0,1,.136.307c.068,1.446.121,2.893.19,4.339.012.252-.052.356-.322.367-2.682.1-5.363.219-8.044.326a1.529,1.529,0,0,1-.318-.053l0-.158c.224-.009.448-.035.67-.024.31.015.43-.13.427-.422,0-.224.016-.449.007-.673q-.254-6.192-.513-12.382v-.037c-.042-1-.043-1-1.013-1.042a.221.221,0,0,1-.185-.133l7.978-.332a2.2,2.2,0,0,1,.038.254c.06,1.4.12,2.793.169,4.19a.965.965,0,0,1-.121.328,1.112,1.112,0,0,1-.118-.313,5.7,5.7,0,0,0-.876-3.012,2.366,2.366,0,0,0-2.1-1.145c-.424.011-.848.032-1.272.043-.227.006-.328.088-.317.341q.141,3.085.256,6.172c.01.271.112.329.364.323A1.994,1.994,0,0,0,845.25,401a2.581,2.581,0,0,1,.054-.412Z" transform="translate(-782.895 -388.158)"/><path class="a" d="M778.416,398.987l7.971-.33.2,4.757-.139.033a2,2,0,0,1-.087-.382,5.582,5.582,0,0,0-.725-2.753,2.5,2.5,0,0,0-2.473-1.356c-.361.027-.723.033-1.085.049-.195.009-.287.093-.278.306q.137,3.123.259,6.246c.009.239.126.28.336.28a2,2,0,0,0,2.224-2.242c0-.159.022-.318.034-.477l.132-.011a1.232,1.232,0,0,1,.095.3q.109,2.431.2,4.863c0,.088-.073.179-.113.269-.05-.086-.138-.17-.144-.259a2.794,2.794,0,0,0-.61-1.692,1.834,1.834,0,0,0-1.933-.552.428.428,0,0,0-.177.342c.019.848.062,1.7.1,2.543.058,1.4.128,2.793.166,4.189.01.358.135.452.471.416.52-.055,1.049-.04,1.565-.119a2.952,2.952,0,0,0,2.172-1.551,5.319,5.319,0,0,0,.681-2.835c0-.15.019-.3.03-.451l.119-.022a.964.964,0,0,1,.114.288c.068,1.471.123,2.942.191,4.413.012.251-.089.321-.323.33-2.681.106-5.362.22-8.042.327a1.632,1.632,0,0,1-.326-.051l0-.159c.248-.01.5-.032.744-.028s.348-.1.36-.327c.009-.2.032-.4.024-.6q-.26-6.377-.527-12.754c0-.05,0-.1-.007-.149-.049-.717-.093-.757-.792-.733-.134,0-.267,0-.4,0Z" transform="translate(-752.158 -389.435)"/><path class="a" d="M888.239,409.1a13.864,13.864,0,0,1-4.619.138c.246-.01.492-.034.738-.027s.373-.1.384-.344c.009-.2.028-.4.02-.6-.18-4.388-.367-8.777-.537-13.165-.014-.366-.135-.451-.485-.451a2.594,2.594,0,0,0-2.852,2.029,5.621,5.621,0,0,0-.27,1.312c-.048.456-.017.92-.027,1.381,0,.122-.028.244-.049.417a24.28,24.28,0,0,1-.365-5.171l10.187-.423a27,27,0,0,1,.1,5.22,4.118,4.118,0,0,1-.083-.511,6.572,6.572,0,0,0-.593-2.793,2.626,2.626,0,0,0-3.137-1.559c-.094.019-.186.157-.231.26a.724.724,0,0,0,0,.3q.267,6.451.535,12.9c0,.05,0,.1.006.15.043.906.043.905.92.9C887.988,409.065,888.089,409.086,888.239,409.1Z" transform="translate(-803.712 -387.178)"/><path class="a" d="M907.034,408.326c.2-.008.4-.015.593-.025.486-.023.6-.158.47-.633-.28-.994-.583-1.983-.879-2.973-.157-.525-.33-1.045-.473-1.574a.335.335,0,0,0-.4-.29c-.959.046-1.92.074-2.879.134a.425.425,0,0,0-.3.265c-.183,1.117-.36,2.237-.489,3.361a2.98,2.98,0,0,0,.118,1.068.962.962,0,0,0,1.1.8c.162,0,.324.011.552.02a10.9,10.9,0,0,1-3.77.2c.042-.032.077-.082.114-.083a.938.938,0,0,0,.888-.739,30.3,30.3,0,0,0,.844-3.014c.75-3.66,1.454-7.329,2.176-10.994.022-.109.049-.217.075-.332.086-.012.158-.029.231-.033,1.022-.06,1.016-.058,1.324.919q2.013,6.4,4.033,12.789c.052.166.115.329.184.489a.642.642,0,0,0,.748.472.612.612,0,0,1,.212.049C911.283,408.435,907.308,408.613,907.034,408.326Zm-3.794-5.547,2.847-.118c.459-.02.481-.048.354-.476q-.892-3-1.786-6.008c-.026-.086-.06-.168-.091-.252l-.068.008Z" transform="translate(-814.108 -386.803)"/><path class="a" d="M800.447,412.874l-.23-5.541.107-.013a4.224,4.224,0,0,1,.072.476,7.452,7.452,0,0,0,.733,3.03,3.089,3.089,0,0,0,2.215,1.888,2.462,2.462,0,0,0,3.015-1.782,3.163,3.163,0,0,0-.995-2.961c-.739-.7-1.6-1.264-2.4-1.9a15.484,15.484,0,0,1-2.017-1.707,4.521,4.521,0,0,1,.081-5.842,3.1,3.1,0,0,1,3.341-.9,10.9,10.9,0,0,1,1.082.407c.453.177.51.145.582-.341a1.09,1.09,0,0,1,.1-.193,1.459,1.459,0,0,1,.149.374q.1,2.206.184,4.413a1.125,1.125,0,0,1-.077.308l-.119,0c-.024-.148-.059-.3-.07-.444a6.3,6.3,0,0,0-1.015-3.279,2.319,2.319,0,0,0-2.441-1.084,1.878,1.878,0,0,0-1.461,2.064,3.866,3.866,0,0,0,1.652,3.051c.986.761,2.026,1.452,3.047,2.168a4.5,4.5,0,0,1,.262,7.137,4.55,4.55,0,0,1-4.071.584c-.373-.1-.736-.233-1.1-.354-.31-.1-.523-.072-.491.332,0,.04-.035.083-.053.124Z" transform="translate(-763.054 -388.831)"/><path class="a" d="M869.311,404.383a36.693,36.693,0,0,1,.148,5.675.841.841,0,0,1-.125-.212c-.082-.411-.1-.427-.5-.247a8.3,8.3,0,0,1-2.611.748,4.4,4.4,0,0,1-4.371-2.237,9.137,9.137,0,0,1-1.341-3.931,13,13,0,0,1,.453-5.806,5.585,5.585,0,0,1,1.339-2.268,4.435,4.435,0,0,1,4.827-.907c.059.02.115.048.174.068a1.72,1.72,0,0,0,.666.195c.115-.014.193-.321.287-.492a23.1,23.1,0,0,1,.187,5.253,2.093,2.093,0,0,1-.09-.371,6.806,6.806,0,0,0-.61-2.755,6.474,6.474,0,0,0-.845-1.267,2.067,2.067,0,0,0-2.268-.67,1.956,1.956,0,0,0-1.424,1.794,22.446,22.446,0,0,0-.177,3.021q.045,2.787.231,5.571a20.421,20.421,0,0,0,.406,2.7,2.132,2.132,0,0,0,1.577,1.857,2.582,2.582,0,0,0,2.653-.809,5,5,0,0,0,1.2-3.08c.041-.5.013-1,.026-1.5a2.159,2.159,0,0,1,.071-.366Z" transform="translate(-793.69 -387.515)"/><path class="a" d="M755.236,409.577a1.769,1.769,0,0,1,.077.327c.07,1.6.13,3.193.206,4.788.012.263-.072.347-.331.358-2.669.1-5.338.218-8.007.325a1.992,1.992,0,0,1-.338-.042l0-.154c.232-.014.465-.047.7-.038.289.012.414-.117.421-.391,0-.2.021-.4.012-.6q-.258-6.3-.521-12.607,0-.075-.006-.149c-.043-.809-.07-.835-.862-.814a2.187,2.187,0,0,1-.261-.006c-.029,0-.056-.034-.087-.054a25.4,25.4,0,0,1,4.841-.229l.008.1a8.5,8.5,0,0,1-.881.031c-.389-.024-.554.143-.547.518,0,.174-.007.349,0,.523q.269,6.528.541,13.056c.02.485.021.488.519.465.461-.022.927-.015,1.382-.082a3.141,3.141,0,0,0,2.523-2.04,6.3,6.3,0,0,0,.441-2.782c-.006-.163.013-.327.021-.489Z" transform="translate(-735.85 -390.239)"/></g><line class="d" y1="1.973" x2="39.463" transform="translate(234.523 177.393)"/><line class="d" y1="1.973" x2="39.463" transform="translate(156.584 178.38)"/><line class="d" y1="1.236" x2="22.198" transform="translate(171.383 194.165)"/><line class="d" y1="1.236" x2="22.198" transform="translate(170.889 206.004)"/><line class="d" y1="1.48" x2="43.409" transform="translate(232.55 189.726)"/><line class="d" y1="0.493" x2="44.889" transform="translate(230.577 206.004)"/><line class="d" x2="45.382" transform="translate(229.097 220.803)"/><path class="a" d="M577.611,801.276s-.1,1.218-2.96,1.973c-8.418,2.22-28.142-36.913-19.7-36.75C567.745,766.746,581.032,790.671,577.611,801.276Z" transform="translate(-491.073 -517.333)"/><text class="f" transform="matrix(-0.869, 0.495, -0.495, -0.869, 255.063, 126.366)"><tspan x="0" y="0">S</tspan></text><ellipse class="g" cx="10.112" cy="2.96" rx="10.112" ry="2.96" transform="translate(199.007 309.594)"/><path class="b" d="M836.919,869.691S835.933,856.372,831,847" transform="translate(-631.993 -558.124)"/><path class="b" d="M846.48,875.745c0-1.48.493-12.332-1.48-18.745" transform="translate(-639.087 -563.191)"/><path class="b" d="M852.866,856.544s-.987-24.664,2.466-33.544" transform="translate(-643.007 -545.963)"/><ellipse class="g" cx="10.112" cy="2.96" rx="10.112" ry="2.96" transform="translate(286.812 264.212)"/><path class="b" d="M1025.952,777.685s.4-13.349-3.527-23.184" transform="translate(-728.991 -511.253)"/><path class="b" d="M1023.419,785.819c0-1.48-2.96-8.386-5.919-13.319" transform="translate(-726.495 -520.374)"/><path class="b" d="M1033.866,764.543s-.987-24.664,2.466-33.543" transform="translate(-734.722 -499.345)"/><path class="a" d="M726,761.9" transform="translate(-578.788 -515.002)"/><path class="b" d="M835.727,621.5h21.211l-.695,57.55L834,673.542Z" transform="translate(-633.513 -443.86)"/></svg>