<svg xmlns="http://www.w3.org/2000/svg" width="25" height="25" viewBox="0 0 25 25">
  <g id="Componente_70_1" data-name="Componente 70 – 1" transform="translate(0)">
    <g id="Grupo_29399" data-name="Grupo 29399" transform="translate(757.095 3393.761)">
      <g id="Grupo_26800" data-name="Grupo 26800">
        <g id="Grupo_26791-4" data-name="Grupo 26791-4">
          <circle id="Elipse_784-9" data-name="Elipse 784-9" cx="12.5" cy="12.5" r="12.5" transform="translate(-757.095 -3393.761)" fill="#f6f6f6"/>
        </g>
      </g>
      <g id="G" style="mix-blend-mode: normal;isolation: isolate">
        <g id="Grupo_29398" data-name="Grupo 29398" style="mix-blend-mode: normal;isolation: isolate">
          <path id="Trazado_16071" data-name="Trazado 16071" d="M-742.513-3376.816v-2.839h-1.326v-.493h4.675v.493h-.884v4.335h-.323a.646.646,0,0,0-.68-.426,23.55,23.55,0,0,1-3.332.613c-3.467,0-5.643-1.853-5.643-6,0-4.115,2.448-6.256,5.763-6.256a18.545,18.545,0,0,1,3.059.527c.255,0,.306-.119.391-.34h.306l.119,3.6h-.391c-.646-1.99-1.785-3.264-3.451-3.264-1.989,0-3.094,1.5-3.094,5.677,0,3.689,1.055,5.524,3.061,5.524C-743.21-3375.661-742.7-3376.086-742.513-3376.816Z"/>
        </g>
      </g>
    </g>
  </g>
</svg>
