<svg xmlns="http://www.w3.org/2000/svg" width="210" height="69.065" viewBox="0 0 210 69.065"><defs><style>.a{fill:#d60028;}.b{fill:none;stroke:#d60028;stroke-miterlimit:10;stroke-width:2px;}</style></defs><g transform="translate(200.218 10.895)"><path class="a" d="M3155.3,1753.59s7.313-1.391,7.172,4.334-2.234,4.468-7.121,4.748-1.54-5.173-1.54-5.173l.422-3.345Z" transform="translate(-3152.689 -1753.441)"/></g><g transform="translate(18.394 8.871)"><path d="M1851.217,1740.92c11.636.9,23.277-.119,34.916-.372,11.746-.255,23.5-.239,35.251-.167,23.639.144,47.272.725,70.9,1.3q19.681.479,39.363.9a.7.7,0,0,0,0-1.4c-23.438-.519-46.874-1.124-70.312-1.615-23.631-.5-47.27-.8-70.905-.482-13.059.178-26.165,1.452-39.215.441-.9-.069-.892,1.327,0,1.4Z" transform="translate(-1850.546 -1738.95)"/></g><g transform="translate(17.157 16.418)"><g transform="translate(0)"><path d="M1842.365,1794.592l70.962-.128c23.6-.043,47.218-.308,70.817.134,13.207.248,26.411.781,39.577,1.879.9.074.89-1.322,0-1.4-23.478-1.957-47.052-2.108-70.6-2.083q-35.467.038-70.934.126l-39.826.072a.7.7,0,0,0,0,1.4Z" transform="translate(-1841.691 -1792.995)"/></g></g><g transform="translate(16.341 9.6)"><g transform="translate(0 0)"><path d="M1838.554,1744.362l-2.5,2.362a.7.7,0,0,0,.141,1.1l2.646,1.2v-1.206a3.458,3.458,0,0,0-1.8,4.019.7.7,0,0,0,1.347-.371,2.066,2.066,0,0,1,1.161-2.442.7.7,0,0,0,0-1.206l-2.646-1.2.141,1.1,2.5-2.362c.655-.618-.333-1.6-.987-.987Z" transform="translate(-1835.849 -1744.167)"/></g></g><g transform="translate(198.726 11.123)"><g transform="translate(0)"><path d="M3142.62,1756.082a7.325,7.325,0,0,1,1.439,3.13,5.24,5.24,0,0,1,.089,1.607c-.061.455-.425,1.408-1.074,1.126-.816-.354-1.528.848-.7,1.206,1.81.786,3.112-.864,3.191-2.552a8.155,8.155,0,0,0-1.734-5.223c-.541-.7-1.754-.008-1.206.7Z" transform="translate(-3142.003 -1755.085)"/></g></g><g transform="translate(17.231 9.373)"><path d="M1844.6,1742.961l-2.374,2.793,2.234,1.4s-1.815,1.676-1.257,2.793,18.432.559,18.432.559H1930.2l64.791.139s19.968,1.676,27.229,1.815c0,0,4.329,1.117,4.468-2.793,0,0,.419-5.027-4.049-5.027l-50.269-.838-46.5-.977-23.319-.279-45.521.7Z" transform="translate(-1842.225 -1742.542)"/></g><g transform="translate(31.013)"><g transform="translate(4.952 34.171)"><path d="M1981.177,1954.271a12.456,12.456,0,0,0-.333-5.992c-.3-.881-.753-1.7-1.04-2.6a23.8,23.8,0,0,1-.687-2.7,57.79,57.79,0,0,1-.639-11.138l-.143.529c.5-.935,1.065-1.836,1.617-2.744a30.634,30.634,0,0,1,1.608-2.739c.61-.8.955-1.753,1.538-2.559.607-.839,1.019-1.8,1.591-2.661.747-1.126-1.066-2.177-1.809-1.057-.612.923-1.079,1.922-1.725,2.822a12.835,12.835,0,0,0-.78,1.4c-.258.482-.582.866-.872,1.328-.618.984-1.138,2.044-1.746,3.04-.3.488-.594.976-.878,1.472a3.041,3.041,0,0,0-.5,1.649c0,4.533-.03,9.182,1.293,13.564.377,1.249,1.051,2.421,1.33,3.688a10.747,10.747,0,0,1,.152,4.135c-.228,1.318,1.79,1.885,2.02.557Z" transform="translate(-1976.381 -1920.134)"/></g><g transform="translate(23.551 19.42)"><path d="M2111.641,1833.625q1.181-4.385,2.242-8.8c.725-3.005,1.66-5.972,2.279-9l-1.01.769c1.8.016,3.583.335,5.38.458l-.529-.143-.147-.147-.143-.529a65.893,65.893,0,0,1-.292,18.41,51,51,0,0,1-2.351,8.91c-.5,1.38-.961,2.752-1.577,4.084-.316.685-.648,1.363-1.011,2.024a16.534,16.534,0,0,0-1.117,2.017,47.311,47.311,0,0,0-2.452,10.308,1.085,1.085,0,0,0,.731,1.288,1.053,1.053,0,0,0,1.288-.731c.247-1.8.562-3.593.979-5.364q.312-1.327.7-2.634a12.932,12.932,0,0,1,.9-2.512c.857-1.556,1.688-3.076,2.405-4.707.339-.771.55-1.576.855-2.366q.489-1.265.907-2.557a59.393,59.393,0,0,0,2.53-21.394q-.079-1.486-.215-2.968c-.08-.882.058-2.323-.776-2.87a3.149,3.149,0,0,0-1.465-.276c-.511-.048-1.021-.108-1.531-.167a29.171,29.171,0,0,0-3.07-.23,1.059,1.059,0,0,0-1.01.769c-.619,3.028-1.554,6-2.28,9q-1.065,4.414-2.242,8.8a1.048,1.048,0,0,0,2.02.557Z" transform="translate(-2109.581 -1814.499)"/></g><g transform="translate(19.284 1.294)"><path d="M2093.153,1703.623c-.043-.065.111.312.057.133-.018-.06-.018.295.014.092.023-.146,0-.314.015-.463.006-.08.016-.16.024-.24.029-.291-.015.08.015-.11.041-.258.083-.515.131-.771.242-1.3.554-2.59.874-3.874.681-2.729,1.432-5.441,2.207-8.145q.265-.923.535-1.845a1.055,1.055,0,0,0-.481-1.183l-5.266-2.4a1.07,1.07,0,0,0-1.538.626l-3.6,9.526-5.735,15.17-1.31,3.464c-.477,1.262,1.547,1.808,2.02.557l3.6-9.526,5.735-15.17,1.31-3.464-1.538.626,5.266,2.4-.481-1.183a137.929,137.929,0,0,0-3.625,13.913c-.149.806-.545,2.159-.037,2.924.743,1.117,2.558.07,1.809-1.057Z" transform="translate(-2079.022 -1684.689)"/></g><g transform="translate(14.055 29.187)"><path d="M2052.4,1884.731c-3.652-.984-7.686.7-10.52,2.9a1.054,1.054,0,0,0,0,1.481,1.073,1.073,0,0,0,1.481,0,11.556,11.556,0,0,1,6.01-2.483,10.691,10.691,0,0,1,1.959.021c.22.022-.185-.037.109.016l.221.041c.062.011.123.026.183.042a1.048,1.048,0,0,0,.557-2.02Z" transform="translate(-2041.574 -1884.444)"/></g><g transform="translate(14.967)"><path d="M2060.112,1690.5l-3.3-12.522-.467-1.773a1.053,1.053,0,0,0-1.288-.732l-6.181,2.519a1.082,1.082,0,0,0-.769,1.01l.5,8.438.8,13.442.183,3.075c.08,1.339,2.175,1.349,2.094,0l-.5-8.438-.8-13.442L2050.2,1679l-.769,1.01,6.182-2.518-1.288-.732,3.3,12.522.467,1.773a1.048,1.048,0,0,0,2.02-.557Z" transform="translate(-2048.109 -1675.419)"/></g><g transform="translate(2.617 22.451)"><path d="M1973.75,1836.208l-6.35.405-3.714.237c-.229.015-.459.021-.687.044-.652.064-.882.459-1.148.964l-1.841,3.5a1.68,1.68,0,0,0-.314,1.228c.045.193.126.384.187.571l2.336,7.125,2.051,6.255a1.061,1.061,0,0,0,1.914.25q1.638-2.867,3.26-5.744c.362-.646,1.149-1.626.962-2.413a26.208,26.208,0,0,0-1.091-2.979q-.594-1.59-1.194-3.179c-.471-1.249-2.5-.708-2.02.557q.575,1.523,1.145,3.048.386,1.034.768,2.069a6.23,6.23,0,0,1,.376,1.065v-.557c.093-.395.016-.063-.094.14-.154.284-.312.567-.47.849q-.708,1.266-1.425,2.527-1.01,1.781-2.026,3.56l1.914.25-4-12.214-.574-1.752-.105.807,2.289-4.35-.9.519,10.76-.687c1.339-.085,1.348-2.181,0-2.094Z" transform="translate(-1959.665 -1836.206)"/></g><g transform="translate(0 28.244)"><path d="M1943.906,1878.177l-1.944,3.077c-.293.464-.624.92-.887,1.4a1.574,1.574,0,0,0-.1,1.122,38.934,38.934,0,0,0,2.415,8.453c.6,1.4,1.457,3.18,2.943,3.825a1.083,1.083,0,0,0,1.433-.376,1.054,1.054,0,0,0-.376-1.433,2.014,2.014,0,0,1-.956-.793,10.132,10.132,0,0,1-.8-1.341,22.907,22.907,0,0,1-1.444-3.876,47.408,47.408,0,0,1-1.24-5.269l-.106.807,2.87-4.542c.722-1.143-1.09-2.195-1.809-1.057Z" transform="translate(-1940.92 -1877.688)"/></g></g><g transform="translate(82.817)"><g transform="translate(4.952 34.171)"><path d="M2352.177,1954.271a12.456,12.456,0,0,0-.333-5.992c-.3-.881-.753-1.7-1.04-2.6a23.8,23.8,0,0,1-.687-2.7,57.79,57.79,0,0,1-.639-11.138l-.143.529c.505-.935,1.066-1.836,1.617-2.744a30.693,30.693,0,0,1,1.608-2.739c.61-.8.955-1.753,1.538-2.559.606-.839,1.019-1.8,1.591-2.661.747-1.126-1.066-2.177-1.809-1.057-.612.923-1.079,1.922-1.725,2.822a12.878,12.878,0,0,0-.78,1.4c-.257.482-.581.866-.872,1.328-.618.984-1.138,2.044-1.746,3.04-.3.488-.595.976-.878,1.472a3.041,3.041,0,0,0-.5,1.649c0,4.533-.03,9.182,1.293,13.564.377,1.249,1.051,2.421,1.33,3.688a10.752,10.752,0,0,1,.152,4.135c-.229,1.318,1.79,1.885,2.02.557Z" transform="translate(-2347.381 -1920.134)"/></g><g transform="translate(23.551 19.42)"><path d="M2482.641,1833.625q1.181-4.385,2.242-8.8c.725-3.005,1.66-5.972,2.279-9l-1.01.769c1.8.016,3.583.335,5.38.458l-.529-.143-.147-.147-.143-.529a65.884,65.884,0,0,1-.293,18.41,50.977,50.977,0,0,1-2.35,8.91c-.5,1.38-.961,2.752-1.577,4.084-.316.685-.648,1.363-1.011,2.024a16.534,16.534,0,0,0-1.117,2.017,47.325,47.325,0,0,0-2.452,10.308,1.085,1.085,0,0,0,.731,1.288,1.054,1.054,0,0,0,1.288-.731c.247-1.8.562-3.593.979-5.364q.312-1.327.7-2.634a12.931,12.931,0,0,1,.9-2.512c.857-1.556,1.689-3.076,2.406-4.707.339-.771.55-1.576.855-2.366q.489-1.265.907-2.557a59.382,59.382,0,0,0,2.53-21.394q-.078-1.486-.215-2.968c-.08-.882.058-2.323-.775-2.87a3.151,3.151,0,0,0-1.465-.276c-.511-.048-1.021-.108-1.531-.167a29.171,29.171,0,0,0-3.07-.23,1.059,1.059,0,0,0-1.01.769c-.619,3.028-1.554,6-2.28,9q-1.065,4.414-2.242,8.8a1.048,1.048,0,0,0,2.02.557Z" transform="translate(-2480.581 -1814.499)"/></g><g transform="translate(19.284 1.294)"><path d="M2464.153,1703.623c-.043-.065.111.312.057.133-.018-.06-.018.295.014.092.024-.146,0-.314.015-.463.007-.08.016-.16.025-.24.029-.291-.015.08.015-.11.041-.258.083-.515.131-.771.242-1.3.554-2.59.874-3.874.681-2.729,1.432-5.441,2.207-8.145.177-.616.354-1.231.535-1.845a1.055,1.055,0,0,0-.481-1.183l-5.266-2.4a1.07,1.07,0,0,0-1.538.626l-3.6,9.526-5.735,15.17-1.31,3.464c-.477,1.262,1.547,1.808,2.02.557l3.6-9.526,5.735-15.17,1.31-3.464-1.538.626,5.266,2.4-.482-1.183a137.927,137.927,0,0,0-3.625,13.913c-.149.806-.545,2.159-.037,2.924.743,1.117,2.558.07,1.809-1.057Z" transform="translate(-2450.022 -1684.689)"/></g><g transform="translate(14.055 29.187)"><path d="M2423.4,1884.731c-3.652-.984-7.686.7-10.52,2.9a1.053,1.053,0,0,0,0,1.481,1.073,1.073,0,0,0,1.481,0,11.555,11.555,0,0,1,6.01-2.483,10.691,10.691,0,0,1,1.959.021c.22.022-.186-.037.11.016l.221.041c.061.011.123.026.183.042a1.048,1.048,0,0,0,.557-2.02Z" transform="translate(-2412.574 -1884.444)"/></g><g transform="translate(14.967)"><path d="M2431.112,1690.5l-3.3-12.522-.467-1.773a1.053,1.053,0,0,0-1.288-.732l-6.182,2.519a1.082,1.082,0,0,0-.769,1.01l.5,8.438.8,13.442.183,3.075c.08,1.339,2.175,1.349,2.094,0l-.5-8.438-.8-13.442L2421.2,1679l-.769,1.01,6.181-2.518-1.288-.732,3.3,12.522.467,1.773a1.048,1.048,0,0,0,2.02-.557Z" transform="translate(-2419.109 -1675.419)"/></g><g transform="translate(2.617 22.451)"><path d="M2344.75,1836.208l-6.35.405-3.714.237c-.229.015-.459.021-.687.044-.652.064-.882.459-1.148.964l-1.841,3.5a1.68,1.68,0,0,0-.314,1.228c.045.193.126.384.187.571l2.336,7.125,2.051,6.255a1.061,1.061,0,0,0,1.914.25q1.638-2.867,3.259-5.744c.362-.646,1.15-1.626.962-2.413a26.255,26.255,0,0,0-1.091-2.979q-.594-1.59-1.194-3.179c-.471-1.249-2.5-.708-2.02.557q.575,1.523,1.145,3.048.386,1.034.768,2.069a6.23,6.23,0,0,1,.376,1.065v-.557c.093-.395.016-.063-.094.14-.154.284-.312.567-.47.849q-.708,1.266-1.425,2.527-1.01,1.781-2.026,3.56l1.914.25-4-12.214-.574-1.752-.105.807,2.289-4.35-.9.519,10.76-.687c1.339-.085,1.348-2.181,0-2.094Z" transform="translate(-2330.665 -1836.206)"/></g><g transform="translate(0 28.244)"><path d="M2314.906,1878.177l-1.945,3.077c-.293.464-.624.92-.886,1.4a1.572,1.572,0,0,0-.1,1.122,38.947,38.947,0,0,0,2.415,8.453c.6,1.4,1.457,3.18,2.943,3.825a1.083,1.083,0,0,0,1.433-.376,1.054,1.054,0,0,0-.376-1.433,2.016,2.016,0,0,1-.956-.793,10.146,10.146,0,0,1-.8-1.341,22.9,22.9,0,0,1-1.444-3.876,47.3,47.3,0,0,1-1.24-5.269l-.106.807,2.87-4.542c.722-1.143-1.09-2.195-1.809-1.057Z" transform="translate(-2311.92 -1877.688)"/></g></g><g transform="translate(132.248)"><g transform="translate(4.952 34.171)"><path d="M2706.176,1954.271a12.456,12.456,0,0,0-.333-5.992c-.3-.881-.753-1.7-1.04-2.6a23.749,23.749,0,0,1-.687-2.7,57.829,57.829,0,0,1-.639-11.138l-.143.529c.5-.935,1.065-1.836,1.617-2.744a30.693,30.693,0,0,1,1.608-2.739c.61-.8.956-1.753,1.538-2.559.606-.839,1.019-1.8,1.591-2.661.747-1.126-1.066-2.177-1.809-1.057-.612.923-1.079,1.922-1.725,2.822a12.8,12.8,0,0,0-.78,1.4c-.257.482-.582.866-.872,1.328-.618.984-1.139,2.044-1.746,3.04-.3.488-.595.976-.877,1.472a3.039,3.039,0,0,0-.5,1.649c0,4.533-.03,9.182,1.293,13.564.377,1.249,1.05,2.421,1.329,3.688a10.743,10.743,0,0,1,.152,4.135c-.229,1.318,1.79,1.885,2.02.557Z" transform="translate(-2701.381 -1920.134)"/></g><g transform="translate(23.551 19.42)"><path d="M2836.641,1833.625q1.181-4.385,2.243-8.8c.725-3.005,1.66-5.972,2.279-9l-1.009.769c1.8.016,3.583.335,5.38.458l-.528-.143-.147-.147-.143-.529a65.893,65.893,0,0,1-.292,18.41,50.956,50.956,0,0,1-2.351,8.91c-.5,1.38-.96,2.752-1.577,4.084-.316.685-.647,1.363-1.01,2.024a16.5,16.5,0,0,0-1.118,2.017,47.34,47.34,0,0,0-2.452,10.308,1.085,1.085,0,0,0,.731,1.288,1.054,1.054,0,0,0,1.289-.731c.247-1.8.562-3.593.979-5.364q.312-1.327.7-2.634a12.93,12.93,0,0,1,.9-2.512c.857-1.556,1.689-3.076,2.406-4.707.339-.771.55-1.576.855-2.366q.489-1.265.907-2.557a59.371,59.371,0,0,0,2.53-21.394q-.078-1.486-.214-2.968c-.081-.882.058-2.323-.775-2.87a3.152,3.152,0,0,0-1.465-.276c-.511-.048-1.021-.108-1.531-.167a29.171,29.171,0,0,0-3.07-.23,1.06,1.06,0,0,0-1.01.769c-.619,3.028-1.554,6-2.279,9q-1.066,4.414-2.242,8.8a1.048,1.048,0,0,0,2.02.557Z" transform="translate(-2834.581 -1814.499)"/></g><g transform="translate(19.284 1.294)"><path d="M2818.153,1703.623c-.043-.065.111.312.057.133-.018-.06-.018.295.014.092.024-.146,0-.314.015-.463.006-.08.016-.16.024-.24.03-.291-.015.08.015-.11.041-.258.083-.515.131-.771.242-1.3.554-2.59.874-3.874.681-2.729,1.432-5.441,2.207-8.145q.265-.923.535-1.845a1.055,1.055,0,0,0-.481-1.183l-5.266-2.4a1.07,1.07,0,0,0-1.538.626l-3.6,9.526-5.735,15.17-1.31,3.464c-.477,1.262,1.547,1.808,2.02.557l3.6-9.526,5.735-15.17,1.31-3.464-1.538.626,5.266,2.4-.482-1.183a137.927,137.927,0,0,0-3.625,13.913c-.149.806-.545,2.159-.037,2.924.743,1.117,2.558.07,1.809-1.057Z" transform="translate(-2804.022 -1684.689)"/></g><g transform="translate(14.055 29.187)"><path d="M2777.4,1884.731c-3.653-.984-7.687.7-10.521,2.9a1.054,1.054,0,0,0,0,1.481,1.073,1.073,0,0,0,1.481,0,11.557,11.557,0,0,1,6.01-2.483,10.689,10.689,0,0,1,1.958.021c.219.022-.186-.037.109.016l.222.041c.061.011.123.026.183.042a1.048,1.048,0,0,0,.557-2.02Z" transform="translate(-2766.574 -1884.444)"/></g><g transform="translate(14.967)"><path d="M2785.112,1690.5l-3.3-12.522-.467-1.773a1.053,1.053,0,0,0-1.288-.732l-6.181,2.519a1.082,1.082,0,0,0-.769,1.01l.5,8.438.8,13.442.183,3.075c.08,1.339,2.175,1.349,2.095,0l-.5-8.438-.8-13.442L2775.2,1679l-.769,1.01,6.181-2.518-1.288-.732,3.3,12.522.467,1.773a1.048,1.048,0,0,0,2.02-.557Z" transform="translate(-2773.108 -1675.419)"/></g><g transform="translate(2.617 22.451)"><path d="M2698.75,1836.208l-6.35.405-3.714.237c-.229.015-.459.021-.687.044-.651.064-.882.459-1.148.964l-1.842,3.5a1.679,1.679,0,0,0-.314,1.228c.045.193.125.384.187.571l2.336,7.125,2.051,6.255a1.061,1.061,0,0,0,1.914.25q1.638-2.867,3.259-5.744c.362-.646,1.149-1.626.962-2.413a26.206,26.206,0,0,0-1.09-2.979q-.594-1.59-1.194-3.179c-.471-1.249-2.5-.708-2.02.557q.575,1.523,1.145,3.048.386,1.034.768,2.069a6.252,6.252,0,0,1,.376,1.065v-.557c.093-.395.015-.063-.095.14-.154.284-.312.567-.47.849q-.707,1.266-1.425,2.527-1.01,1.781-2.026,3.56l1.914.25-4-12.214-.575-1.752-.105.807,2.29-4.35-.9.519,10.76-.687c1.339-.085,1.348-2.181,0-2.094Z" transform="translate(-2684.665 -1836.206)"/></g><g transform="translate(0 28.244)"><path d="M2668.906,1878.177l-1.945,3.077c-.293.464-.624.92-.886,1.4a1.572,1.572,0,0,0-.1,1.122,38.934,38.934,0,0,0,2.415,8.453c.6,1.4,1.457,3.18,2.943,3.825a1.083,1.083,0,0,0,1.433-.376,1.054,1.054,0,0,0-.376-1.433,2.014,2.014,0,0,1-.956-.793,10.172,10.172,0,0,1-.8-1.341,22.9,22.9,0,0,1-1.444-3.876,47.354,47.354,0,0,1-1.24-5.269l-.105.807,2.87-4.542c.722-1.143-1.09-2.195-1.809-1.057Z" transform="translate(-2665.92 -1877.688)"/></g></g><g transform="translate(44.81 9.512)"><path class="b" d="M2039.725,1743.542" transform="translate(-2039.725 -1743.542)"/></g><g transform="translate(198.303 9.508)"><path d="M3139.359,1753.707s1.117-7.82,0-9.076,3.631-1.117,3.631-1.117,2.513,2.793.559,9.635c0,0,.7,2.653-3.631,2.234C3139.917,1755.383,3138.242,1756.081,3139.359,1753.707Z" transform="translate(-3138.975 -1743.509)"/></g><g transform="translate(11.716 9.441)"><path d="M1809.358,1743.042l-4.957,3,2.444.628-2.723.628s2.863,1.885,2.723,1.885-4.119-.768-4.119-.768l6.074,3.142h5.725v-4.189l.768-3.875Z" transform="translate(-1802.725 -1743.042)"/></g><g transform="translate(0 9.389)"><g transform="translate(0)"><path d="M1736.726,1750.076l-14.917-2.656-2.118-.377v1.347l15.521-3.823,2.212-.545-.679-.18a12,12,0,0,1,2.314,3.046,2.589,2.589,0,0,1,.36,2.012c-.435.976-1.983,1.088-2.879,1.151s-.9,1.46,0,1.4c1.4-.1,3.152-.355,3.975-1.65a3.347,3.347,0,0,0-.029-3.14,11.457,11.457,0,0,0-1.807-2.766c-.4-.472-.931-1.311-1.627-1.216a12.167,12.167,0,0,0-1.216.3l-3.065.755-8.2,2.02-5.25,1.293a.7.7,0,0,0,0,1.347l14.917,2.656,2.118.377C1737.234,1751.579,1737.611,1750.233,1736.726,1750.076Z" transform="translate(-1718.82 -1742.668)"/></g></g><g transform="translate(0.042 12.305)"><path class="a" d="M1719.486,1766.335l6.144.977s2.234-1.955,0-3.77l-5.446,1.4S1718.369,1765.078,1719.486,1766.335Z" transform="translate(-1719.123 -1763.542)"/></g></svg>