<svg data-name="Componente 66 – 1" xmlns="http://www.w3.org/2000/svg" width="17.874" height="16.885"><g data-name="Grupo 29053" fill="#141414"><path data-name="Trazado 16074" d="M17.874.396v14.383c-.055.015-.038.066-.045.1a2.54 2.54 0 0 1-2.543 2c-3.869-.02-7.738-.007-11.607-.007h-.217a2.955 2.955 0 0 0 .517-1.939q-.011-7.156 0-14.312c0-.454.167-.623.616-.623h12.671a.569.569 0 0 1 .608.398zm-6.947 5.559H7.593c-.407 0-.644.184-.644.5s.237.5.643.5h6.667a1.228 1.228 0 0 0 .192-.008.479.479 0 0 0 .422-.363.5.5 0 0 0-.543-.628c-1.134-.002-2.268-.001-3.403-.001zm0-2.976H7.472a.493.493 0 0 0-.483.681.539.539 0 0 0 .569.312h6.719a1.265 1.265 0 0 0 .209-.013.46.46 0 0 0 .383-.338.494.494 0 0 0-.522-.641q-1.71-.003-3.42-.001zm0 8.937H7.472a.493.493 0 0 0-.482.681.539.539 0 0 0 .57.312h6.719a1.258 1.258 0 0 0 .209-.013.46.46 0 0 0 .383-.338.494.494 0 0 0-.522-.641q-1.712-.003-3.422-.001zm-.008-1.983h2.67c.273 0 .547.006.82 0a.49.49 0 0 0 .459-.647c-.072-.226-.257-.338-.566-.338H7.407a.467.467 0 0 0-.428.329.49.49 0 0 0 .5.654c1.148.002 2.294.002 3.44.002z"/><path data-name="Trazado 16075" d="M0 2.351a.622.622 0 0 1 .66-.368c.57.015 1.14 0 1.71 0 .428 0 .605.176.605.6v12.724A1.489 1.489 0 0 1 .458 16.46a1.5 1.5 0 0 1-.392-.629c-.017-.051-.006-.118-.068-.15z"/></g></svg>