<svg xmlns="http://www.w3.org/2000/svg" width="61" height="61" viewBox="0 0 61 61"><defs><style>.a{fill:#141414;stroke:#f5f5f5;stroke-width:1.5px;}.b{fill:#f5f5f5;}.c{fill:#ea0a0a;}.d{stroke:none;}.e{fill:none;}</style></defs><g class="a"><circle class="d" cx="30.5" cy="30.5" r="30.5"/><circle class="e" cx="30.5" cy="30.5" r="29.75"/></g><g transform="translate(13.771 13.094)"><path class="b" d="M1315.147,2017.786q0,.263-.312.263H1300c-.209,0-.312-.076-.312-.227,0-.125.1-.186.312-.186h1.368c.259,0,.39-.5.39-1.506V1993.4c0-1-.131-1.506-.39-1.506H1300c-.209,0-.312-.061-.312-.187,0-.152.1-.227.312-.227h13.667c.207,0,.311.089.311.265v8.053c0,.2-.09.3-.272.3-.157,0-.235-.1-.235-.3v-.526a9.691,9.691,0,0,0-1.17-4.968,4.231,4.231,0,0,0-3.827-2.372h-2.381c-.235,0-.352.063-.352.188v11.668c0,.127.1.187.313.187h1.327a2.536,2.536,0,0,0,2.108-1.184,4.528,4.528,0,0,0,.859-2.729v-.414a.263.263,0,0,1,.3-.3c.141,0,.213.1.213.3v9.071c0,.2-.072.3-.213.3a.264.264,0,0,1-.3-.3v-.377a4.67,4.67,0,0,0-.859-2.785,2.528,2.528,0,0,0-2.108-1.2h-1.288c-.235,0-.352.077-.352.227v12.833c0,.127.1.188.313.188h2.225a5.517,5.517,0,0,0,5.154-3.013,9.354,9.354,0,0,0,1.171-4.627v-.49q0-.3.274-.3c.182,0,.273.1.273.3Z" transform="translate(-1299.685 -1984.476)"/><path class="b" d="M1344.137,2017.786c0,.175-.1.263-.312.263h-14.838c-.208,0-.311-.076-.311-.227,0-.125.1-.186.311-.186h1.367q.39,0,.391-1.506V1993.4q0-1.507-.391-1.506h-1.367c-.208,0-.311-.061-.311-.187,0-.152.1-.227.311-.227h13.667c.207,0,.311.089.311.265v8.053c0,.2-.091.3-.273.3-.157,0-.234-.1-.234-.3v-.526a9.683,9.683,0,0,0-1.172-4.968,4.228,4.228,0,0,0-3.826-2.372h-2.382q-.352,0-.352.188v11.668c0,.127.1.187.313.187h1.327a2.535,2.535,0,0,0,2.107-1.184,4.53,4.53,0,0,0,.86-2.729v-.414a.263.263,0,0,1,.3-.3c.141,0,.213.1.213.3v9.071q0,.3-.213.3a.264.264,0,0,1-.3-.3v-.377a4.672,4.672,0,0,0-.86-2.785,2.528,2.528,0,0,0-2.107-1.2h-1.289c-.235,0-.352.077-.352.227v12.833c0,.127.1.188.313.188h2.225a5.516,5.516,0,0,0,5.153-3.013,9.347,9.347,0,0,0,1.172-4.627v-.49q0-.3.273-.3t.273.3Z" transform="translate(-1310.696 -1984.476)"/><rect class="c" width="33.435" height="4.225" transform="translate(0.023)"/></g></svg>