<svg xmlns="http://www.w3.org/2000/svg" width="126.824" height="72.906" viewBox="0 0 126.824 72.906"><defs><style>.a{fill:#161615;}.b{fill:#ffe800;}.c{fill:#d9000d;}.d{fill:#005fab;}.e{mix-blend-mode:multiply;isolation:isolate;}.f{fill:#ddb500;}.g{fill:#f2c700;}.h{fill:#003482;}.i{fill:#004c95;}.j{fill:#b40018;}.k{fill:#9d0d16;}.l{fill:#ffe500;}.m{fill:#2e2e2d;}</style></defs><g transform="translate(2.715 18.801)"><g transform="translate(0 0)"><path class="a" d="M76.054,107.545l-.333.815a9.026,9.026,0,0,1-4.153.99,7.338,7.338,0,0,1-5.138-1.8,6.046,6.046,0,0,1-1.976-4.7,6.19,6.19,0,0,1,.986-3.491,6.111,6.111,0,0,1,2.6-2.234,8.621,8.621,0,0,1,3.631-.74,10.906,10.906,0,0,1,2.3.246,9.687,9.687,0,0,1,1.9.587l.061.087a11.171,11.171,0,0,0-.377,2.427l-.061.07H75.09l-.07-.07-.088-1.489a4.747,4.747,0,0,0-1.546-.793,6.275,6.275,0,0,0-1.888-.285,5.486,5.486,0,0,0-2.655.635,4.426,4.426,0,0,0-1.822,1.84,6.149,6.149,0,0,0-.648,2.948,6.049,6.049,0,0,0,.762,3.075,5.216,5.216,0,0,0,2.081,2.033,6.4,6.4,0,0,0,3.079.71,7.34,7.34,0,0,0,1.5-.149,5.668,5.668,0,0,0,1.2-.368,5.48,5.48,0,0,0,.916-.535Z" transform="translate(-64.454 -96.05)"/><path class="a" d="M93.12,110.76a4.913,4.913,0,0,1,.429-2.011,3.946,3.946,0,0,1,1.494-1.673,4.469,4.469,0,0,1,2.528-.705,3.97,3.97,0,0,1,4.153,4.144,4.482,4.482,0,0,1-4.529,4.6,3.781,3.781,0,0,1-2.19-.661,4.129,4.129,0,0,1-1.424-1.617A4.722,4.722,0,0,1,93.12,110.76Zm1.656-.6a7.072,7.072,0,0,0,.316,2.2,3.368,3.368,0,0,0,1,1.555,2.325,2.325,0,0,0,1.559.587,2.119,2.119,0,0,0,1.709-.82,3.817,3.817,0,0,0,.674-2.466,5.767,5.767,0,0,0-.732-3.058,2.332,2.332,0,0,0-2.107-1.191,2.124,2.124,0,0,0-1.779.824A3.807,3.807,0,0,0,94.776,110.156Z" transform="translate(-80.963 -101.797)"/><path class="a" d="M117.343,95.586l.167.105q-.1,1.008-.1,4.039v5.493q0,.193.035,1.24a11.39,11.39,0,0,0,.075,1.223.516.516,0,0,0,.118.254.364.364,0,0,0,.193.1q.114.022.946.075l.079.07v.368l-.07.079q-1.1-.07-2.112-.07t-2.1.07l-.079-.079v-.368l.079-.07q.85-.053.959-.079a.4.4,0,0,0,.193-.109.474.474,0,0,0,.114-.254q.03-.171.07-1.131t.039-1.45v-4.539l-.035-1.858q-.026-.973-.057-1.349a1.2,1.2,0,0,0-.084-.447.324.324,0,0,0-.184-.105,7.874,7.874,0,0,0-1.06-.035l-.079-.079v-.368l.07-.079A11.146,11.146,0,0,0,117.343,95.586Z" transform="translate(-93.248 -95.586)"/><path class="a" d="M125.991,110.76a4.906,4.906,0,0,1,.429-2.011,3.946,3.946,0,0,1,1.494-1.673,4.469,4.469,0,0,1,2.528-.705,3.97,3.97,0,0,1,4.153,4.144,4.482,4.482,0,0,1-4.529,4.6,3.78,3.78,0,0,1-2.19-.661,4.125,4.125,0,0,1-1.424-1.617A4.716,4.716,0,0,1,125.991,110.76Zm1.656-.6a7.06,7.06,0,0,0,.316,2.2,3.368,3.368,0,0,0,1,1.555,2.325,2.325,0,0,0,1.559.587,2.118,2.118,0,0,0,1.708-.82,3.814,3.814,0,0,0,.675-2.466,5.767,5.767,0,0,0-.732-3.058,2.332,2.332,0,0,0-2.107-1.191,2.124,2.124,0,0,0-1.779.824A3.8,3.8,0,0,0,127.647,110.156Z" transform="translate(-99.894 -101.797)"/><path class="a" d="M150.09,106.47l.166.114q-.052.578-.07,1.384l.832-.762q.351-.324.464-.416a1.8,1.8,0,0,1,.535-.215,3.123,3.123,0,0,1,.885-.123,2.717,2.717,0,0,1,1.533.434,2.57,2.57,0,0,1,.972,1.2,18.1,18.1,0,0,1,1.38-1.244,2.727,2.727,0,0,1,.626-.25,3.024,3.024,0,0,1,.859-.127,2.734,2.734,0,0,1,1.27.3,2.515,2.515,0,0,1,.92.78,2.158,2.158,0,0,1,.4,1.043q.057.56.057,1.542v.92q0,.149.052,2.182.018.832.184.99a2.045,2.045,0,0,0,1.078.158l.07.07v.377l-.07.07q-1.113-.07-1.507-.07-.22,0-1.271.07l-.115-.1q.115-1.139.115-2.97v-1.051a9.739,9.739,0,0,0-.132-1.95,1.546,1.546,0,0,0-.613-.911,1.884,1.884,0,0,0-1.148-.355,2.1,2.1,0,0,0-.885.188,2.217,2.217,0,0,0-.74.561,1.308,1.308,0,0,0-.363.692q-.036.319-.035,1.178v1.1q0,.385.035,1.445a11.623,11.623,0,0,0,.074,1.235.461.461,0,0,0,.123.25.4.4,0,0,0,.193.1q.11.022.942.075l.079.07v.368l-.07.079q-1.1-.07-2.112-.07-.937,0-2.1.07l-.079-.079v-.368l.079-.07q.849-.053.959-.079a.4.4,0,0,0,.193-.109.471.471,0,0,0,.114-.254q.03-.171.07-1.131t.039-1.45v-1a6.538,6.538,0,0,0-.137-1.525,1.683,1.683,0,0,0-.582-.9,1.707,1.707,0,0,0-1.121-.368,2.213,2.213,0,0,0-.96.206,2.27,2.27,0,0,0-.71.508,1.366,1.366,0,0,0-.341.565,5.959,5.959,0,0,0-.066,1.139v1.3q0,.385.035,1.445a11.563,11.563,0,0,0,.075,1.235.461.461,0,0,0,.123.25.4.4,0,0,0,.193.1q.109.022.942.075l.078.07v.368l-.07.079q-1.1-.07-2.112-.07t-2.1.07l-.079-.079v-.368l.079-.07q.85-.053.959-.079a.4.4,0,0,0,.193-.109.468.468,0,0,0,.114-.254q.03-.171.07-1.131t.039-1.45v-1.726q0-.351-.035-.955t-.057-.745a.271.271,0,0,0-.136-.206,1.033,1.033,0,0,0-.455-.066l-.736-.008-.079-.07V107.2l.07-.07A11.406,11.406,0,0,0,150.09,106.47Z" transform="translate(-112.108 -101.844)"/><path class="a" d="M182.12,96.76l-.079-.079v-.368l.07-.079a11.145,11.145,0,0,0,2.821-.648l.167.105q-.1,1.008-.1,4.039v2.234a7.333,7.333,0,0,1,.622-.67,5.075,5.075,0,0,1,.74-.635,2.919,2.919,0,0,1,.779-.324,3.781,3.781,0,0,1,1.038-.14,3.1,3.1,0,0,1,1.739.491,2.978,2.978,0,0,1,1.112,1.31,4.265,4.265,0,0,1,.364,1.748,4.7,4.7,0,0,1-.3,1.682,4.867,4.867,0,0,1-.714,1.314,5.052,5.052,0,0,1-.868.754A12.076,12.076,0,0,1,187.8,108.6a3.136,3.136,0,0,1-1.283.223,3.428,3.428,0,0,1-1.113-.17,4.282,4.282,0,0,1-1.033-.539l-.71.666-.289-.114a35.342,35.342,0,0,0,.166-3.627V100.4l-.035-1.683q-.026-.963-.057-1.353a1.239,1.239,0,0,0-.084-.46.32.32,0,0,0-.179-.105A7.869,7.869,0,0,0,182.12,96.76ZM185,103.016V106.3a2.247,2.247,0,0,0,.039.539,1.122,1.122,0,0,0,.35.386,2.846,2.846,0,0,0,.8.447,2.812,2.812,0,0,0,1.016.188,2.283,2.283,0,0,0,1.95-.964,4.031,4.031,0,0,0,.705-2.444,4.3,4.3,0,0,0-.293-1.642,2.28,2.28,0,0,0-.881-1.091,2.4,2.4,0,0,0-1.323-.377,2.424,2.424,0,0,0-1.529.512A2.21,2.21,0,0,0,185,103.016Z" transform="translate(-132.174 -95.586)"/><path class="a" d="M208.414,101.176l.167.114q-.1,1.148-.1,2.918v1.98q0,.193.035,1.24a11.274,11.274,0,0,0,.075,1.223.509.509,0,0,0,.118.254.362.362,0,0,0,.193.1q.114.022.946.075l.079.07v.368l-.07.079q-1.095-.07-2.111-.07t-2.1.07l-.078-.079v-.368l.078-.07q.85-.053.959-.079a.4.4,0,0,0,.193-.109.474.474,0,0,0,.114-.254q.031-.171.07-1.131t.039-1.45V104.33q0-.351-.035-.955t-.057-.745a.272.272,0,0,0-.136-.206,1.034,1.034,0,0,0-.455-.066l-.736-.008-.079-.07V101.9l.07-.07A11.4,11.4,0,0,0,208.414,101.176Zm-.745-3.916a.986.986,0,1,1,0,1.971.966.966,0,0,1-.7-.285.932.932,0,0,1-.293-.7.945.945,0,0,1,.293-.7A.957.957,0,0,1,207.669,97.26Z" transform="translate(-145.697 -96.55)"/><path class="a" d="M218.509,108.892l-.341-.088-.07-.088V107.63a5.12,5.12,0,0,1,3.031-1.156,3.366,3.366,0,0,1,1.674.377,2.36,2.36,0,0,1,.963.942,2.784,2.784,0,0,1,.3,1.318l-.044,1.761v2.611a1.581,1.581,0,0,0,.075.648.383.383,0,0,0,.17.153,1.485,1.485,0,0,0,.36.066l.5.044.07.079v.35l-.07.07q-.64-.053-1.192-.053-.525,0-1.262.053l-.131-.123.035-1.411-1.91,1.49a2.7,2.7,0,0,1-1.051.2,2.651,2.651,0,0,1-1.205-.254,1.819,1.819,0,0,1-.771-.71,2.141,2.141,0,0,1-.268-1.1,2.562,2.562,0,0,1,.806-2.011q.806-.723,4.4-1.231a2.4,2.4,0,0,0-.578-1.827,2.207,2.207,0,0,0-1.551-.53,2.731,2.731,0,0,0-.925.149,1.192,1.192,0,0,0-.477.24q-.062.092-.473,1.074Zm4.065,1.384a8.249,8.249,0,0,0-3.057.885,1.743,1.743,0,0,0-.605,1.464,1.2,1.2,0,0,0,1.358,1.366,3.134,3.134,0,0,0,2.3-1.349Z" transform="translate(-152.52 -101.857)"/></g></g><g transform="translate(0 4.306)"><path class="b" d="M151.034,78.854,58.052,81.667,150.3,82.6Z" transform="translate(-58.052 -71.453)"/><path class="c" d="M167.944,197.725l-92.982,2.813,94.792.925Z" transform="translate(-67.791 -139.912)"/><g transform="translate(75.185)"><path class="b" d="M286.944,61.4l-18.577,7.042-.971,7.528,20.881-12.256Z" transform="translate(-253.801 -61.403)"/><path class="b" d="M273.3,72.282l-.971,13.113-21.669,3.073Z" transform="translate(-244.159 -67.668)"/><path class="b" d="M248.214,108.441l23.919-3.521,1.336,5.1Z" transform="translate(-242.754 -86.465)"/><path class="d" d="M249.359,115.8l43.755,4-1.174,5.784Z" transform="translate(-243.413 -92.73)"/><path class="d" d="M250.839,119.632l1.072,8.573,40.3.8Z" transform="translate(-244.265 -94.938)"/><path class="d" d="M242.372,142.652l40.922.632,2.126,3.57-50.081,6.364,7.039-10.177Z" transform="translate(-235.339 -108.195)"/><path class="c" d="M350.452,161.971l-1.792-8.25-3.1.309Z" transform="translate(-298.813 -114.569)"/><path class="c" d="M285.39,160.189l-2.559-4.6L237.907,161.3Z" transform="translate(-236.818 -115.649)"/><path class="c" d="M240.77,170.551l23.492,14.4,16.7-12.423-2.068-3.189Z" transform="translate(-238.467 -123.563)"/><path class="c" d="M298.482,194.677l11.95-8.735,2.321,2.961L298.9,194.926Z" transform="translate(-271.703 -133.126)"/><path class="c" d="M323.285,206.342l-1.457-2.414-2.5.59,5.539-10.56Z" transform="translate(-283.707 -137.743)"/><path class="c" d="M306.046,200.29l10.2-4.614-2.473,5.48Z" transform="translate(-276.06 -138.732)"/><g transform="translate(4.704 18.098)"><g class="e" transform="translate(16.301 4.346)"><path class="f" d="M294.436,150.281l-3.333-3.333c0-.065-.053-.1-.094-.143l-3.269-3.265-.309-.313-2.5-2.5a2.557,2.557,0,0,1,.532-.175q1.7-.508,3.4-1.013,2.5-.739,5-1.473l7.779,7.789q.87.871,1.736,1.746a.313.313,0,0,1-.16.063q-3.971,1.174-7.943,2.348A4.72,4.72,0,0,0,294.436,150.281Z" transform="translate(-284.908 -127.996)"/><path class="g" d="M293.829,124.4q-2.5.736-5,1.473-1.7.5-3.4,1.013a2.556,2.556,0,0,0-.532.175l-.028-.021a.374.374,0,0,1,.031-.063l2.017-2.676q1.253-1.659,2.506-3.318,1.2-1.59,2.394-3.182a3.727,3.727,0,0,0,.467-.662l.2-.2c.043.021.079-.008.116-.018l4.874-1.439q1.95-.575,3.9-1.147a.722.722,0,0,1-.066.142c-.172.228-.351.452-.524.68q-.719.95-1.436,1.9-.8,1.064-1.6,2.129-.717.952-1.435,1.9-.79,1.051-1.577,2.1Z" transform="translate(-284.869 -114.329)"/><path class="b" d="M313.541,114.328c.083-.019.111.056.152.1q3.19,3.19,6.376,6.383,1.461,1.462,2.921,2.924c.1.1.1.157.017.272-.843,1.109-1.679,2.225-2.517,3.338s-1.672,2.215-2.508,3.324l-2.366,3.143c-.031.042-.069.078-.1.117q-.868-.873-1.736-1.746L306,124.392l.905-1.2q.789-1.052,1.577-2.1.716-.953,1.435-1.9.8-1.064,1.6-2.129.717-.952,1.436-1.9c.173-.228.352-.452.524-.68A.724.724,0,0,0,313.541,114.328Z" transform="translate(-297.036 -114.325)"/></g><g class="e"><path class="h" d="M256,140.035l-3.334-3.334c0-.065-.053-.1-.094-.143l-3.268-3.265-.309-.313-2.5-2.5a2.563,2.563,0,0,1,.532-.175q1.7-.509,3.4-1.013,2.5-.739,5-1.473l7.779,7.789q.87.871,1.736,1.745a.316.316,0,0,1-.16.063q-3.971,1.174-7.943,2.348A4.708,4.708,0,0,0,256,140.035Z" transform="translate(-246.469 -117.75)"/><path class="i" d="M255.39,114.149q-2.5.736-5,1.473-1.7.5-3.4,1.013a2.564,2.564,0,0,0-.532.175l-.028-.021a.342.342,0,0,1,.031-.063q1.008-1.338,2.017-2.676,1.253-1.66,2.506-3.318c.8-1.059,1.6-2.118,2.393-3.182a3.726,3.726,0,0,0,.468-.662l.2-.2c.043.021.079-.008.116-.019l4.874-1.439,3.9-1.147a.72.72,0,0,1-.066.142c-.173.229-.351.452-.524.68q-.719.95-1.436,1.9l-1.6,2.129q-.717.952-1.436,1.9-.789,1.05-1.577,2.1Q255.844,113.548,255.39,114.149Z" transform="translate(-246.431 -104.082)"/><path class="d" d="M275.1,104.081c.083-.019.11.056.152.1q3.19,3.19,6.376,6.383,1.46,1.462,2.921,2.924c.1.1.1.158.017.272-.844,1.109-1.678,2.225-2.517,3.338s-1.672,2.215-2.507,3.323q-1.184,1.571-2.366,3.144c-.031.042-.07.078-.1.117q-.868-.873-1.736-1.745l-7.779-7.789q.453-.6.905-1.2.789-1.052,1.577-2.1.716-.953,1.436-1.9l1.6-2.129q.717-.952,1.436-1.9c.173-.228.352-.452.524-.68A.724.724,0,0,0,275.1,104.081Z" transform="translate(-258.598 -104.078)"/></g><g class="e" transform="translate(4.638 17.974)"><path class="j" d="M266.935,182.417l-3.334-3.333c0-.065-.053-.1-.094-.143l-3.268-3.265-.309-.313-2.5-2.5a2.616,2.616,0,0,1,.532-.175q1.7-.508,3.4-1.013,2.5-.739,5-1.473l7.779,7.789q.87.871,1.736,1.745a.313.313,0,0,1-.16.063q-3.971,1.175-7.943,2.348A4.742,4.742,0,0,0,266.935,182.417Z" transform="translate(-257.406 -160.132)"/><path class="k" d="M266.327,156.532q-2.5.737-5,1.473-1.7.5-3.4,1.013a2.616,2.616,0,0,0-.532.175l-.028-.021a.386.386,0,0,1,.031-.062q1.008-1.338,2.017-2.676,1.252-1.659,2.506-3.318,1.2-1.59,2.393-3.182a3.725,3.725,0,0,0,.468-.662l.2-.2c.043.021.079-.007.116-.018l4.874-1.439q1.95-.575,3.9-1.147a.747.747,0,0,1-.066.142c-.173.228-.351.452-.524.68q-.72.95-1.436,1.9-.8,1.064-1.6,2.129-.717.952-1.436,1.9-.789,1.051-1.577,2.1Q266.781,155.931,266.327,156.532Z" transform="translate(-257.368 -146.465)"/><path class="c" d="M286.039,146.464c.083-.019.11.056.152.1q3.189,3.19,6.376,6.383,1.46,1.462,2.921,2.924c.1.1.1.157.016.272-.843,1.109-1.678,2.225-2.517,3.338s-1.672,2.215-2.507,3.323l-2.366,3.143c-.031.042-.07.078-.105.117q-.868-.873-1.736-1.745l-7.779-7.789q.453-.6.905-1.2.789-1.052,1.577-2.1.716-.953,1.436-1.9.8-1.064,1.6-2.129.717-.952,1.436-1.9c.173-.228.352-.452.524-.68A.748.748,0,0,0,286.039,146.464Z" transform="translate(-269.535 -146.461)"/></g></g></g></g><g transform="translate(89.328)"><path class="l" d="M274.709,57.893l-.258,3.488-5.764.817Z" transform="translate(-268.686 -55.076)"/><path class="l" d="M275.061,51.25l1.612,2.279-3.135,3.43Z" transform="translate(-271.481 -51.25)"/></g><g transform="translate(22.784 35.055)"><path class="d" d="M128.656,147.8l5.352-5.272q.613-.613,1.092-1.105a7.92,7.92,0,0,0,.8-.945,4.258,4.258,0,0,0,.493-.892,2.554,2.554,0,0,0,.173-.945,1.831,1.831,0,0,0-.612-1.478,2.305,2.305,0,0,0-1.545-.52,2.331,2.331,0,0,0-1.744.666,4.56,4.56,0,0,0-1.025,1.784l-2.556-.719a5.5,5.5,0,0,1,1.917-3.1,5.323,5.323,0,0,1,3.382-1.1,6.4,6.4,0,0,1,2.157.334,4.434,4.434,0,0,1,1.558.921,3.858,3.858,0,0,1,.945,1.375,4.4,4.4,0,0,1,.319,1.668,4.927,4.927,0,0,1-.8,2.642,11.955,11.955,0,0,1-2.156,2.509l-1.252,1.148q-.213.187-.466.374l-.466.347-.532.373q.345-.025.639-.053.266-.027.546-.04c.187-.009.341-.013.466-.013h4.26v2.317H128.656Z" transform="translate(-121.497 -134.057)"/><path class="c" d="M161.653,148.026a7.123,7.123,0,0,1-2.716-.533,7.368,7.368,0,0,1-2.3-1.478,7.049,7.049,0,0,1-1.584-2.237,7.155,7.155,0,0,1,0-5.672,6.91,6.91,0,0,1,1.584-2.223,7.405,7.405,0,0,1,10.066,0,7.092,7.092,0,0,1,1.6,2.223,7.016,7.016,0,0,1,0,5.672,7.237,7.237,0,0,1-1.6,2.237,7.372,7.372,0,0,1-2.3,1.478A7.192,7.192,0,0,1,161.653,148.026Zm0-2.424a4.451,4.451,0,0,0,1.731-.332,4.1,4.1,0,0,0,1.4-.959,4.449,4.449,0,0,0,.932-1.478,5.157,5.157,0,0,0,.333-1.891,5.266,5.266,0,0,0-.333-1.9,4.151,4.151,0,0,0-.932-1.464,4.3,4.3,0,0,0-1.4-.932,4.459,4.459,0,0,0-1.731-.332,4.389,4.389,0,0,0-1.7.332,4.149,4.149,0,0,0-1.385.932,4.245,4.245,0,0,0-.919,1.464,5.258,5.258,0,0,0-.333,1.9,5.148,5.148,0,0,0,.333,1.891,4.557,4.557,0,0,0,.919,1.478,3.968,3.968,0,0,0,1.385.959A4.382,4.382,0,0,0,161.653,145.6Z" transform="translate(-136.36 -133.912)"/><g transform="translate(0 1.052)"><path class="d" d="M115.159,140.146a3.066,3.066,0,0,0,.226-.552,3.269,3.269,0,0,1,.254-.61,1.713,1.713,0,0,1,.625-.616v-1.607a.368.368,0,0,0-.368-.368h-1.47a.368.368,0,0,0-.368.368v1.914h-1.914a.368.368,0,0,0-.368.368v1.47a.368.368,0,0,0,.368.368h1.9A1.507,1.507,0,0,0,115.159,140.146Z" transform="translate(-111.776 -136.393)"/><path class="c" d="M122.2,141.773h-1.91a1.433,1.433,0,0,0-.4.44,3.029,3.029,0,0,0-.232.562,3.34,3.34,0,0,1-.246.6,1.775,1.775,0,0,1-1.328.866v1.653a.367.367,0,0,0,.367.367h1.47a.367.367,0,0,0,.367-.367v-1.914H122.2a.368.368,0,0,0,.368-.368v-1.47A.368.368,0,0,0,122.2,141.773Z" transform="translate(-115.405 -139.491)"/></g></g><g transform="translate(12.522 55.242)"><path class="m" d="M88.182,186.346h-.6v-4.839h.985a3.032,3.032,0,0,1,.664.061.759.759,0,0,1,.452.322,1.119,1.119,0,0,1,.127.229,1.167,1.167,0,0,1,.065.239,2.042,2.042,0,0,1,.024.281q0,.154,0,.339a2.636,2.636,0,0,1-.114.832.732.732,0,0,1-.468.469,1.108,1.108,0,0,1-.165.051,1.645,1.645,0,0,1-.2.028q-.122.01-.3.01h-.47Zm0-2.519h.4a2.52,2.52,0,0,0,.321-.017.441.441,0,0,0,.22-.092.379.379,0,0,0,.156-.259,3.7,3.7,0,0,0,.02-.436,3.554,3.554,0,0,0-.034-.576.406.406,0,0,0-.182-.283.4.4,0,0,0-.115-.061.738.738,0,0,0-.159-.031c-.065-.007-.148-.01-.247-.01h-.378Z" transform="translate(-87.58 -181.507)"/><path class="m" d="M99.021,187.461q0,.2.007.321a1.192,1.192,0,0,0,.024.2.333.333,0,0,0,.048.12.378.378,0,0,0,.085.086h-.678v-.411c-.018.037-.043.082-.075.137a.692.692,0,0,1-.335.284.774.774,0,0,1-.295.051.786.786,0,0,1-.411-.1.576.576,0,0,1-.192-.165.833.833,0,0,1-.106-.2.856.856,0,0,1-.048-.209c-.007-.07-.01-.138-.01-.2a1.333,1.333,0,0,1,.041-.352.821.821,0,0,1,.291-.445c.071-.057.151-.117.243-.182l.311-.212c.08-.055.148-.1.206-.144s.111-.083.161-.126.111-.1.184-.168c0-.068,0-.139-.007-.212a.575.575,0,0,0-.045-.2.318.318,0,0,0-.123-.14.451.451,0,0,0-.243-.055.487.487,0,0,0-.24.048.308.308,0,0,0-.12.12.417.417,0,0,0-.044.161c0,.059-.007.114-.007.164s0,.1,0,.137.006.08.01.116h-.5c0-.036,0-.084,0-.144a1.67,1.67,0,0,1,0-.188c0-.066.01-.131.017-.2a.775.775,0,0,1,.031-.157.593.593,0,0,1,.192-.287.942.942,0,0,1,.532-.205c.085,0,.146-.007.182-.007a1.4,1.4,0,0,1,.364.048.715.715,0,0,1,.33.205.641.641,0,0,1,.124.165.734.734,0,0,1,.062.178,1.248,1.248,0,0,1,.024.226q0,.13,0,.3Zm-.548-1.225c-.041.036-.075.067-.1.092a.912.912,0,0,1-.086.075l-.107.082c-.039.03-.093.07-.162.12s-.123.1-.176.141a.668.668,0,0,0-.134.147.733.733,0,0,0-.089.188.829.829,0,0,0-.034.257c0,.036,0,.083.006.14a.537.537,0,0,0,.042.168.317.317,0,0,0,.324.2.488.488,0,0,0,.3-.1.471.471,0,0,0,.186-.284,1.832,1.832,0,0,0,.035-.373Z" transform="translate(-93.026 -183.348)"/><path class="m" d="M106.721,182.827h-.438l.363-.739h.746Zm.144,3.853h-.547v-3.422h.547Z" transform="translate(-98.351 -181.842)"/><path class="m" d="M112.419,186.427q-.1-.082-.182-.168a1.229,1.229,0,0,1-.151-.182.8.8,0,0,1-.1-.219.949.949,0,0,1-.038-.281,1.035,1.035,0,0,1,.078-.435.72.72,0,0,1,.206-.267.732.732,0,0,1,.284-.137,1.322,1.322,0,0,1,.307-.037,1.124,1.124,0,0,1,.383.061.661.661,0,0,1,.267.164.623.623,0,0,1,.117.182.919.919,0,0,1,.058.212,1.841,1.841,0,0,1,.02.226q0,.113,0,.223h-.486q0-.2-.01-.291a.452.452,0,0,0-.051-.167.254.254,0,0,0-.157-.147.655.655,0,0,0-.144-.024.373.373,0,0,0-.26.092.363.363,0,0,0-.1.284.426.426,0,0,0,.109.3,3.321,3.321,0,0,0,.315.291l.383.328c.055.046.111.095.167.147a1.1,1.1,0,0,1,.158.182.886.886,0,0,1,.116.24,1.016,1.016,0,0,1,.045.315,1.1,1.1,0,0,1-.089.435.821.821,0,0,1-.568.465,1.66,1.66,0,0,1-.335.031c-.046,0-.106,0-.182-.01a.852.852,0,0,1-.229-.055.817.817,0,0,1-.226-.133.638.638,0,0,1-.178-.246.935.935,0,0,1-.075-.322c-.01-.123-.016-.283-.021-.479h.527q0,.171,0,.328a.673.673,0,0,0,.038.24.375.375,0,0,0,.14.171.42.42,0,0,0,.243.068.394.394,0,0,0,.274-.106.4.4,0,0,0,.116-.312.537.537,0,0,0-.082-.315,1.7,1.7,0,0,0-.274-.28Z" transform="translate(-101.558 -183.348)"/><path class="m" d="M129.378,189.274h-.541v-1.436l-.075.111a.652.652,0,0,1-.13.135.811.811,0,0,1-.2.115.729.729,0,0,1-.28.049.684.684,0,0,1-.5-.188.874.874,0,0,1-.246-.469,1.743,1.743,0,0,1-.024-.212c-.007-.1-.012-.2-.014-.3s0-.207-.007-.308,0-.18,0-.24v-.27q0-.168.007-.339t.014-.329a1.272,1.272,0,0,1,.028-.24.831.831,0,0,1,.291-.482.756.756,0,0,1,.475-.168.738.738,0,0,1,.271.044.711.711,0,0,1,.192.109.7.7,0,0,1,.13.14c.034.05.063.1.085.137v-.369h.528Zm-.534-2.823c0-.041,0-.1,0-.167s-.005-.145-.007-.222,0-.152-.006-.225-.006-.13-.011-.17a.924.924,0,0,0-.014-.137.52.52,0,0,0-.061-.174.465.465,0,0,0-.14-.15.445.445,0,0,0-.257-.065.372.372,0,0,0-.216.055.392.392,0,0,0-.12.126.41.41,0,0,0-.051.154l-.017.13c-.005.041-.008.1-.01.174s0,.156,0,.243v.512c0,.228,0,.421.007.58a1.8,1.8,0,0,0,.048.4.435.435,0,0,0,.126.229.369.369,0,0,0,.243.072.4.4,0,0,0,.284-.092.557.557,0,0,0,.147-.266,1.808,1.808,0,0,0,.055-.427Q128.844,186.772,128.844,186.452Z" transform="translate(-110.489 -183.348)"/><path class="m" d="M138.731,188.27H138.2v-.315c-.027.036-.06.076-.1.12a.687.687,0,0,1-.143.12.967.967,0,0,1-.2.1.853.853,0,0,1-.276.041.659.659,0,0,1-.35-.082.639.639,0,0,1-.2-.185.737.737,0,0,1-.085-.174,1.172,1.172,0,0,1-.047-.215,2.421,2.421,0,0,1-.021-.284q0-.161,0-.387v-2.156h.548v2.245l.007.329c0,.036,0,.082.006.137a.445.445,0,0,0,.048.164.388.388,0,0,0,.119.141.364.364,0,0,0,.221.058.413.413,0,0,0,.271-.078.458.458,0,0,0,.139-.2.908.908,0,0,0,.051-.271q.007-.147.007-.284v-2.238h.547Z" transform="translate(-115.907 -183.431)"/><path class="m" d="M147.847,187.135c0,.119,0,.222-.007.311a.974.974,0,0,1-.055.271.749.749,0,0,1-.2.315.87.87,0,0,1-.26.161.834.834,0,0,1-.257.058c-.082,0-.143.007-.184.007a1.75,1.75,0,0,1-.2-.014.924.924,0,0,1-.246-.065.821.821,0,0,1-.243-.157.8.8,0,0,1-.192-.291c-.014-.041-.026-.083-.037-.126a1.281,1.281,0,0,1-.028-.223q-.01-.157-.017-.452c0-.2-.007-.466-.007-.807q0-.274.024-.527a1.322,1.322,0,0,1,.117-.448.716.716,0,0,1,.283-.311,1,1,0,0,1,.52-.116c.055,0,.13,0,.226.01a.809.809,0,0,1,.294.082.8.8,0,0,1,.274.222.874.874,0,0,1,.165.431c0,.041.009.083.014.126s.008.1.01.178,0,.178,0,.308v.517h-1.383v.609a.948.948,0,0,0,.007.13c.005.032.011.075.021.13a.516.516,0,0,0,.055.161.375.375,0,0,0,.128.137.406.406,0,0,0,.231.058.422.422,0,0,0,.237-.058.374.374,0,0,0,.131-.154.654.654,0,0,0,.055-.219c.007-.082.01-.166.01-.253Zm-.513-.979v-.427c0-.046,0-.1-.01-.172a.658.658,0,0,0-.052-.2.4.4,0,0,0-.128-.159.384.384,0,0,0-.237-.065.351.351,0,0,0-.294.1.652.652,0,0,0-.107.186c-.009.032-.017.066-.024.1a.925.925,0,0,0-.014.131c0,.053,0,.118,0,.2v.3Z" transform="translate(-121.177 -183.357)"/><path class="m" d="M163.508,187.461q0,.2.006.321a1.239,1.239,0,0,0,.024.2.333.333,0,0,0,.048.12.378.378,0,0,0,.085.086h-.677v-.411c-.018.037-.043.082-.075.137a.678.678,0,0,1-.131.157.7.7,0,0,1-.2.127.771.771,0,0,1-.294.051.785.785,0,0,1-.411-.1.568.568,0,0,1-.192-.165.8.8,0,0,1-.106-.2.837.837,0,0,1-.048-.209c-.006-.07-.01-.138-.01-.2a1.314,1.314,0,0,1,.041-.352.868.868,0,0,1,.112-.253.883.883,0,0,1,.178-.192c.071-.057.152-.117.243-.182l.311-.212q.12-.082.205-.144c.057-.041.111-.083.161-.126s.112-.1.185-.168c0-.068,0-.139-.007-.212a.585.585,0,0,0-.044-.2.323.323,0,0,0-.123-.14.452.452,0,0,0-.243-.055.485.485,0,0,0-.24.048.3.3,0,0,0-.12.12.41.41,0,0,0-.045.161c0,.059-.007.114-.007.164s0,.1,0,.137.006.08.011.116h-.5c0-.036,0-.084,0-.144a1.67,1.67,0,0,1,0-.188c0-.066.01-.131.017-.2a.805.805,0,0,1,.031-.157.593.593,0,0,1,.192-.287.942.942,0,0,1,.532-.205c.085,0,.146-.007.182-.007a1.4,1.4,0,0,1,.364.048.717.717,0,0,1,.33.205.651.651,0,0,1,.124.165.751.751,0,0,1,.061.178,1.248,1.248,0,0,1,.024.226q0,.13,0,.3Zm-.547-1.225c-.042.036-.075.067-.1.092a.86.86,0,0,1-.086.075l-.107.082c-.039.03-.093.07-.162.12s-.123.1-.176.141a.668.668,0,0,0-.134.147.746.746,0,0,0-.089.188.828.828,0,0,0-.034.257c0,.036,0,.083.007.14a.535.535,0,0,0,.041.168.344.344,0,0,0,.11.14.348.348,0,0,0,.214.058.488.488,0,0,0,.3-.1.474.474,0,0,0,.186-.284,1.861,1.861,0,0,0,.035-.373Z" transform="translate(-130.165 -183.348)"/><path class="m" d="M171.495,188.27h-.623l-.732-3.422h.6l.452,2.8.5-2.8h.588Z" transform="translate(-135.127 -183.431)"/><path class="m" d="M180.727,187.461q0,.2.006.321a1.238,1.238,0,0,0,.024.2.348.348,0,0,0,.048.12.38.38,0,0,0,.086.086h-.678v-.411c-.018.037-.043.082-.075.137a.688.688,0,0,1-.13.157.7.7,0,0,1-.205.127.771.771,0,0,1-.294.051.786.786,0,0,1-.411-.1.572.572,0,0,1-.192-.165.8.8,0,0,1-.106-.2.819.819,0,0,1-.048-.209c-.007-.07-.01-.138-.01-.2a1.314,1.314,0,0,1,.041-.352.868.868,0,0,1,.112-.253.883.883,0,0,1,.178-.192c.071-.057.152-.117.243-.182l.311-.212q.12-.082.205-.144c.057-.041.111-.083.161-.126s.112-.1.185-.168c0-.068,0-.139-.007-.212a.576.576,0,0,0-.044-.2.321.321,0,0,0-.123-.14.451.451,0,0,0-.243-.055.485.485,0,0,0-.24.048.3.3,0,0,0-.12.12.409.409,0,0,0-.045.161c0,.059-.007.114-.007.164s0,.1,0,.137.006.08.01.116h-.5c0-.036,0-.084,0-.144a1.781,1.781,0,0,1,0-.188c0-.066.011-.131.017-.2a.772.772,0,0,1,.031-.157.59.59,0,0,1,.192-.287.939.939,0,0,1,.532-.205c.085,0,.145-.007.182-.007a1.405,1.405,0,0,1,.364.048.716.716,0,0,1,.33.205.651.651,0,0,1,.124.165.753.753,0,0,1,.061.178,1.208,1.208,0,0,1,.024.226q0,.13,0,.3Zm-.548-1.225c-.042.036-.075.067-.1.092a.868.868,0,0,1-.087.075l-.107.082c-.039.03-.093.07-.162.12s-.123.1-.176.141a.671.671,0,0,0-.135.147.749.749,0,0,0-.089.188.842.842,0,0,0-.034.257c0,.036,0,.083.007.14a.547.547,0,0,0,.041.168.317.317,0,0,0,.324.2.487.487,0,0,0,.3-.1.472.472,0,0,0,.186-.284,1.831,1.831,0,0,0,.035-.373Z" transform="translate(-140.081 -183.348)"/><path class="m" d="M190.033,188.186h-.548v-2.231c0-.123,0-.235-.007-.335a.928.928,0,0,0-.045-.26.328.328,0,0,0-.121-.168.406.406,0,0,0-.235-.058.4.4,0,0,0-.265.079.465.465,0,0,0-.138.2.905.905,0,0,0-.052.27c0,.1-.007.2-.007.291v2.211h-.548v-3.422h.52v.315c.027-.032.06-.07.1-.113a.741.741,0,0,1,.147-.123.953.953,0,0,1,.209-.1.861.861,0,0,1,.277-.041.7.7,0,0,1,.411.1.619.619,0,0,1,.212.26,1,1,0,0,1,.079.346c.007.125.01.248.01.366Z" transform="translate(-145.453 -183.348)"/><path class="m" d="M198.646,188.27h-1.862v-.452l1.286-2.505h-1.115v-.465h1.691v.465l-1.28,2.505h1.28Z" transform="translate(-150.472 -183.431)"/><path class="m" d="M206.886,187.461q0,.2.007.321a1.2,1.2,0,0,0,.024.2.34.34,0,0,0,.048.12.369.369,0,0,0,.085.086h-.678v-.411c-.018.037-.043.082-.075.137a.677.677,0,0,1-.13.157.692.692,0,0,1-.205.127.77.77,0,0,1-.294.051.786.786,0,0,1-.411-.1.576.576,0,0,1-.192-.165.831.831,0,0,1-.154-.407c-.007-.07-.01-.138-.01-.2a1.331,1.331,0,0,1,.041-.352.857.857,0,0,1,.113-.253.873.873,0,0,1,.178-.192c.071-.057.151-.117.243-.182l.311-.212c.08-.055.148-.1.206-.144s.11-.083.161-.126.112-.1.185-.168c0-.068,0-.139-.007-.212a.566.566,0,0,0-.044-.2.321.321,0,0,0-.123-.14.451.451,0,0,0-.243-.055.487.487,0,0,0-.24.048.305.305,0,0,0-.12.12.4.4,0,0,0-.044.161c0,.059-.007.114-.007.164s0,.1,0,.137.006.08.01.116h-.5c0-.036,0-.084,0-.144a1.776,1.776,0,0,1,0-.188c0-.066.011-.131.017-.2a.771.771,0,0,1,.031-.157.59.59,0,0,1,.192-.287.942.942,0,0,1,.532-.205c.085,0,.145-.007.182-.007a1.4,1.4,0,0,1,.364.048.715.715,0,0,1,.33.205.641.641,0,0,1,.124.165.752.752,0,0,1,.062.178,1.249,1.249,0,0,1,.024.226q0,.13,0,.3Zm-.548-1.225c-.042.036-.075.067-.1.092a.911.911,0,0,1-.086.075l-.107.082c-.039.03-.093.07-.162.12s-.123.1-.176.141a.67.67,0,0,0-.135.147.748.748,0,0,0-.089.188.842.842,0,0,0-.034.257c0,.036,0,.083.007.14a.537.537,0,0,0,.042.168.34.34,0,0,0,.11.14.349.349,0,0,0,.214.058.489.489,0,0,0,.3-.1.473.473,0,0,0,.186-.284,1.832,1.832,0,0,0,.035-.373Z" transform="translate(-155.146 -183.348)"/></g></svg>