<?xml version="1.0" encoding="utf-8"?>
<!-- Generator: Adobe Illustrator 26.0.2, SVG Export Plug-In . SVG Version: 6.00 Build 0)  -->
<svg version="1.1" id="Capa_1" xmlns="http://www.w3.org/2000/svg" xmlns:xlink="http://www.w3.org/1999/xlink" x="0px" y="0px"
	 viewBox="0 0 1028 187" style="enable-background:new 0 0 1028 187;" xml:space="preserve">
<style type="text/css">
	.st0{fill:#1D1D1B;}
	.st1{fill:#E31514;}
	.st2{fill:#E31515;}
	.st3{fill:#FFFFFF;}
</style>
<g>
	<path class="st0" d="M77.2,183.6c0,0.8-0.5,1.2-1.4,1.2h-65c-0.9,0-1.4-0.3-1.4-1c0-0.5,0.5-0.8,1.4-0.8h6c1.1,0,1.7-2.2,1.7-6.6
		V76.8c0-4.4-0.6-6.6-1.7-6.6h-6c-0.9,0-1.4-0.3-1.4-0.8c0-0.7,0.5-1,1.4-1h59.9c0.9,0,1.4,0.4,1.4,1.2v35.3c0,0.9-0.4,1.3-1.2,1.3
		c-0.7,0-1-0.4-1-1.3v-2.3c0-8.7-1.7-15.9-5.1-21.8c-4-6.9-9.6-10.4-16.8-10.4H37.5c-1,0-1.5,0.3-1.5,0.8v51.1
		c0,0.6,0.5,0.8,1.4,0.8h5.8c3.6,0,6.7-1.7,9.2-5.2c2.5-3.5,3.8-7.4,3.8-12v-1.8c0-0.9,0.4-1.3,1.3-1.3c0.6,0,0.9,0.4,0.9,1.3v39.7
		c0,0.9-0.3,1.3-0.9,1.3c-0.9,0-1.3-0.4-1.3-1.3v-1.7c0-4.6-1.3-8.7-3.8-12.2c-2.5-3.5-5.6-5.3-9.2-5.3h-5.6c-1,0-1.5,0.3-1.5,1
		v56.2c0,0.6,0.5,0.8,1.4,0.8h9.7c10.1,0,17.7-4.4,22.6-13.2c3.4-6.1,5.1-12.9,5.1-20.3v-2.1c0-0.9,0.4-1.3,1.2-1.3
		c0.8,0,1.2,0.4,1.2,1.3V183.6z"/>
	<path class="st0" d="M155.9,183.6c0,0.8-0.4,1.2-1.2,1.2h-65c-0.9,0-1.4-0.3-1.4-1c0-0.5,0.5-0.8,1.4-0.8h6c1.1,0,1.7-2.2,1.7-6.6
		V76.8c0-4.4-0.6-6.6-1.7-6.6h-6c-0.9,0-1.4-0.3-1.4-0.8c0-0.7,0.5-1,1.4-1h35.2c0.9,0,1.4,0.3,1.4,1c0,0.6-0.5,0.8-1.4,0.8h-8.4
		c-1.1,0-1.7,2.2-1.7,6.6v105.2c0,0.6,0.5,0.8,1.4,0.8h9.7c10.1,0,17.7-4.5,22.6-13.3c3.4-6.3,5.1-13.6,5.1-22.1v-3.6
		c0-0.9,0.4-1.3,1.2-1.3c0.7,0,1,0.4,1,1.3V183.6z"/>
	<path class="st0" d="M279.2,183.6c0,0.8-0.5,1.2-1.4,1.2h-65c-0.9,0-1.4-0.3-1.4-1c0-0.5,0.5-0.8,1.4-0.8h6c1.1,0,1.7-2.2,1.7-6.6
		V76.8c0-4.4-0.6-6.6-1.7-6.6h-6c-0.9,0-1.4-0.3-1.4-0.8c0-0.7,0.5-1,1.4-1h59.9c0.9,0,1.4,0.4,1.4,1.2v35.3c0,0.9-0.4,1.3-1.2,1.3
		c-0.7,0-1-0.4-1-1.3v-2.3c0-8.7-1.7-15.9-5.1-21.8c-4-6.9-9.6-10.4-16.8-10.4h-10.4c-1,0-1.5,0.3-1.5,0.8v51.1
		c0,0.6,0.5,0.8,1.4,0.8h5.8c3.6,0,6.7-1.7,9.2-5.2c2.5-3.5,3.8-7.4,3.8-12v-1.8c0-0.9,0.4-1.3,1.3-1.3c0.6,0,0.9,0.4,0.9,1.3v39.7
		c0,0.9-0.3,1.3-0.9,1.3c-0.9,0-1.3-0.4-1.3-1.3v-1.7c0-4.6-1.3-8.7-3.8-12.2c-2.5-3.5-5.6-5.3-9.2-5.3h-5.6c-1,0-1.5,0.3-1.5,1
		v56.2c0,0.6,0.5,0.8,1.4,0.8h9.7c10.1,0,17.7-4.4,22.6-13.2c3.4-6.1,5.1-12.9,5.1-20.3v-2.1c0-0.9,0.4-1.3,1.2-1.3
		c0.8,0,1.2,0.4,1.2,1.3V183.6z"/>
	<path class="st0" d="M352.4,153.9c0,9.2-3,17-9.1,23.3c-6,6.3-13.8,9.5-23.3,9.5c-6,0-12.5-1.5-19.5-4.4c-2.2-0.9-3.6-1.3-4.4-1.3
		c-1,0-1.5,0.5-1.5,1.5v1c0,1.1-0.3,1.7-0.9,1.7c-0.6,0-0.9-0.5-0.9-1.7v-40.7c0-0.9,0.3-1.3,0.9-1.3c0.6,0,0.9,0.4,0.9,1.3v1.3
		c0,9.9,1.7,18.5,5.1,25.9c4.7,9.9,11.6,14.8,20.9,14.8c6,0,10.8-1.6,14.4-4.9c3.5-3.3,5.3-7.8,5.3-13.4c0-8.6-4.1-16.4-12.3-23.4
		c-7.5-5.9-15.1-11.9-22.7-18c-8.2-7.7-12.3-16.6-12.3-26.7c0-8,2.2-15.1,6.7-21.3c5.2-7.2,12.1-10.9,20.7-10.9
		c4.6,0,9.7,1.5,15.6,4.5c1.9,1,3.3,1.5,4.1,1.5c0.9,0,1.4-0.5,1.4-1.5v-1.2c0-1.1,0.3-1.6,1-1.6c0.8,0,1.2,0.5,1.2,1.6v35.9
		c0,1-0.4,1.5-1.2,1.5c-0.7,0-1-0.5-1-1.5v-1.3c0-9.3-1.8-17.4-5.3-24.1c-4.2-7.8-9.9-11.7-17.1-11.7c-4.6,0-8.2,1.5-10.8,4.4
		c-2.6,2.9-3.9,7-3.9,12.1c0,8.8,4.2,16.8,12.5,24.1c7.7,5.9,15.5,11.9,23.3,17.8C348.3,134.5,352.4,143.6,352.4,153.9z"/>
	<path class="st0" d="M434.2,100.8c0,10.3-3.1,18.5-9.4,24.4c-5.7,5.5-12.7,8.2-21,8.2h-14.2c-1,0-1.5,0.4-1.5,1.2v41.7
		c0,4.4,0.6,6.6,1.7,6.6h8.9c0.9,0,1.4,0.3,1.4,0.8c0,0.7-0.5,1-1.4,1h-35.7c-0.9,0-1.4-0.3-1.4-1c0-0.5,0.4-0.8,1.4-0.8h6
		c1.1,0,1.7-2.2,1.7-6.6V76.8c0-4.4-0.6-6.6-1.7-6.6h-6c-0.9,0-1.4-0.3-1.4-0.8c0-0.7,0.4-1,1.4-1H403c8.7,0,15.8,2.5,21.4,7.4
		C430.9,81.6,434.2,90,434.2,100.8z M414.7,100.8c0-11-1.1-18.8-3.4-23.5c-2.3-4.7-5.9-7-10.8-7h-10.9c-1,0-1.5,0.3-1.5,1v59.2
		c0,0.7,0.5,1,1.4,1h11.1c5.2,0,8.9-2.3,11-6.9C413.6,120,414.7,112,414.7,100.8z"/>
	<path class="st0" d="M511.4,183.6c0,0.8-0.5,1.2-1.4,1.2h-65c-0.9,0-1.4-0.3-1.4-1c0-0.5,0.5-0.8,1.4-0.8h6c1.1,0,1.7-2.2,1.7-6.6
		V76.8c0-4.4-0.6-6.6-1.7-6.6h-6c-0.9,0-1.4-0.3-1.4-0.8c0-0.7,0.5-1,1.4-1h59.9c0.9,0,1.4,0.4,1.4,1.2v35.3c0,0.9-0.4,1.3-1.2,1.3
		c-0.7,0-1-0.4-1-1.3v-2.3c0-8.7-1.7-15.9-5.1-21.8c-4-6.9-9.6-10.4-16.8-10.4h-10.4c-1,0-1.5,0.3-1.5,0.8v51.1
		c0,0.6,0.5,0.8,1.4,0.8h5.8c3.6,0,6.7-1.7,9.2-5.2c2.5-3.5,3.8-7.4,3.8-12v-1.8c0-0.9,0.4-1.3,1.3-1.3c0.6,0,0.9,0.4,0.9,1.3v39.7
		c0,0.9-0.3,1.3-0.9,1.3c-0.9,0-1.3-0.4-1.3-1.3v-1.7c0-4.6-1.3-8.7-3.8-12.2c-2.5-3.5-5.6-5.3-9.2-5.3h-5.6c-1,0-1.5,0.3-1.5,1
		v56.2c0,0.6,0.5,0.8,1.4,0.8h9.7c10.1,0,17.7-4.4,22.6-13.2c3.4-6.1,5.1-12.9,5.1-20.3v-2.1c0-0.9,0.4-1.3,1.2-1.3
		c0.8,0,1.2,0.4,1.2,1.3V183.6z"/>
	<path class="st0" d="M592.5,183.6c0,1.1-0.4,1.6-1.2,1.6c-0.7,0-1-0.5-1-1.6v-1.2c0-1-0.4-1.5-1.2-1.5c-0.6,0-1.9,0.5-4.1,1.3
		c-7.5,3-14.6,4.4-21.2,4.4c-13.6,0-24.1-6.6-31.5-19.8c-6-10.9-9.1-24-9.1-39.4c0-18,3.2-32.5,9.7-43.4c6.9-11.9,17-17.8,30.1-17.8
		c5.8,0,11.6,1.4,17.4,4.3c1.9,1,3.3,1.5,4.1,1.5c0.8,0,1.2-0.5,1.2-1.5v-1.2c0-1.1,0.3-1.6,0.9-1.6c0.8,0,1.2,0.5,1.2,1.6v38.1
		c0,1-0.3,1.5-1,1.5c-0.7,0-1-0.5-1-1.5V106c0-11.4-2.3-20.7-7-27.9c-4.3-6.7-9.6-10.1-15.7-10.1c-7.8,0-12.9,3.9-15.6,11.7
		c-1.1,3.7-2.1,11.4-2.7,23.1c-0.9,16.4-0.9,32.4,0,48.1c0.7,11.9,2,20,3.9,24.4c2.9,6.5,8.1,9.7,15.7,9.7c7.8,0,14-3.7,18.7-11
		c4.7-7.3,7.1-17,7.1-28.9v-2.6c0-1,0.4-1.5,1.2-1.5c0.7,0,1,0.5,1,1.5V183.6z"/>
	<path class="st0" d="M681.2,107.3c0,0.9-0.3,1.3-1,1.3c-0.7,0-1-0.4-1-1.3v-3.8c0-8.9-1.7-16.4-5-22.6c-3.9-7-9.3-10.6-16.4-10.6
		h-6.3c-1,0-1.5,0.3-1.5,0.8v105.2c0,4.4,0.6,6.6,1.7,6.6h6.1c0.9,0,1.4,0.3,1.4,0.8c0,0.7-0.5,1-1.4,1h-33.2c-0.9,0-1.4-0.3-1.4-1
		c0-0.5,0.5-0.8,1.4-0.8h6.2c1.1,0,1.7-2.2,1.7-6.6V71.2c0-0.6-0.6-0.8-1.7-0.8h-6.2c-7.1,0-12.5,3.5-16.4,10.6
		c-3.3,6.2-5,13.7-5,22.6v3.8c0,0.9-0.3,1.3-1,1.3c-0.8,0-1.2-0.4-1.2-1.3V69.5c0-0.8,0.5-1.2,1.4-1.2h77.5c0.9,0,1.4,0.4,1.4,1.2
		V107.3z"/>
	<path class="st0" d="M759.3,183.8c0,0.7-0.5,1-1.4,1h-32.3c-0.9,0-1.4-0.3-1.4-1c0-0.5,0.5-0.8,1.4-0.8h5.1c1.6,0,2.4-0.8,2.4-2.5
		c0-1.1-0.3-2.8-0.9-5.1l-8.7-34c-0.1-0.7-0.6-1-1.4-1h-24.8c-0.7,0-1,0.3-1,1l-2.6,11.2c-1.7,7.5-2.6,13.5-2.6,18
		c0,8.2,2.8,12.4,8.4,12.4h3.1c0.9,0,1.4,0.3,1.4,0.8c0,0.7-0.5,1-1.4,1h-26.3c-0.9,0-1.4-0.3-1.4-1c0-0.5,0.5-0.8,1.4-0.8h0.5
		c2.4,0,4.5-1.8,6.3-5.3c2.4-4.5,5.1-13.2,8.2-26.1l20-83.2c0-0.7,0.5-1,1.4-1h7.7c0.7,0,1.1,0.3,1.4,1l28.9,107c1.4,5,3,7.6,5,7.6
		h2.2C758.9,182.9,759.3,183.2,759.3,183.8z M722.4,137.4l-13-51.6h-0.3l-11.8,51.9c-0.2,0.7,0.2,1,1.2,1h22.7
		C722,138.8,722.4,138.3,722.4,137.4z"/>
	<path class="st0" d="M845,125.7c0,17.5-3.2,31.4-9.7,41.9c-7.1,11.4-17.2,17.1-30.4,17.1h-39.2c-0.9,0-1.4-0.3-1.4-1
		c0-0.5,0.5-0.8,1.4-0.8h6c1.1,0,1.7-2.2,1.7-6.6V76.8c0-4.4-0.6-6.6-1.7-6.6h-6c-0.9,0-1.4-0.3-1.4-0.8c0-0.7,0.5-1,1.4-1h39.2
		c12.9,0,23,5.8,30.3,17.3C841.7,96.2,845,109.6,845,125.7z M823.3,149.8c0.9-15.9,0.9-31.7,0-47.5c-0.6-10.1-1.8-17.3-3.6-21.6
		c-2.7-6.9-7.7-10.4-14.9-10.4h-12.5c-1,0-1.5,0.3-1.5,0.8v110.8c0,0.6,0.5,0.8,1.4,0.8H805c7.4,0,12.5-3.6,15.2-10.7
		C821.6,168.2,822.6,160.8,823.3,149.8z"/>
	<path class="st0" d="M934.8,126.1c0,17.5-3.2,31.6-9.6,42.5c-7.2,12.1-17.3,18.1-30.3,18.1c-12.5,0-22.5-6-29.8-18
		c-6.7-11-10.1-24.9-10.1-41.7c0-17.5,3.2-31.7,9.7-42.5c7.1-12.1,17.1-18.1,30.1-18.1c12.5,0,22.5,6,29.8,18
		C931.4,95.4,934.8,109.2,934.8,126.1z M913.1,150.3c0.9-16.6,0.9-32.8,0-48.6c-0.6-10.1-1.5-17.1-2.7-21.1
		c-2.7-8.3-7.8-12.5-15.1-12.5c-8.2,0-13.6,4.2-16.1,12.7c-1,3.1-1.9,10.4-2.6,22.1c-0.9,15.6-0.9,31.8,0,48.5
		c0.6,10,1.5,17.1,2.9,21.3c2.7,8.3,7.7,12.5,15,12.5c8.2,0,13.6-4.2,16.1-12.7C911.7,169.3,912.5,161.9,913.1,150.3z"/>
	<path class="st0" d="M1027.1,176.5c0.7,0.1,0.9,0.7,0.7,1.8c-1.4,5.6-5.2,8.4-11.7,8.4c-5.5,0-9.9-1.8-13.3-5.3
		c-3.3-3.5-5-8-5-13.5c0-2.6,0-6.4,0-11.4c0-4.9,0-8.8,0-11.7c-0.1-13.5-5.1-20.3-14.9-20.3h-10.4c-1.1,0-1.7,0.3-1.7,1v50.8
		c0,4.4,0.6,6.6,1.7,6.6h6c0.9,0,1.4,0.3,1.4,0.8c0,0.7-0.5,1-1.4,1h-32.8c-0.9,0-1.4-0.3-1.4-1c0-0.5,0.4-0.8,1.4-0.8h6
		c1.1,0,1.7-2.2,1.7-6.6V76.8c0-4.4-0.6-6.6-1.7-6.6h-6c-0.9,0-1.4-0.3-1.4-0.8c0-0.7,0.4-1,1.4-1h39.8c8,0,14.5,2.1,19.7,6.3
		c6.3,5.1,9.4,12.4,9.4,21.9c0,6.8-2.4,12.8-7.2,18c-4.8,5.2-10.7,8.2-17.6,9v0.2c7.5,1.1,13.5,4.2,18,9.2
		c4.9,5.7,7.4,13.3,7.4,22.9c0,2.2,0,5.6,0,10.2c0,4.6,0,7.8,0,9.4c0,5.6,1.5,8.4,4.6,8.4c2.8,0,4.8-2,5.9-5.9
		C1026.1,176.9,1026.6,176.4,1027.1,176.5z M997.2,96.9c0-17.7-4.4-26.5-13.2-26.5h-11.6c-1,0-1.5,0.3-1.5,1v50.6c0,0.7,0.4,1,1.4,1
		h12c4.6,0,7.9-2,9.9-5.9C996.2,113,997.2,106.3,997.2,96.9z"/>
</g>
<rect x="804.6" y="33.4" class="st1" width="223.2" height="18"/>
<rect x="0" y="33.4" class="st1" width="661.3" height="18"/>
<g>
	<g>
		<path class="st2" d="M756.7,36l4.2-22.8c0.6-0.2,1.5-0.4,2.7-0.4c6.6,0,17.8,5.8,26.3,5.8c11.5,0,14.2-7.9,15.8-18.3h-0.1
			c-0.7,3.9-5.1,5.8-10.3,5.8c-9.1,0-17.2-5.5-23.9-5.5c-9.2,0-10.9,10.2-12.1,16.5l-3.8,20.9c12.4-8.1,33.5-6.2,33.5,11.7
			c0,6.3-2.7,15.4-12,15.4c-6,0-9.8-3.8-9.8-9c0-3.7,1.9-5.6,3.8-6.6c-0.4-5.3-4.4-8.2-8.9-8.2c-4.7,0-9.3,3.3-9.3,9.3
			c0,12.4,16.3,14.7,24.2,14.7c16.8,0,30.6-9.4,30.6-23.6C807.5,18,769.3,19.1,756.7,36z"/>
		<path class="st2" d="M718.4,30.9L718.4,30.9c14.6-0.7,27.1-4.9,27.1-16.5c0-11.6-12.9-14.2-26.3-14.2c-9.1,0-22.4,2.4-22.4,13.2
			c0,6.1,4.2,8.7,8.5,8.7c4.1,0,8-2.5,8.3-7.6c-2-0.9-3.6-3-3.6-5.8c0-3.2,2.2-8.3,9.2-8.3c5.6,0,8.3,5.4,8.3,12.9
			c0,8.8-3.3,17.5-12.2,17.5h-2.8V31h3c10.4,0,12,8.8,12,17.3c0,7.6-1.4,16.7-9,16.7c-6.3,0-10.1-3.8-10.1-9c0-3.7,1.9-5.6,3.8-6.6
			c-0.4-5.3-4.4-8.2-8.9-8.2c-4.7,0-9.3,3.3-9.3,9.3c0,12.5,16.5,14.7,24.5,14.7c19.5,0,28.8-8,28.8-18.6
			C747.3,33.3,732.4,30.9,718.4,30.9z"/>
		<path class="st2" d="M685.8,48.2l0-47.2h-10c-3.1,8.4-9.1,19.5-18.5,25.1c-0.2,0.1-0.3,0.2-0.3,0.2l0.4,0.8
			c0.2-0.1,4.8-2.2,9.7-8.5v29.6c0,10.6,0,16.2-9.8,16.2v0.1h38.3v-0.1C685.8,64.4,685.8,58.8,685.8,48.2z"/>
	</g>
	<circle class="st3" cx="806" cy="42.5" r="11.1"/>
	<g>
		<path class="st0" d="M806,50.4c-1,0-1.7-1.1-1.7-2.3V37c0-1.3,0.8-2.3,1.7-2.3c1,0,1.7,1.1,1.7,2.3v11
			C807.7,49.3,806.9,50.4,806,50.4z"/>
		<path class="st0" d="M811.5,44h-11c-1.3,0-2.3-0.8-2.3-1.7s1.1-1.7,2.3-1.7h11c1.3,0,2.3,0.8,2.3,1.7S812.8,44,811.5,44z"/>
	</g>
</g>
</svg>
