<svg xmlns="http://www.w3.org/2000/svg" width="196.788" height="30.231" viewBox="0 0 196.788 30.231"><defs><style>.a{fill:#fff;}.b{fill:#ea0a0a;}</style></defs><g transform="translate(-342.814 -290.77)"><path class="a" d="M43.414,59.375c0,.146-.087.22-.261.22H30.765c-.175,0-.261-.063-.261-.189,0-.1.086-.155.261-.155h1.142q.325,0,.326-1.258V39.01q0-1.258-.326-1.258H30.765c-.175,0-.261-.051-.261-.157,0-.126.086-.189.261-.189H42.176c.173,0,.26.074.26.221v6.725c0,.169-.075.252-.228.252-.131,0-.2-.083-.2-.252v-.439a8.093,8.093,0,0,0-.977-4.149,3.534,3.534,0,0,0-3.195-1.98H35.851q-.294,0-.294.157v9.743c0,.105.087.156.261.156h1.108a2.118,2.118,0,0,0,1.76-.989,3.783,3.783,0,0,0,.717-2.279v-.346a.22.22,0,0,1,.247-.25c.118,0,.178.084.178.25V51.8c0,.169-.06.252-.178.252A.22.22,0,0,1,39.4,51.8v-.315a3.9,3.9,0,0,0-.717-2.325,2.112,2.112,0,0,0-1.76-1.006H35.851c-.2,0-.294.064-.294.19V59.06c0,.106.087.157.261.157h1.858a4.606,4.606,0,0,0,4.3-2.516,7.808,7.808,0,0,0,.978-3.864v-.409c0-.167.076-.25.229-.25s.228.083.228.25Z" transform="translate(313.311 261.027)"/><path class="a" d="M94.151,59.375a.2.2,0,0,1-.228.22H81.533c-.174,0-.261-.063-.261-.189,0-.1.086-.155.261-.155h1.142c.216,0,.326-.42.326-1.258V39.01c0-.839-.11-1.258-.326-1.258H81.533c-.174,0-.261-.051-.261-.157,0-.126.086-.189.261-.189H88.25c.173,0,.261.063.261.189,0,.105-.087.157-.261.157h-1.6q-.326,0-.326,1.258V59.06c0,.106.087.157.261.157h1.858a4.6,4.6,0,0,0,4.3-2.544,8.67,8.67,0,0,0,.978-4.213v-.692c0-.167.076-.25.228-.25.131,0,.2.083.2.25Z" transform="translate(277.57 261.027)"/><path class="a" d="M173.522,59.375c0,.146-.086.22-.26.22H160.872c-.174,0-.26-.063-.26-.189,0-.1.086-.155.26-.155h1.141q.326,0,.327-1.258V39.01q0-1.258-.327-1.258h-1.141c-.174,0-.26-.051-.26-.157,0-.126.086-.189.26-.189h11.412c.173,0,.26.074.26.221v6.725c0,.169-.076.252-.228.252-.131,0-.2-.083-.2-.252v-.439a8.09,8.09,0,0,0-.978-4.149,3.533,3.533,0,0,0-3.195-1.98h-1.989q-.293,0-.293.157v9.743c0,.105.087.156.261.156h1.108a2.118,2.118,0,0,0,1.76-.989,3.783,3.783,0,0,0,.718-2.279v-.346a.22.22,0,0,1,.247-.25c.118,0,.177.084.177.25V51.8c0,.169-.059.252-.177.252a.22.22,0,0,1-.247-.252v-.315a3.9,3.9,0,0,0-.718-2.325,2.112,2.112,0,0,0-1.76-1.006h-1.076c-.2,0-.293.064-.293.19V59.06c0,.106.087.157.261.157h1.858a4.606,4.606,0,0,0,4.3-2.516,7.806,7.806,0,0,0,.978-3.864v-.409c0-.167.076-.25.229-.25s.227.083.227.25Z" transform="translate(221.719 261.027)"/><path class="a" d="M224.378,52.75A6.2,6.2,0,0,1,222.65,57.2,5.866,5.866,0,0,1,218.216,59a9.545,9.545,0,0,1-3.718-.848,2.874,2.874,0,0,0-.847-.254.256.256,0,0,0-.293.284v.188c0,.212-.054.316-.163.316s-.164-.1-.164-.316v-7.76c0-.168.054-.254.164-.254s.163.086.163.254v.25a11.6,11.6,0,0,0,.978,4.933,4.259,4.259,0,0,0,3.978,2.83,3.861,3.861,0,0,0,2.738-.941,3.326,3.326,0,0,0,1.011-2.549,5.829,5.829,0,0,0-2.348-4.461q-2.152-1.7-4.336-3.425A6.859,6.859,0,0,1,214.3,38.1a4.647,4.647,0,0,1,3.945-2.073,6.662,6.662,0,0,1,2.967.848,2.1,2.1,0,0,0,.782.282c.173,0,.261-.093.261-.282v-.22q0-.313.195-.314.229,0,.229.314v6.85c0,.191-.076.285-.229.285-.13,0-.195-.094-.195-.285v-.25a9.733,9.733,0,0,0-1.011-4.588,3.643,3.643,0,0,0-3.26-2.232,2.624,2.624,0,0,0-2.054.832,3.332,3.332,0,0,0-.75,2.312,6.03,6.03,0,0,0,2.38,4.587l4.434,3.4A6.91,6.91,0,0,1,224.378,52.75Z" transform="translate(184.816 261.996)"/><path class="a" d="M271.051,43.6a6.1,6.1,0,0,1-1.792,4.652,5.558,5.558,0,0,1-4.011,1.572h-2.706c-.2,0-.293.073-.293.22v7.952q0,1.257.326,1.258h1.695c.174,0,.261.051.261.155,0,.126-.087.189-.261.189h-6.815c-.174,0-.26-.063-.26-.189,0-.1.085-.155.26-.155H258.6q.326,0,.326-1.258V39.01q0-1.258-.326-1.258h-1.142c-.174,0-.26-.051-.26-.157,0-.126.085-.189.26-.189h7.662a5.919,5.919,0,0,1,4.076,1.415A6.084,6.084,0,0,1,271.051,43.6Zm-3.716,0a11.039,11.039,0,0,0-.652-4.477,2.156,2.156,0,0,0-2.054-1.337h-2.087c-.2,0-.293.064-.293.19V49.255c0,.126.086.188.261.188h2.119a2.131,2.131,0,0,0,2.1-1.319A11.948,11.948,0,0,0,267.335,43.6Z" transform="translate(153.727 261.027)"/><path class="a" d="M323.075,59.375c0,.146-.087.22-.261.22h-12.39c-.174,0-.26-.063-.26-.189,0-.1.086-.155.26-.155h1.142q.326,0,.326-1.258V39.01q0-1.258-.326-1.258h-1.142c-.174,0-.26-.051-.26-.157,0-.126.086-.189.26-.189h11.412c.173,0,.26.074.26.221v6.725c0,.169-.075.252-.228.252-.131,0-.2-.083-.2-.252v-.439a8.1,8.1,0,0,0-.978-4.149,3.534,3.534,0,0,0-3.2-1.98h-1.989c-.2,0-.293.052-.293.157v9.743c0,.105.086.156.261.156h1.109a2.118,2.118,0,0,0,1.76-.989,3.785,3.785,0,0,0,.717-2.279v-.346a.22.22,0,0,1,.247-.25c.118,0,.177.084.177.25V51.8c0,.169-.059.252-.177.252a.22.22,0,0,1-.247-.252v-.315a3.905,3.905,0,0,0-.717-2.325,2.112,2.112,0,0,0-1.76-1.006h-1.076c-.2,0-.293.064-.293.19V59.06c0,.106.086.157.261.157h1.858a4.607,4.607,0,0,0,4.3-2.516,7.811,7.811,0,0,0,.978-3.864v-.409c0-.167.076-.25.229-.25s.228.083.228.25Z" transform="translate(116.439 261.027)"/><path class="a" d="M374.581,58.481c0,.21-.076.314-.229.314-.13,0-.2-.1-.2-.314v-.221c0-.187-.076-.284-.228-.284a3.118,3.118,0,0,0-.782.254,11.083,11.083,0,0,1-4.043.848,6.59,6.59,0,0,1-6-3.772,15.244,15.244,0,0,1-1.727-7.511,16.019,16.019,0,0,1,1.858-8.266,6.3,6.3,0,0,1,5.738-3.393,7.484,7.484,0,0,1,3.326.817,2.1,2.1,0,0,0,.782.282c.152,0,.229-.093.229-.282v-.22q0-.314.162-.314c.152,0,.229.1.229.314v7.26c0,.189-.065.284-.2.284s-.195-.1-.195-.284v-.314a9.549,9.549,0,0,0-1.337-5.312,3.558,3.558,0,0,0-3-1.917,2.915,2.915,0,0,0-2.966,2.232,23.206,23.206,0,0,0-.523,4.4,80.77,80.77,0,0,0,0,9.175,15.278,15.278,0,0,0,.75,4.653,2.991,2.991,0,0,0,3,1.854,4.1,4.1,0,0,0,3.569-2.088,10.022,10.022,0,0,0,1.353-5.517v-.5c0-.188.076-.283.229-.283.131,0,.2.1.2.283Z" transform="translate(80.387 261.92)"/><path class="a" d="M426.779,44.823c0,.167-.065.252-.2.252s-.2-.085-.2-.252V44.1a9.028,9.028,0,0,0-.944-4.306,3.437,3.437,0,0,0-3.131-2.012h-1.206c-.2,0-.292.052-.292.157V57.993q0,1.257.326,1.258h1.172c.175,0,.261.051.261.155,0,.126-.086.189-.261.189h-6.324c-.174,0-.26-.063-.26-.189,0-.1.086-.155.26-.155h1.173q.326,0,.327-1.258V37.941q0-.157-.327-.157h-1.173a3.432,3.432,0,0,0-3.129,2.012,9,9,0,0,0-.946,4.306v.722c0,.167-.066.252-.2.252-.153,0-.228-.085-.228-.252v-7.2c0-.147.086-.221.261-.221h14.769c.173,0,.26.074.26.221Z" transform="translate(45.111 261.027)"/><path class="a" d="M475.2,58.958c0,.126-.087.189-.26.189h-6.163c-.173,0-.262-.063-.262-.189,0-.1.089-.155.262-.155h.979a.41.41,0,0,0,.456-.472,4.58,4.58,0,0,0-.162-.975l-1.663-6.475c-.022-.124-.109-.187-.261-.187H463.4c-.13,0-.2.063-.2.187l-.489,2.136a16.282,16.282,0,0,0-.489,3.427q0,2.359,1.6,2.359h.588c.173,0,.261.051.261.155,0,.126-.088.189-.261.189h-5.022c-.173,0-.261-.063-.261-.189,0-.1.088-.155.261-.155h.1q.685,0,1.207-1.009a24.385,24.385,0,0,0,1.565-4.974l3.814-15.86c0-.127.087-.19.261-.19H467.8a.255.255,0,0,1,.261.19l5.509,20.394c.261.963.576,1.448.946,1.448h.425C475.111,58.8,475.2,58.854,475.2,58.958Zm-7.041-8.831-2.478-9.837h-.065l-2.25,9.9c-.045.126.032.189.228.189h4.337C468.079,50.379,468.157,50.3,468.157,50.128Z" transform="translate(11.578 261.475)"/><path class="a" d="M532,48.345a14.973,14.973,0,0,1-1.859,7.983,6.436,6.436,0,0,1-5.8,3.267h-7.466c-.175,0-.261-.063-.261-.189,0-.1.086-.155.261-.155h1.141q.325,0,.326-1.258V39.01q0-1.258-.326-1.258h-1.141c-.175,0-.261-.051-.261-.157,0-.126.086-.189.261-.189h7.466a6.5,6.5,0,0,1,5.769,3.3A14.144,14.144,0,0,1,532,48.345Zm-4.141,4.587a78.063,78.063,0,0,0,0-9.051,13.469,13.469,0,0,0-.684-4.117,2.839,2.839,0,0,0-2.836-1.98h-2.38c-.2,0-.293.052-.293.157V59.06c0,.106.086.157.26.157h2.445a2.884,2.884,0,0,0,2.9-2.043A18.4,18.4,0,0,0,527.86,52.931Z" transform="translate(-28.893 261.027)"/><path class="a" d="M590.288,47.514a15.882,15.882,0,0,1-1.825,8.107,6.476,6.476,0,0,1-11.443.033A15,15,0,0,1,575.1,47.7a15.656,15.656,0,0,1,1.858-8.108,6.45,6.45,0,0,1,11.411-.033A15.015,15.015,0,0,1,590.288,47.514Zm-4.14,4.621a82.844,82.844,0,0,0,0-9.273,18.932,18.932,0,0,0-.521-4.024q-.784-2.386-2.87-2.387a2.981,2.981,0,0,0-3.064,2.42,21.735,21.735,0,0,0-.49,4.212,81.751,81.751,0,0,0,0,9.24,17.866,17.866,0,0,0,.555,4.055q.782,2.385,2.869,2.387a2.983,2.983,0,0,0,3.065-2.42A21.063,21.063,0,0,0,586.149,52.135Z" transform="translate(-70.063 261.92)"/><path class="a" d="M648.366,58.022c.13.023.172.139.129.346a2.017,2.017,0,0,1-2.225,1.6,3.318,3.318,0,0,1-2.529-1.006,3.6,3.6,0,0,1-.951-2.579v-4.4q-.033-3.866-2.835-3.866h-1.99c-.218,0-.326.062-.326.188v9.681q0,1.257.326,1.258h1.14c.173,0,.261.051.261.155,0,.126-.088.189-.261.189h-6.259c-.175,0-.26-.063-.26-.189,0-.1.085-.155.26-.155h1.14q.327,0,.327-1.258V39.01q0-1.258-.327-1.258h-1.14c-.175,0-.26-.051-.26-.157,0-.126.085-.189.26-.189h7.6a5.752,5.752,0,0,1,3.749,1.195,5.058,5.058,0,0,1,1.793,4.181,4.933,4.933,0,0,1-1.369,3.44,5.2,5.2,0,0,1-3.357,1.715v.03a5.431,5.431,0,0,1,3.423,1.761,6.479,6.479,0,0,1,1.4,4.368v3.739q0,1.6.868,1.6.8,0,1.126-1.131C648.163,58.1,648.259,58,648.366,58.022Zm-5.707-15.177q0-5.061-2.512-5.062h-2.216c-.195,0-.293.064-.293.19v9.649c0,.125.086.189.26.189h2.282a1.983,1.983,0,0,0,1.892-1.132A9.005,9.005,0,0,0,642.659,42.845Z" transform="translate(-110.533 261.027)"/></g><rect class="b" width="196.788" height="3.423"/></svg>