<svg data-name="Componente 68 – 1" xmlns="http://www.w3.org/2000/svg" width="16.819" height="16.885"><g data-name="Grupo 29130" fill="#141414"><path data-name="Trazado 16102" d="M5.097 8.554c.338-.167.68-.329 1.012-.508a.578.578 0 0 1 .66.036c.461.317.929.623 1.395.932l.709.472c.011-.023.019-.032.019-.041V7.088c0-.087-.034-.1-.106-.1H5.031c-.063 0-.1.006-.1.086v1.527a.218.218 0 0 0 .166-.047z"/><path data-name="Trazado 16103" d="M8.748 10.588q-1.114-.732-2.218-1.48a.257.257 0 0 0-.308-.013c-.333.177-.675.34-1.013.509-.292.144-.289.144-.276.463a.125.125 0 0 0 .079.124q1.654.824 3.3 1.652a.158.158 0 0 0 .152.005c.421-.185.422-.183.422-.637v-.049a2.8 2.8 0 0 1 0-.3.265.265 0 0 0-.138-.274z"/><path data-name="Trazado 16104" d="M14.307.003H2.499c-.418 0-.574.157-.574.58v1.19c-.013 2.218 0 4.437-.007 6.655a.344.344 0 0 0 .006.117.351.351 0 0 0 .217.251c.511.247 1.016.5 1.523.758.3.153.339.13.339-.215V6.565a.463.463 0 0 1 .4-.519.462.462 0 0 1 .1 0h4.839a.718.718 0 0 1 .082 0 .454.454 0 0 1 .414.4 1.675 1.675 0 0 1 .006.231v4.162c0 .327.049.357.34.212l4.489-2.247a.356.356 0 0 0 .2-.194V.375a.53.53 0 0 0-.566-.372zM6.429 1.991a.5.5 0 0 1 .076.005h3.843a.5.5 0 0 1 .538.452.5.5 0 0 1-.452.538.5.5 0 0 1-.077 0H6.511a.51.51 0 0 1-.58-.492.5.5 0 0 1 .499-.503zm5.943 6.943h-.973a.5.5 0 0 1-.5-.491.5.5 0 0 1 .491-.5q.487-.006.973 0a.5.5 0 0 1 .5.491.5.5 0 0 1-.49.5zm-1.48-2.475a.5.5 0 0 1 .493-.5q.495-.007.989 0a.5.5 0 0 1 .472.517.5.5 0 0 1-.472.472c-.171.005-.341 0-.511 0h-.479a.5.5 0 0 1-.491-.489zm1.937-1.8a.48.48 0 0 1-.466.308h-7.81a1 1 0 0 1-.214-.012.5.5 0 0 1-.387-.537.5.5 0 0 1 .51-.442h7.876a.494.494 0 0 1 .529.455.493.493 0 0 1-.037.231z"/><path data-name="Trazado 16105" d="M16.817 14.24V8.783l-.212.108c-2.571 1.284-5.144 2.563-7.709 3.859a.957.957 0 0 1-.964 0Q4.062 10.798.176 8.867c-.052-.026-.1-.072-.173-.06v5.657a2.527 2.527 0 0 0 1.478 2.194h.008l.046.02.068.028.027.01.079.029h.008l.1.031h.009l.1.027h.007l.1.023q.106.021.215.033h.007l.1.009h12.108l.1-.009h.007q.109-.012.215-.033l.1-.023h.007l.1-.027h.009l.1-.031h.008l.079-.029.027-.01.068-.028.046-.02h.008a2.527 2.527 0 0 0 1.477-2.185v-.115c0-.039.004-.078.003-.118z"/></g></svg>