<svg xmlns="http://www.w3.org/2000/svg" width="59.25" height="85.275" viewBox="0 0 59.25 85.275"><defs><style>.a{fill:#d60028;}.b{fill:#fff;}</style></defs><g transform="translate(36.782 53.597)"><path class="a" d="M5716.979,4188.4a.6.6,0,0,1,.312.5,7.325,7.325,0,0,0,.53,1.853c.533,1.043,1.173,2.033,1.79,3.032a3.8,3.8,0,0,0,5.351,1.206,3.756,3.756,0,0,0,1.215-5.089c-.6-1.04-1.187-2.1-1.868-3.086a7.342,7.342,0,0,0-1.358-1.312c-.165-.14-.284-.229-.284-.469a3.83,3.83,0,0,0-.579-1.978q-5.1-8.525-10.2-17.055a3.992,3.992,0,0,0-1.628-1.485,49.351,49.351,0,0,0-5.413,2.9,4.611,4.611,0,0,0,.9,3.207c1.266,2.062,2.491,4.149,3.733,6.226" transform="translate(-5704.767 -4164.478)"/><path class="a" d="M5722.4,4195.145a3.717,3.717,0,0,1-.812-.09,3.935,3.935,0,0,1-2.478-1.768l-.323-.521c-.5-.812-1.027-1.651-1.468-2.514a6.441,6.441,0,0,1-.491-1.656l-.042-.207a.567.567,0,0,0-.294-.473l.033-.062a.631.631,0,0,1,.33.521c.015.069.028.138.042.207a6.385,6.385,0,0,0,.484,1.637c.439.861.961,1.7,1.465,2.509l.323.521a3.864,3.864,0,0,0,2.432,1.736,3.787,3.787,0,0,0,4.074-5.583q-.17-.291-.337-.583c-.48-.834-.977-1.7-1.53-2.5a5.789,5.789,0,0,0-1.109-1.1l-.243-.2-.022-.019a.567.567,0,0,1-.274-.477,3.809,3.809,0,0,0-.574-1.96c-3.475-5.8-6.945-11.607-10.2-17.055a3.952,3.952,0,0,0-1.6-1.463,49.927,49.927,0,0,0-5.379,2.882,4.589,4.589,0,0,0,.9,3.167c.89,1.448,1.773,2.934,2.627,4.37q.553.928,1.106,1.856l-.061.036q-.555-.927-1.106-1.856c-.854-1.436-1.737-2.921-2.627-4.369a4.64,4.64,0,0,1-.9-3.231l0-.016.014-.009a49.827,49.827,0,0,1,5.417-2.9l.015-.007.016.008a4.026,4.026,0,0,1,1.643,1.5c3.257,5.447,6.728,11.251,10.2,17.055a3.878,3.878,0,0,1,.583,2c0,.212.1.3.25.423l.023.02.242.2a5.88,5.88,0,0,1,1.123,1.117c.555.805,1.052,1.67,1.533,2.505l.336.583a3.79,3.79,0,0,1-1.227,5.136A3.842,3.842,0,0,1,5722.4,4195.145Z" transform="translate(-5704.3 -4163.961)"/></g><path d="M5319.156,3660.938a4.7,4.7,0,0,1-1.02-.113,4.91,4.91,0,0,1-3.09-2.217q-.178-.291-.358-.58c-.564-.913-1.15-1.857-1.647-2.838a7.627,7.627,0,0,1-.593-1.984c-.015-.077-.03-.152-.047-.229a.587.587,0,1,1,1.15-.238c.015.077.03.155.046.232a6.732,6.732,0,0,0,.488,1.682c.476.937,1.046,1.859,1.6,2.751l.36.583a3.731,3.731,0,0,0,2.347,1.686,3.568,3.568,0,0,0,2.759-.527,3.612,3.612,0,0,0,1.16-4.876q-.187-.324-.373-.65c-.527-.92-1.071-1.872-1.671-2.748a5.98,5.98,0,0,0-1.128-1.116c-.092-.077-.184-.153-.272-.229l-.025-.021a1.163,1.163,0,0,1-.5-.949,3.667,3.667,0,0,0-.558-1.9c-3.849-6.462-7.693-12.925-11.3-18.99a3.916,3.916,0,0,0-1.737-1.518.591.591,0,0,1-.1-.994,24.547,24.547,0,0,0,9.921-19.216,23.623,23.623,0,0,0-5.347-15.869,24.213,24.213,0,0,0-30.884-6.01,24.532,24.532,0,0,0-10.8,30.053,23.731,23.731,0,0,0,12.789,13.579,24.167,24.167,0,0,0,18.7.533.588.588,0,0,1,.775.663,4.435,4.435,0,0,0,.891,3.315c.987,1.616,1.966,3.271,2.914,4.873q.612,1.033,1.225,2.065a.592.592,0,0,1-.2.809.584.584,0,0,1-.8-.2q-.615-1.033-1.227-2.068c-.944-1.6-1.922-3.249-2.9-4.858a6.311,6.311,0,0,1-1.125-3.19,26.667,26.667,0,0,1-9.028,1.4,25.135,25.135,0,0,1-9.691-2.261,24.867,24.867,0,0,1-13.4-14.229,25.583,25.583,0,0,1,28.513-34.369,25.1,25.1,0,0,1,8.247,3.105,25.628,25.628,0,0,1,6.934,6.055,24.762,24.762,0,0,1,5.605,16.645,25.818,25.818,0,0,1-2.836,11.25,27.229,27.229,0,0,1-6.859,8.314,4.772,4.772,0,0,1,1.451,1.522c3.607,6.065,7.451,12.528,11.3,18.989a4.883,4.883,0,0,1,.724,2.485c.023.021.056.049.083.071l.026.022.264.221a6.932,6.932,0,0,1,1.344,1.355c.627.916,1.183,1.888,1.722,2.829q.185.323.371.646a4.849,4.849,0,0,1-4.168,7.26Zm-28.912-34.266a20.929,20.929,0,0,1-8.427-1.782,21.193,21.193,0,0,1-9.51-8.2,21.414,21.414,0,0,1-1.305-20.169,20.973,20.973,0,0,1,4.872-6.776,21.2,21.2,0,0,1,6.972-4.32,20.872,20.872,0,0,1,16.169.592.591.591,0,0,1,.291.781.585.585,0,0,1-.776.292,19.713,19.713,0,0,0-15.272-.562,20.134,20.134,0,0,0-.973,37.284,19.7,19.7,0,0,0,15.272.277,19.965,19.965,0,0,0,11.051-10.733.584.584,0,0,1,.771-.306.59.59,0,0,1,.3.775,21.229,21.229,0,0,1-19.439,12.848Z" transform="translate(-5264.739 -3575.664)"/><g transform="translate(17.036 20.81)"><g transform="translate(0 0)"><line class="b" x2="16.576" y2="16.576" transform="translate(0.529 0.53)"/><path d="M5489.811,3798.339a.53.53,0,0,1-.375-.155l-16.576-16.577a.529.529,0,0,1,.749-.749l16.577,16.576a.529.529,0,0,1-.375.9Z" transform="translate(-5472.705 -3780.704)"/></g><g transform="translate(0 0)"><line class="b" y1="16.576" x2="16.576" transform="translate(0.529 0.53)"/><path d="M5473.234,3798.339a.529.529,0,0,1-.375-.9l16.576-16.576a.53.53,0,0,1,.75.749l-16.577,16.577A.53.53,0,0,1,5473.234,3798.339Z" transform="translate(-5472.705 -3780.704)"/></g></g><path d="M5612.074,3549.6a.529.529,0,0,1-.529-.529,26,26,0,0,0-26.016-26.016.53.53,0,0,1,0-1.059,27.057,27.057,0,0,1,27.074,27.075A.529.529,0,0,1,5612.074,3549.6Z" transform="translate(-5556.64 -3522)"/></svg>