<svg data-name="Componente 59 – 1" xmlns="http://www.w3.org/2000/svg" width="12.898" height="17.753"><g data-name="Grupo 29068" transform="translate(-247.5 -641.747)" fill="#141414"><circle data-name="Elipse 1300" cx="3.493" cy="3.493" r="3.493" transform="translate(250.456 644.703)"/><path data-name="Trazado 16073" d="M253.949 641.747a6.449 6.449 0 1 0 6.449 6.449 6.449 6.449 0 0 0-6.449-6.449zm0 10.82a4.372 4.372 0 1 1 4.372-4.373 4.372 4.372 0 0 1-4.372 4.373z"/><path data-name="Trazado 16091" d="m250.85 654.671-.066 4.57c0 .12.137.219.309.22a.417.417 0 0 0 .174-.035l2.271-1.036a.958.958 0 0 1 .782.005l2.24 1.066a.4.4 0 0 0 .434-.056.178.178 0 0 0 .055-.12l.062-4.641-.15.064a7.846 7.846 0 0 1-6.111-.037z"/></g></svg>