<svg id="Componente_75_1" data-name="Componente 75 – 1" xmlns="http://www.w3.org/2000/svg" width="220.838" height="214.68" viewBox="0 0 220.838 214.68">
  <g id="Intersección_571" data-name="Intersección 571" transform="translate(32.398)">
    <path id="Trazado_10610" data-name="Trazado 10610" d="M5696.168,2704.878l-83.442,41.575V2579.212A31.207,31.207,0,0,1,5643.938,2548h97.985a31.214,31.214,0,0,1,30.624,25.186v176.194Z" transform="translate(-5609.985 -2545.259)" fill="#fff"/>
    <path id="Trazado_10611" data-name="Trazado 10611" d="M5767.789,2747.362a2.739,2.739,0,0,1-1.38-.373l-75.1-43.756-82.118,40.916a2.741,2.741,0,0,1-3.963-2.453V2574.453a33.991,33.991,0,0,1,33.953-33.953h97.986a34.024,34.024,0,0,1,33.313,27.4,2.714,2.714,0,0,1,.051.529V2744.62a2.742,2.742,0,0,1-2.741,2.741Zm-76.38-49.984a2.74,2.74,0,0,1,1.38.373l72.258,42.1V2568.7a28.531,28.531,0,0,0-27.883-22.718h-97.986a28.5,28.5,0,0,0-28.471,28.471v162.813l79.479-39.6A2.741,2.741,0,0,1,5691.409,2697.378Z" transform="translate(-5605.226 -2540.5)"/>
  </g>
  <g id="Grupo_19269" data-name="Grupo 19269" transform="translate(73.903 48.277)">
    <path id="Trazado_10612" data-name="Trazado 10612" d="M5769.94,2675.171c-.145-.434-3.1.158-3.1.158-.236-.71-2.366-1.183-2.366-1.183s-8.162,2.722-9.407,4.308c-.834,1.063-3.441,5.032-5.072,7.538l-.022-.021-11.2,11.7L5728.02,2688l-7.173,12.81s18.147,9.65,21.042,7.866,13.87-17.375,13.87-17.375l-.034-.032c1.482-1.923,3.959-5,5.081-5.646,1.656-.947,7.1-3.55,7.1-3.55s.236-.473.65-1.6c0,0,2.188-1.716,2.188-2.9A5.584,5.584,0,0,0,5769.94,2675.171Z" transform="translate(-5720.095 -2673.578)" fill="#fff"/>
    <path id="Trazado_10613" data-name="Trazado 10613" d="M5739.585,2708.429c-4.759,0-17.54-6.655-20.3-8.124l-.5-.263,7.782-13.9,10.867,9.771,10.909-11.394c1.857-2.852,4.181-6.376,4.98-7.394,1.31-1.667,8.814-4.205,9.665-4.489l.144-.048.148.033a5.541,5.541,0,0,1,2.493,1.112c3.09-.58,3.261-.068,3.376.275a3.041,3.041,0,0,0,.171.347,4.56,4.56,0,0,1,.659,2.231c0,1.271-1.695,2.759-2.275,3.232-.386,1.037-.611,1.49-.621,1.509l-.084.168-.169.081c-.054.026-5.442,2.605-7.061,3.531-.734.42-2.4,2.272-4.612,5.108l.017.016-.276.393c-.451.64-11.073,15.7-14.03,17.526A2.477,2.477,0,0,1,5739.585,2708.429Zm-19.292-8.83c6.958,3.662,18.134,8.775,20,7.621,2.229-1.374,10.194-12.255,13.432-16.831l-.049-.045.306-.4c1.754-2.276,4.087-5.127,5.244-5.788,1.5-.86,5.987-3.019,6.954-3.483.1-.219.288-.664.551-1.377l.053-.146.123-.1c.821-.645,1.978-1.837,1.978-2.467a3.5,3.5,0,0,0-.529-1.714c-.057-.106-.11-.2-.155-.3a13,13,0,0,0-2.564.3l-.474.094-.153-.459a4.244,4.244,0,0,0-1.82-.787c-3.111,1.046-8.183,3.033-9,4.077-.834,1.062-3.518,5.154-5.043,7.5l-.354.544-.1-.1-11.193,11.69-10.637-9.565Z" transform="translate(-5718.789 -2672.592)"/>
  </g>
  <g id="Grupo_19270" data-name="Grupo 19270" transform="translate(115.645 32.875)">
    <path id="Trazado_10614" data-name="Trazado 10614" d="M5834.5,2632v65.891l35.839-.1v-64.642Z" transform="translate(-5833.952 -2631.434)" fill="#fff"/>
    <path id="Trazado_10615" data-name="Trazado 10615" d="M5833,2697.458v-67.007l36.936,1.179v65.72Zm1.1-65.875v64.775l34.743-.1v-63.564Z" transform="translate(-5833 -2630.451)"/>
  </g>
  <g id="Grupo_19277" data-name="Grupo 19277" transform="translate(119.482 38.558)">
    <g id="Grupo_19273" data-name="Grupo 19273" transform="translate(0 0)">
      <g id="Grupo_19271" data-name="Grupo 19271">
        <line id="Línea_5361" data-name="Línea 5361" x2="8.13" transform="translate(0 0.548)" fill="#fff"/>
        <rect id="Rectángulo_6647" data-name="Rectángulo 6647" width="8.13" height="1.096"/>
      </g>
      <g id="Grupo_19272" data-name="Grupo 19272" transform="translate(0 5.117)">
        <line id="Línea_5362" data-name="Línea 5362" x2="8.13" transform="translate(0 0.548)" fill="#fff"/>
        <rect id="Rectángulo_6648" data-name="Rectángulo 6648" width="8.13" height="1.096"/>
      </g>
    </g>
    <g id="Grupo_19276" data-name="Grupo 19276" transform="translate(0 10.233)">
      <g id="Grupo_19274" data-name="Grupo 19274">
        <line id="Línea_5363" data-name="Línea 5363" x2="8.13" transform="translate(0 0.548)" fill="#fff"/>
        <rect id="Rectángulo_6649" data-name="Rectángulo 6649" width="8.13" height="1.096"/>
      </g>
      <g id="Grupo_19275" data-name="Grupo 19275" transform="translate(0 5.117)">
        <line id="Línea_5364" data-name="Línea 5364" x2="8.13" transform="translate(0 0.548)" fill="#fff"/>
        <rect id="Rectángulo_6650" data-name="Rectángulo 6650" width="8.13" height="1.096"/>
      </g>
    </g>
  </g>
  <g id="Grupo_19278" data-name="Grupo 19278" transform="translate(120.374 34.493)">
    <path id="Trazado_10616" data-name="Trazado 10616" d="M5878.549,2637v65.891l-31.11,9.763v-64.642Z" transform="translate(-5846.891 -2636.225)" fill="#fff"/>
    <path id="Trazado_10617" data-name="Trazado 10617" d="M5845.938,2712.054v-65.776l32.207-11.4v67.069Zm1.1-65v63.508l30.014-9.419v-64.713Z" transform="translate(-5845.938 -2634.878)"/>
  </g>
  <g id="Grupo_19279" data-name="Grupo 19279" transform="translate(83.041 65.82)">
    <path id="Trazado_10618" data-name="Trazado 10618" d="M5794.939,2723.171c-.145-.434-3.1.158-3.1.158-.237-.71-2.366-1.183-2.366-1.183s-8.161,2.722-9.407,4.307c-.835,1.063-3.441,5.032-5.072,7.539l-.022-.021-11.2,11.7L5753.02,2736l-7.173,12.81s18.147,9.651,21.042,7.866,13.87-17.375,13.87-17.375l-.034-.031c1.482-1.923,3.959-5.005,5.081-5.646,1.656-.946,7.1-3.55,7.1-3.55s.236-.473.65-1.6c0,0,2.188-1.715,2.188-2.9A5.574,5.574,0,0,0,5794.939,2723.171Z" transform="translate(-5745.095 -2721.578)" fill="#fff"/>
    <path id="Trazado_10619" data-name="Trazado 10619" d="M5764.585,2756.429c-4.759,0-17.539-6.655-20.3-8.124l-.5-.263,7.782-13.9,10.868,9.771,10.909-11.394c1.857-2.852,4.181-6.376,4.981-7.394,1.309-1.667,8.813-4.206,9.665-4.49l.144-.048.148.033a5.539,5.539,0,0,1,2.493,1.112c3.09-.58,3.261-.068,3.376.275a3.085,3.085,0,0,0,.171.347,4.561,4.561,0,0,1,.659,2.231c0,1.271-1.695,2.76-2.275,3.232-.387,1.037-.612,1.49-.622,1.509l-.084.168-.17.081c-.054.026-5.441,2.605-7.061,3.531-.734.42-2.4,2.272-4.611,5.108l.017.016-.276.393c-.451.641-11.073,15.7-14.031,17.526A2.48,2.48,0,0,1,5764.585,2756.429Zm-19.292-8.83c6.958,3.662,18.131,8.773,20,7.621,2.229-1.374,10.194-12.254,13.432-16.831l-.049-.045.307-.4c1.754-2.276,4.087-5.127,5.243-5.788,1.5-.86,5.987-3.019,6.955-3.483.1-.219.287-.664.55-1.377l.053-.146.123-.1c.821-.645,1.978-1.837,1.978-2.467a3.506,3.506,0,0,0-.529-1.714c-.057-.106-.109-.2-.154-.3a13,13,0,0,0-2.564.3l-.474.094-.153-.459a4.241,4.241,0,0,0-1.82-.787c-3.111,1.046-8.182,3.033-9,4.077-.833,1.062-3.518,5.154-5.043,7.5l-.354.544-.1-.1-11.193,11.69-10.638-9.565Z" transform="translate(-5743.789 -2720.592)"/>
  </g>
  <g id="Grupo_19280" data-name="Grupo 19280" transform="translate(48 57.071)">
    <path id="Trazado_10620" data-name="Trazado 10620" d="M5673.7,2727.521l10.6,6.944,8.3-14.83s-14.152-13.677-21.014-19.078-10.523,0-10.523,0-7.833-.082-8.2,13.441-3.247,36-3.247,36h37.512l-1.373-12.243" transform="translate(-5648.995 -2697.607)" fill="#fff"/>
    <path id="Trazado_10621" data-name="Trazado 10621" d="M5686.661,2749.592h-38.748l.079-.618c.029-.224,2.882-22.6,3.242-35.945.335-12.4,6.975-13.8,8.459-13.955a6.629,6.629,0,0,1,4.046-2.344c2.218-.344,4.606.477,7.1,2.442,6.805,5.355,20.915,18.978,21.056,19.115l.3.293-8.8,15.711-11.09-7.266.6-.917,10.107,6.622,7.812-13.948c-2.1-2.017-14.462-13.864-20.669-18.749-2.241-1.763-4.341-2.512-6.24-2.223a5.58,5.58,0,0,0-3.492,2.1l-.166.24h-.293c-.312,0-7.3.153-7.644,12.907-.328,12.145-2.709,31.721-3.173,35.437h36.278l-1.3-11.635,1.089-.122Z" transform="translate(-5647.913 -2696.654)"/>
  </g>
  <g id="Grupo_19281" data-name="Grupo 19281" transform="translate(83.285 151.792)">
    <path id="Trazado_10622" data-name="Trazado 10622" d="M5769.428,2957.5s5.117,8.406,5.117,14.619-7.31,38.375-7.31,38.375,9.868,4.751,12.426,5.482,2.559,2.193,2.559,2.924-27.088,0-27.088,0-1.419-.731-1.053-3.289,6.579-31.8,6.944-35.817-13.522-17.908-13.522-17.908Z" transform="translate(-5746.388 -2956.887)" fill="#fff"/>
    <path id="Trazado_10623" data-name="Trazado 10623" d="M5773.338,3018.711c-1.8,0-4.047-.017-6.87-.056-6.608-.092-13.216-.269-13.282-.271l-.125,0-.111-.057c-.072-.037-1.762-.943-1.346-3.854.138-.961,1.053-5.464,2.213-11.164,1.9-9.335,4.5-22.119,4.728-24.625.251-2.762-7.854-11.962-13.364-17.471l-.725-.724,23.309-4.662.2.328c.212.348,5.2,8.61,5.2,14.9,0,5.886-6.325,34.081-7.226,38.07,1.858.888,9.748,4.632,11.945,5.26,2.956.845,2.956,2.671,2.956,3.451v.231l-.18.19C5780.446,3018.464,5780.191,3018.711,5773.338,3018.711Zm-19.964-1.418c9.258.248,23.908.49,26.357.155-.052-.67-.357-1.5-2.15-2.008-2.574-.735-12.108-5.32-12.513-5.515l-.394-.19.1-.426c.073-.321,7.3-32.172,7.3-38.254,0-5.306-3.919-12.4-4.844-14.005l-20.548,4.11c3.06,3.12,13.3,13.87,12.963,17.62-.233,2.566-2.734,14.863-4.745,24.744-1.11,5.458-2.069,10.172-2.2,11.1C5752.439,3016.385,5753.121,3017.095,5753.374,3017.293Z" transform="translate(-5744.457 -2955.823)"/>
  </g>
  <g id="Grupo_19282" data-name="Grupo 19282" transform="translate(36.702 157.409)">
    <path id="Trazado_10624" data-name="Trazado 10624" d="M5625.457,2972.9l-6.957,10.086v21.563l24.32-27.248Z" transform="translate(-5617.952 -2972.278)" fill="#fff"/>
    <path id="Trazado_10625" data-name="Trazado 10625" d="M5617,3004.905v-23.171l7.271-10.541,18.609,4.717Zm1.1-22.83v19.955l22.762-25.5-16.118-4.085Z" transform="translate(-5617 -2971.193)"/>
  </g>
  <g id="Grupo_19283" data-name="Grupo 19283" transform="translate(33.047 109.461)">
    <path id="Trazado_10626" data-name="Trazado 10626" d="M5622.575,2840s-3.514,16.081-3.514,29.6S5607,2896.649,5607,2896.649s15.719,11.361,22.844,12.442,12.973-.381,19.917-5.5,10.171-12.722,17.512-12.757,20.132-5.517,20.132-5.517a136.2,136.2,0,0,0-10.8-22.131A189.45,189.45,0,0,0,5660.087,2840Z" transform="translate(-5607 -2840)" fill="#1d1d1b"/>
  </g>
  <g id="Grupo_19287" data-name="Grupo 19287" transform="translate(124.366 48.328)">
    <g id="Grupo_19284" data-name="Grupo 19284" transform="translate(0 0)">
      <line id="Línea_5365" data-name="Línea 5365" y1="3.43" x2="9.563" transform="translate(0.185 0.517)" fill="#fff"/>
      <rect id="Rectángulo_6651" data-name="Rectángulo 6651" width="10.159" height="1.097" transform="translate(0 3.432) rotate(-19.744)"/>
    </g>
    <g id="Grupo_19285" data-name="Grupo 19285" transform="translate(0 10.599)">
      <line id="Línea_5366" data-name="Línea 5366" y1="3.43" x2="9.563" transform="translate(0.185 0.517)" fill="#fff"/>
      <rect id="Rectángulo_6652" data-name="Rectángulo 6652" width="10.159" height="1.097" transform="translate(0 3.432) rotate(-19.744)"/>
    </g>
    <g id="Grupo_19286" data-name="Grupo 19286" transform="translate(0 5.117)">
      <line id="Línea_5367" data-name="Línea 5367" y1="3.43" x2="9.563" transform="translate(0.185 0.517)" fill="#fff"/>
      <rect id="Rectángulo_6653" data-name="Rectángulo 6653" width="10.159" height="1.097" transform="translate(0 3.432) rotate(-19.744)"/>
    </g>
  </g>
  <g id="Grupo_19291" data-name="Grupo 19291" transform="translate(124.366 74.276)">
    <g id="Grupo_19288" data-name="Grupo 19288" transform="translate(0 0)">
      <line id="Línea_5368" data-name="Línea 5368" y1="3.43" x2="9.563" transform="translate(0.185 0.517)" fill="#fff"/>
      <rect id="Rectángulo_6654" data-name="Rectángulo 6654" width="10.159" height="1.097" transform="translate(0 3.432) rotate(-19.744)"/>
    </g>
    <g id="Grupo_19289" data-name="Grupo 19289" transform="translate(0 10.599)">
      <line id="Línea_5369" data-name="Línea 5369" y1="3.43" x2="9.563" transform="translate(0.185 0.517)" fill="#fff"/>
      <rect id="Rectángulo_6655" data-name="Rectángulo 6655" width="10.159" height="1.097" transform="translate(0 3.432) rotate(-19.744)"/>
    </g>
    <g id="Grupo_19290" data-name="Grupo 19290" transform="translate(0 5.117)">
      <line id="Línea_5370" data-name="Línea 5370" y1="3.43" x2="9.563" transform="translate(0.185 0.517)" fill="#fff"/>
      <rect id="Rectángulo_6656" data-name="Rectángulo 6656" width="10.159" height="1.097" transform="translate(0 3.432) rotate(-19.744)"/>
    </g>
  </g>
  <g id="Grupo_19295" data-name="Grupo 19295" transform="translate(124.366 90.357)">
    <g id="Grupo_19292" data-name="Grupo 19292" transform="translate(0 0)">
      <line id="Línea_5371" data-name="Línea 5371" y1="3.43" x2="9.563" transform="translate(0.185 0.517)" fill="#fff"/>
      <rect id="Rectángulo_6657" data-name="Rectángulo 6657" width="10.159" height="1.097" transform="translate(0 3.432) rotate(-19.744)"/>
    </g>
    <g id="Grupo_19293" data-name="Grupo 19293" transform="translate(0 10.599)">
      <line id="Línea_5372" data-name="Línea 5372" y1="3.43" x2="9.563" transform="translate(0.185 0.517)" fill="#fff"/>
      <rect id="Rectángulo_6658" data-name="Rectángulo 6658" width="10.159" height="1.097" transform="translate(0 3.432) rotate(-19.744)"/>
    </g>
    <g id="Grupo_19294" data-name="Grupo 19294" transform="translate(0 5.117)">
      <line id="Línea_5373" data-name="Línea 5373" y1="3.43" x2="9.563" transform="translate(0.185 0.517)" fill="#fff"/>
      <rect id="Rectángulo_6659" data-name="Rectángulo 6659" width="10.159" height="1.097" transform="translate(0 3.432) rotate(-19.744)"/>
    </g>
  </g>
  <g id="Grupo_19299" data-name="Grupo 19299" transform="translate(137.888 43.576)">
    <g id="Grupo_19296" data-name="Grupo 19296" transform="translate(0 0)">
      <line id="Línea_5374" data-name="Línea 5374" y1="3.43" x2="9.563" transform="translate(0.185 0.517)" fill="#fff"/>
      <rect id="Rectángulo_6660" data-name="Rectángulo 6660" width="10.159" height="1.097" transform="translate(0 3.432) rotate(-19.744)"/>
    </g>
    <g id="Grupo_19297" data-name="Grupo 19297" transform="translate(0 10.599)">
      <line id="Línea_5375" data-name="Línea 5375" y1="3.43" x2="9.563" transform="translate(0.185 0.517)" fill="#fff"/>
      <rect id="Rectángulo_6661" data-name="Rectángulo 6661" width="10.159" height="1.097" transform="translate(0 3.432) rotate(-19.744)"/>
    </g>
    <g id="Grupo_19298" data-name="Grupo 19298" transform="translate(0 5.117)">
      <line id="Línea_5376" data-name="Línea 5376" y1="3.43" x2="9.563" transform="translate(0.185 0.517)" fill="#fff"/>
      <rect id="Rectángulo_6662" data-name="Rectángulo 6662" width="10.159" height="1.097" transform="translate(0 3.432) rotate(-19.744)"/>
    </g>
  </g>
  <g id="Grupo_19303" data-name="Grupo 19303" transform="translate(137.888 69.525)">
    <g id="Grupo_19300" data-name="Grupo 19300" transform="translate(0 0)">
      <line id="Línea_5377" data-name="Línea 5377" y1="3.43" x2="9.563" transform="translate(0.185 0.517)" fill="#fff"/>
      <rect id="Rectángulo_6663" data-name="Rectángulo 6663" width="10.159" height="1.097" transform="translate(0 3.432) rotate(-19.744)"/>
    </g>
    <g id="Grupo_19301" data-name="Grupo 19301" transform="translate(0 10.599)">
      <line id="Línea_5378" data-name="Línea 5378" y1="3.43" x2="9.563" transform="translate(0.185 0.517)" fill="#fff"/>
      <rect id="Rectángulo_6664" data-name="Rectángulo 6664" width="10.159" height="1.097" transform="translate(0 3.432) rotate(-19.744)"/>
    </g>
    <g id="Grupo_19302" data-name="Grupo 19302" transform="translate(0 5.117)">
      <line id="Línea_5379" data-name="Línea 5379" y1="3.43" x2="9.563" transform="translate(0.185 0.517)" fill="#fff"/>
      <rect id="Rectángulo_6665" data-name="Rectángulo 6665" width="10.159" height="1.097" transform="translate(0 3.432) rotate(-19.744)"/>
    </g>
  </g>
  <g id="Grupo_19307" data-name="Grupo 19307" transform="translate(137.888 85.606)">
    <g id="Grupo_19304" data-name="Grupo 19304" transform="translate(0 0)">
      <line id="Línea_5380" data-name="Línea 5380" y1="3.43" x2="9.563" transform="translate(0.185 0.517)" fill="#fff"/>
      <rect id="Rectángulo_6666" data-name="Rectángulo 6666" width="10.159" height="1.097" transform="translate(0 3.432) rotate(-19.744)"/>
    </g>
    <g id="Grupo_19305" data-name="Grupo 19305" transform="translate(0 10.599)">
      <line id="Línea_5381" data-name="Línea 5381" y1="3.43" x2="9.563" transform="translate(0.185 0.517)" fill="#fff"/>
      <rect id="Rectángulo_6667" data-name="Rectángulo 6667" width="10.159" height="1.097" transform="translate(0 3.432) rotate(-19.744)"/>
    </g>
    <g id="Grupo_19306" data-name="Grupo 19306" transform="translate(0 5.117)">
      <line id="Línea_5382" data-name="Línea 5382" y1="3.43" x2="9.563" transform="translate(0.185 0.517)" fill="#fff"/>
      <rect id="Rectángulo_6668" data-name="Rectángulo 6668" width="10.159" height="1.097" transform="translate(0 3.432) rotate(-19.744)"/>
    </g>
  </g>
  <g id="Grupo_19308" data-name="Grupo 19308" transform="translate(138.073 58.659)">
    <path id="Trazado_10627" data-name="Trazado 10627" d="M5894.366,2704.188v7.293l9.563-3.9V2701Z" transform="translate(-5894.366 -2701)"/>
  </g>
  <g id="Grupo_19309" data-name="Grupo 19309" transform="translate(55.891 33.011)">
    <path id="Trazado_10628" data-name="Trazado 10628" d="M5699.795,2660.685c-.591-2.73-5.256-4.945-4.35-7.2s1.652-10.174,1.286-12.733c-.266-1.865-.826-4.182-1.111-5.3q-.825-.705-1.595-1.471c-4.208-4.209-16.418-4.209-21.539,0s-2.4,10.874-.955,14.907a53.433,53.433,0,0,1,2.149,8.945s0-3.508,2.1-5.613,1.4-2.806,1.4-9.12c0,0,8.418,1.4,13.329-7.717v14.986c0,1.851-6.313,4.657-6.313,7.464,0,0,7.716,5.612,8.418,7.015a5.237,5.237,0,0,0,2.1,2.1s2.047-.682,4.869-1.647A15.892,15.892,0,0,0,5699.795,2660.685Z" transform="translate(-5669.504 -2630.823)" fill="#1d1d1b"/>
  </g>
  <g id="Grupo_19310" data-name="Grupo 19310" transform="translate(49.096 37.795)">
    <path id="Trazado_10629" data-name="Trazado 10629" d="M5659.161,2643.913s-2.2,1.741-3.015,8.013-.816,10.658-2.644,14.313-3.321,10.986-2.208,13.351,5.136,1.74,6.414,1.322a12.553,12.553,0,0,0,4.535-3.036c.762-1.037,2.589-2.134,2.224-4.692s-2.192-17.177-2.192-17.177Z" transform="translate(-5650.913 -2643.913)" fill="#1d1d1b"/>
  </g>
  <g id="Grupo_19311" data-name="Grupo 19311" transform="translate(123.898 66.588)">
    <line id="Línea_5383" data-name="Línea 5383" x1="5.234" y2="2.042" transform="translate(0.199 0.51)" fill="#fff"/>
    <rect id="Rectángulo_6669" data-name="Rectángulo 6669" width="5.618" height="1.096" transform="translate(0 2.041) rotate(-21.303)"/>
  </g>
  <g id="Grupo_19312" data-name="Grupo 19312" transform="translate(125.506 67.604)">
    <line id="Línea_5384" data-name="Línea 5384" x1="7.541" y2="2.784" transform="translate(0.19 0.514)" fill="#fff"/>
    <rect id="Rectángulo_6670" data-name="Rectángulo 6670" width="8.038" height="1.096" transform="translate(0 2.784) rotate(-20.264)"/>
  </g>
  <g id="Grupo_19313" data-name="Grupo 19313" transform="translate(126.547 69.925)">
    <line id="Línea_5385" data-name="Línea 5385" x1="6.808" y2="2.195" transform="translate(0.168 0.521)" fill="#fff"/>
    <rect id="Rectángulo_6671" data-name="Rectángulo 6671" width="7.153" height="1.096" transform="translate(0 2.193) rotate(-17.857)"/>
  </g>
  <g id="Grupo_19314" data-name="Grupo 19314" transform="translate(124.056 203.884)">
    <line id="Línea_5386" data-name="Línea 5386" x1="4.781" y1="10.01" transform="translate(0.495 0.236)" fill="#fff"/>
    <rect id="Rectángulo_6672" data-name="Rectángulo 6672" width="1.096" height="11.093" transform="translate(0 0.473) rotate(-25.531)"/>
  </g>
  <g id="Grupo_19315" data-name="Grupo 19315" transform="translate(132.688 197.588)">
    <line id="Línea_5387" data-name="Línea 5387" y1="13.437" transform="translate(0.548 0)" fill="#fff"/>
    <rect id="Rectángulo_6673" data-name="Rectángulo 6673" width="1.096" height="13.437" transform="translate(0)"/>
  </g>
  <g id="Grupo_19316" data-name="Grupo 19316" transform="translate(135.943 206.053)">
    <line id="Línea_5388" data-name="Línea 5388" y1="7.084" x2="1.596" transform="translate(0.535 0.12)" fill="#fff"/>
    <rect id="Rectángulo_6674" data-name="Rectángulo 6674" width="7.262" height="1.096" transform="translate(0 7.084) rotate(-77.303)"/>
  </g>
  <g id="Grupo_19317" data-name="Grupo 19317" transform="translate(7.538 199.642)">
    <line id="Línea_5389" data-name="Línea 5389" x1="7.749" y1="13.34" transform="translate(0.474 0.275)" fill="#fff"/>
    <rect id="Rectángulo_6675" data-name="Rectángulo 6675" width="1.096" height="15.427" transform="translate(0 0.551) rotate(-30.151)"/>
  </g>
  <g id="Grupo_19318" data-name="Grupo 19318" transform="translate(18.579 204.217)">
    <line id="Línea_5390" data-name="Línea 5390" x1="1.493" y1="8.95" transform="translate(0.541 0.09)" fill="#fff"/>
    <rect id="Rectángulo_6676" data-name="Rectángulo 6676" width="1.096" height="9.074" transform="translate(0 0.18) rotate(-9.47)"/>
  </g>
  <g id="Grupo_19319" data-name="Grupo 19319" transform="translate(5.589 206.3)">
    <line id="Línea_5391" data-name="Línea 5391" x1="4.106" y1="6.67" transform="translate(0.467 0.287)" fill="#fff"/>
    <rect id="Rectángulo_6677" data-name="Rectángulo 6677" width="1.096" height="7.832" transform="matrix(0.852, -0.524, 0.524, 0.852, 0, 0.575)"/>
  </g>
  <g id="Grupo_19320" data-name="Grupo 19320" transform="translate(205.977 199.735)">
    <line id="Línea_5392" data-name="Línea 5392" x1="3.445" y1="9.798" transform="translate(0.517 0.182)" fill="#fff"/>
    <rect id="Rectángulo_6678" data-name="Rectángulo 6678" width="1.096" height="10.386" transform="translate(0 0.364) rotate(-19.371)"/>
  </g>
  <g id="Grupo_19321" data-name="Grupo 19321" transform="translate(213.412 194.428)">
    <line id="Línea_5393" data-name="Línea 5393" y1="14.69" x2="0.183" transform="translate(0.548 0.007)" fill="#fff"/>
    <rect id="Rectángulo_6679" data-name="Rectángulo 6679" width="14.691" height="1.097" transform="translate(0 14.69) rotate(-89.291)"/>
  </g>
  <g id="Grupo_19322" data-name="Grupo 19322" transform="translate(217.538 201.631)">
    <line id="Línea_5394" data-name="Línea 5394" y1="7.935" x2="2.24" transform="translate(0.527 0.149)" fill="#fff"/>
    <rect id="Rectángulo_6680" data-name="Rectángulo 6680" width="8.245" height="1.096" transform="translate(0 7.935) rotate(-74.244)"/>
  </g>
  <g id="Grupo_19323" data-name="Grupo 19323" transform="translate(208.688 186.23)">
    <path id="Trazado_10630" data-name="Trazado 10630" d="M6094.342,3058.983s-1.322,4.973-4.4,2.891,3.144-3.5,3.144-3.5-3.552-.61-2.887-3.83,4.222,2.249,4.222,2.249-2.106-3.33,1.178-4.934.784,3.634.784,3.634,2.021-1.611,3.452.265-2.663,2.655-2.663,2.655,3.574,2.322,1.593,4.51S6094.342,3058.983,6094.342,3058.983Z" transform="translate(-6088.533 -3051.008)" fill="#fff"/>
    <path id="Trazado_10631" data-name="Trazado 10631" d="M6096.885,3062.991a1.623,1.623,0,0,1-.291-.026c-1.332-.241-2.495-2.148-3.163-3.5a4.439,4.439,0,0,1-2.164,2.36,2.753,2.753,0,0,1-2.59-.451c-.838-.566-1.2-1.19-1.074-1.854.191-1.02,1.616-1.736,2.815-2.166a3.816,3.816,0,0,1-1.253-1.132,3.449,3.449,0,0,1-.461-2.738c.216-1.047.737-1.356,1.136-1.431.755-.143,1.646.526,2.415,1.338a3.41,3.41,0,0,1,.122-.746,3.575,3.575,0,0,1,2.023-2.227c.355-.174,1.436-.7,2.1-.038.628.623.359,1.954-.03,3.064a2.818,2.818,0,0,1,1.03-.072,2.649,2.649,0,0,1,1.807,1.1,1.609,1.609,0,0,1,.32,1.613,3.489,3.489,0,0,1-2.226,1.626,4.5,4.5,0,0,1,1.525,2.514,2.564,2.564,0,0,1-.72,2.112A1.762,1.762,0,0,1,6096.885,3062.991Zm-3.075-5.389.088.223c.63,1.583,1.944,3.889,2.892,4.061.142.025.339.016.611-.283a1.492,1.492,0,0,0,.445-1.234,4.475,4.475,0,0,0-1.929-2.448l-1.142-.742,1.338-.256c.882-.17,2.287-.677,2.5-1.228.023-.062.086-.224-.167-.556a1.577,1.577,0,0,0-1.065-.681,2.541,2.541,0,0,0-1.611.514l-1.84,1.442,1-2.108c.7-1.459,1.008-2.916.8-3.15h0c-.006,0-.21-.068-.851.245a2.525,2.525,0,0,0-1.45,1.54,3.8,3.8,0,0,0,.494,2.608l-.922.592c-1.084-1.665-2.495-3.1-2.961-3.013-.042.008-.172.127-.264.576a2.366,2.366,0,0,0,.293,1.9,3.727,3.727,0,0,0,2.148,1.28l.867.149.2-.741.332.832,1.31.225Zm-.932.212-.629.143c-1.633.372-3.458,1.169-3.568,1.763-.035.184.193.462.611.743a1.7,1.7,0,0,0,1.589.333c1.091-.408,1.8-2.24,1.978-2.911Z" transform="translate(-6087.58 -3050.052)"/>
  </g>
  <g id="Grupo_19324" data-name="Grupo 19324" transform="translate(0 190.982)">
    <path id="Trazado_10632" data-name="Trazado 10632" d="M5523.342,3071.984s-1.323,4.973-4.4,2.891,3.144-3.5,3.144-3.5-3.552-.61-2.887-3.83,4.222,2.25,4.222,2.25-2.107-3.331,1.178-4.934.784,3.634.784,3.634,2.021-1.611,3.452.265-2.663,2.655-2.663,2.655,3.575,2.322,1.592,4.51S5523.342,3071.984,5523.342,3071.984Z" transform="translate(-5517.532 -3064.008)" fill="#fff"/>
    <path id="Trazado_10633" data-name="Trazado 10633" d="M5525.885,3075.991a1.637,1.637,0,0,1-.291-.026c-1.332-.241-2.5-2.149-3.164-3.5a4.435,4.435,0,0,1-2.164,2.36,2.751,2.751,0,0,1-2.589-.452c-.837-.565-1.2-1.189-1.074-1.854.192-1.02,1.616-1.736,2.815-2.166a3.822,3.822,0,0,1-1.253-1.132,3.448,3.448,0,0,1-.461-2.738c.216-1.047.737-1.356,1.136-1.432.755-.143,1.646.526,2.415,1.338a3.417,3.417,0,0,1,.122-.747,3.574,3.574,0,0,1,2.023-2.226c.355-.174,1.435-.7,2.1-.038.629.623.36,1.954-.03,3.063a2.812,2.812,0,0,1,1.03-.072,2.652,2.652,0,0,1,1.808,1.1,1.609,1.609,0,0,1,.32,1.613,3.488,3.488,0,0,1-2.225,1.625,4.5,4.5,0,0,1,1.524,2.515,2.563,2.563,0,0,1-.72,2.112A1.761,1.761,0,0,1,5525.885,3075.991Zm-3.076-5.388.089.223c.63,1.583,1.943,3.889,2.892,4.06.142.026.339.017.61-.282a1.493,1.493,0,0,0,.445-1.235,4.476,4.476,0,0,0-1.929-2.448l-1.142-.742,1.337-.256c.883-.17,2.287-.677,2.5-1.228.023-.062.085-.224-.168-.556a1.579,1.579,0,0,0-1.065-.681,2.553,2.553,0,0,0-1.611.514l-1.84,1.442,1-2.108c.7-1.46,1.008-2.916.8-3.15h0c-.006,0-.21-.068-.851.245a2.527,2.527,0,0,0-1.45,1.54,3.793,3.793,0,0,0,.495,2.608l-.923.592c-1.084-1.666-2.494-3.1-2.961-3.013-.042.008-.172.127-.265.576a2.37,2.37,0,0,0,.293,1.9,3.727,3.727,0,0,0,2.149,1.28l.867.149.2-.741.332.832,1.309.225Zm-.931.212-.629.143c-1.633.372-3.457,1.169-3.568,1.763-.035.184.193.461.61.743a1.707,1.707,0,0,0,1.589.333c1.091-.408,1.8-2.239,1.978-2.911Z" transform="translate(-5516.58 -3063.052)"/>
  </g>
</svg>
