<svg xmlns="http://www.w3.org/2000/svg" width="396.488" height="341.001" viewBox="0 0 396.488 341.001"><defs><style>.a{fill:#fff;}.b{fill:#d60028;}</style></defs><g transform="translate(54.302 144.015)"><path d="M6327.573,5103.305s-50.214,15.372-80.738,50.528,83.664,98.321,83.664,98.321l15.553-21.947s-28.609-22.45-49.614-39.791c-34.963-28.866,111.116-67.667,111.116-67.667Z" transform="translate(-6241.649 -5103.305)"/><g transform="translate(84.568 125.939)"><path class="a" d="M6414.377,5331.735s13.675,5.105,15.326,7.94-12.36,15.014-14.64,24.977-12.829,25.334-17.675,28.373.646-8.1.2-14.649-1.451-29.378-1.451-29.378Z" transform="translate(-6394.542 -5330.773)"/><path d="M6395.419,5393.606a1.417,1.417,0,0,1-.846-.266c-1.2-.857-.668-3.115.214-6.852.692-2.937,1.476-6.266,1.3-8.825-.443-6.485-1.443-29.17-1.454-29.4l-.015-.381.275-.262,18.62-17.619.487.182c1.429.533,14,5.3,15.755,8.3.991,1.706-.921,4.307-4.994,9.562-3.724,4.806-8.357,10.786-9.556,16.02-2.376,10.384-13.142,25.82-18.043,28.893A3.543,3.543,0,0,1,6395.419,5393.606Zm.9-45.035c.134,3.014,1.024,22.977,1.434,28.98.191,2.809-.624,6.267-1.342,9.319-.431,1.827-1.01,4.283-.852,5.04a3.115,3.115,0,0,0,.722-.36c4.574-2.868,15.051-18.007,17.3-27.854,1.28-5.59,6.039-11.732,9.862-16.668,2.254-2.908,5.341-6.892,4.87-7.7-1.058-1.819-9.2-5.416-14.41-7.4Z" transform="translate(-6393.876 -5330.004)"/></g></g><g transform="translate(221.158 68.146)"><path d="M6586.729,4986.119s47.041-23.349,93.375-18.793,6.809,128.919,6.809,128.919l-26.383-5.251s5.35-35.969,8.688-63c5.555-45-127.217,27.222-127.217,27.222Z" transform="translate(-6542 -4966.736)"/></g><g transform="translate(104.102 99.051)"><path class="a" d="M6333.231,5056.074l64.188,177.642,96.52-35.195-62.971-174.275Z" transform="translate(-6332.155 -5023.204)"/><path d="M6396.058,5233.951l-.284-.786-64.48-178.45.818-.268,98.5-32.077.274.758,63.254,175.057Zm-62.613-178.185,63.612,176.046,94.955-34.623L6429.6,5024.454Z" transform="translate(-6331.294 -5022.37)"/><g transform="translate(18.135 32.585)"><g transform="translate(0 0)"><g transform="translate(0)"><line class="a" y1="10.503" x2="29.067" transform="translate(0.284 0.783)"/><rect width="30.906" height="1.667" transform="translate(0 10.501) rotate(-19.862)"/></g><g transform="translate(4.985 13.795)"><line class="a" y1="10.503" x2="29.067" transform="translate(0.283 0.783)"/><rect width="30.906" height="1.667" transform="translate(0 10.501) rotate(-19.862)"/></g></g><g transform="translate(9.969 27.589)"><g transform="translate(0 0)"><line class="a" y1="10.503" x2="29.067" transform="translate(0.284 0.783)"/><rect width="30.907" height="1.667" transform="translate(0 10.501) rotate(-19.862)"/></g><g transform="translate(4.985 13.795)"><line class="a" y1="10.503" x2="29.067" transform="translate(0.283 0.783)"/><rect width="30.907" height="1.667" transform="translate(0 10.501) rotate(-19.862)"/></g></g></g><g transform="translate(54.451 133.089)"><g transform="translate(0 0)"><g transform="translate(0)"><line class="a" y1="10.503" x2="29.067" transform="translate(0.283 0.783)"/><rect width="30.907" height="1.667" transform="translate(0 10.501) rotate(-19.862)"/></g><g transform="translate(4.984 13.795)"><line class="a" y1="10.503" x2="29.067" transform="translate(0.283 0.783)"/><rect width="30.906" height="1.667" transform="translate(0 10.501) rotate(-19.862)"/></g></g><g transform="translate(9.969 27.589)"><g transform="translate(0 0)"><line class="a" y1="10.503" x2="29.067" transform="translate(0.284 0.783)"/><rect width="30.907" height="1.667" transform="translate(0 10.501) rotate(-19.862)"/></g><g transform="translate(4.985 13.795)"><line class="a" y1="10.503" x2="29.067" transform="translate(0.283 0.783)"/><rect width="30.907" height="1.667" transform="translate(0 10.501) rotate(-19.862)"/></g></g></g><g transform="translate(77.486 73.522)"><g transform="translate(0 0)"><g transform="translate(0)"><line class="a" y1="10.503" x2="29.067" transform="translate(0.283 0.783)"/><rect width="30.906" height="1.667" transform="translate(0 10.501) rotate(-19.862)"/></g><g transform="translate(4.984 13.794)"><line class="a" y1="10.503" x2="29.067" transform="translate(0.284 0.783)"/><rect width="30.907" height="1.667" transform="translate(0 10.501) rotate(-19.862)"/></g></g><g transform="translate(9.969 27.589)"><g transform="translate(0 0)"><line class="a" y1="10.503" x2="29.067" transform="translate(0.283 0.783)"/><rect width="30.907" height="1.667" transform="translate(0 10.501) rotate(-19.862)"/></g><g transform="translate(4.984 13.795)"><line class="a" y1="10.503" x2="29.067" transform="translate(0.284 0.783)"/><rect width="30.906" height="1.667" transform="translate(0 10.501) rotate(-19.862)"/></g></g></g><g transform="translate(58.147 16.854)"><rect width="35.621" height="45.05" transform="translate(0 12.105) rotate(-19.867)"/></g><g transform="translate(35.359 86.357)"><rect width="35.621" height="36.669" transform="translate(0 12.105) rotate(-19.867)"/></g><g transform="translate(98.735 129.181)"><rect width="35.621" height="36.669" transform="translate(0 12.105) rotate(-19.867)"/></g></g><g transform="translate(210.544 56.728)"><path class="a" d="M6589.174,4966.921s-5.395,56.17-13.88,88.422-14.239,40.729-14.875,55.3-5.415,24.506-7.9,21.729-7.364-35.691-7.364-35.691-2.525-.609,3.426-11.523,5.821-77.669,1.072-84.148S6525.5,4948.5,6525.5,4948.5Z" transform="translate(-6524.053 -4947.214)"/><path d="M6552.291,5132.64a2.067,2.067,0,0,1-1.549-.742c-2.5-2.8-6.812-31.064-7.515-35.774a1.689,1.689,0,0,1-.366-.542c-.784-1.765.505-5.752,3.831-11.851,2.567-4.707,4.313-21.721,4.447-43.343.127-20.333-1.267-37.12-3.314-39.915-4.752-6.484-23.456-50.793-24.251-52.677l-.679-1.609,66.017,19.1-.066.688c-.054.562-5.5,56.606-13.9,88.555-3.542,13.461-6.581,22.708-9.024,30.138-3.4,10.352-5.457,16.6-5.825,24.984-.5,11.386-3.685,21.645-7.105,22.866A2.067,2.067,0,0,1,6552.291,5132.64Zm-7.916-37.755.365.088.082.556c1.873,12.628,5.473,33.37,7.161,35.257.216.241.331.2.444.16,1.8-.642,5.44-8.546,6-21.37.376-8.614,2.458-14.944,5.906-25.432,2.436-7.408,5.468-16.629,9-30.042,7.866-29.9,13.137-81.073,13.789-87.6l-61.328-17.742c3.483,8.2,19.239,45.083,23.376,50.729,2.666,3.638,3.749,23.168,3.637,40.91-.108,17.41-1.388,38.146-4.65,44.13C6543.831,5092.457,6544.237,5094.531,6544.375,5094.885Z" transform="translate(-6522.896 -4946.186)"/></g><g transform="translate(55.671 69.112)"><path class="a" d="M6321.014,5003.748s-34.808,22.3-39.314,37.354l46.306-3.332s-.695-17.129,4.6-20.093,2.35,11.989,6.431,18.948,9.839,11.756,2.689,13.491-48.961,14.557-76.376,13.811-21.423-25.687-10.485-49.885,43.683-44,43.683-44l19.479,2.925Z" transform="translate(-6244.808 -4969.172)"/><path d="M6267.045,5064.1q-1.222,0-2.411-.033c-8.666-.235-14.662-2.911-17.819-7.952-5.107-8.153-3.011-21.852,6.6-43.11,10.917-24.155,43.683-44.17,44.012-44.37l.257-.155,20.419,3.066,3.1,31.938-.429.274c-.336.216-32.829,21.163-38.562,35.729l44.245-3.184c-.084-3.752-.027-17.2,5.055-20.046a2.669,2.669,0,0,1,2.625-.249c1.741.913,2.033,3.989,2.438,8.245.371,3.918.794,8.36,2.493,11.257.911,1.553,1.932,3.034,2.833,4.34,2.212,3.208,3.961,5.742,3.167,7.824-.46,1.207-1.715,2.044-3.833,2.558-1,.243-2.747.721-4.957,1.327C6322.395,5055.36,6290.521,5064.1,6267.045,5064.1Zm30.987-93.882c-3.07,1.911-32.9,20.909-43.1,43.474-9.228,20.419-11.421,34.007-6.7,41.54,2.843,4.539,8.377,6.951,16.451,7.17,23.411.635,58.1-8.869,71.152-12.448,2.312-.633,3.981-1.091,5.005-1.339,1.525-.37,2.422-.886,2.669-1.533.481-1.263-1.2-3.7-2.981-6.284-.918-1.33-1.958-2.837-2.9-4.443-1.885-3.215-2.326-7.851-2.713-11.942-.287-3.015-.612-6.433-1.552-6.927-.271-.142-.714.045-1.039.227-3.978,2.225-4.366,14.709-4.178,19.333l.032.807-48.315,3.477.347-1.157c4.323-14.437,35.031-34.8,39.234-37.539L6316.567,4973Z" transform="translate(-6244.113 -4968.477)"/></g><g transform="translate(108.239 23.49)"><path class="a" d="M6470.616,4937.263l36.778,5.522s26.078-50.013-38.392-54.638-128.152,45.36-128.152,45.36,22.192,28.049,22.466,33.708l47.938-23.7Z" transform="translate(-6339.678 -4887.017)"/><path d="M6361.606,4967.864l-.061-1.271c-.216-4.422-16.16-25.488-22.287-33.23l-.519-.656.658-.517a257.589,257.589,0,0,1,40.043-24.505c21.971-10.92,55.186-23.432,88.683-21.03,20.834,1.493,34.531,7.864,40.713,18.935,9,16.121-1.2,36.078-1.641,36.919l-.275.527-37.263-5.595-59.108,6.226Zm-20.517-34.871c3.65,4.642,19.722,25.326,21.882,32.337l47.107-23.288.148-.017,59.469-6.264,36.279,5.448c1.544-3.262,9.185-20.891,1.4-34.815-5.894-10.545-19.14-16.627-39.373-18.078-33.117-2.376-66.036,10.033-87.822,20.861A261.234,261.234,0,0,0,6341.09,4932.993Z" transform="translate(-6338.74 -4886.354)"/></g><g transform="translate(142.84 87.175)"><path class="b" d="M6415.462,5001.625s-14.257,5.162-13.931,25.435,16.531,39.558,24.661,45.273,25.713-2.881,25.713-2.881l-11.591-16.346s-4.807,2.086-5.77,4.751-7.2,6.785-12.8-.8-10.215-21.758-11.505-28.131,6.649-6.866,8.6-4.888,6.125.359,6.125.359Z" transform="translate(-6401.247 -5001.273)"/><path class="b" d="M6433.443,5074.306a13.14,13.14,0,0,1-7.634-2.028c-8.481-5.961-24.456-25.426-24.779-45.5-.327-20.237,13.969-25.648,14.114-25.7l.25-.09,9.712,23.28-.266.1c-.178.068-4.369,1.663-6.425-.422-1.024-1.04-3.98-1.379-6.115-.246-1.235.658-2.588,2.04-2.012,4.884,1.216,6.011,5.827,20.4,11.455,28.021,2.915,3.943,5.8,4.438,7.7,4.16a6.021,6.021,0,0,0,4.614-3.29c.991-2.747,5.72-4.825,5.921-4.913l.207-.089,11.91,16.8-.293.143C6451.264,5069.685,6441.682,5074.305,6433.443,5074.306Zm-18.355-72.6c-1.872.81-13.8,6.705-13.5,25.068.32,19.87,16.144,39.146,24.543,45.051,7.333,5.153,22.8-1.681,25.134-2.763L6440,5053.173c-.915.429-4.615,2.282-5.415,4.5a6.517,6.517,0,0,1-5.057,3.651c-2.056.3-5.152-.216-8.228-4.379-5.485-7.423-10.137-21.239-11.554-28.24-.5-2.482.313-4.43,2.3-5.484,2.375-1.265,5.591-.852,6.771.346,1.525,1.547,4.627.693,5.559.387Z" transform="translate(-6401.024 -5000.992)"/></g><g transform="translate(117.657)"><path d="M6484.654,4914.363c-1.936-5.75-5.777-11.3-3.669-16.808.644-1.681,1.817-3.168,2.13-4.942.809-4.585-4.335-8.416-4.177-13.07.171-5.012,6.419-8.979,4.961-13.776a7.247,7.247,0,0,0-2.353-3.249c-10.6-9.127-28.781-.516-40.182-8.621-2.685-1.909-4.736-4.611-7.453-6.472-4.424-3.031-10.1-3.509-15.46-3.315-17.422.626-36,8.906-42.709,25-2.734,6.562-3.7,14.518-9.389,18.778-1.627,1.219-3.552,2.039-5.016,3.45s-2.36,3.754-1.3,5.485c.677,1.1,1.99,1.708,2.618,2.837,1.12,2.018-.463,4.487-2.242,5.956s-3.981,2.791-4.575,5.022c-1.174,4.417,4.733,7.345,9.3,7.2s9.939-1.167,13.055,2.177c3.039,3.261,2.3,9.356,6.189,11.544a14.777,14.777,0,0,0,4.365,1.127,14.6,14.6,0,0,1,10.128,8.539c.289.991.594,1.983.924,2.978a13,13,0,0,1,.2,3.483l.956-.227c4.395,11.652,11.542,22.848,20.914,28.333,18.074,10.579,46.066,7.479,63.21-16.911C6495.92,4943.467,6492.236,4927.674,6484.654,4914.363Z" transform="translate(-6355.693 -4844.071)"/></g><g transform="translate(184.511 151.688)"><path class="b" d="M6585.357,5226.3a38.112,38.112,0,0,1-13.6-4.462c-2.062-1.148-4.949-3.025-6.218-6.069a7.036,7.036,0,0,1-.512-2.33c-2.793-.633-4.241-3.724-3.876-6.291a4.423,4.423,0,0,1-1.823-.482,3.633,3.633,0,0,1-1.678-1.808c-.266.083-.54.153-.824.212-2.767.569-6.339-.166-8.081-3.084a7.844,7.844,0,0,1-.964-5.32,5.452,5.452,0,0,1-1.146-.8,5.8,5.8,0,0,1-1.942-4.339,6.314,6.314,0,0,1,.328-1.871c-.271.032-.548.053-.826.062a8.476,8.476,0,0,1-9.056-9.267,9.984,9.984,0,0,1,.128-1.116,8.5,8.5,0,0,1-4.017-2.313c-2.472-.078-4.409-2.024-5.364-3.791a7.766,7.766,0,0,1-.86-2.682c-2.307-.707-4.481-1.709-5.792-3.72a5.168,5.168,0,0,1-.788-2.857,8.012,8.012,0,0,1-3.491-.52c-2.915-1.153-5.019-3.673-6.71-5.7l-.271-.325.014-.423c0-.03,0-.06,0-.089a7.773,7.773,0,0,1-1.128-.093,5.625,5.625,0,0,1-4.642-3.794,4.807,4.807,0,0,1-.192-1.163,6.249,6.249,0,0,1-2.33-.663c-2.39-1.219-3.028-4.237-2.414-6.456l.014-.053c-.149-.049-.3-.1-.447-.167a4.54,4.54,0,0,1-2.874-3.309,6.541,6.541,0,0,1-5.086-3.977,7.442,7.442,0,0,1-.729-3.571,3.591,3.591,0,0,1-1.931-.439,3.756,3.756,0,0,1-1.829-2.727,4.242,4.242,0,0,1-.052-.8,4.328,4.328,0,0,1-2.422-1.146,4.063,4.063,0,0,1-1.453-3.155,5.591,5.591,0,0,1-3.475-2.541,5.237,5.237,0,0,1-.2-5.749l1.855,1.223a3.46,3.46,0,0,0,3.15,4.924l2.6-.395-1.536,2.14c-.484.676.116,1.516.546,1.906s1.327.9,1.95.354l1.554,1.584a1.532,1.532,0,0,0,1.742,2.466c.062-.026.122-.054.18-.085a5.357,5.357,0,0,1,1.081-1.388l2.913-2.679-1.093,3.8a3.581,3.581,0,0,1-1.141,1.742,4.859,4.859,0,0,0,.3,3.6c.655,1.4,2.1,2.958,4.04,2.7l1.538-.2-.3,1.522c-.194.966.631,1.781,1.533,2.159a3.281,3.281,0,0,0,.7.206,3.6,3.6,0,0,1,2.91-1.111l1.931.132-1.086,1.6a3.757,3.757,0,0,1-2.587,1.6,3.506,3.506,0,0,0-.152.434c-.376,1.362.006,3.234,1.284,3.885a4.206,4.206,0,0,0,1.705.448,6.386,6.386,0,0,1,1.655-2.346,5.623,5.623,0,0,1,5.854-1.291l1.4.564-.955,1.17a11.422,11.422,0,0,1-6.126,3.938,2.656,2.656,0,0,0,.109.694,3.471,3.471,0,0,0,2.875,2.229,4.384,4.384,0,0,0,1.644-.036,4.247,4.247,0,0,1,2.479-1.586l2.761-.57-1.629,2.3a5,5,0,0,1-2.136,1.706,1.89,1.89,0,0,0-.085.257c1.533,1.829,3.274,3.8,5.509,4.683a5.836,5.836,0,0,0,3.173.29,4.905,4.905,0,0,1,.259-.5,3.725,3.725,0,0,1,3.52-1.993l1.644.114-.721,1.481a5.493,5.493,0,0,1-2.931,2.675,3.147,3.147,0,0,0,.379,2.163,7.311,7.311,0,0,0,4.029,2.635,4.449,4.449,0,0,1,1.671-2.612,3.808,3.808,0,0,1,4.855.631,2.783,2.783,0,0,1,.46,3.749c-1.212,1.647-3.4,1.439-4.685,1.171a5.521,5.521,0,0,0,.416.985,5.4,5.4,0,0,0,2.434,2.379,6.306,6.306,0,0,1,3.2-4.208l.738-.38.574.6a3.36,3.36,0,0,1,.631,3.551,4.585,4.585,0,0,1-1.618,2.141,4.434,4.434,0,0,0,2.105.928,8.346,8.346,0,0,1,2.37-3.154l1.111-.9.6,1.3a3.094,3.094,0,0,1-.354,3.124,4.467,4.467,0,0,1-2.052,1.584,7.478,7.478,0,0,0-.223,1.441,6.26,6.26,0,0,0,6.759,6.917,7.3,7.3,0,0,0,2.524-.533,8.708,8.708,0,0,1,2.729-1.964l4.574-2.114-3.261,3.841a8.2,8.2,0,0,1-2.666,2.052,4.721,4.721,0,0,0-1.066,2.319,4.8,4.8,0,0,1,1.639-1.5,3.835,3.835,0,0,1,3.946-.084,9.25,9.25,0,0,1,2.152-1.01l.949-.3.4.912a6.411,6.411,0,0,1-2.24,7.962,5.123,5.123,0,0,1-3.887.48,5.543,5.543,0,0,0,.74,3.288c1.176,1.974,3.8,2.443,5.725,2.047a5.939,5.939,0,0,0,.892-.259,5.171,5.171,0,0,1,.188-1.119,3.5,3.5,0,0,1,3.637-2.8l1.16.1-.154,1.154a5.66,5.66,0,0,1-2.452,3.921,1.5,1.5,0,0,0,.693.8,2.338,2.338,0,0,0,1.542.193,11.163,11.163,0,0,1,3.464-3.824l2.189-1.571-.445,2.658a6.246,6.246,0,0,1-3.358,4.427c-.065.032-.13.063-.195.093a4.869,4.869,0,0,0-.179.729,3.555,3.555,0,0,0,1.889,3.8,5.522,5.522,0,0,1,3.1-3.839l.942-.4.478.907a3.556,3.556,0,0,1-.455,3.864,4.639,4.639,0,0,1-2.082,1.55,4.868,4.868,0,0,0,.356,1.643c.762,1.83,2.43,3.413,5.247,4.981a35.855,35.855,0,0,0,12.8,4.2Zm-33.4-33.395a8.592,8.592,0,0,0-1.258,1.881,2.562,2.562,0,0,0,1.179-1.508A2.522,2.522,0,0,0,6551.955,5192.908Zm-1.5-1.651a2.441,2.441,0,0,0-.777.279,2.125,2.125,0,0,0-1.192,2,1.909,1.909,0,0,0,.131.442A10.821,10.821,0,0,1,6550.459,5191.257Zm3.5-.006a4.044,4.044,0,0,1,.206,1.924,4.6,4.6,0,0,0,.151-2.119Q6554.134,5191.149,6553.958,5191.25Zm-20.571-18.057a4.1,4.1,0,0,0-.719,1.14,2.4,2.4,0,0,0,.667-.969C6533.352,5173.315,6533.37,5173.258,6533.386,5173.194Zm-6.13-4.323.021.007c1.627.42,2.651.364,3.044-.17.175-.237.095-.525-.239-.857a1.689,1.689,0,0,0-1.962-.422A2.343,2.343,0,0,0,6527.256,5168.871Zm-20.654-20.594a4.5,4.5,0,0,0-.8.5A9.121,9.121,0,0,0,6506.6,5148.277Z" transform="translate(-6476.033 -5117.117)"/></g><g transform="translate(333.129 191.57)"><path class="a" d="M6750.773,5190.408s-6.424,13.107-5.674,16.3,19.3,2.41,27.8,8.08,26.732,9.584,32.339,8.46-6.033-5.438-10.211-10.5-19.14-22.338-19.14-22.338Z" transform="translate(-6744.214 -5189.575)"/><path d="M6802.215,5223.6c-7.393,0-22.627-3.579-30.437-8.785-4.467-2.978-11.943-4.137-17.951-5.069-6.569-1.019-9.748-1.593-10.2-3.513-.8-3.385,5.066-15.49,5.737-16.858l.229-.466h26.015l.25.287c.15.173,15.014,17.339,19.152,22.353,1.632,1.979,4.489,3.857,7.01,5.514,3.21,2.11,5.146,3.383,4.866,4.831-.2,1-1.316,1.34-2.142,1.506A13.349,13.349,0,0,1,6802.215,5223.6Zm-51.579-33.025c-2.427,5.023-5.866,13.228-5.384,15.276.214.913,5.2,1.684,8.832,2.248,6.168.957,13.848,2.147,18.62,5.329,8.4,5.6,26.421,9.4,31.713,8.337a3.1,3.1,0,0,0,.772-.234c-.405-.659-2.514-2.044-4.083-3.076-2.62-1.722-5.588-3.674-7.381-5.847-3.828-4.641-16.9-19.754-18.876-22.034Z" transform="translate(-6743.555 -5188.908)"/></g><g transform="translate(268.958 243.996)"><path class="b" d="M6665.337,5288.235c2.838-2.252,5.9-4.6,9.507-4.918,5.294-.469,9.817,3.471,13.857,6.924a135.294,135.294,0,0,0,36.764,22.4c3.433,1.4,7.249,2.947,8.838,6.3,2.609,5.5-2.355,11.429-6.883,15.491l-22.057,19.794c-5.207,4.672-10.822,9.546-17.731,10.647-9.6,1.53-18.574-4.573-26.379-10.366l-24.7-18.329c-3.331-2.471-7.2-5.61-8.267-9.824-1.25-4.932,2.536-8.268,5.544-11.569,4.858-5.331,10.31-9.721,15.951-14.2Q6657.562,5294.408,6665.337,5288.235Z" transform="translate(-6628.044 -5283.279)"/></g><g transform="translate(274.271 284.126)"><path d="M6690.026,5382.986a3.811,3.811,0,0,1-1.271-.2,2.528,2.528,0,0,1-1.668-1.794l-.027-.108v-.11a8.967,8.967,0,0,1,4.282-7.339,36.072,36.072,0,0,0-13.472-7.384c-1.677-.5-3.427-.905-5.119-1.292-1.441-.329-2.93-.671-4.386-1.077-2.653-.74-5.259-1.713-7.781-2.653-2.37-.885-4.82-1.8-7.276-2.5-5.932-1.7-11.016-1.782-15.109-.229l-.591-1.558c4.438-1.683,9.874-1.622,16.161.186,2.517.724,5,1.65,7.4,2.545,2.488.928,5.061,1.888,7.645,2.608,1.419.4,2.889.733,4.312,1.06,1.719.393,3.5.8,5.226,1.32a37.493,37.493,0,0,1,15.018,8.575l.935.889-1.194.487a7.224,7.224,0,0,0-4.377,6.274.863.863,0,0,0,.582.536,3.5,3.5,0,0,0,2.865-.6c.333-.25.662-.53,1.011-.827,1.205-1.025,2.566-2.183,4.356-2.1a6.433,6.433,0,0,1,2.43.763l6.2,2.95-.716,1.505-6.2-2.95a5.012,5.012,0,0,0-1.794-.6c-1.117-.058-2.131.8-3.194,1.706-.354.3-.719.611-1.095.893A5.451,5.451,0,0,1,6690.026,5382.986Z" transform="translate(-6637.609 -5355.517)"/></g><g transform="translate(297.601 258.036)"><path d="M6694.583,5335.455a15.626,15.626,0,0,1-4.62-.693,14.975,14.975,0,0,1-9.307-8.127,12.722,12.722,0,0,1,1.163-12.27,13.3,13.3,0,0,1,9.015-5.2,16.793,16.793,0,0,1,5.293.135l-.059-.713a12.762,12.762,0,0,1,12.6,8.274,14.029,14.029,0,0,1-3.773,14.707A15.315,15.315,0,0,1,6694.583,5335.455Zm-1.57-24.771a14.228,14.228,0,0,0-1.951.132,11.632,11.632,0,0,0-7.891,4.522,11.025,11.025,0,0,0-.985,10.634,13.292,13.292,0,0,0,8.27,7.2,13.9,13.9,0,0,0,13.311-2.829,12.326,12.326,0,0,0,3.334-12.914,11.2,11.2,0,0,0-6.138-6.38l-.607,1.329A17.8,17.8,0,0,0,6693.012,5310.685Z" transform="translate(-6679.603 -5308.553)"/></g><g transform="translate(359.147 278.929)"><path d="M6794.037,5351.2a3.5,3.5,0,0,1-3.139-2.021l.208-.094-.717-.615a6.712,6.712,0,0,1,4.352-2.285,2.38,2.38,0,0,1,2.416.937,2.178,2.178,0,0,1,.035,2.011,3.494,3.494,0,0,1-3.132,2.067Zm-1.481-2.463a1.869,1.869,0,0,0,1.481.8h.011a1.855,1.855,0,0,0,1.617-1.066.654.654,0,0,0,.064-.485c-.053-.088-.339-.189-.814-.139A5.009,5.009,0,0,0,6792.556,5348.735Z" transform="translate(-6790.39 -5346.162)"/></g><g transform="translate(361.165 279.96)"><rect width="2.569" height="1.666" transform="matrix(0.994, -0.105, 0.105, 0.994, 0, 0.27)"/></g><g transform="translate(331.802 299.151)"><path d="M6744.856,5387.955a3.094,3.094,0,0,1-2.591-1.514l-1.1-.964a16.568,16.568,0,0,1,3.116-2.757l.231-.158.28.014a2.83,2.83,0,0,1,1.553,4.875A2.39,2.39,0,0,1,6744.856,5387.955Zm-1.243-2.591a1.2,1.2,0,0,0,.573.719.861.861,0,0,0,1.341-1.055,1.182,1.182,0,0,0-.586-.734A14.721,14.721,0,0,0,6743.613,5385.364Z" transform="translate(-6741.167 -5382.562)"/></g><g transform="translate(301.98 263.249)"><path d="M6688.825,5320.793a3.65,3.65,0,0,1-.649-.059l-.512-.092-.141-.5a1.02,1.02,0,0,1,.314-1.044,1.106,1.106,0,0,1,.268-.176l.262-.986a2.988,2.988,0,0,1,1.905,1.579l.438.917-.984.251A3.677,3.677,0,0,1,6688.825,5320.793Zm-.314-.917-.235.569a.641.641,0,0,0,.669-.1.617.617,0,0,0,.177-.278l-.355.168A1.288,1.288,0,0,0,6688.511,5319.876Z" transform="translate(-6687.484 -5317.935)"/></g><g transform="translate(308.162 261.564)"><path d="M6700.085,5317.22c-.059,0-.117,0-.178-.009a1.4,1.4,0,0,1-1.293-1.243l.5-.038-.221-.96a2.727,2.727,0,0,1,2.422.635l1,.913-1.266.481A2.674,2.674,0,0,1,6700.085,5317.22Z" transform="translate(-6698.613 -5314.903)"/></g><g transform="translate(314.829 262.177)"><path d="M6712.32,5318.842a1.65,1.65,0,0,1-.31-.029,1.775,1.775,0,0,1-1.306-2.275l1.061.371.208-.9,2.135.494-.034.694a1.727,1.727,0,0,1-.675,1.266A1.761,1.761,0,0,1,6712.32,5318.842Zm-.039-1.766Z" transform="translate(-6710.614 -5316.007)"/></g><g transform="translate(319.76 265.068)"><path d="M6721.229,5324.167a1.723,1.723,0,0,1-1.739-1.062l1.416-.521-1.349-.125a1.439,1.439,0,0,1,1.605-1.242,2.608,2.608,0,0,1,1.259.542,1.248,1.248,0,0,1,.612,1.51,1.286,1.286,0,0,1-.84.733A3.019,3.019,0,0,1,6721.229,5324.167Z" transform="translate(-6719.49 -5321.21)"/></g><g transform="translate(319.957 270.818)"><path d="M6721.538,5334.9a1.68,1.68,0,0,1-1.288-.591,2.039,2.039,0,0,1-.069-2.345l.534.333.018-.734a2.743,2.743,0,0,1,1.61.47,1.684,1.684,0,0,1,.526,2.125,1.562,1.562,0,0,1-1.331.742Z" transform="translate(-6719.844 -5331.56)"/></g><g transform="translate(316.698 276.733)"><path d="M6715.892,5345.4a1.95,1.95,0,0,1-1.644-.859,1.707,1.707,0,0,1,.4-2.279l.092.128-.015-.083a3.058,3.058,0,0,1,1.825.1,1.774,1.774,0,0,1,.962,1.151,1.423,1.423,0,0,1-.231,1.22,1.628,1.628,0,0,1-1.1.6A2.167,2.167,0,0,1,6715.892,5345.4Z" transform="translate(-6713.979 -5342.208)"/></g><g transform="translate(310.132 279.049)"><path d="M6703.757,5349.354a1.407,1.407,0,0,1-.41-.06,1.653,1.653,0,0,1-1.063-.987,2.772,2.772,0,0,1,.043-1.72l.016,0-.005-.208a3.209,3.209,0,0,1,1.634.27,1.68,1.68,0,0,1,.836,2.121l-.089.2-.172.127A1.312,1.312,0,0,1,6703.757,5349.354Z" transform="translate(-6702.16 -5346.376)"/></g><g transform="translate(303.802 276.394)"><path d="M6691.949,5344.655a1.1,1.1,0,0,1-.728-.271,1.348,1.348,0,0,1-.427-.942,5.428,5.428,0,0,1,.035-1.225l-.064-.37.135-.021c.017-.078.035-.154.055-.23l.861.228a3.417,3.417,0,0,1,.789.2l.385.148.115.4a1.909,1.909,0,0,1,.031,1.254,1.307,1.307,0,0,1-.891.794A1.249,1.249,0,0,1,6691.949,5344.655Z" transform="translate(-6690.765 -5341.596)"/></g><g transform="translate(300.943 271.647)"><path d="M6688.049,5336.9a2.226,2.226,0,0,1-1.792-1,4.566,4.566,0,0,1-.638-1.843l1.016-.185.045-.819,1.177.062a1.272,1.272,0,0,1,1.307,1.438l-.005,2.079-.583.183A1.738,1.738,0,0,1,6688.049,5336.9Zm-.21-2.111Z" transform="translate(-6685.619 -5333.053)"/></g><g transform="translate(301.029 267.618)"><path d="M6687.284,5328.951a1.487,1.487,0,0,1-.678-.162,1.627,1.627,0,0,1-.206-2.7l.865,1.2h0c.007,0-.013.038-.013.09a.164.164,0,0,0,.028.1s.039,0,.086-.029l-.035-.07.046.063a.17.17,0,0,0,.064-.081.549.549,0,0,0-.075-.052.185.185,0,0,0-.082-.022l-.677-1.323a1.571,1.571,0,0,1,1.535,2.741A1.644,1.644,0,0,1,6687.284,5328.951Z" transform="translate(-6685.774 -5325.799)"/></g><g transform="translate(356.39 278.088)"><path d="M6788.188,5354.709a2.713,2.713,0,0,1-2.464-1.107,2.883,2.883,0,0,1-.282-1.656c.126-2.409.271-4.865.429-7.3l1.664.108c-.158,2.426-.3,4.875-.426,7.277a1.662,1.662,0,0,0,.056.73c.066.114.323.293,1.249.276,2.617-.068,5.566-.37,7.617-2.091l1.072,1.277c-2.444,2.051-5.742,2.405-8.645,2.479C6788.381,5354.707,6788.291,5354.709,6788.188,5354.709Z" transform="translate(-6785.429 -5344.647)"/></g><g transform="translate(0 233.993)"><g transform="translate(0 0)"><rect class="a" width="63.711" height="90.054" transform="translate(1.165 52.491) rotate(-53.669)"/><path d="M6217.794,5372.28l-73.892-54.34,38.733-52.668,73.891,54.339Zm-71.561-54.7,71.206,52.365,36.757-49.983-71.2-52.365Z" transform="translate(-6143.902 -5265.272)"/><g transform="translate(18.758 17.26)"><rect class="a" width="44.972" height="66.22" transform="translate(1.165 37.395) rotate(-53.669)"/><path d="M6232.357,5374.134l-54.688-40.219,27.63-37.573,54.69,40.219ZM6180,5333.56,6232,5371.8l25.655-34.889-52-38.243Z" transform="translate(-6177.669 -5296.342)"/></g><g transform="translate(21.885 27.031)"><circle class="a" cx="3.536" cy="3.536" r="3.536" transform="translate(0.832 0.832)"/><path d="M6187.658,5322.664a4.368,4.368,0,1,1,2.595-7.887h0a4.367,4.367,0,0,1-2.595,7.887Zm.009-7.067a2.7,2.7,0,1,0,1.6.524h0A2.686,2.686,0,0,0,6187.667,5315.6Z" transform="translate(-6183.296 -5313.93)"/></g></g><g transform="translate(63.412 52.211)"><g transform="translate(18.979)"><g transform="translate(2.399)"><path d="M6302.121,5364.7l-.444-.334,1-1.328-4.239-3.126a.679.679,0,0,0-.171-.1.416.416,0,0,0-.074.084l-1.217,1.658-.447-.329,1.216-1.658a.644.644,0,0,1,.616-.3.978.978,0,0,1,.407.2l4.691,3.459Z" transform="translate(-6296.53 -5359.255)"/></g><g transform="translate(5.597 2.183)"><path d="M6302.733,5364.828l-.447-.33.965-1.312.448.33Z" transform="translate(-6302.286 -5363.186)"/></g><g transform="translate(0 2.931)"><path d="M6299.239,5368.573a11.675,11.675,0,0,0-2.608-1.606,11.952,11.952,0,0,1-2.73-1.693,5.865,5.865,0,0,0-1.209,1.457l-.479-.282a6.433,6.433,0,0,1,1.525-1.763l.193-.155.176.174a10.6,10.6,0,0,0,2.773,1.766,12.054,12.054,0,0,1,2.729,1.689Z" transform="translate(-6292.212 -5364.53)"/></g></g><g transform="translate(16.273 6.941)"><path d="M6292.933,5377.193l-.445-.334,1-1.327-4.24-3.125a.667.667,0,0,0-.17-.1s-.023.014-.075.083l-1.216,1.659-.448-.329,1.216-1.657a.645.645,0,0,1,.617-.3.986.986,0,0,1,.408.2l4.691,3.456Z" transform="translate(-6287.341 -5371.749)"/><g transform="translate(3.198 2.184)"><rect width="1.629" height="0.555" transform="translate(0 1.312) rotate(-53.668)"/></g></g><g transform="translate(10.383 14.95)"><path d="M6282.33,5391.612l-.444-.335,1-1.327-4.24-3.125a.648.648,0,0,0-.172-.1.5.5,0,0,0-.074.085l-1.216,1.657-.448-.328,1.217-1.657a.636.636,0,0,1,.615-.3.991.991,0,0,1,.407.2l4.693,3.459Z" transform="translate(-6276.738 -5386.167)"/><g transform="translate(3.199 2.184)"><rect width="1.629" height="0.555" transform="matrix(0.592, -0.806, 0.806, 0.592, 0, 1.313)"/></g></g><g transform="translate(14.726 9.704)"><path d="M6289.434,5381.746a.775.775,0,0,1-.209-.026.605.605,0,0,1-.385-.3l.488-.262a.054.054,0,0,0,.042.029.659.659,0,0,0,.43-.109c.18-.11.279-.216.288-.306a.416.416,0,0,0-.213-.3,2.675,2.675,0,0,0-1.6-.3,7.105,7.105,0,0,1-1.009-.049,4.183,4.183,0,0,1-1.6-.631,2.45,2.45,0,0,1-.986-1.01,1.319,1.319,0,0,1,.2-1.439,1.113,1.113,0,0,1,.8-.315.909.909,0,0,1,.687.318l-.424.357a.374.374,0,0,0-.28-.12.443.443,0,0,0-.381.145.783.783,0,0,0-.1.83,1.951,1.951,0,0,0,.773.764,3.632,3.632,0,0,0,1.387.554,6.18,6.18,0,0,0,.924.042,3.125,3.125,0,0,1,1.921.4.911.911,0,0,1,.449.8.978.978,0,0,1-.552.736A1.328,1.328,0,0,1,6289.434,5381.746Z" transform="translate(-6284.554 -5376.724)"/></g><g transform="translate(13.418 11.997)"><path d="M6286.536,5386.149a1.55,1.55,0,0,1-.917-.416,2.434,2.434,0,0,1-.494-.481,1.991,1.991,0,0,1-.122-1.758l.531.166a1.534,1.534,0,0,0,.045,1.274,1.909,1.909,0,0,0,.384.363.97.97,0,0,0,.6.293c.2-.018.383-.232.5-.392l.123-.159c.056-.07.107-.136.156-.2l-5-3.421h0l-.154-.106.314-.458,5.577,3.821-.123.22a3.405,3.405,0,0,1-.339.491l-.118.15a1.352,1.352,0,0,1-.9.611C6286.59,5386.147,6286.563,5386.149,6286.536,5386.149Z" transform="translate(-6282.2 -5380.851)"/></g><g transform="translate(9.063 17.839)"><path d="M6279.027,5396.047a3.267,3.267,0,0,1-.685-.094l.116-.544a2.144,2.144,0,0,0,.706.073.539.539,0,0,0,.429-.262.528.528,0,0,0-.057-.458,1.9,1.9,0,0,0-.434-.47c-.7-.6-1.464-1.146-2.206-1.674a3.41,3.41,0,0,0-1.312-.68.711.711,0,0,0-.547.1.383.383,0,0,0-.119.275.626.626,0,0,0,.16.446l-.408.378a1.187,1.187,0,0,1-.308-.853.935.935,0,0,1,.307-.664,1.2,1.2,0,0,1,1.008-.227,3.87,3.87,0,0,1,1.527.766c.764.546,1.541,1.1,2.258,1.714a2.4,2.4,0,0,1,.556.618,1.071,1.071,0,0,1,.079.961,1.086,1.086,0,0,1-.862.584A1.6,1.6,0,0,1,6279.027,5396.047Z" transform="translate(-6274.361 -5391.366)"/></g><g transform="translate(12.217 23.091)"><rect width="1.974" height="0.555" transform="matrix(0.592, -0.806, 0.806, 0.592, 0, 1.592)"/></g><g transform="translate(7.377 20.045)"><path d="M6276.932,5399.479a37.863,37.863,0,0,1-5.606-3.709l.346-.434a37.431,37.431,0,0,0,5.524,3.654Z" transform="translate(-6271.326 -5395.337)"/></g><g transform="translate(5.022 21.694)"><path d="M6273.2,5403.192a1.655,1.655,0,0,1-.478-.088,32.1,32.1,0,0,1-5.635-2.554l.262-.49a36.2,36.2,0,0,0,4.826,2.277c-1.362-1.152-2.686-2.373-3.943-3.64l.394-.391a61.312,61.312,0,0,0,4.85,4.385l.486.395-.619.1A.867.867,0,0,1,6273.2,5403.192Z" transform="translate(-6267.088 -5398.307)"/><g transform="translate(1.571 1.765)"><path d="M6270.311,5402.955l-.4-.39,1.073-1.083.208.185.186.207Z" transform="translate(-6269.916 -5401.481)"/></g></g><g transform="translate(4.216 24.285)"><path d="M6270.708,5407.6a3.751,3.751,0,0,1-.921-.142,6.053,6.053,0,0,1-1.773-.9l-1.251-.827a2.942,2.942,0,0,1-.723-.6,1.966,1.966,0,0,1-.337-1.252c0-.115-.007-.229-.017-.346l-.049-.564.477.308c.862.555,1.734,1.1,2.607,1.64l3.313,2.058-.274.248A1.5,1.5,0,0,1,6270.708,5407.6Zm-4.442-3.569a1.245,1.245,0,0,0,.21.752,2.516,2.516,0,0,0,.593.482l1.251.826a5.594,5.594,0,0,0,1.606.829,2.174,2.174,0,0,0,1.1.083l-2.562-1.591C6267.712,5404.944,6266.983,5404.492,6266.266,5404.035Z" transform="translate(-6265.637 -5402.97)"/></g><g transform="translate(2.023 26.561)"><path d="M6266.578,5412.08h-.012a2.5,2.5,0,0,1-1.385-.577l-2.754-1.917a1.649,1.649,0,0,1-.646-.681,1.62,1.62,0,0,1-.027-.994,2.615,2.615,0,0,1,.14-.488.572.572,0,0,1,.651-.351,3.634,3.634,0,0,1,1.527.673l.163.1c.405.253.8.534,1.177.807.361.259.735.526,1.114.767.068.044.144.087.228.136.468.269,1.176.676,1.133,1.409h0A1.307,1.307,0,0,1,6266.578,5412.08Zm-4.144-4.458a.2.2,0,0,0-.029,0,2.68,2.68,0,0,0-.1.358,1.156,1.156,0,0,0-.014.7,1.188,1.188,0,0,0,.452.443l2.754,1.917a2,2,0,0,0,1.073.478.75.75,0,0,0,.76-.59c.023-.391-.463-.671-.854-.895-.091-.053-.176-.1-.25-.147-.392-.249-.771-.521-1.14-.785s-.758-.542-1.15-.789l-.166-.105a3.218,3.218,0,0,0-1.285-.588Z" transform="translate(-6261.688 -5407.066)"/></g><g transform="translate(0 28.73)"><path d="M6263.555,5416.075a1.472,1.472,0,0,1-1.394-1.055,2.556,2.556,0,0,1-.054-.82c0-.1.009-.2.009-.292a5.453,5.453,0,0,1-1.686-.2c-.267-.075-.532-.171-.795-.268a4.958,4.958,0,0,0-1.582-.381l-.005-.555h.021a5.118,5.118,0,0,1,1.756.415c.25.092.5.184.754.254a4.959,4.959,0,0,0,1.259.183q-1.368-.928-2.66-1.948l.344-.436a45.091,45.091,0,0,0,5.315,3.613l.167.1-.031.188a1.47,1.47,0,0,1-1.347,1.2Zm-.884-2.168c0,.108,0,.214-.009.318a2.087,2.087,0,0,0,.034.647.885.885,0,0,0,1.678.085Q6263.511,5414.45,6262.671,5413.907Z" transform="translate(-6258.048 -5410.971)"/></g><g transform="translate(7.584 4.81)"><rect class="b" width="37.323" height="1.112" transform="matrix(0.599, -0.8, 0.8, 0.599, 0, 29.876)"/></g></g><g transform="translate(71.464 47.483)"><line class="a" x1="8.379" y2="11.394" transform="translate(0.449 0.328)"/><rect width="14.144" height="1.111" transform="translate(0 11.393) rotate(-53.656)"/></g><g transform="translate(67.005 44.204)"><line class="a" x1="8.379" y2="11.394" transform="translate(0.449 0.328)"/><rect width="14.143" height="1.111" transform="translate(0 11.392) rotate(-53.656)"/></g><g transform="translate(62.546 40.925)"><line class="a" x1="8.379" y2="11.394" transform="translate(0.449 0.328)"/><rect width="14.144" height="1.111" transform="translate(0 11.392) rotate(-53.656)"/></g><g transform="translate(58.087 37.646)"><line class="a" x1="8.379" y2="11.394" transform="translate(0.449 0.328)"/><rect width="14.144" height="1.111" transform="translate(0 11.392) rotate(-53.656)"/></g><g transform="translate(53.628 34.367)"><line class="a" x1="8.379" y2="11.394" transform="translate(0.449 0.328)"/><rect width="14.143" height="1.111" transform="translate(0 11.392) rotate(-53.656)"/></g><g transform="translate(49.169 31.088)"><line class="a" x1="8.379" y2="11.394" transform="translate(0.449 0.328)"/><rect width="14.144" height="1.111" transform="translate(0 11.392) rotate(-53.656)"/></g><g transform="translate(44.71 27.809)"><line class="a" x1="8.379" y2="11.394" transform="translate(0.449 0.328)"/><rect width="14.144" height="1.111" transform="translate(0 11.393) rotate(-53.656)"/></g><g transform="translate(40.251 24.529)"><line class="a" x1="8.379" y2="11.394" transform="translate(0.449 0.328)"/><rect width="14.144" height="1.111" transform="translate(0 11.392) rotate(-53.656)"/></g><g transform="translate(41.44 50.941)"><line class="a" x1="8.379" y2="11.394" transform="translate(0.449 0.328)"/><rect width="14.144" height="1.111" transform="translate(0 11.392) rotate(-53.656)"/></g><g transform="translate(36.981 47.661)"><line class="a" x1="8.379" y2="11.394" transform="translate(0.449 0.328)"/><rect width="14.143" height="1.111" transform="translate(0 11.392) rotate(-53.656)"/></g><g transform="translate(32.521 44.382)"><line class="a" x1="8.379" y2="11.394" transform="translate(0.449 0.329)"/><rect width="14.144" height="1.111" transform="translate(0 11.393) rotate(-53.656)"/></g><g transform="translate(28.062 41.103)"><line class="a" x1="8.379" y2="11.394" transform="translate(0.449 0.328)"/><rect width="14.144" height="1.111" transform="translate(0 11.393) rotate(-53.656)"/></g><g transform="translate(44.338 52.637)"><rect width="18.644" height="18.644" transform="translate(26.065 11.046) rotate(126.331)"/></g></g></svg>