<svg xmlns="http://www.w3.org/2000/svg" width="287" height="287" viewBox="0 0 287 287"><defs><style>.a{fill:#f5f5f5;}.b{fill:#242422;}.c{fill:#d60028;}</style></defs><g transform="translate(0 -1)"><circle class="a" cx="143.5" cy="143.5" r="143.5" transform="translate(0 1)"/><path class="b" d="M272.315,98.956a1.407,1.407,0,1,0-1.407-1.407A1.406,1.406,0,0,0,272.315,98.956ZM255.672,73.819a1.407,1.407,0,1,0,1.407-1.407A1.406,1.406,0,0,0,255.672,73.819Zm-19.125,116.17a2.655,2.655,0,1,0-3.709.588A2.655,2.655,0,0,0,236.547,189.989ZM251.917,95.4a2.655,2.655,0,1,0,.587,3.708A2.655,2.655,0,0,0,251.917,95.4Zm-.312,68.613a1.406,1.406,0,1,0,1.406-1.407A1.406,1.406,0,0,0,251.605,164.015Zm-92.764-131.9a1.407,1.407,0,1,0-1.407-1.407A1.406,1.406,0,0,0,158.842,32.112ZM175.8,207.691a1.407,1.407,0,1,0,1.407,1.407A1.407,1.407,0,0,0,175.8,207.691ZM93.621,127.8a2.655,2.655,0,1,0-.588-3.709A2.655,2.655,0,0,0,93.621,127.8Zm81.966,58.337c-.489,1.128-1,2.338-1.545,3.619-3.427,8.081-7.973,18.8-14.364,27.838-2.935,9.881-8.675,17.091-19.739,24.815-11.6,8.1-22.568,40.582-22.678,40.908a1.867,1.867,0,0,1-1.492,1.253,28.3,28.3,0,0,1-4.217.31,40.985,40.985,0,0,1-16.691-4,87.015,87.015,0,0,1-18.65-11.876,143,143,0,0,1-18.788-18.382,1.866,1.866,0,0,1,.139-2.518c10.175-9.933,37.258-37.511,40.362-45.724,1.072-2.836,3.518-10.167,6.35-18.654,5.028-15.066,11.285-33.815,15.511-44.671a23.97,23.97,0,0,1,15.1-14.195c5.528-1.768,13.257-4.381,18.678-6.791a35.049,35.049,0,0,1,7.307-2.089l11.471-67.677a10.534,10.534,0,0,1,12.184-8.619l41.43,7.178a10.534,10.534,0,0,1,8.55,12.347l-10.743,56.5H232.9a14.8,14.8,0,0,1,5.062.86c4.41,1.6,6.838,4.883,6.838,9.245,0,2.533-1.244,5.97-7.17,7.957a26.7,26.7,0,0,1-6.4,1.23l-11.236.529-1.342,7.058c3.888,2.167,13.636,7.81,15.8,11.052,1.679,2.52,2.614,6.312.914,9.1-.906,1.489-2.838,3.131-6.945,3.131a18.122,18.122,0,0,1-1.995-.116c-9.407-1.046-19.915-6.918-24.258-10.049q-.645.623-1.271,1.211l6.566,3.275a1.858,1.858,0,0,1,.542.407c2.111,2.3,12.694,14,13.7,18.5a8.277,8.277,0,0,1-4.2,8.59,7.667,7.667,0,0,1-3.657.919c-2.426,0-5.618-1.1-9.357-4.958-5.438-5.607-7.436-9.491-8.155-11.375-2.312-.535-7.086-1.8-9.006-3.466l.162-.187c-.908.833-1.778,1.675-2.616,2.555,4.007,2.722,8.954,6.416,11.518,9.605a49.559,49.559,0,0,1,5.81,9.78,38.1,38.1,0,0,0,2.64,4.867,3.852,3.852,0,0,1-.11,4.311,8.839,8.839,0,0,1-7.368,3.766,9.257,9.257,0,0,1-1.333-.1,11.631,11.631,0,0,1-7.062-4.194,28.257,28.257,0,0,1-5.191-10.386A25.867,25.867,0,0,1,175.587,186.135Zm6.819-12.112a43.136,43.136,0,0,0-4.744,7.574c-.177.355-.358.729-.543,1.121a22.687,22.687,0,0,0,8.363,2.6,1.865,1.865,0,0,1,1.557,1.36c3.413,12.549,8.819,13.316,10.982,13.065a4.538,4.538,0,0,0,3.686-2.276,42.384,42.384,0,0,1-2.862-5.262,46.549,46.549,0,0,0-5.364-9.078C191.02,180.066,185.681,176.232,182.406,174.023Zm15.54-14.4c-1.953,1.738-3.769,3.264-5.491,4.712-.792.666-1.556,1.309-2.3,1.941,1.562.964,5.474,2.066,8.006,2.59a1.782,1.782,0,0,1,1.454,1.477c.068.271,1.113,4.083,7.546,10.716,3.274,3.376,6.315,4.567,8.563,3.353a4.65,4.65,0,0,0,2.335-4.491c-.57-2.551-7.616-11.109-12.577-16.538Zm19.971-13.163-.1.538a10.55,10.55,0,0,1-9.058,8.486c4.835,2.758,11.745,5.865,18.08,6.568,2.767.308,4.664-.135,5.341-1.246.794-1.306.164-3.6-.832-5.093C230.045,153.764,223.156,149.444,217.917,146.461Zm5.136-27.015-2.342,12.319,10.339-.487c.094,0,10.018-.654,10.018-5.459,0-2.791-1.432-4.667-4.379-5.737a11.083,11.083,0,0,0-3.789-.636Zm-61.011,24.446a6.744,6.744,0,0,0,4.593,2.7l8.464,1.1q3.187-2.935,6.641-6.82c9.688-10.9,18.658-13.068,21.176-13.473a10.538,10.538,0,0,1,9.11,2.857,8.874,8.874,0,0,1,2.563,7.764c-.492,3.592-2.874,7.709-7.077,12.236q-.7.754-1.377,1.463l.456.059a6.809,6.809,0,0,0,7.558-5.475l16.692-87.786a6.8,6.8,0,0,0-5.522-7.973l-41.43-7.178a6.8,6.8,0,0,0-7.868,5.566L160.8,138.71A6.746,6.746,0,0,0,162.043,143.892Zm12.282,36.037c4.506-9.011,9.459-13.176,15.729-18.449a149.505,149.505,0,0,0,14.725-13.764c2.652-2.856,5.3-6.369,5.992-9.558-8.384,9.49-12.432,6.984-14.935,2.332-2.158-4.011,3.96-7.664,7.471-9.371-4.569.806-11.833,4.421-18.775,12.232-5.911,6.65-11.421,11.41-16.377,14.149-5.69,3.145-10.879,3.779-15.425,1.884-6.331-2.638-8.828-12.062-8.931-12.462l1.807-.466,1.806-.468c.58,2.227,2.925,8.357,6.754,9.952,4.631,1.929,10.356.253,17.1-4.983l-5.106-.663a10.534,10.534,0,0,1-9.03-12.207l3.077-18.151a27.928,27.928,0,0,0-5.123,1.548c-5.575,2.478-13.441,5.139-19.057,6.935a20.253,20.253,0,0,0-12.76,11.994c-4.193,10.77-10.7,30.264-15.448,44.5-2.962,8.876-5.3,15.887-6.4,18.791-1.717,4.545-9.208,13.872-22.263,27.72-7.555,8.014-14.888,15.316-17.737,18.131a144.635,144.635,0,0,0,17.194,16.593c9.355,7.56,22.99,16.149,35.5,14.873,2.1-6.012,12.238-33.67,23.7-41.672a55.918,55.918,0,0,0,12.554-11.364,36.079,36.079,0,0,1-7.376,4.878,29.782,29.782,0,0,1-13.221,3.062,33.29,33.29,0,0,1-5.766-.514l.645-3.675c25.638,4.5,38.364-25.508,45.967-43.437C172.007,185,173.215,182.147,174.324,179.928ZM109.273,79.9a1.407,1.407,0,1,0-1.407-1.407A1.406,1.406,0,0,0,109.273,79.9Zm10.7,37.232a1.407,1.407,0,1,0-1.407-1.407A1.406,1.406,0,0,0,119.97,117.132Z" transform="translate(-24.196 -12.012)"/><path class="c" d="M269.462,121.291a26.889,26.889,0,0,1-8.48-1.619s4.981,4.145,9.651,3.981c4.432-.155,8.1-1.631,11.666,1.992.217,1.565.4,3.123.47,4.68a23.215,23.215,0,0,1-.773,7.422,18.044,18.044,0,0,1-4,7.318l2.424.4a26.188,26.188,0,0,0,3.1-7.322,24.668,24.668,0,0,0,.568-7.9c-.109-1.417-.309-2.812-.539-4.194,2.54-.529,4.548,4.512,6.562,7.823,2.468,4.057,8.77,5.916,8.77,5.916a26.973,26.973,0,0,1-6.11-6.271c-1.634-2.623-5.805-9.965-9.316-8.025-.17-.987-.352-1.968-.525-2.945-.316-1.775-.6-3.55-.744-5.33,4.31-.388,4.843,3.467,7.561,6.645,3.086,3.609,9.6,4.434,9.6,4.434a26.975,26.975,0,0,1-7.036-5.211c-2.127-2.434-5.021-8.685-10.181-6.578-.032-.517-.055-1.034-.06-1.552q-.009-.952.049-1.9a18.776,18.776,0,0,1,.2-1.883,12.3,12.3,0,0,1,.371-1.569c5.771-.845,5.558,2.318,8.133,6.134,2.656,3.936,9.5,5.221,9.5,5.221s-4.978-2.628-7.237-5.9c-1.987-2.878-3.941-8.95-10.313-5.714a14.8,14.8,0,0,1,.7-1.751,17.018,17.018,0,0,1,1.285-2.233c4.691-1.107,5.688.939,8.574,4.11,3.008,3.305,8.887,2.94,8.887,2.94a20.182,20.182,0,0,1-6.647-4.276c-2.2-2.358-4.655-6.839-10.48-3.253.125-.174.252-.347.383-.517a25.188,25.188,0,0,1,2.56-2.842c.161-.155.325-.305.489-.456a28.759,28.759,0,0,0,8.121,2.162,27.352,27.352,0,0,0,7.7-.567s-6.141-3.682-15.555-1.839c.178-.161.359-.318.54-.475,1.807-.447,8.968-2.587,17.261-9.974-10.089,2.308-15.572,7.657-17.187,9.464q-.3.243-.6.494a25.118,25.118,0,0,0,2.445-15.3,30.8,30.8,0,0,0-2.825,8.259,29.09,29.09,0,0,0-.051,7.407c-.2.177-.407.355-.607.538a25.7,25.7,0,0,0-2.581,2.71c2.278-5.772-1.977-7.61-4.347-9.419a20.217,20.217,0,0,1-4.684-5.784s.505,5.538,3.827,8.016c3.206,2.391,5.146,3.11,4.8,7.685a18.2,18.2,0,0,0-1.842,2.889,15.775,15.775,0,0,0-.674,1.53c-.978-6.577-5.946-6.88-9.136-7.845a26.9,26.9,0,0,1-7.547-4.192s3.433,5.5,7.92,6.8c4.247,1.236,6.475,1.275,8.553,5.828a12.925,12.925,0,0,0-.418,1.6c-.124.653-.2,1.3-.268,1.949s-.1,1.3-.115,1.956c0,.113,0,.225,0,.337-1.948-6.055-9.235-5.493-12.429-6.205a26.889,26.889,0,0,1-7.837-3.62s3.832,5.226,8.4,6.195c4.36.925,9.2.241,11.869,4.679a53.14,53.14,0,0,0,.611,6.382c.1.7.2,1.4.306,2.1C278.975,119.194,272.759,121.211,269.462,121.291Z" transform="translate(-110.782 -35.667)"/><path class="c" d="M275.815,74.151a5.549,5.549,0,0,0,4.476-.736,4.522,4.522,0,1,1,2.361-5.882,5.562,5.562,0,1,0-6.837,6.618Z" transform="translate(-115.317 -26.406)"/><circle class="c" cx="11.692" cy="11.692" r="11.692" transform="translate(99.807 67.887)"/><path class="a" d="M65.206,398.743,48,416.156l58.7,33.38s2.777-10.385,4.554-14.4S99.8,406.373,99.8,406.373Z" transform="translate(-20.375 -168.834)"/></g></svg>