<svg xmlns="http://www.w3.org/2000/svg" width="266.091" height="197.652" viewBox="0 0 266.091 197.652"><defs><style>.a{fill:#fff;}</style></defs><g transform="translate(51.492 88.687)"><path d="M7399.708-2503.955s14.876,22.862-2.8,32.2l-36.985,19.544s-14.2,6.113-25.815-1.019-38.493-25.933-38.493-25.933l6.066-18.876s26.959,21.64,45.49,21.781S7390.381-2505,7390.381-2505" transform="translate(-7294.565 2506.052)"/><path class="a" d="M7343.255-2452.67a25.834,25.834,0,0,1-13.644-3.61c-11.511-7.067-38.277-25.779-38.546-25.967a1.05,1.05,0,0,1-.4-1.184l6.065-18.877a1.053,1.053,0,0,1,.7-.686,1.056,1.056,0,0,1,.961.187c.268.214,26.891,21.414,44.839,21.55h.129c17.821,0,42.029-28.09,42.272-28.374a1.053,1.053,0,0,1,1.484-.116,1.052,1.052,0,0,1,.115,1.483,146.516,146.516,0,0,1-14.774,14.542c-11.39,9.668-21.178,14.569-29.1,14.569h-.146c-7.874-.059-18.043-3.792-30.226-11.093a164.1,164.1,0,0,1-14.713-9.987l-5.368,16.706c4.139,2.887,27.338,19.028,37.8,25.454,10.755,6.6,24.042,1.283,24.813.964l36.945-19.522a14.15,14.15,0,0,0,7.584-9.063c2.509-9.666-5.1-21.515-5.177-21.634a1.052,1.052,0,0,1,.308-1.455,1.054,1.054,0,0,1,1.457.308c.334.516,8.188,12.755,5.45,23.31a16.176,16.176,0,0,1-8.639,10.395l-36.985,19.544c-.025.013-.05.025-.075.036a35.757,35.757,0,0,1-8.833,2.243A34.067,34.067,0,0,1,7343.255-2452.67Zm12.721-3.488h0Z" transform="translate(-7290.617 2510)"/></g><g transform="translate(141.944 83.587)"><path d="M7826.348-2505.334v41.18l-43.671-11.138-12.834,15.4s51.76,22.9,63.839,22.9S7847-2454.7,7847-2454.7s1.321-42.9,0-56.41-20.655-18.022-20.655-18.022h-25.759s-53.438-1.24-66.184,6.942-7.929,59.132-8.023,69.532,0,27.075,0,27.075,1.267,8.059,14.37,8.059h75.066s12.321,3.51,12.321-14.5" transform="translate(-7724.501 2530.259)"/><path class="a" d="M7814.19-2420.172a10.924,10.924,0,0,1-2.5-.279h-74.934c-7.134,0-10.926-2.365-12.853-4.349a9.3,9.3,0,0,1-2.554-4.6.945.945,0,0,1-.013-.157c0-.167-.093-16.8,0-27.091.015-1.722-.107-4.6-.262-8.241-.819-19.233-2.342-55.034,8.769-62.167,12.843-8.246,64.392-7.163,66.764-7.109h25.747a1.074,1.074,0,0,1,.238.027,42.546,42.546,0,0,1,10.112,4.052c6.852,3.861,10.779,9.011,11.354,14.893,1.311,13.426.057,54.79,0,56.544,0,.014,0,.028,0,.041a32.874,32.874,0,0,1-2.208,9.177c-2.558,6.217-6.765,9.5-12.164,9.5-12.162,0-62.143-22.05-64.265-22.989a1.053,1.053,0,0,1-.6-.723,1.054,1.054,0,0,1,.217-.913l12.835-15.4a1.053,1.053,0,0,1,1.068-.346l42.358,10.8v-39.826a1.052,1.052,0,0,1,1.052-1.052,1.052,1.052,0,0,1,1.052,1.052v41.18a1.053,1.053,0,0,1-.407.831,1.053,1.053,0,0,1-.906.188l-43.027-10.974-11.515,13.811c8.04,3.51,51.459,22.248,62.136,22.248,10.809,0,12.221-16.074,12.271-16.7.037-1.212,1.29-43.086,0-56.251-1.181-12.084-18.188-16.68-19.737-17.072H7796.57c-.531-.013-53.261-1.141-65.592,6.775-4.276,2.745-6.942,11.356-7.925,25.594-.838,12.145-.26,25.726.123,34.713.156,3.672.279,6.573.263,8.349-.088,9.87-.007,25.6,0,26.966.156.753,1.83,7.106,13.316,7.106h75.067a1.05,1.05,0,0,1,.288.04,8.58,8.58,0,0,0,6.855-1.28c2.739-2.083,4.128-6.192,4.128-12.213a1.052,1.052,0,0,1,1.052-1.052,1.052,1.052,0,0,1,1.052,1.052c0,6.731-1.677,11.41-4.985,13.906A9.891,9.891,0,0,1,7814.19-2420.172Z" transform="translate(-7720.506 2534.237)"/></g><g transform="translate(171.711 25.038)"><path class="a" d="M7917.238-2807.5a20.413,20.413,0,0,0-8.21,1.622l0,0-.037.02a18.537,18.537,0,0,0-2.555,1.359l-39.45,20.994,34.524,48.466,38.294-20.2v-29.641S7936.525-2807.5,7917.238-2807.5Z" transform="translate(-7865.93 2808.552)"/><path d="M7897.56-2737.937a1.052,1.052,0,0,1-.858-.442l-34.524-48.466a1.058,1.058,0,0,1-.168-.852,1.056,1.056,0,0,1,.531-.687l39.414-20.974a19.9,19.9,0,0,1,2.627-1.4l0,0a1.211,1.211,0,0,1,.154-.066,21.591,21.591,0,0,1,8.551-1.675c8.287,0,15,4.094,19.428,11.84a36.687,36.687,0,0,1,4.177,11.681,1.3,1.3,0,0,1,.011.15v29.641a1.054,1.054,0,0,1-.562.931l-38.294,20.2A1.047,1.047,0,0,1,7897.56-2737.937Zm-32.973-49.153,33.3,46.741,36.918-19.473v-28.924a35.278,35.278,0,0,0-3.939-10.923c-4.085-7.117-10-10.726-17.571-10.726a19.481,19.481,0,0,0-7.791,1.534l-.019.008-.02.01a17.639,17.639,0,0,0-2.411,1.282c-.023.014-.046.029-.071.041Z" transform="translate(-7861.982 2812.5)"/></g><g transform="translate(161.467 45.238)"><path class="a" d="M7818.292-2659.24v-29.641s2.918-22.619,22.205-22.619,22.563,22.619,22.563,22.619v29.641Z" transform="translate(-7817.241 2712.552)"/><path d="M7859.114-2662.137h-44.769a1.051,1.051,0,0,1-1.052-1.052v-29.64a1.125,1.125,0,0,1,.009-.135,36.171,36.171,0,0,1,3.993-11.686c4.306-7.752,10.965-11.85,19.256-11.85s15,4.094,19.429,11.84a36.641,36.641,0,0,1,4.176,11.681,1.029,1.029,0,0,1,.011.15v29.64A1.053,1.053,0,0,1,7859.114-2662.137Zm-43.718-2.1h42.666v-28.507a35.3,35.3,0,0,0-3.94-10.922c-4.084-7.118-10-10.727-17.571-10.727s-13.448,3.623-17.416,10.769a34.649,34.649,0,0,0-3.738,10.871Z" transform="translate(-7813.292 2716.5)"/></g><path d="M7846.355-2640.267v-21.822s2.149-16.652,16.349-16.652,16.61,16.652,16.61,16.652v21.822Z" transform="translate(-7677.932 2731.924)"/><g transform="translate(225.475)"><path class="a" d="M8122.5-2868.848V-2912.5l17.265-14-10.531,16.2,10.531-1.052-12.214,10.78v32.986" transform="translate(-8121.448 2927.552)"/><path d="M8123.6-2870.482a1.052,1.052,0,0,1-1.053-1.052v-32.986a1.051,1.051,0,0,1,.356-.789l9.768-8.619-7.284.727a1.051,1.051,0,0,1-1-.5,1.051,1.051,0,0,1,.018-1.121l6.895-10.609-11.693,9.487v43.145a1.052,1.052,0,0,1-1.053,1.052,1.052,1.052,0,0,1-1.052-1.052v-43.646a1.05,1.05,0,0,1,.39-.818l17.265-14a1.05,1.05,0,0,1,1.365.035,1.053,1.053,0,0,1,.179,1.355l-9.337,14.363,8.35-.834a1.052,1.052,0,0,1,1.07.626,1.054,1.054,0,0,1-.268,1.209l-11.86,10.465v32.511A1.052,1.052,0,0,1,8123.6-2870.482Z" transform="translate(-8117.501 2931.5)"/></g><g transform="translate(224.213 54.917)"><circle class="a" cx="3.998" cy="3.998" r="3.998" transform="translate(1.052 1.052)"/><path d="M8116.55-2660.4a5.055,5.055,0,0,1-5.05-5.049,5.056,5.056,0,0,1,5.05-5.051,5.056,5.056,0,0,1,5.05,5.051A5.055,5.055,0,0,1,8116.55-2660.4Zm0-8a2.949,2.949,0,0,0-2.946,2.946,2.949,2.949,0,0,0,2.946,2.945,2.948,2.948,0,0,0,2.946-2.945A2.949,2.949,0,0,0,8116.55-2668.4Z" transform="translate(-8111.5 2670.5)"/></g><g transform="translate(73.424 51.756)"><g transform="translate(0)"><path class="a" d="M7403.029-2680.518l-3.177,34.689,67.334,5.264,2.18-35.514Z" transform="translate(-7398.8 2681.57)"/><path d="M7463.238-2643.461c-.027,0-.055,0-.083,0l-67.335-5.264a1.053,1.053,0,0,1-.722-.37,1.06,1.06,0,0,1-.244-.774l3.177-34.689a1.052,1.052,0,0,1,1.119-.953l66.337,4.439a1.053,1.053,0,0,1,.981,1.114l-2.181,35.514a1.05,1.05,0,0,1-.359.729A1.056,1.056,0,0,1,7463.238-2643.461Zm-66.189-7.282,65.2,5.1,2.051-33.4-64.27-4.3Z" transform="translate(-7394.851 2685.518)"/></g><path d="M7443.429-2657.369a1.054,1.054,0,0,1-.66-.231l-32.425-26.045a1.052,1.052,0,0,1-.162-1.479,1.052,1.052,0,0,1,1.479-.162l31.838,25.573,33.277-21.2a1.05,1.05,0,0,1,1.452.322,1.051,1.051,0,0,1-.322,1.453l-33.912,21.605A1.045,1.045,0,0,1,7443.429-2657.369Z" transform="translate(-7406.773 2685.518)"/><path d="M7395.905-2581.323a1.054,1.054,0,0,1-.883-.477,1.053,1.053,0,0,1,.306-1.456l25.567-16.729a1.05,1.05,0,0,1,1.455.3,1.051,1.051,0,0,1-.3,1.457l-25.566,16.728A1.046,1.046,0,0,1,7395.905-2581.323Z" transform="translate(-7394.852 2618.117)"/><path d="M7635.013-2569.9a1.048,1.048,0,0,1-.722-.287l-21.561-20.35a1.052,1.052,0,0,1-.042-1.488,1.05,1.05,0,0,1,1.485-.043l21.561,20.351a1.053,1.053,0,0,1,.044,1.487A1.051,1.051,0,0,1,7635.013-2569.9Z" transform="translate(-7566.626 2611.954)"/></g><g transform="translate(134.958 55.968)"><g transform="translate(0 0)"><path class="a" d="M7692.3-2644.493l7.814,23.445,45.25-15.756-8.7-23.7Z" transform="translate(-7691.252 2661.552)"/><path d="M7696.169-2623.946a1.04,1.04,0,0,1-.463-.108,1.052,1.052,0,0,1-.535-.611l-7.814-23.444a1.051,1.051,0,0,1,.64-1.323l44.368-16.008a1.051,1.051,0,0,1,1.344.627l8.7,23.7a1.051,1.051,0,0,1-.038.812,1.051,1.051,0,0,1-.6.544L7696.515-2624A1.047,1.047,0,0,1,7696.169-2623.946Zm-6.491-23.854,7.153,21.459,43.232-15.053-7.968-21.71Z" transform="translate(-7687.303 2665.501)"/></g><path d="M7716.841-2639.7a1.077,1.077,0,0,1-.275-.036l-28.485-7.689a1.052,1.052,0,0,1-.741-1.29,1.051,1.051,0,0,1,1.289-.742l27.757,7.492,15.462-23.07a1.051,1.051,0,0,1,1.459-.288,1.053,1.053,0,0,1,.288,1.459l-15.881,23.7A1.051,1.051,0,0,1,7716.841-2639.7Z" transform="translate(-7687.303 2665.5)"/><path d="M7725.495-2544.008a1.056,1.056,0,0,1-.574-.171,1.051,1.051,0,0,1-.306-1.456l11.848-18.15a1.053,1.053,0,0,1,1.457-.306,1.053,1.053,0,0,1,.306,1.456l-11.848,18.15A1.051,1.051,0,0,1,7725.495-2544.008Z" transform="translate(-7716.628 2585.564)"/><path d="M7866.232-2577.355a1.052,1.052,0,0,1-.355-.062l-19.8-7.083a1.051,1.051,0,0,1-.636-1.345,1.052,1.052,0,0,1,1.346-.636l19.8,7.082a1.051,1.051,0,0,1,.635,1.345A1.049,1.049,0,0,1,7866.232-2577.355Z" transform="translate(-7812.115 2603.156)"/></g><g transform="translate(140.785 116.272)"><g transform="translate(0 0)"><path class="a" d="M7770.709-2348.668h-27.52L7720-2373.895h27.521Z" transform="translate(-7718.948 2374.947)"/><path d="M7766.76-2351.564h-27.52a1.048,1.048,0,0,1-.774-.34l-23.189-25.227a1.051,1.051,0,0,1-.187-1.135,1.051,1.051,0,0,1,.963-.63h27.52a1.054,1.054,0,0,1,.775.34l23.188,25.227a1.052,1.052,0,0,1,.189,1.135A1.053,1.053,0,0,1,7766.76-2351.564Zm-27.059-2.1h24.662l-21.252-23.123h-24.662Z" transform="translate(-7715 2378.896)"/></g><path d="M7746.7-2351.564a1.083,1.083,0,0,1-.179-.015,1.054,1.054,0,0,1-.86-1.215l2.039-11.869-22.7-12.254a1.053,1.053,0,0,1-.426-1.426,1.053,1.053,0,0,1,1.426-.426l23.367,12.614a1.053,1.053,0,0,1,.537,1.1l-2.166,12.614A1.053,1.053,0,0,1,7746.7-2351.564Z" transform="translate(-7722.456 2378.896)"/><path d="M7810.389-2367.148a1.049,1.049,0,0,1-.654-.229,1.052,1.052,0,0,1-.169-1.478l7.671-9.642a1.052,1.052,0,0,1,1.478-.168,1.052,1.052,0,0,1,.169,1.478l-7.671,9.642A1.05,1.05,0,0,1,7810.389-2367.148Z" transform="translate(-7789.488 2378.895)"/></g><g transform="translate(159.513 131.713)"><path class="a" d="M7847.2-2293.091s-9.791-4.336-12.947-4.247-13.737-3.277-17.39-3.171-3.862,1.161-3.547,2.527-2.67,1.075-2.333,3.009-1.979,3.406-1.979,4.88,26.722,9.087,26.722,9.087" transform="translate(-7807.948 2301.563)"/><path d="M7831.774-2283.9a1.058,1.058,0,0,1-.29-.041c-.066-.02-6.77-1.932-13.387-4-3.894-1.217-7-2.251-9.234-3.072-4.161-1.53-4.864-2.1-4.864-3.029a4.678,4.678,0,0,1,1.1-2.571,3.3,3.3,0,0,0,.894-2.128,2.7,2.7,0,0,1,1.885-2.919c.129-.064.3-.151.42-.223a2.7,2.7,0,0,1,.388-2.281c.668-.865,1.962-1.28,4.195-1.344,2.029-.058,5.846.834,9.538,1.7a46.975,46.975,0,0,0,7.853,1.474c3.294-.095,12.378,3.882,13.4,4.336a1.051,1.051,0,0,1,.536,1.388,1.051,1.051,0,0,1-1.387.536c-2.635-1.166-9.936-4.158-12.411-4.158h-.081c-1.657.046-4.928-.719-8.391-1.529-3.394-.794-7.23-1.694-9-1.643-2.17.063-2.553.479-2.59.527s-.084.184.037.712c.332,1.434-.951,2.078-1.568,2.388-.8.4-.791.478-.755.677a4.964,4.964,0,0,1-1.233,3.682,7.554,7.554,0,0,0-.632,1.024c2.323,1.328,14.592,5.219,25.861,8.43a1.052,1.052,0,0,1,.723,1.3A1.053,1.053,0,0,1,7831.774-2283.9Z" transform="translate(-7804 2305.511)"/></g><g transform="translate(26.393 81.753)"><path class="a" d="M7202.592-2506.308s-9.524-4.895-11.437-7.406-11.178-8.631-13.391-11.539-1.521-3.735-.261-4.347-.842-2.753.875-3.706,1.408-3.679,2.554-4.6,26.045,15.732,26.045,15.732" transform="translate(-7175.275 2539)"/><path d="M7198.642-2509.206a1.053,1.053,0,0,1-.479-.116c-1-.512-9.793-5.08-11.793-7.705a47.162,47.162,0,0,0-6.078-5.184c-2.991-2.329-6.082-4.739-7.312-6.355-1.352-1.778-1.841-3.044-1.588-4.107a2.691,2.691,0,0,1,1.53-1.735c-.018-.138-.06-.328-.09-.468a2.7,2.7,0,0,1,1.088-3.3c.588-.327.835-1.155,1.095-2.031a4.673,4.673,0,0,1,1.309-2.472c.662-.534,1.547-.192,2.552.275.777.36,1.848.931,3.185,1.7,2.223,1.274,5.231,3.117,8.942,5.476,6.306,4.009,12.55,8.185,12.613,8.227a1.051,1.051,0,0,1,.289,1.459,1.051,1.051,0,0,1-1.459.289c-10.453-6.993-22.355-14.523-25.011-15.495a7.434,7.434,0,0,0-.4,1.14,4.964,4.964,0,0,1-2.09,3.272c-.178.1-.244.136-.054,1.014.148.674.452,2.077-.873,2.719-.486.237-.565.372-.577.418s-.1.619,1.217,2.346c1.063,1.4,4.18,3.827,6.93,5.969,2.806,2.187,5.457,4.251,6.459,5.57,1.451,1.9,8.49,5.777,11.082,7.108a1.052,1.052,0,0,1,.454,1.417A1.051,1.051,0,0,1,7198.642-2509.206Z" transform="translate(-7171.326 2542.95)"/></g><g transform="translate(0 49.427)"><g transform="translate(0 0)"><path class="a" d="M7050.892-2646.773l23,19.946,38.075-45.106-24.094-19.659Z" transform="translate(-7049.84 2692.644)"/><path d="M7069.944-2629.723a1.052,1.052,0,0,1-.689-.257l-23-19.946a1.05,1.05,0,0,1-.123-1.464l36.982-44.82a1.053,1.053,0,0,1,1.478-.146l24.092,19.66a1.056,1.056,0,0,1,.384.718,1.053,1.053,0,0,1-.244.776l-38.075,45.106a1.053,1.053,0,0,1-.722.37Zm-21.535-21.12,21.419,18.575,36.7-43.474-22.455-18.321Z" transform="translate(-7045.891 2696.592)"/></g><path d="M7046.942-2649.668a1.054,1.054,0,0,1-1.014-.771,1.053,1.053,0,0,1,.732-1.3l34.3-9.529,1.918-34.336a1.049,1.049,0,0,1,1.109-.991,1.051,1.051,0,0,1,.991,1.109l-1.96,35.087a1.05,1.05,0,0,1-.768.955l-35.023,9.732A1.03,1.03,0,0,1,7046.942-2649.668Z" transform="translate(-7045.89 2696.592)"/><path d="M7156.258-2486.791h-.047a1.053,1.053,0,0,1-1.005-1.1l1.167-26.678a1.057,1.057,0,0,1,1.1-1.005,1.052,1.052,0,0,1,1,1.1l-1.165,26.677A1.052,1.052,0,0,1,7156.258-2486.791Z" transform="translate(-7132.204 2553.66)"/><path d="M7216.311-2596.129a1.053,1.053,0,0,1-1.031-.853,1.053,1.053,0,0,1,.833-1.233l25.439-4.924a1.054,1.054,0,0,1,1.233.833,1.053,1.053,0,0,1-.833,1.233l-25.439,4.924A1.056,1.056,0,0,1,7216.311-2596.129Z" transform="translate(-7179.625 2622.818)"/></g><g transform="translate(42.737 79.98)"><path class="a" d="M7263.263-2531.579s-4.42-6.523-3.448-13.508c.35-2.515-3.371-1.276-4.485,2.75a39.73,39.73,0,0,0-1.325,7.157" transform="translate(-7252.952 2547.44)"/><path d="M7259.314-2534.469a1.053,1.053,0,0,1-.872-.462c-.188-.28-4.633-6.941-3.618-14.243,0-.027.008-.053.009-.076A4.682,4.682,0,0,0,7252.4-2546a38.94,38.94,0,0,0-1.288,6.946,1.05,1.05,0,0,1-1.121.979,1.049,1.049,0,0,1-.978-1.119,40.268,40.268,0,0,1,1.359-7.367c.9-3.251,3.4-5.129,5.085-4.78a1.979,1.979,0,0,1,1.456,2.457c-.906,6.509,3.234,12.711,3.276,12.772a1.052,1.052,0,0,1-.281,1.461A1.048,1.048,0,0,1,7259.314-2534.469Z" transform="translate(-7249.006 2551.381)"/></g></svg>