<svg xmlns="http://www.w3.org/2000/svg" width="44" height="44" viewBox="0 0 44 44"><defs><style>.a{fill:#fff;}.b{fill:#161615;}</style></defs><path class="a" d="M22,0A22,22,0,1,1,0,22,22,22,0,0,1,22,0Z"/><g transform="translate(7.631 4.851)"><ellipse class="b" cx="0.779" cy="0.779" rx="0.779" ry="0.779" transform="translate(8.017 3.995)"/><ellipse class="b" cx="0.779" cy="0.779" rx="0.779" ry="0.779" transform="translate(6.013 3.995)"/><ellipse class="b" cx="0.779" cy="0.779" rx="0.779" ry="0.779" transform="translate(12.025 3.995)"/><ellipse class="b" cx="0.779" cy="0.779" rx="0.779" ry="0.779" transform="translate(10.021 3.995)"/><g transform="translate(12.025 1.716)"><ellipse class="b" cx="0.779" cy="0.779" rx="0.779" ry="0.779" transform="translate(2.004)"/><ellipse class="b" cx="0.779" cy="0.779" rx="0.779" ry="0.779"/></g><g transform="translate(16.034 0)"><ellipse class="b" cx="0.779" cy="0.779" rx="0.779" ry="0.779"/></g><ellipse class="b" cx="0.779" cy="0.779" rx="0.779" ry="0.779" transform="translate(8.017 6.537)"/><ellipse class="b" cx="0.779" cy="0.779" rx="0.779" ry="0.779" transform="translate(6.013 6.537)"/><ellipse class="b" cx="0.779" cy="0.779" rx="0.779" ry="0.779" transform="translate(12.025 6.537)"/><ellipse class="b" cx="0.779" cy="0.779" rx="0.779" ry="0.779" transform="translate(10.021 6.537)"/><ellipse class="b" cx="0.779" cy="0.779" rx="0.779" ry="0.779" transform="translate(8.017 9.08)"/><ellipse class="b" cx="0.779" cy="0.779" rx="0.779" ry="0.779" transform="translate(6.013 9.08)"/><ellipse class="b" cx="0.779" cy="0.779" rx="0.779" ry="0.779" transform="translate(4.008 9.08)"/><ellipse class="b" cx="0.779" cy="0.779" rx="0.779" ry="0.779" transform="translate(12.025 9.08)"/><ellipse class="b" cx="0.779" cy="0.779" rx="0.779" ry="0.779" transform="translate(10.021 9.08)"/><ellipse class="b" cx="0.779" cy="0.779" rx="0.779" ry="0.779" transform="translate(8.017 11.622)"/><ellipse class="b" cx="0.779" cy="0.779" rx="0.779" ry="0.779" transform="translate(6.013 11.622)"/><ellipse class="b" cx="0.779" cy="0.779" rx="0.779" ry="0.779" transform="translate(4.008 11.622)"/><ellipse class="b" cx="0.779" cy="0.779" rx="0.779" ry="0.779" transform="translate(18.038 11.622)"/><ellipse class="b" cx="0.779" cy="0.779" rx="0.779" ry="0.779" transform="translate(16.034 11.622)"/><ellipse class="b" cx="0.779" cy="0.779" rx="0.779" ry="0.779" transform="translate(14.03 11.622)"/><ellipse class="b" cx="0.779" cy="0.779" rx="0.779" ry="0.779" transform="translate(12.025 11.622)"/><ellipse class="b" cx="0.779" cy="0.779" rx="0.779" ry="0.779" transform="translate(10.021 11.622)"/><ellipse class="b" cx="0.779" cy="0.779" rx="0.779" ry="0.779" transform="translate(8.017 14.165)"/><ellipse class="b" cx="0.779" cy="0.779" rx="0.779" ry="0.779" transform="translate(6.013 14.165)"/><ellipse class="b" cx="0.779" cy="0.779" rx="0.779" ry="0.779" transform="translate(4.008 14.165)"/><ellipse class="b" cx="0.779" cy="0.779" rx="0.779" ry="0.779" transform="translate(2.004 14.165)"/><ellipse class="b" cx="0.779" cy="0.779" rx="0.779" ry="0.779" transform="translate(20.042 14.165)"/><ellipse class="b" cx="0.779" cy="0.779" rx="0.779" ry="0.779" transform="translate(18.038 14.165)"/><ellipse class="b" cx="0.779" cy="0.779" rx="0.779" ry="0.779" transform="translate(16.034 14.165)"/><ellipse class="b" cx="0.779" cy="0.779" rx="0.779" ry="0.779" transform="translate(14.03 14.165)"/><ellipse class="b" cx="0.779" cy="0.779" rx="0.779" ry="0.779" transform="translate(12.025 14.165)"/><ellipse class="b" cx="0.779" cy="0.779" rx="0.779" ry="0.779" transform="translate(10.021 14.165)"/><ellipse class="b" cx="0.779" cy="0.779" rx="0.779" ry="0.779" transform="translate(8.017 16.707)"/><ellipse class="b" cx="0.779" cy="0.779" rx="0.779" ry="0.779" transform="translate(6.013 16.707)"/><ellipse class="b" cx="0.779" cy="0.779" rx="0.779" ry="0.779" transform="translate(4.008 16.707)"/><ellipse class="b" cx="0.779" cy="0.779" rx="0.779" ry="0.779" transform="translate(20.042 16.707)"/><ellipse class="b" cx="0.779" cy="0.779" rx="0.779" ry="0.779" transform="translate(18.038 16.707)"/><ellipse class="b" cx="0.779" cy="0.779" rx="0.779" ry="0.779" transform="translate(16.034 16.707)"/><ellipse class="b" cx="0.779" cy="0.779" rx="0.779" ry="0.779" transform="translate(14.03 16.707)"/><ellipse class="b" cx="0.779" cy="0.779" rx="0.779" ry="0.779" transform="translate(22.046 16.707)"/><ellipse class="b" cx="0.779" cy="0.779" rx="0.779" ry="0.779" transform="translate(12.025 16.707)"/><ellipse class="b" cx="0.779" cy="0.779" rx="0.779" ry="0.779" transform="translate(10.021 16.707)"/><ellipse class="b" cx="0.779" cy="0.779" rx="0.779" ry="0.779" transform="translate(8.017 19.249)"/><ellipse class="b" cx="0.779" cy="0.779" rx="0.779" ry="0.779" transform="translate(6.013 19.249)"/><ellipse class="b" cx="0.779" cy="0.779" rx="0.779" ry="0.779" transform="translate(4.008 19.249)"/><ellipse class="b" cx="0.779" cy="0.779" rx="0.779" ry="0.779" transform="translate(2.004 19.249)"/><ellipse class="b" cx="0.779" cy="0.779" rx="0.779" ry="0.779" transform="translate(20.042 19.249)"/><ellipse class="b" cx="0.779" cy="0.779" rx="0.779" ry="0.779" transform="translate(18.038 19.249)"/><ellipse class="b" cx="0.779" cy="0.779" rx="0.779" ry="0.779" transform="translate(16.034 19.249)"/><ellipse class="b" cx="0.779" cy="0.779" rx="0.779" ry="0.779" transform="translate(14.03 19.249)"/><ellipse class="b" cx="0.779" cy="0.779" rx="0.779" ry="0.779" transform="translate(24.051 19.249)"/><ellipse class="b" cx="0.779" cy="0.779" rx="0.779" ry="0.779" transform="translate(22.046 19.249)"/><ellipse class="b" cx="0.779" cy="0.779" rx="0.779" ry="0.779" transform="translate(12.025 19.249)"/><ellipse class="b" cx="0.779" cy="0.779" rx="0.779" ry="0.779" transform="translate(10.021 19.249)"/><ellipse class="b" cx="0.779" cy="0.779" rx="0.779" ry="0.779" transform="translate(8.017 21.792)"/><ellipse class="b" cx="0.779" cy="0.779" rx="0.779" ry="0.779" transform="translate(6.013 21.792)"/><ellipse class="b" cx="0.779" cy="0.779" rx="0.779" ry="0.779" transform="translate(4.008 21.792)"/><ellipse class="b" cx="0.779" cy="0.779" rx="0.779" ry="0.779" transform="translate(2.004 21.792)"/><ellipse class="b" cx="0.779" cy="0.779" rx="0.779" ry="0.779" transform="translate(0 21.792)"/><ellipse class="b" cx="0.779" cy="0.779" rx="0.779" ry="0.779" transform="translate(20.042 21.792)"/><ellipse class="b" cx="0.779" cy="0.779" rx="0.779" ry="0.779" transform="translate(18.038 21.792)"/><ellipse class="b" cx="0.779" cy="0.779" rx="0.779" ry="0.779" transform="translate(16.034 21.792)"/><ellipse class="b" cx="0.779" cy="0.779" rx="0.779" ry="0.779" transform="translate(14.03 21.792)"/><ellipse class="b" cx="0.779" cy="0.779" rx="0.779" ry="0.779" transform="translate(24.051 21.792)"/><ellipse class="b" cx="0.779" cy="0.779" rx="0.779" ry="0.779" transform="translate(22.046 21.792)"/><ellipse class="b" cx="0.779" cy="0.779" rx="0.779" ry="0.779" transform="translate(12.025 21.792)"/><ellipse class="b" cx="0.779" cy="0.779" rx="0.779" ry="0.779" transform="translate(10.021 21.792)"/><ellipse class="b" cx="0.779" cy="0.779" rx="0.779" ry="0.779" transform="translate(8.017 24.334)"/><ellipse class="b" cx="0.779" cy="0.779" rx="0.779" ry="0.779" transform="translate(6.013 24.334)"/><ellipse class="b" cx="0.779" cy="0.779" rx="0.779" ry="0.779" transform="translate(4.008 24.334)"/><ellipse class="b" cx="0.779" cy="0.779" rx="0.779" ry="0.779" transform="translate(18.038 24.334)"/><ellipse class="b" cx="0.779" cy="0.779" rx="0.779" ry="0.779" transform="translate(16.034 24.334)"/><ellipse class="b" cx="0.779" cy="0.779" rx="0.779" ry="0.779" transform="translate(14.03 24.334)"/><ellipse class="b" cx="0.779" cy="0.779" rx="0.779" ry="0.779" transform="translate(12.025 24.334)"/><ellipse class="b" cx="0.779" cy="0.779" rx="0.779" ry="0.779" transform="translate(10.021 24.334)"/><ellipse class="b" cx="0.779" cy="0.779" rx="0.779" ry="0.779" transform="translate(8.017 26.877)"/><ellipse class="b" cx="0.779" cy="0.779" rx="0.779" ry="0.779" transform="translate(18.038 26.877)"/><ellipse class="b" cx="0.779" cy="0.779" rx="0.779" ry="0.779" transform="translate(16.034 26.877)"/><ellipse class="b" cx="0.779" cy="0.779" rx="0.779" ry="0.779" transform="translate(14.03 26.877)"/><ellipse class="b" cx="0.779" cy="0.779" rx="0.779" ry="0.779" transform="translate(12.025 26.877)"/><ellipse class="b" cx="0.779" cy="0.779" rx="0.779" ry="0.779" transform="translate(10.021 26.877)"/><ellipse class="b" cx="0.779" cy="0.779" rx="0.779" ry="0.779" transform="translate(18.038 29.419)"/><ellipse class="b" cx="0.779" cy="0.779" rx="0.779" ry="0.779" transform="translate(16.034 29.419)"/><ellipse class="b" cx="0.779" cy="0.779" rx="0.779" ry="0.779" transform="translate(14.03 29.419)"/><ellipse class="b" cx="0.779" cy="0.779" rx="0.779" ry="0.779" transform="translate(18.038 31.962)"/><ellipse class="b" cx="0.779" cy="0.779" rx="0.779" ry="0.779" transform="translate(16.034 31.962)"/></g></svg>