<svg xmlns="http://www.w3.org/2000/svg" width="67" height="67" viewBox="0 0 67 67"><defs><style>.a{fill:#141414;}.b{fill:#fff;}.c{fill:#ea0a0a;}</style></defs><circle class="a" cx="33.5" cy="33.5" r="33.5"/><g transform="translate(14.255 12.832)"><path class="b" d="M1318.074,2022.768c0,.208-.123.313-.371.313h-17.647c-.249,0-.371-.09-.371-.27,0-.148.122-.221.371-.221h1.626c.308,0,.464-.6.464-1.791v-27.037c0-1.2-.156-1.792-.464-1.792h-1.626c-.249,0-.371-.073-.371-.223,0-.181.122-.27.371-.27h16.254c.246,0,.369.106.369.315v9.578c0,.24-.107.359-.324.359-.187,0-.28-.118-.28-.359v-.625a11.527,11.527,0,0,0-1.392-5.909,5.033,5.033,0,0,0-4.551-2.821H1307.3c-.28,0-.419.075-.419.224v13.877c0,.151.124.222.372.222h1.579a3.016,3.016,0,0,0,2.507-1.408,5.386,5.386,0,0,0,1.022-3.245v-.493a.313.313,0,0,1,.351-.357c.168,0,.253.119.253.357v10.788c0,.24-.085.359-.253.359a.314.314,0,0,1-.351-.359v-.448a5.554,5.554,0,0,0-1.022-3.312,3.007,3.007,0,0,0-2.507-1.433H1307.3c-.28,0-.419.091-.419.27v15.263c0,.151.124.223.372.223h2.646a6.561,6.561,0,0,0,6.13-3.583,11.124,11.124,0,0,0,1.393-5.5v-.583q0-.356.326-.355c.216,0,.325.118.325.355Z" transform="translate(-1299.685 -1983.15)"/><path class="b" d="M1347.064,2022.768c0,.208-.123.313-.371.313h-17.647c-.248,0-.37-.09-.37-.27,0-.148.122-.221.37-.221h1.626q.464,0,.465-1.791v-27.037q0-1.793-.465-1.792h-1.626c-.248,0-.37-.073-.37-.223,0-.181.122-.27.37-.27H1345.3c.246,0,.37.106.37.315v9.578c0,.24-.108.359-.325.359-.187,0-.279-.118-.279-.359v-.625a11.517,11.517,0,0,0-1.393-5.909,5.029,5.029,0,0,0-4.55-2.821h-2.833q-.419,0-.418.224v13.877c0,.151.124.222.372.222h1.579a3.015,3.015,0,0,0,2.506-1.408,5.388,5.388,0,0,0,1.022-3.245v-.493a.313.313,0,0,1,.351-.357c.168,0,.253.119.253.357v10.788c0,.24-.085.359-.253.359a.314.314,0,0,1-.351-.359v-.448a5.556,5.556,0,0,0-1.022-3.312,3.006,3.006,0,0,0-2.506-1.433h-1.533c-.279,0-.418.091-.418.27v15.263c0,.151.124.223.372.223h2.646a6.56,6.56,0,0,0,6.129-3.583,11.117,11.117,0,0,0,1.394-5.5v-.583q0-.356.325-.355t.324.355Z" transform="translate(-1307.292 -1983.15)"/><rect class="c" width="39.766" height="5.025" transform="translate(0.028)"/></g></svg>