<svg xmlns="http://www.w3.org/2000/svg" width="333.496" height="51.23" viewBox="0 0 333.496 51.23"><defs><style>.a{fill:#141414;}.b{fill:#ea0a0a;}</style></defs><g transform="translate(3.074 12.295)"><path class="a" d="M52.383,74.636c0,.248-.147.373-.441.373h-21c-.3,0-.441-.107-.441-.321,0-.176.145-.263.441-.263H32.88q.551,0,.552-2.131V40.124q0-2.133-.552-2.132H30.945c-.3,0-.441-.087-.441-.265,0-.214.145-.321.441-.321H50.285c.293,0,.44.125.44.374v11.4c0,.286-.128.427-.386.427-.221,0-.333-.141-.333-.427v-.744A13.716,13.716,0,0,0,48.35,41.4a5.988,5.988,0,0,0-5.414-3.356h-3.37q-.5,0-.5.266V54.824c0,.179.147.264.442.264h1.878a3.59,3.59,0,0,0,2.983-1.676,6.41,6.41,0,0,0,1.216-3.862v-.587A.372.372,0,0,1,46,48.54c.2,0,.3.142.3.424V61.8c0,.286-.1.427-.3.427a.373.373,0,0,1-.418-.427v-.533a6.614,6.614,0,0,0-1.216-3.941,3.58,3.58,0,0,0-2.983-1.705H39.566c-.332,0-.5.109-.5.322V74.1c0,.18.147.266.442.266h3.148a7.806,7.806,0,0,0,7.294-4.264,13.233,13.233,0,0,0,1.658-6.548v-.693c0-.283.129-.423.387-.423s.386.14.386.423Z" transform="translate(-30.504 -36.716)"/><path class="a" d="M103.1,74.636a.336.336,0,0,1-.386.373h-21c-.3,0-.441-.107-.441-.321,0-.176.146-.263.441-.263H83.65c.366,0,.552-.711.552-2.131V40.124c0-1.422-.186-2.132-.552-2.132H81.714c-.3,0-.441-.087-.441-.265,0-.214.146-.321.441-.321H93.1c.294,0,.442.106.442.321,0,.179-.148.265-.442.265H90.39q-.553,0-.552,2.132V74.1c0,.18.147.266.443.266h3.148a7.8,7.8,0,0,0,7.294-4.311,14.693,14.693,0,0,0,1.658-7.141V61.747c0-.283.128-.424.387-.424.222,0,.331.141.331.424Z" transform="translate(-55.803 -36.716)"/><path class="a" d="M182.49,74.636c0,.248-.146.373-.441.373h-21c-.3,0-.441-.107-.441-.321,0-.176.145-.263.441-.263h1.934q.552,0,.553-2.131V40.124q0-2.133-.553-2.132h-1.934c-.3,0-.441-.087-.441-.265,0-.214.145-.321.441-.321h19.34c.293,0,.44.125.44.374v11.4c0,.286-.128.427-.386.427-.222,0-.332-.141-.332-.427v-.744a13.711,13.711,0,0,0-1.657-7.031,5.987,5.987,0,0,0-5.414-3.356h-3.371q-.5,0-.5.266V54.824c0,.179.148.264.442.264H171.5a3.589,3.589,0,0,0,2.983-1.676,6.411,6.411,0,0,0,1.216-3.862v-.587a.372.372,0,0,1,.418-.424c.2,0,.3.142.3.424V61.8c0,.286-.1.427-.3.427a.373.373,0,0,1-.418-.427v-.533a6.614,6.614,0,0,0-1.216-3.941,3.579,3.579,0,0,0-2.983-1.705h-1.824c-.331,0-.5.109-.5.322V74.1c0,.18.148.266.442.266h3.149a7.806,7.806,0,0,0,7.293-4.264,13.228,13.228,0,0,0,1.658-6.548v-.693c0-.283.129-.423.387-.423s.385.14.385.423Z" transform="translate(-95.338 -36.716)"/><path class="a" d="M232.26,64.365a10.5,10.5,0,0,1-2.928,7.537,9.94,9.94,0,0,1-7.514,3.062,16.176,16.176,0,0,1-6.3-1.437,4.871,4.871,0,0,0-1.436-.431.433.433,0,0,0-.5.481V73.9c0,.359-.092.535-.276.535s-.277-.176-.277-.535V60.745c0-.285.092-.43.277-.43s.276.145.276.43v.423a19.653,19.653,0,0,0,1.657,8.36q2.264,4.8,6.741,4.8a6.544,6.544,0,0,0,4.641-1.594,5.636,5.636,0,0,0,1.713-4.32q0-4.154-3.978-7.56-3.647-2.877-7.349-5.8a11.624,11.624,0,0,1-1.822-15.5,7.876,7.876,0,0,1,6.685-3.513,11.291,11.291,0,0,1,5.028,1.438,3.552,3.552,0,0,0,1.326.478c.294,0,.442-.158.442-.478v-.373q0-.531.33-.532.388,0,.388.532V48.7c0,.323-.129.483-.388.483-.22,0-.33-.16-.33-.483v-.424a16.5,16.5,0,0,0-1.713-7.775q-2.047-3.781-5.526-3.783a4.447,4.447,0,0,0-3.48,1.411,5.648,5.648,0,0,0-1.271,3.918q0,4.261,4.034,7.774,3.755,2.877,7.514,5.754A11.71,11.71,0,0,1,232.26,64.365Z" transform="translate(-121.459 -36.03)"/><path class="a" d="M280.677,47.9a10.342,10.342,0,0,1-3.037,7.884,9.419,9.419,0,0,1-6.8,2.664h-4.585c-.332,0-.5.124-.5.372V72.294q0,2.13.552,2.131h2.872c.294,0,.442.087.442.263,0,.214-.148.321-.442.321H257.636c-.3,0-.44-.107-.44-.321,0-.176.145-.263.44-.263h1.935q.552,0,.552-2.131V40.124q0-2.133-.552-2.132h-1.935c-.3,0-.44-.087-.44-.265,0-.214.145-.321.44-.321h12.985a10.03,10.03,0,0,1,6.907,2.4Q280.677,42.63,280.677,47.9Zm-6.3,0q0-5.325-1.1-7.587a3.654,3.654,0,0,0-3.481-2.266h-3.537c-.332,0-.5.108-.5.322V57.486c0,.213.147.319.442.319h3.592a3.611,3.611,0,0,0,3.563-2.236Q274.379,53.331,274.378,47.9Z" transform="translate(-143.466 -36.716)"/><path class="a" d="M332.044,74.636c0,.248-.148.373-.441.373h-21c-.294,0-.44-.107-.44-.321,0-.176.146-.263.44-.263h1.935q.552,0,.553-2.131V40.124q0-2.133-.553-2.132h-1.935c-.294,0-.44-.087-.44-.265,0-.214.146-.321.44-.321h19.34c.294,0,.441.125.441.374v11.4c0,.286-.128.427-.386.427-.222,0-.332-.141-.332-.427v-.744a13.721,13.721,0,0,0-1.657-7.031,5.988,5.988,0,0,0-5.415-3.356h-3.37c-.333,0-.5.089-.5.266V54.824c0,.179.147.264.441.264h1.879a3.59,3.59,0,0,0,2.983-1.676,6.414,6.414,0,0,0,1.216-3.862v-.587a.372.372,0,0,1,.418-.424c.2,0,.3.142.3.424V61.8c0,.286-.1.427-.3.427a.373.373,0,0,1-.418-.427v-.533a6.618,6.618,0,0,0-1.216-3.941,3.58,3.58,0,0,0-2.983-1.705h-1.824c-.333,0-.5.109-.5.322V74.1c0,.18.147.266.441.266h3.149a7.808,7.808,0,0,0,7.294-4.264,13.238,13.238,0,0,0,1.657-6.548v-.693c0-.283.129-.423.388-.423s.386.14.386.423Z" transform="translate(-169.861 -36.716)"/><path class="a" d="M383.754,74c0,.356-.129.532-.387.532-.22,0-.332-.177-.332-.532V73.63c0-.317-.128-.481-.386-.481a5.283,5.283,0,0,0-1.325.431,18.782,18.782,0,0,1-6.852,1.437q-6.576,0-10.166-6.393A25.835,25.835,0,0,1,361.378,55.9q0-8.735,3.149-14.008a10.672,10.672,0,0,1,9.724-5.751,12.683,12.683,0,0,1,5.636,1.384,3.559,3.559,0,0,0,1.324.478c.257,0,.388-.158.388-.478v-.373q0-.531.275-.532c.257,0,.388.178.388.532v12.3c0,.32-.11.482-.333.482s-.33-.162-.33-.482v-.533a16.183,16.183,0,0,0-2.266-9q-2.1-3.249-5.082-3.248a4.94,4.94,0,0,0-5.027,3.782,39.324,39.324,0,0,0-.886,7.457,136.9,136.9,0,0,0,0,15.549q.332,5.761,1.271,7.885a5.068,5.068,0,0,0,5.084,3.142,6.942,6.942,0,0,0,6.048-3.538,16.984,16.984,0,0,0,2.293-9.35v-.854c0-.319.129-.48.388-.48.221,0,.331.161.331.48Z" transform="translate(-195.381 -36.083)"/><path class="a" d="M437.4,49.976c0,.283-.111.427-.332.427s-.334-.144-.334-.427V48.753a15.3,15.3,0,0,0-1.6-7.3,5.824,5.824,0,0,0-5.306-3.409h-2.043c-.332,0-.5.089-.5.266V72.294q0,2.13.552,2.131h1.987c.3,0,.443.087.443.263,0,.214-.146.321-.443.321H419.112c-.295,0-.441-.107-.441-.321,0-.176.146-.263.441-.263H421.1q.553,0,.554-2.131V38.312q0-.266-.554-.266h-1.989a5.817,5.817,0,0,0-5.3,3.409,15.252,15.252,0,0,0-1.6,7.3v1.223c0,.283-.112.427-.332.427-.259,0-.387-.144-.387-.427V37.78c0-.249.147-.374.443-.374H436.96c.293,0,.441.125.441.374Z" transform="translate(-220.351 -36.716)"/><path class="a" d="M486.364,74.372c0,.214-.147.321-.441.321H475.48c-.294,0-.444-.107-.444-.321,0-.176.15-.263.444-.263h1.659a.7.7,0,0,0,.772-.8,7.762,7.762,0,0,0-.275-1.652l-2.818-10.973c-.037-.211-.185-.318-.442-.318h-8.012c-.221,0-.333.107-.333.318L465.2,64.3a27.591,27.591,0,0,0-.828,5.808q0,4,2.707,4h1c.293,0,.442.087.442.263,0,.214-.149.321-.442.321h-8.511c-.294,0-.443-.107-.443-.321,0-.176.149-.263.443-.263h.166q1.161,0,2.045-1.71a41.325,41.325,0,0,0,2.652-8.429l6.463-26.877c0-.216.148-.322.443-.322h2.486a.432.432,0,0,1,.443.322L483.6,71.655c.443,1.632.976,2.454,1.6,2.454h.72C486.217,74.109,486.364,74.2,486.364,74.372ZM474.432,59.406l-4.2-16.671h-.111l-3.813,16.776c-.076.214.055.321.386.321h7.35C474.3,59.833,474.432,59.691,474.432,59.406Z" transform="translate(-244.088 -36.399)"/><path class="a" d="M542.691,55.944q0,8.465-3.15,13.529a10.907,10.907,0,0,1-9.832,5.536H517.056c-.3,0-.443-.107-.443-.321,0-.176.146-.263.443-.263h1.934q.55,0,.552-2.131V40.124q0-2.133-.552-2.132h-1.934c-.3,0-.443-.087-.443-.265,0-.214.146-.321.443-.321h12.653A11.009,11.009,0,0,1,539.487,43Q542.694,48.113,542.691,55.944Zm-7.017,7.773a132.3,132.3,0,0,0,0-15.339,22.829,22.829,0,0,0-1.159-6.977,4.811,4.811,0,0,0-4.807-3.356h-4.034c-.331,0-.5.089-.5.266V74.1c0,.18.146.266.441.266h4.144a4.887,4.887,0,0,0,4.919-3.462A31.179,31.179,0,0,0,535.674,63.717Z" transform="translate(-272.735 -36.716)"/><path class="a" d="M600.842,55.418q0,8.468-3.093,13.739-3.481,5.862-9.778,5.861-6.079,0-9.615-5.806-3.261-5.327-3.259-13.474,0-8.473,3.148-13.74,3.425-5.859,9.725-5.86,6.076,0,9.613,5.8Q600.842,47.271,600.842,55.418Zm-7.015,7.831a140.429,140.429,0,0,0,0-15.715,32.088,32.088,0,0,0-.883-6.82q-1.329-4.044-4.864-4.046-3.979,0-5.192,4.1a36.837,36.837,0,0,0-.83,7.138,138.515,138.515,0,0,0,0,15.658,30.28,30.28,0,0,0,.94,6.873q1.324,4.042,4.862,4.045,3.979,0,5.194-4.1A35.7,35.7,0,0,0,593.827,63.249Z" transform="translate(-301.878 -36.083)"/><path class="a" d="M659.329,72.344c.22.039.291.235.218.586q-.656,2.719-3.77,2.72a5.623,5.623,0,0,1-4.287-1.7,6.1,6.1,0,0,1-1.612-4.37V62.121q-.056-6.552-4.8-6.552H641.7c-.369,0-.552.105-.552.319V72.294q0,2.13.552,2.131h1.933c.294,0,.443.087.443.263,0,.214-.149.321-.443.321H633.027c-.3,0-.441-.107-.441-.321,0-.176.144-.263.441-.263h1.932q.554,0,.554-2.131V40.124q0-2.133-.554-2.132h-1.932c-.3,0-.441-.087-.441-.265,0-.214.144-.321.441-.321H645.9a9.749,9.749,0,0,1,6.353,2.024,8.572,8.572,0,0,1,3.038,7.086,8.361,8.361,0,0,1-2.32,5.83,8.806,8.806,0,0,1-5.689,2.906V55.3a9.2,9.2,0,0,1,5.8,2.985,10.98,10.98,0,0,1,2.377,7.4v6.336q0,2.717,1.471,2.717,1.363,0,1.908-1.917C658.985,72.471,659.147,72.311,659.329,72.344Zm-9.672-25.72q0-8.577-4.256-8.578h-3.756c-.33,0-.5.108-.5.322V54.719c0,.212.145.32.441.32h3.867a3.36,3.36,0,0,0,3.207-1.918Q649.655,51.2,649.658,46.624Z" transform="translate(-330.525 -36.716)"/></g><rect class="b" width="333.496" height="5.8"/></svg>