<svg xmlns="http://www.w3.org/2000/svg" width="110.817" height="84.176" viewBox="0 0 110.817 84.176"><defs><style>.a{fill:#fff;}.b{fill:#d60028;}.c{fill:none;stroke:#d60028;stroke-miterlimit:10;stroke-width:2px;}.d{fill:#f5f5f5;}</style></defs><ellipse class="a" cx="41.263" cy="42.088" rx="41.263" ry="42.088" transform="translate(13.204 0)"/><g transform="translate(0 4.45)"><g transform="translate(99.85 12.215)"><path class="b" d="M3155.612,1753.608s8.2-1.561,8.042,4.859-2.5,5.01-7.984,5.323-1.726-5.8-1.726-5.8l.473-3.75Z" transform="translate(-3152.689 -1753.441)"/></g><g transform="translate(20.625 9.948)"><path d="M1850.838,1741.159c5.068,1.011,10.138-.134,15.208-.417,5.116-.287,10.236-.268,15.353-.188,10.3.161,20.589.813,30.882,1.458,5.715.358,11.43.678,17.145,1,.391.022.391-1.543,0-1.566-10.208-.582-20.416-1.26-30.624-1.811-10.292-.556-20.588-.9-30.883-.541-5.688.2-11.4,1.628-17.08.495-.39-.078-.389,1.489,0,1.566Z" transform="translate(-1850.546 -1738.95)"/></g><g transform="translate(19.238 18.411)"><g transform="translate(0)"><path d="M1841.987,1794.785l31.153-.144c10.362-.048,20.729-.345,31.09.151a107.872,107.872,0,0,1,17.375,2.106c.393.083.391-1.483,0-1.566-10.307-2.195-20.656-2.364-30.992-2.336-10.38.028-20.76.094-31.141.142l-17.484.081c-.394,0-.4,1.567,0,1.565Z" transform="translate(-1841.691 -1792.995)"/></g></g><g transform="translate(18.323 10.761)"><g transform="translate(0 0)"><path d="M1838.882,1744.386l-2.809,2.648a.788.788,0,0,0,.158,1.23l2.967,1.345v-1.352a3.878,3.878,0,0,0-2.022,4.507.784.784,0,0,0,1.51-.417,2.316,2.316,0,0,1,1.3-2.738.787.787,0,0,0,0-1.352l-2.967-1.345.158,1.229,2.809-2.649c.735-.693-.374-1.8-1.107-1.107Z" transform="translate(-1835.849 -1744.167)"/></g></g><g transform="translate(98.177 12.472)"><g transform="translate(0)"><path d="M3142.694,1756.2a8.212,8.212,0,0,1,1.614,3.51,5.862,5.862,0,0,1,.1,1.8c-.068.51-.477,1.58-1.2,1.263-.916-.4-1.713.951-.791,1.352,2.03.882,3.489-.969,3.578-2.86a9.147,9.147,0,0,0-1.944-5.857c-.606-.787-1.967-.009-1.352.79Z" transform="translate(-3142.003 -1755.085)"/></g></g><g transform="translate(19.322 10.507)"><path d="M1843.283,1743.012l-1.058,3.131,1,1.566a6.784,6.784,0,0,0-.56,3.132c.249,1.252,8.213.626,8.213.626h30.547l28.867.157s8.9,1.879,12.132,2.036c0,0,1.928,1.253,1.991-3.132,0,0,.187-5.636-1.8-5.636l-22.4-.939-20.718-1.1-10.39-.313-20.282.783Z" transform="translate(-1842.225 -1742.542)"/></g><g transform="translate(29.319 0)"><g transform="translate(5.552 38.314)"><path d="M1981.758,1958.41a13.963,13.963,0,0,0-.374-6.718c-.339-.988-.844-1.912-1.166-2.914a26.569,26.569,0,0,1-.771-3.025,64.808,64.808,0,0,1-.717-12.489l-.16.593c.566-1.049,1.194-2.059,1.813-3.077a34.346,34.346,0,0,1,1.8-3.071c.684-.9,1.071-1.965,1.725-2.869.68-.94,1.142-2.017,1.783-2.984.838-1.263-1.2-2.44-2.028-1.186-.687,1.035-1.21,2.155-1.935,3.164a14.487,14.487,0,0,0-.874,1.572c-.289.541-.652.971-.978,1.489-.692,1.1-1.276,2.292-1.957,3.409-.333.547-.667,1.094-.984,1.65a3.412,3.412,0,0,0-.556,1.85c0,5.083-.034,10.3,1.45,15.209.423,1.4,1.178,2.714,1.49,4.135a12.053,12.053,0,0,1,.171,4.637c-.256,1.478,2.006,2.113,2.265.624Z" transform="translate(-1976.381 -1920.134)"/></g><g transform="translate(26.407 21.775)"><path d="M2111.891,1835.944q1.324-4.917,2.515-9.867c.813-3.37,1.861-6.7,2.556-10.092l-1.132.862c2.022.017,4.017.375,6.032.513l-.593-.16-.165-.165-.16-.593a73.879,73.879,0,0,1-.329,20.642,57.2,57.2,0,0,1-2.635,9.991c-.565,1.548-1.077,3.086-1.768,4.58-.354.768-.726,1.528-1.133,2.27a18.478,18.478,0,0,0-1.252,2.261,53.034,53.034,0,0,0-2.749,11.558,1.215,1.215,0,0,0,.82,1.444,1.18,1.18,0,0,0,1.444-.82c.277-2.02.631-4.029,1.1-6.014q.35-1.489.787-2.954a14.51,14.51,0,0,1,1.006-2.817c.96-1.745,1.893-3.449,2.7-5.278.381-.865.617-1.767.959-2.653q.549-1.419,1.017-2.867a66.6,66.6,0,0,0,2.836-23.988q-.088-1.667-.24-3.328c-.09-.989.065-2.6-.87-3.218a3.532,3.532,0,0,0-1.643-.309c-.573-.053-1.145-.122-1.717-.187a32.609,32.609,0,0,0-3.442-.258,1.187,1.187,0,0,0-1.133.862c-.694,3.4-1.742,6.722-2.556,10.092q-1.194,4.949-2.514,9.867a1.175,1.175,0,0,0,2.265.625Z" transform="translate(-2109.581 -1814.499)"/></g><g transform="translate(21.622 1.451)"><path d="M2094.867,1705.919c-.049-.073.125.35.064.149-.021-.067-.021.331.015.1.027-.164,0-.352.017-.519.007-.09.019-.179.028-.269.032-.326-.018.089.016-.123.046-.289.094-.577.147-.865.271-1.458.621-2.9.979-4.343.763-3.06,1.606-6.1,2.475-9.133q.3-1.035.6-2.069a1.184,1.184,0,0,0-.54-1.326l-5.9-2.7a1.2,1.2,0,0,0-1.725.7L2087,1696.212l-6.431,17.01-1.468,3.884c-.535,1.415,1.735,2.027,2.265.624l4.038-10.681,6.43-17.01,1.469-3.884-1.725.7,5.9,2.7-.54-1.326a154.588,154.588,0,0,0-4.065,15.6c-.167.9-.612,2.421-.042,3.278.833,1.253,2.868.078,2.028-1.185Z" transform="translate(-2079.022 -1684.689)"/></g><g transform="translate(15.759 32.726)"><path d="M2053.712,1884.766c-4.1-1.1-8.618.788-11.8,3.254a1.182,1.182,0,0,0,0,1.66,1.2,1.2,0,0,0,1.661,0,12.955,12.955,0,0,1,6.738-2.784,12,12,0,0,1,2.2.023c.247.025-.208-.042.122.018l.249.045c.069.012.138.029.205.047a1.175,1.175,0,0,0,.625-2.265Z" transform="translate(-2041.574 -1884.444)"/></g><g transform="translate(16.782)"><path d="M2061.568,1692.329l-3.7-14.04-.523-1.988a1.18,1.18,0,0,0-1.445-.821l-6.931,2.824a1.213,1.213,0,0,0-.862,1.132l.564,9.462.9,15.072.206,3.448c.089,1.5,2.438,1.512,2.348,0l-.564-9.461-.9-15.073-.206-3.447-.862,1.132,6.932-2.824-1.445-.82,3.7,14.041.523,1.988a1.176,1.176,0,0,0,2.265-.624Z" transform="translate(-2048.109 -1675.419)"/></g><g transform="translate(2.935 25.174)"><path d="M1975.458,1836.209l-7.119.454-4.165.266c-.256.016-.515.024-.771.049-.73.072-.988.514-1.287,1.082l-2.065,3.923a1.882,1.882,0,0,0-.352,1.377c.051.216.141.43.209.641l2.619,7.989,2.3,7.014a1.19,1.19,0,0,0,2.146.28q1.837-3.215,3.655-6.441c.406-.724,1.289-1.823,1.079-2.706a29.517,29.517,0,0,0-1.222-3.34q-.666-1.783-1.339-3.565c-.529-1.4-2.8-.794-2.265.625q.644,1.707,1.284,3.417.434,1.159.862,2.32a6.967,6.967,0,0,1,.422,1.194v-.624c.1-.442.018-.071-.106.157-.173.319-.35.635-.527.952q-.793,1.42-1.6,2.833-1.133,2-2.272,3.991l2.146.281-4.49-13.695-.644-1.965-.118.9,2.567-4.877-1.014.581,12.065-.77c1.5-.1,1.511-2.446,0-2.348Z" transform="translate(-1959.665 -1836.206)"/></g><g transform="translate(0 31.669)"><path d="M1944.267,1878.236l-2.18,3.451c-.329.52-.7,1.032-.994,1.573a1.765,1.765,0,0,0-.111,1.258,43.633,43.633,0,0,0,2.708,9.479c.674,1.569,1.634,3.565,3.3,4.289a1.215,1.215,0,0,0,1.607-.421,1.182,1.182,0,0,0-.421-1.607,2.256,2.256,0,0,1-1.072-.889,11.4,11.4,0,0,1-.9-1.5,25.7,25.7,0,0,1-1.618-4.346,53.183,53.183,0,0,1-1.39-5.908l-.118.9,3.219-5.093c.81-1.281-1.222-2.461-2.029-1.185Z" transform="translate(-1940.92 -1877.688)"/></g></g><g transform="translate(50.243 10.667)"><path class="c" d="M2039.725,1743.542" transform="translate(-2039.725 -1743.542)"/></g><g transform="translate(97.703 10.66)"><path d="M3139.406,1754.943s1.252-8.768,0-10.177,4.071-1.253,4.071-1.253,2.818,3.131.626,10.8c0,0,.782,2.975-4.072,2.5C3140.031,1756.822,3138.153,1757.605,3139.406,1754.943Z" transform="translate(-3138.975 -1743.509)"/></g><g transform="translate(13.137 10.587)"><path d="M1810.162,1743.042l-5.558,3.366,2.74.7-3.053.7s3.209,2.113,3.053,2.113-4.619-.861-4.619-.861l6.811,3.523h6.419v-4.7l.861-4.344Z" transform="translate(-1802.725 -1743.042)"/></g><g transform="translate(0 10.528)"><g transform="translate(0)"><path d="M1738.9,1750.974,1722.171,1748l-2.375-.423v1.51l17.4-4.286,2.481-.611-.762-.2a13.444,13.444,0,0,1,2.595,3.415,2.9,2.9,0,0,1,.4,2.256c-.488,1.094-2.223,1.219-3.228,1.29s-1.007,1.637,0,1.566c1.567-.111,3.534-.4,4.457-1.851a3.753,3.753,0,0,0-.032-3.521,12.86,12.86,0,0,0-2.026-3.1c-.443-.529-1.044-1.47-1.824-1.364a13.6,13.6,0,0,0-1.363.336l-3.437.846-9.2,2.266-5.886,1.449a.789.789,0,0,0,0,1.51l16.726,2.978,2.375.423C1739.466,1752.659,1739.889,1751.151,1738.9,1750.974Z" transform="translate(-1718.82 -1742.668)"/></g></g><g transform="translate(0.047 13.797)"><path class="b" d="M1719.53,1766.673l6.889,1.1s2.505-2.192,0-4.228l-6.106,1.566S1718.278,1765.264,1719.53,1766.673Z" transform="translate(-1719.123 -1763.542)"/></g><path class="d" d="M6549.308-22377.736l-3.563,11.508h5.466l3.021-11.508Z" transform="translate(-6486.604 22387.002)"/></g></svg>