<svg xmlns="http://www.w3.org/2000/svg" xmlns:xlink="http://www.w3.org/1999/xlink" width="156.714" height="148.684" viewBox="0 0 156.714 148.684"><defs><style>.a{fill:#fff;}.b{opacity:0.84;fill:url(#a);}</style><linearGradient id="a" x1="0.501" y1="0.043" x2="0.474" y2="1.317" gradientUnits="objectBoundingBox"><stop offset="0" stop-color="#fff"/><stop offset="1" stop-color="#e41b17"/></linearGradient></defs><path d="M9754.773-1518.533H9598.94a.441.441,0,0,1-.44-.441.44.44,0,0,1,.44-.441h155.833a.441.441,0,0,1,.44.441A.441.441,0,0,1,9754.773-1518.533Z" transform="translate(-9598.5 1653.441)"/><g transform="translate(35.251 85.168)"><g transform="translate(0 10.298)"><path class="a" d="M9897.582-1814.443s-6.275-3-7.42-3.639-4.162.743-4.162.743l15.223,17.059a4.761,4.761,0,0,0,3.213-1.951C9905.642-1803.993,9897.582-1814.443,9897.582-1814.443Z" transform="translate(-9885.056 1819.19)"/><path d="M9894.668-1805.851a.939.939,0,0,1-.7-.315l-15.22-17.059a.947.947,0,0,1-.224-.822.958.958,0,0,1,.532-.665c.813-.372,3.57-1.522,5.023-.708,1.1.619,7.3,3.58,7.359,3.61a.938.938,0,0,1,.341.276c.022.026,2.055,2.673,3.918,5.5,3.584,5.445,3.545,6.975,2.967,7.819a5.727,5.727,0,0,1-3.906,2.359C9894.727-1805.853,9894.7-1805.851,9894.668-1805.851Zm-13.61-17.616,13.953,15.638a3.777,3.777,0,0,0,2.051-1.392c.016-.238-.106-1.516-3.175-6.119-1.477-2.223-3.013-4.264-3.471-4.865-1.111-.532-6.217-2.979-7.269-3.57A4.028,4.028,0,0,0,9881.058-1823.467Z" transform="translate(-9878.502 1825.706)"/></g><g transform="translate(19.678 10.461)"><path class="a" d="M10042.3-1807.132l9.153-9.772a6.212,6.212,0,0,1,.63,6.157,77.978,77.978,0,0,1-5.792,9.694Z" transform="translate(-10041.355 1817.848)"/><path d="M10039.74-1806.665h-.015a.941.941,0,0,1-.776-.426l-3.99-6.079a.936.936,0,0,1,.1-1.164l9.154-9.772a.932.932,0,0,1,.721-.3.942.942,0,0,1,.7.348,7.118,7.118,0,0,1,.768,7.124,77.594,77.594,0,0,1-5.886,9.861A.943.943,0,0,1,10039.74-1806.665Zm-2.8-6.92,2.8,4.274a65.5,65.5,0,0,0,4.911-8.364,5.267,5.267,0,0,0,.054-4.208Z" transform="translate(-10034.801 1824.405)"/></g><g transform="translate(15.221 4.669)"><path class="a" d="M10006.9-1850.114l.641-12.469s3.4-1.259,4.659,2.141,1.888,12.463,1.888,12.463l6.421,6.673s-6.026,1.007-9.623,0S10006.9-1850.114,10006.9-1850.114Z" transform="translate(-10005.96 1863.769)"/><path d="M10008.447-1846.563a16.82,16.82,0,0,1-4.367-.483c-4.13-1.157-4.631-8.8-4.674-9.67a.778.778,0,0,1,0-.1l.642-12.469a.939.939,0,0,1,.616-.837,4.4,4.4,0,0,1,5.869,2.7c1.167,3.144,1.79,10.66,1.92,12.383l6.187,6.427a.946.946,0,0,1,.214.951.941.941,0,0,1-.741.634A38.26,38.26,0,0,1,10008.447-1846.563Zm-7.153-10.2c.1,1.891.919,7.234,3.3,7.9a22.553,22.553,0,0,0,7.387.213l-5.121-5.322a.933.933,0,0,1-.259-.589c0-.089-.635-8.968-1.834-12.2a2.355,2.355,0,0,0-1.966-1.728,3.36,3.36,0,0,0-.9.014Zm-.947,0h0Z" transform="translate(-9999.404 1870.417)"/></g><g transform="translate(9.025 0)"><path class="a" d="M10000.153-1889.047s-15.358-4.532-17.5-7.05-1.006-3.9-1.006-3.9l26.062,2.266s12.59,1.133,13.6,11.96-3.148,17.374-9.691,19.388-39.533.756-39.533.756a9.522,9.522,0,0,1-7.43-4.029c-3.021-4.155-7.424-12.337-6.925-16.744a40.778,40.778,0,0,0-.036-8.664,6.165,6.165,0,0,1,5.451,5.517,13.154,13.154,0,0,0,4.411,8.938c1.632,1.637,4.528,5.414,4.528,5.414l27.446-6.3S10004.81-1883.256,10000.153-1889.047Z" transform="translate(-9956.741 1900.944)"/><path d="M9985.769-1870.85c-9.707,0-19.345-.356-20.256-.391a10.439,10.439,0,0,1-8.182-4.417c-3.036-4.175-7.648-12.593-7.1-17.407a40.38,40.38,0,0,0-.039-8.437.935.935,0,0,1,.259-.777.943.943,0,0,1,.768-.282,7.969,7.969,0,0,1,2.92.992,6.7,6.7,0,0,1,3.383,5.371,12.175,12.175,0,0,0,4.136,8.365c1.324,1.326,3.395,3.944,4.239,5.026l26.8-6.147a3.043,3.043,0,0,0,1.787-1.764c.3-1.046-.2-2.447-1.444-4.063-.975-.293-4.264-1.3-7.705-2.509-8.456-2.98-9.587-4.311-9.958-4.749-2.621-3.083-1.084-5.031-1.017-5.112a.943.943,0,0,1,.81-.343l26.061,2.266a20.853,20.853,0,0,1,6.761,2.016c4.591,2.3,7.254,6.029,7.7,10.8.5,5.4-.212,9.954-2.126,13.532a13.768,13.768,0,0,1-8.233,6.847C10002.308-1871.108,9994.014-1870.85,9985.769-1870.85Zm-20.245-2.28h.035c.328.012,32.9,1.231,39.219-.714,6.639-2.042,9.929-8.748,9.032-18.4-.384-4.126-2.606-7.24-6.609-9.259a19.291,19.291,0,0,0-6.134-1.849l-25.331-2.2a3.512,3.512,0,0,0,1.082,2.288c1.43,1.678,11.215,5.034,17.046,6.756a.95.95,0,0,1,.471.313c1.812,2.253,2.472,4.278,1.961,6.019a4.967,4.967,0,0,1-3.027,3.022c-.03.01-.058.018-.088.025l-27.446,6.295a.945.945,0,0,1-.96-.346c-.029-.037-2.874-3.747-4.45-5.32a14.15,14.15,0,0,1-4.678-9.512,4.832,4.832,0,0,0-2.446-3.923,6.093,6.093,0,0,0-1-.458,41.129,41.129,0,0,1-.09,7.542c-.46,4.009,3.757,11.966,6.749,16.082a8.517,8.517,0,0,0,6.643,3.64Z" transform="translate(-9950.188 1907.5)"/></g><ellipse cx="33.614" cy="2.329" rx="33.614" ry="2.329" transform="translate(6.484 58.857)"/></g><g transform="translate(42.615 63.199)"><path class="a" d="M9944.5-2069.842v-4.658l34.369,4.029v5.665Z" transform="translate(-9943.557 2075.444)"/><path d="M9972.313-2070.418a.972.972,0,0,1-.133-.009l-34.371-5.036a.945.945,0,0,1-.809-.934v-4.658a.932.932,0,0,1,.316-.706.942.942,0,0,1,.738-.232l34.367,4.029a.946.946,0,0,1,.836.938v5.665a.94.94,0,0,1-.328.714A.933.933,0,0,1,9972.313-2070.418Zm-33.424-6.8,32.48,4.76v-3.733l-32.48-3.807Z" transform="translate(-9937 2082)"/></g><g transform="translate(76.985 46.078)"><path class="a" d="M10243.182-2210.5v4.658l-25.681,22.157v-5.665Z" transform="translate(-10216.557 2211.445)"/><path d="M10210.945-2189.3a.946.946,0,0,1-.393-.085.944.944,0,0,1-.553-.858v-5.666a.941.941,0,0,1,.346-.729l25.684-21.151a.94.94,0,0,1,1-.125.942.942,0,0,1,.541.854v4.658a.95.95,0,0,1-.325.716l-25.684,22.157A.949.949,0,0,1,10210.945-2189.3Zm.942-6.164v3.158l23.795-20.528v-2.225Z" transform="translate(-10210 2218)"/></g><g transform="translate(42.615 44.316)"><path class="a" d="M9974.967-2224.5l29.588,1.762-25.685,21.151-34.369-4.029Z" transform="translate(-9943.557 2225.444)"/><path d="M9972.312-2207.2a.838.838,0,0,1-.105-.006l-34.374-4.029a.944.944,0,0,1-.812-.733.947.947,0,0,1,.425-1.007l30.469-18.885a.939.939,0,0,1,.553-.14l29.585,1.762a.941.941,0,0,1,.841.651.938.938,0,0,1-.3,1.021l-25.682,21.15A.94.94,0,0,1,9972.312-2207.2Zm-31.573-5.6,31.286,3.667,23.514-19.367-26.883-1.6Z" transform="translate(-9936.998 2232)"/></g><g transform="translate(62.129 61.689)"><ellipse class="a" cx="2.329" cy="1.133" rx="2.329" ry="1.133" transform="translate(0.629 0.629)"/><path d="M10094.959-2090.475c-1.717,0-2.959-.741-2.959-1.762s1.242-1.763,2.959-1.763,2.957.742,2.957,1.763S10096.672-2090.475,10094.959-2090.475Zm-1.693-1.762a2.309,2.309,0,0,0,1.693.5,2.309,2.309,0,0,0,1.693-.5,2.307,2.307,0,0,0-1.693-.5A2.307,2.307,0,0,0,10093.266-2092.238Zm3.395.016Z" transform="translate(-10092 2094)"/></g><path class="b" d="M9761.039-2584l-23.04,5.287,27.912,57.67,32.457,5.215,25.681-21.151,36.24-41.734-99.25-5.287" transform="translate(-9720.437 2584)"/></svg>