<svg xmlns="http://www.w3.org/2000/svg" width="171.844" height="34" viewBox="0 0 171.844 34"><defs><style>.a,.b{fill:#fff;}.a{font-size:28px;font-family:LFTEtica-Bold, LFT Etica;font-weight:700;}</style></defs><text class="a" transform="translate(53.844 26)"><tspan x="0" y="0">Historias</tspan></text><g transform="translate(-264.729 -540.363)"><path class="b" d="M294.76,544.457h-8.117a1.064,1.064,0,0,0,.021-.213v-2.711a1.169,1.169,0,0,0-1.169-1.169H280.08a1.168,1.168,0,0,0-1.169,1.169v2.711a1.184,1.184,0,0,0,.02.213h-8.389a5.813,5.813,0,0,0-5.813,5.813v13.483a5.813,5.813,0,0,0,5.813,5.813H294.76a5.813,5.813,0,0,0,5.813-5.813V550.27A5.813,5.813,0,0,0,294.76,544.457Zm-11.972,20.47a8.666,8.666,0,1,1,8.665-8.667A8.667,8.667,0,0,1,282.788,564.927Zm15.252-15.884a.6.6,0,0,1-.6.6h-4.692a.6.6,0,0,1-.6-.6v-1.393a.6.6,0,0,1,.6-.6h4.692a.6.6,0,0,1,.6.6Z"/><circle class="b" cx="5.334" cy="5.334" r="5.334" transform="translate(277.453 550.926)"/></g></svg>